<svg width="254" height="95" viewBox="0 0 254 95" fill="none" xmlns="http://www.w3.org/2000/svg">
<g clip-path="url(#clip0_428_784)">
<path d="M199.702 82.764C200.693 82.7532 201.657 83.0858 202.431 83.7045C203.212 84.3036 203.75 85.166 203.943 86.1312C204.048 86.6736 204.096 87.2254 204.088 87.7777V91.6429H203.338V87.725C203.338 86.5053 203.051 85.5135 202.475 84.7435C202.162 84.3198 201.749 83.9803 201.273 83.7543C200.798 83.5282 200.274 83.4226 199.748 83.4476C199.256 83.4337 198.766 83.5276 198.313 83.722C197.861 83.9164 197.457 84.207 197.128 84.5736C196.492 85.3263 196.143 86.2803 196.143 87.266C196.143 88.2516 196.492 89.2057 197.128 89.9584C197.459 90.3242 197.866 90.6134 198.32 90.806C198.774 90.9985 199.265 91.0899 199.758 91.0736C200.896 91.0736 201.898 90.5897 202.764 89.6224V90.6263C201.953 91.3944 200.875 91.817 199.758 91.805C199.171 91.8219 198.587 91.7147 198.044 91.4906C197.501 91.2664 197.012 90.9304 196.607 90.5043C196.195 90.0797 195.872 89.5769 195.657 89.0257C195.442 88.4748 195.339 87.8865 195.354 87.2953C195.331 86.7056 195.424 86.1166 195.628 85.5629C195.832 85.0092 196.143 84.501 196.544 84.0677C196.948 83.6393 197.438 83.3012 197.982 83.0765C198.527 82.8518 199.113 82.7451 199.702 82.764ZM42.2207 82.7757C43.2115 82.7649 44.1753 83.0974 44.9492 83.7162C45.7304 84.3153 46.2674 85.1777 46.4609 86.1429C46.5655 86.6853 46.6148 87.2371 46.6064 87.7894V91.641H45.8389V87.723C45.8388 86.5034 45.5514 85.5124 44.9746 84.7425C44.3326 83.8787 43.4232 83.4467 42.2461 83.4466C41.7543 83.4328 41.2654 83.5267 40.8135 83.7211C40.3615 83.9155 39.9571 84.206 39.6289 84.5726C38.9926 85.3252 38.6427 86.2785 38.6426 87.264C38.6426 88.2497 38.9925 89.2037 39.6289 89.9564C39.9595 90.3221 40.3656 90.6114 40.8193 90.8041C41.273 90.9967 41.7632 91.0887 42.2559 91.0726C43.3976 91.0726 44.4007 90.5887 45.2646 89.6215V90.6254C44.453 91.3941 43.3737 91.8167 42.2559 91.8041C41.6688 91.8204 41.0848 91.7128 40.542 91.4886C39.9993 91.2645 39.5099 90.9289 39.1055 90.5033C38.3084 89.6258 37.8625 88.4846 37.8545 87.2992C37.8466 86.114 38.2766 84.9674 39.0615 84.0795C39.4654 83.6507 39.9565 83.313 40.501 83.0882C41.0455 82.8635 41.6319 82.7567 42.2207 82.7757ZM94.5908 79.4232H89.6406C88.7158 79.4232 88.253 79.7664 88.2529 80.4574C88.2529 80.7961 88.4571 81.2071 88.8652 81.6898L95.1572 89.1859C95.6948 88.4042 95.9805 87.4764 95.9756 86.5277C95.9873 85.8424 95.8427 85.1634 95.5527 84.5424C95.2626 83.9211 94.8341 83.3738 94.3008 82.9427L94.7402 82.4095C95.3761 82.8925 95.8895 83.5184 96.2383 84.2367C96.5869 84.9549 96.7617 85.7451 96.748 86.5433C96.7389 87.7004 96.3591 88.8245 95.665 89.7504L97.2666 91.6283H96.3184L95.1924 90.2787C94.7001 90.7679 94.1155 91.1547 93.4727 91.4164C92.8298 91.678 92.1413 91.8095 91.4473 91.8031C90.7366 91.8111 90.0313 91.6823 89.3691 91.4242C88.3995 91.049 87.5766 90.3709 87.0234 89.4906C86.4439 88.6152 86.1354 87.5883 86.1367 86.5384C86.1367 84.7971 86.887 83.3716 88.3877 82.2621L87.9561 81.6918C87.8509 81.5536 87.7879 81.4679 87.7676 81.431C87.5694 81.1438 87.4567 80.806 87.4424 80.4574C87.4347 80.2013 87.4921 79.9473 87.6084 79.7191C87.7247 79.491 87.8967 79.2959 88.1084 79.1517C88.5368 78.8654 89.0445 78.7207 89.5596 78.7377H94.5908V79.4232ZM227.638 82.7552C229.242 82.7552 230.479 83.483 231.348 84.9379L225.28 88.9857L224.927 88.4017L230.312 84.7982C230.013 84.3632 229.609 84.0094 229.14 83.7689C228.67 83.5286 228.148 83.4092 227.62 83.4213C227.127 83.4114 226.637 83.5092 226.186 83.7074C225.734 83.9057 225.33 84.1999 225.003 84.5697C224.347 85.3103 223.985 86.2653 223.985 87.2543C223.985 88.2433 224.347 89.1982 225.003 89.9388C225.329 90.3041 225.73 90.5948 226.179 90.7904C226.627 90.986 227.113 91.0825 227.603 91.0726C228.079 91.0869 228.553 90.9978 228.991 90.8119C229.43 90.6259 229.823 90.3466 230.144 89.9945C230.784 89.2741 231.153 88.353 231.188 87.39H231.978C231.946 88.5537 231.487 89.6653 230.689 90.5131C230.292 90.931 229.81 91.2609 229.276 91.4799C228.743 91.6987 228.168 91.8019 227.592 91.7836C227.008 91.7936 226.428 91.681 225.89 91.4525C225.352 91.224 224.868 90.8849 224.47 90.4574C223.646 89.5991 223.186 88.4556 223.186 87.266C223.186 86.0764 223.646 84.9329 224.47 84.0746C224.877 83.647 225.37 83.3084 225.915 83.0814C226.46 82.8545 227.047 82.7433 227.638 82.7552ZM122.601 79.4457H119.135C117.102 79.4457 116.085 80.1602 116.085 81.5882C116.064 82.1265 116.246 82.6537 116.594 83.0648C116.904 83.4305 117.608 83.8294 118.707 84.2611L119.978 84.7689C121.089 85.2094 121.867 85.6157 122.311 85.9867C122.652 86.269 122.925 86.6258 123.107 87.0297C123.29 87.4335 123.377 87.8739 123.362 88.3168C123.362 89.4754 122.948 90.3394 122.12 90.9086C121.424 91.3981 120.47 91.6429 119.259 91.6429H115.279V90.8802H118.329C119.559 90.8802 120.477 90.7564 121.083 90.5091C121.518 90.361 121.892 90.0738 122.147 89.6918C122.403 89.3097 122.526 88.8544 122.496 88.3959C122.514 87.8277 122.315 87.2733 121.938 86.848C121.585 86.4516 120.598 85.9339 118.977 85.2953C117.356 84.6567 116.339 84.0994 115.928 83.6234C115.475 83.0728 115.243 82.3734 115.277 81.6615C115.277 79.7305 116.632 78.7638 119.343 78.7621H122.601V79.4457ZM55.627 91.642H54.8643V82.9232H55.627V91.642ZM146.257 91.642H145.495V82.9232H146.257V91.642ZM187.452 78.7328C187.674 78.7283 187.896 78.7381 188.117 78.7611V79.4447H187.345C185.449 79.4448 183.952 79.9175 182.853 80.8627C181.694 81.879 181.114 83.3146 181.114 85.1693C181.114 87.0242 181.708 88.4647 182.894 89.4896C183.996 90.4381 185.502 90.9112 187.411 90.9095H188.12V91.642H187.473C185.306 91.642 183.588 91.1161 182.321 90.0658C180.955 88.9411 180.27 87.3151 180.269 85.1879C180.267 83.0603 180.944 81.431 182.301 80.3011C183.561 79.2559 185.279 78.7328 187.452 78.7328ZM67.8135 82.8871C67.9836 82.8906 68.1533 82.9061 68.3213 82.933V83.6625H68.2959C68.2222 83.6625 68.1202 83.6617 67.9883 83.6439C67.8564 83.6262 67.7595 83.6263 67.7012 83.6263C67.2819 83.6135 66.8653 83.7005 66.4863 83.8802C66.1074 84.0601 65.7768 84.3277 65.5215 84.6605C65.0026 85.3357 64.7329 86.1697 64.7588 87.0209V91.641H64.0244V82.9252H64.7646V84.6254C65.0627 84.0824 65.5049 83.6323 66.043 83.3256C66.5812 83.0188 67.1943 82.8669 67.8135 82.8871ZM132.119 86.5257H132.965C133.487 86.5468 134.003 86.405 134.441 86.1195C134.849 85.7929 135.2 85.4005 135.479 84.9584L136.87 82.9252H137.727L136.304 85.1205C135.969 85.7014 135.507 86.2003 134.954 86.5795C136.628 86.7946 137.465 87.7093 137.465 89.3236V91.641H136.729V89.6088C136.729 88.0181 135.99 87.222 134.515 87.222H132.119V91.641H131.356V78.7377H132.119V86.5257ZM158.067 82.7679C159.196 82.7679 160.078 83.1492 160.713 83.9115C161.307 84.6263 161.604 85.558 161.604 86.7064V91.641H160.868V86.4828C160.899 85.7014 160.634 84.9373 160.128 84.3412C159.862 84.0625 159.543 83.8404 159.188 83.6888C158.834 83.5372 158.453 83.4584 158.067 83.4584C157.682 83.4584 157.301 83.5374 156.947 83.6888C156.593 83.8404 156.273 84.0624 156.007 84.3412C155.501 84.9373 155.237 85.7014 155.268 86.4828V91.641H154.53V86.7064C154.53 85.5528 154.827 84.6213 155.42 83.9115C156.057 83.1492 156.939 82.768 158.067 82.7679ZM216.152 82.8871C216.323 82.8906 216.493 82.9061 216.661 82.933V83.6625H216.636C216.562 83.6625 216.46 83.6617 216.328 83.6439C216.196 83.6262 216.102 83.6263 216.041 83.6263C215.622 83.6135 215.205 83.7005 214.826 83.8802C214.447 84.0601 214.116 84.3276 213.86 84.6605C213.342 85.3357 213.073 86.1697 213.099 87.0209V91.641H212.364V82.9252H213.104V84.6254C213.402 84.0823 213.845 83.6323 214.383 83.3256C214.921 83.0189 215.533 82.867 216.152 82.8871ZM22.2197 84.5082H29.1338V78.7377H29.9521V91.6283H29.1338V85.2299H22.2197V91.6283H21.4092V78.7377H22.2197V84.5082ZM88.8555 82.7699C87.5716 83.815 86.9298 85.0438 86.9297 86.4564C86.9196 87.0598 87.0292 87.6596 87.2529 88.2201C87.4767 88.7807 87.8104 89.2914 88.2334 89.722C88.6418 90.1602 89.1379 90.5078 89.6895 90.7416C90.241 90.9753 90.8356 91.0908 91.4346 91.0795C92.6204 91.0795 93.708 90.6112 94.6973 89.6761L88.8555 82.7699ZM55.2324 79.9457C55.6058 79.9457 55.7919 80.123 55.792 80.4759C55.8019 80.5511 55.7942 80.6279 55.7695 80.6996C55.7448 80.7713 55.7035 80.8368 55.6494 80.89C55.5953 80.9432 55.5292 80.9828 55.457 81.0062C55.3848 81.0297 55.3075 81.036 55.2324 81.0248C55.1591 81.0339 55.0844 81.0259 55.0146 81.0013C54.9449 80.9767 54.8815 80.9363 54.8301 80.8832C54.7787 80.83 54.74 80.7652 54.7178 80.6947C54.6956 80.6242 54.6906 80.549 54.7021 80.4759C54.6921 80.404 54.6987 80.3309 54.7217 80.2621C54.7448 80.193 54.7835 80.13 54.835 80.0785C54.8865 80.027 54.9495 79.9883 55.0186 79.9652C55.0874 79.9422 55.1605 79.9356 55.2324 79.9457ZM145.863 79.9457C146.237 79.9457 146.422 80.123 146.422 80.4759C146.432 80.5511 146.424 80.6279 146.399 80.6996C146.375 80.7714 146.333 80.8368 146.279 80.89C146.225 80.9432 146.159 80.9828 146.087 81.0062C146.015 81.0296 145.938 81.036 145.863 81.0248C145.79 81.034 145.715 81.0259 145.646 81.0013C145.576 80.9767 145.512 80.9364 145.461 80.8832C145.409 80.8299 145.371 80.7653 145.349 80.6947C145.326 80.6241 145.32 80.549 145.332 80.4759C145.322 80.4041 145.329 80.3309 145.352 80.2621C145.375 80.1931 145.413 80.1299 145.465 80.0785C145.516 80.027 145.579 79.9883 145.648 79.9652C145.717 79.9421 145.791 79.9355 145.863 79.9457ZM171.794 1.16344C172.188 -0.851162 173.987 -0.230565 176.078 2.88708C178.169 6.00465 178.014 9.84347 178.146 11.1498C178.279 12.4559 180.332 16.9694 180.96 18.931C181.588 20.893 183.62 25.8197 183.62 25.8197C183.62 25.8197 183.077 21.0877 183.315 18.7347C183.554 16.3819 185.015 15.5312 185.93 16.9261C186.844 18.321 186.761 20.521 186.477 22.0912C186.192 23.6614 185.427 25.9078 185.145 27.7601C184.862 29.6125 185.539 34.5832 185.734 36.1078C185.929 37.6263 186.709 42.6738 186.715 42.7142C187.206 41.2411 187.613 39.7413 187.935 38.222C188.349 36.1079 187.457 32.6897 187.238 31.3353C187.02 29.9807 187.284 26.8 187.828 25.4916C188.372 24.1829 189.747 24.1958 190.204 25.2504C190.661 26.3055 190.486 30.6425 190.247 31.6029C190.087 32.3993 190.007 33.2096 190.006 34.0218C190.158 33.6839 195.557 21.7079 196.152 20.725C196.747 19.7441 197.007 15.7822 198.186 13.2894C199.365 10.7968 201.631 8.79946 202.83 9.01794C204.029 9.23645 203.689 14.0157 201.631 16.2113C199.573 18.4067 198.764 18.4329 196.803 21.5482C194.841 24.6635 193.426 28.7416 193.426 28.7416C193.926 28.457 197.067 26.4092 199.377 24.8617C201.687 23.3142 204.192 23.685 203.996 25.4281C203.8 27.1711 199.136 28.4344 196.76 28.8715C194.384 29.3085 194.155 29.5701 193.273 30.0707C192.392 30.5714 191.136 34.4306 189.851 37.4593C189.082 39.2653 188.441 41.1233 187.933 43.0189C187.958 42.9836 189.207 41.214 190.069 39.8783C190.941 38.5292 190.651 37.6395 191.527 36.1302C192.404 34.621 194.412 33.9278 194.323 35.892C194.204 38.2017 191.408 41.3472 190.138 42.3636C188.912 43.3575 187.89 44.5799 187.129 45.9623C186.24 47.4828 186.237 50.6525 186.237 50.6703C187.083 48.6426 189.812 45.7231 190.641 44.6761C191.469 43.6292 191.903 43.5628 193.908 40.3382C196.393 35.3224 198.772 33.7776 199.644 33.1449C200.515 32.5122 201.562 32.8833 200.973 35.2591C200.383 37.635 193.646 42.6713 193.646 42.6713C193.697 43.0402 193.691 43.4148 193.627 43.7816C194.827 43.7939 197.637 42.016 197.637 42.016C198.577 41.5817 200.256 42.2346 199.339 43.5863C198.421 44.938 193.494 45.1566 193.494 45.1566C193.129 49.1434 191.896 53.002 189.881 56.4613C186.392 63.0298 177.847 69.7123 162.967 68.5511C148.087 67.3899 140.412 57.7396 138.728 44.1097C137.592 30.5942 139.775 19.2562 148.231 12.4564C156.659 5.67956 168.381 6.99921 168.46 7.00817L172.394 9.68688C170.286 8.68227 167.972 8.18921 165.638 8.24841C158.835 8.32464 154.17 13.2539 151.903 18.9203C149.637 24.5867 148.59 31.9128 148.707 39.3529C148.768 44.4473 149.511 49.5111 150.915 54.4086C151.563 56.6479 155.42 65.0475 161.727 66.5873C168.033 68.1271 172.437 66.8311 176.317 63.3881C180.197 59.945 181.943 54.2325 182.771 50.266C183.6 46.2996 183.768 42.1959 183.577 40.806C183.387 39.4161 181.508 37.8634 180.591 37.3832C179.674 36.9031 178.347 36.7936 175.578 35.9222C172.808 35.0507 172.419 33.2877 174.03 33.2191C175.641 33.1505 178.172 35.1834 179.392 35.9457C180.611 36.7079 180.637 36.4657 180.134 35.3324C179.63 34.199 175.65 30.8465 174.945 30.1039C174.241 29.3619 170.88 25.037 172.912 24.305C174.945 23.5732 177.6 29.0541 178.624 30.9955C179.648 32.9368 180.215 34.0037 181.087 35.2894C181.956 36.5709 185.727 41.9698 185.752 42.0052C185.751 40.6106 185.552 39.2233 185.162 37.8841C184.771 36.4459 182.23 33.4807 181.152 31.89C180.075 30.2993 178.993 28.7514 179.059 27.181C179.125 25.6109 180.195 25.9618 181.219 27.0951C182.243 28.2284 182.548 30.3143 183.071 32.347C183.59 34.3611 184.557 34.8787 184.575 34.8881C184.684 32.7943 183.902 31.2721 183.595 30.0931C183.287 28.914 181.285 23.4873 180.957 22.5492C180.629 21.6116 181.196 21.2629 177.229 20.1957C172.633 19.1208 171.52 17.7968 170.669 16.7728C169.818 15.7488 170.234 13.7314 174.241 15.7259C178.248 17.7206 180.34 20.2621 180.34 20.2621L178.881 15.8129C178.881 15.8129 178.096 12.652 175.044 9.40466C171.992 6.15724 171.4 3.17847 171.794 1.16344ZM92.7461 54.6068L112.335 7.31384H122.626V67.4769H112.393V10.4515L89.0693 67.6527H87.7168L64.3506 10.8939V67.4769H62.9551V7.31384H73.3096L92.7461 54.6068ZM230.248 7.3236C230.313 7.32186 237.648 7.13053 241.67 9.38708C245.71 11.6535 247.6 15.0535 248.675 18.1634C249.75 21.2735 249.867 25.1108 249.344 29.2093C248.818 33.2523 246.882 36.9804 243.878 39.7367C240.991 42.3347 235.957 43.0356 235.922 43.0404C238.864 44.067 240.783 47.076 241.459 48.3617C242.135 49.6484 244.968 55.4434 246.627 59.389C248.234 63.2119 249.851 66.2261 251.545 66.5101L251.709 66.5424C253.442 66.6452 253.333 67.04 253.33 67.0502C251.645 67.5355 247.519 67.8635 244.437 67.2816C241.354 66.6997 239.235 64.8983 237.779 62.2533C236.302 59.4618 235.011 56.5755 233.914 53.6136C232.867 50.8516 231.198 47.5834 230.21 45.7513C229.453 44.3487 227.938 43.5535 227.27 43.2562C227.068 43.1675 226.849 43.1215 226.629 43.1215H218.765V67.6527H208.649V7.3236H230.248ZM50.748 67.4769H40.2842L20.8379 20.2172L10.2012 46.3041L10.3154 46.2025C10.875 45.6547 13.2766 43.4588 15.8779 43.3832C17.8298 43.3327 19.7457 43.9143 21.3408 45.0404C21.8645 45.3887 24.7715 48.0027 28.8115 48.3431C28.8115 48.3431 26.5856 51.7002 21.5723 52.9174C18.9768 53.5736 16.2397 53.3845 13.7588 52.3783C11.9664 51.6638 10.3552 50.5596 9.04297 49.1449L1.56934 67.4769H-0.000976562L24.6748 7.31384H26.0693L50.748 67.4769ZM16.5889 47.7513C14.0758 45.95 10.3224 46.9487 9.85742 47.1468L9.04395 49.141C9.13375 49.0726 11.848 47.044 15.8779 48.3607C19.9766 49.6998 20.1522 49.7735 23.9434 49.6693C23.9434 49.6693 19.1019 49.5529 16.5889 47.7513ZM218.772 8.7777V41.8109L229.89 41.8236C229.937 41.8286 234.747 42.3208 237.126 37.0716C239.517 31.7966 239.524 27.3066 239.263 22.0316C239.001 16.7566 237.202 9.34467 230.995 8.7777H218.772Z" fill="#824435"/>
</g>
<defs>
<clipPath id="clip0_428_784">
<rect width="253.333" height="95" fill="white"/>
</clipPath>
</defs>
</svg>
