<svg width="107" height="40" viewBox="0 0 107 40" fill="none" xmlns="http://www.w3.org/2000/svg">
<path d="M17.833 34.8529C18.2513 34.8484 18.6586 34.988 18.9854 35.2484C19.3153 35.5007 19.5423 35.8645 19.624 36.2709C19.6682 36.4992 19.6881 36.7318 19.6846 36.9642V38.5863H19.3613V36.9359C19.3613 36.4225 19.2397 36.0052 18.9961 35.681C18.725 35.3174 18.3408 35.1352 17.8438 35.1351C17.6361 35.1293 17.4291 35.1686 17.2383 35.2504C17.0474 35.3322 16.8769 35.4554 16.7383 35.6097C16.4696 35.9266 16.3214 36.3277 16.3213 36.7426C16.3213 37.1576 16.4695 37.5594 16.7383 37.8763C16.8779 38.0303 17.0496 38.1527 17.2412 38.2338C17.4327 38.3147 17.6397 38.3529 17.8477 38.3461C18.3297 38.3461 18.7533 38.1428 19.1182 37.7357V38.1576C18.7753 38.4813 18.3198 38.66 17.8477 38.6547C17.5998 38.6616 17.3532 38.6161 17.124 38.5219C16.8948 38.4275 16.6874 38.2861 16.5166 38.1068C16.18 37.7374 15.9916 37.2563 15.9883 36.7572C15.985 36.2583 16.1666 35.7755 16.498 35.4017C16.6687 35.2212 16.8765 35.0794 17.1064 34.9847C17.3364 34.8901 17.5843 34.8449 17.833 34.8529ZM84.3477 34.848C84.7662 34.8434 85.1741 34.9839 85.501 35.2445C85.8306 35.4968 86.057 35.8598 86.1387 36.266C86.1829 36.4944 86.2037 36.7268 86.2002 36.9594V38.5863H85.8838V36.9369C85.8838 36.4234 85.7621 36.0062 85.5186 35.682C85.3865 35.5037 85.2125 35.3602 85.0117 35.265C84.8108 35.1698 84.5893 35.1256 84.3672 35.1361C84.1594 35.1303 83.9528 35.1696 83.7617 35.2513C83.5707 35.3332 83.3996 35.4554 83.2607 35.6097C82.992 35.9267 82.8447 36.3285 82.8447 36.7435C82.8447 37.1586 82.992 37.5604 83.2607 37.8773C83.4004 38.0312 83.5721 38.1527 83.7637 38.2338C83.9554 38.3148 84.1629 38.3539 84.3711 38.347C84.8518 38.347 85.275 38.1429 85.6406 37.7357V38.1586C85.2981 38.4818 84.8428 38.6597 84.3711 38.6547C84.1233 38.6617 83.8766 38.6171 83.6475 38.5228C83.4182 38.4284 83.2117 38.2862 83.041 38.1068C82.867 37.9281 82.7305 37.7167 82.6396 37.4847C82.5488 37.2528 82.5053 37.0051 82.5117 36.7562C82.5018 36.508 82.5408 36.2598 82.627 36.0267C82.7131 35.7936 82.8445 35.5793 83.0137 35.3969C83.1843 35.2164 83.3921 35.0745 83.6221 34.9799C83.8519 34.8853 84.0992 34.8401 84.3477 34.848ZM39.9521 33.4418H37.8613C37.4707 33.4418 37.2754 33.5863 37.2754 33.8773C37.2756 34.0199 37.3619 34.1928 37.5342 34.3959L40.1914 37.5521C40.4185 37.223 40.5392 36.8324 40.5371 36.433C40.5421 36.1445 40.4808 35.8585 40.3584 35.597C40.2359 35.3355 40.0552 35.1047 39.8301 34.9232L40.0156 34.6986C40.2841 34.9019 40.5012 35.1658 40.6484 35.4681C40.7956 35.7703 40.869 36.103 40.8633 36.4388C40.8594 36.926 40.6993 37.3996 40.4062 37.7894L41.082 38.5804H40.6816L40.2061 38.0121C39.9982 38.218 39.7518 38.3814 39.4805 38.4916C39.2089 38.6018 38.9172 38.6564 38.624 38.6537C38.324 38.657 38.0257 38.6031 37.7461 38.4945C37.3367 38.3365 36.9894 38.0506 36.7559 37.6801C36.5111 37.3115 36.3813 36.8789 36.3818 36.4369C36.3819 35.7038 36.6982 35.1032 37.332 34.6361L37.0703 34.2865C36.9868 34.1657 36.9387 34.0239 36.9326 33.8773C36.9294 33.7695 36.9538 33.6619 37.0029 33.5658C37.0521 33.4698 37.1245 33.3872 37.2139 33.3265C37.3948 33.206 37.6096 33.1456 37.8271 33.1527H39.9521V33.4418ZM96.1475 34.8441C96.8247 34.8442 97.3469 35.1507 97.7139 35.7631L95.1514 37.4681L95.002 37.222L97.2764 35.7045C97.1502 35.5213 96.9797 35.3721 96.7812 35.2709C96.5829 35.1698 96.3623 35.1193 96.1396 35.1244C95.9312 35.1203 95.7241 35.162 95.5332 35.2455C95.3424 35.329 95.1722 35.4531 95.0342 35.6088C94.7574 35.9206 94.6045 36.3223 94.6045 36.7387C94.6045 37.1551 94.7573 37.5577 95.0342 37.8695C95.1717 38.0231 95.3409 38.1456 95.5303 38.2279C95.7197 38.3102 95.9252 38.3502 96.1318 38.3461C96.333 38.3521 96.5335 38.315 96.7188 38.2367C96.9038 38.1584 97.0697 38.0411 97.2051 37.8929C97.4754 37.5897 97.6317 37.2017 97.6465 36.7963H97.9805C97.9669 37.286 97.7733 37.7539 97.4365 38.1107C97.2685 38.2867 97.0643 38.4258 96.8389 38.5179C96.6136 38.61 96.3713 38.6536 96.1279 38.6459C95.8811 38.6501 95.6354 38.6024 95.4082 38.5062C95.1812 38.41 94.9768 38.2672 94.8086 38.0873C94.4608 37.7259 94.2666 37.2444 94.2666 36.7435C94.2666 36.2427 94.4608 35.7612 94.8086 35.3998C94.9807 35.2198 95.1887 35.0774 95.4189 34.9818C95.6494 34.8862 95.8979 34.8391 96.1475 34.8441ZM23.4951 38.5863H23.1729V34.9154H23.4951V38.5863ZM51.7822 33.4506H50.3184C49.4599 33.4506 49.0303 33.7517 49.0303 34.3529C49.0213 34.5794 49.0983 34.801 49.2451 34.974C49.3761 35.1281 49.6743 35.297 50.1387 35.4789L50.6748 35.6928C51.144 35.8781 51.4727 36.0483 51.6602 36.2045C51.8044 36.3233 51.9191 36.4739 51.9961 36.6439C52.0731 36.814 52.1105 36.9994 52.1045 37.1859C52.1045 37.6737 51.9299 38.0381 51.5801 38.2777C51.286 38.4838 50.8827 38.5863 50.3711 38.5863H48.6904V38.265H49.9785C50.4977 38.265 50.8855 38.2138 51.1416 38.1097C51.3254 38.0474 51.4839 37.9259 51.5918 37.765C51.6996 37.6041 51.7508 37.4122 51.7383 37.2191C51.7461 36.9798 51.6613 36.7469 51.502 36.5678C51.3531 36.4009 50.9366 36.1823 50.252 35.9135C49.5675 35.6446 49.1378 35.4107 48.9639 35.2103C48.7728 34.9786 48.6752 34.6838 48.6895 34.3842C48.6895 33.5711 49.2617 33.1642 50.4062 33.1635H51.7822V33.4506ZM61.7744 38.5863H61.4521V34.9154H61.7744V38.5863ZM79.1738 33.1508C79.2677 33.1489 79.3617 33.1528 79.4551 33.1625V33.4506H79.1289C78.3284 33.4506 77.6958 33.6494 77.2314 34.0472C76.7421 34.4752 76.4971 35.0798 76.4971 35.8607C76.4971 36.6417 76.7472 37.2485 77.248 37.6801C77.7138 38.0794 78.35 38.2784 79.1562 38.2777H79.4561V38.5863H79.1826C78.2675 38.5863 77.542 38.3645 77.0068 37.9222C76.4296 37.4487 76.1404 36.7642 76.1396 35.8685C76.1389 34.9727 76.425 34.2867 76.998 33.8109C77.5304 33.3708 78.2558 33.1508 79.1738 33.1508ZM28.8564 34.9193V35.226H28.8457C28.8146 35.226 28.7714 35.2256 28.7158 35.2181C28.6603 35.2107 28.6193 35.2113 28.5947 35.2113C28.4178 35.2059 28.242 35.2422 28.082 35.3178C27.9219 35.3935 27.7817 35.5067 27.6738 35.6469C27.4548 35.9311 27.3416 36.2827 27.3525 36.641V38.5853H27.042V34.9154H27.3545V35.6312C27.4804 35.4028 27.6673 35.2135 27.8945 35.0844C28.1219 34.9552 28.3811 34.8913 28.6426 34.8998C28.7142 34.9013 28.7857 34.908 28.8564 34.9193ZM55.8027 36.432H56.1602C56.3808 36.4409 56.5992 36.3813 56.7842 36.2611C56.9564 36.1236 57.1041 35.958 57.2217 35.7719L57.8096 34.9164H58.1719L57.5703 35.8402C57.4289 36.0847 57.2345 36.2948 57.001 36.4545C57.7075 36.5451 58.0605 36.9303 58.0605 37.6097V38.5853H57.75V37.7299C57.75 37.0601 57.4376 36.725 56.8145 36.725H55.8027V38.5853H55.4805V33.1527H55.8027V36.432ZM66.7627 34.85C67.2392 34.85 67.6116 35.0105 67.8799 35.3314C68.131 35.6324 68.2568 36.0247 68.2568 36.5082V38.5853H67.9453V36.4135C67.9582 36.0846 67.8465 35.763 67.6328 35.5121C67.5206 35.3948 67.3858 35.3015 67.2363 35.2377C67.0867 35.1738 66.9254 35.141 66.7627 35.141C66.6 35.141 66.4387 35.1739 66.2891 35.2377C66.1396 35.3015 66.0048 35.3948 65.8926 35.5121C65.6789 35.763 65.5672 36.0846 65.5801 36.4135V38.5853H65.2686V36.5082C65.2686 36.0225 65.3942 35.6303 65.6445 35.3314C65.9135 35.0105 66.2862 34.85 66.7627 34.85ZM91.5107 34.9193V35.226H91.5C91.4689 35.226 91.4259 35.2256 91.3701 35.2181C91.3145 35.2107 91.2748 35.2113 91.249 35.2113C91.0719 35.2059 90.8955 35.242 90.7354 35.3178C90.5753 35.3935 90.4359 35.5067 90.3281 35.6469C90.109 35.9312 89.9949 36.2826 90.0059 36.641V38.5853H89.6953V34.9154H90.0078V35.6312C90.1338 35.4027 90.3216 35.2135 90.5488 35.0844C90.776 34.9553 91.0345 34.8913 91.2959 34.8998C91.3678 34.9013 91.4397 34.908 91.5107 34.9193ZM9.38477 35.5824H12.3057V33.1527H12.6514V38.5804H12.3057V35.8861H9.38477V38.5804H9.04297V33.1527H9.38477V35.5824ZM37.5293 34.851C36.9873 35.2909 36.7159 35.8081 36.7158 36.4027C36.7116 36.6568 36.758 36.9098 36.8525 37.1459C36.947 37.3818 37.0881 37.5965 37.2666 37.7777C37.4391 37.9623 37.6488 38.109 37.8818 38.2074C38.1148 38.3058 38.3662 38.3538 38.6191 38.349C39.12 38.349 39.5792 38.1519 39.9971 37.7582L37.5293 34.851ZM23.3291 33.6615C23.4866 33.6617 23.5645 33.7366 23.5645 33.8851C23.5686 33.9167 23.566 33.9488 23.5557 33.9789C23.5452 34.009 23.5277 34.0366 23.5049 34.059C23.482 34.0814 23.4534 34.0979 23.4229 34.1078C23.3926 34.1175 23.3606 34.1203 23.3291 34.1156C23.2981 34.1195 23.2658 34.1162 23.2363 34.1058C23.2069 34.0955 23.1799 34.0784 23.1582 34.056C23.1366 34.0337 23.1207 34.0065 23.1113 33.9769C23.1019 33.9473 23.0997 33.9158 23.1045 33.8851C23.1002 33.8548 23.1026 33.8234 23.1123 33.7943C23.122 33.7653 23.1385 33.7388 23.1602 33.7172C23.1819 33.6955 23.2091 33.679 23.2383 33.6693C23.2674 33.6597 23.2988 33.6572 23.3291 33.6615ZM61.6084 33.6615C61.7659 33.6616 61.8438 33.7365 61.8438 33.8851C61.8479 33.9167 61.8453 33.9488 61.835 33.9789C61.8245 34.009 61.807 34.0366 61.7842 34.059C61.7614 34.0812 61.7334 34.0979 61.7031 34.1078C61.6727 34.1176 61.64 34.1203 61.6084 34.1156C61.5774 34.1195 61.5451 34.1162 61.5156 34.1058C61.4862 34.0955 61.4592 34.0784 61.4375 34.056C61.4159 34.0337 61.4 34.0065 61.3906 33.9769C61.3812 33.9473 61.379 33.9158 61.3838 33.8851C61.3795 33.8548 61.3819 33.8234 61.3916 33.7943C61.4013 33.7653 61.4178 33.7388 61.4395 33.7172C61.4612 33.6955 61.4884 33.679 61.5176 33.6693C61.5467 33.6597 61.578 33.6572 61.6084 33.6615ZM72.5605 0.489627C72.7271 -0.358272 73.487 -0.0972742 74.3701 1.21521C75.2533 2.52791 75.1874 4.14469 75.2432 4.69471C75.299 5.24463 76.1665 7.14511 76.4316 7.97107C76.6968 8.79721 77.5557 10.8715 77.5557 10.8715C77.5557 10.8715 77.3259 8.87879 77.4268 7.88806C77.5278 6.89763 78.1449 6.53909 78.5312 7.12635C78.9176 7.71372 78.8819 8.64093 78.7617 9.30213C78.6415 9.96331 78.3183 10.909 78.1992 11.6888C78.0802 12.4689 78.3656 14.5616 78.4482 15.2035C78.5303 15.8411 78.8576 17.9546 78.8623 17.9847C79.0697 17.3645 79.2422 16.7328 79.3779 16.0931C79.5527 15.203 79.1763 13.7639 79.084 13.1937C78.9918 12.6233 79.1034 11.2837 79.333 10.7328C79.5628 10.1825 80.1427 10.1877 80.3359 10.6312C80.5291 11.0751 80.4553 12.9009 80.3545 13.306C80.2871 13.6413 80.2523 13.9827 80.252 14.3246C80.3175 14.1796 82.5976 9.13882 82.8486 8.72596C83.0997 8.31274 83.2093 6.64552 83.707 5.59607C84.205 4.54653 85.1624 3.70529 85.6689 3.79724C86.1755 3.88925 86.0314 5.90115 85.1621 6.82556C84.2928 7.74996 83.9516 7.76094 83.123 9.07264C82.2945 10.3843 81.6973 12.1019 81.6973 12.1019C81.9091 11.9818 83.2356 11.1196 84.2109 10.4681C85.1864 9.81678 86.2446 9.97265 86.1621 10.7064C86.0795 11.4403 84.1091 11.9725 83.1055 12.1566C82.1021 12.3406 82.0052 12.4508 81.6328 12.6615C81.2604 12.8723 80.7296 14.4975 80.1865 15.7728C79.862 16.5332 79.5918 17.3156 79.377 18.1137C79.3804 18.1087 79.9124 17.3576 80.2793 16.7914C80.6474 16.2233 80.5253 15.8487 80.8955 15.2133C81.2658 14.5777 82.1137 14.2856 82.0762 15.1127C82.0255 16.085 80.8453 17.4091 80.3086 17.8373C79.7909 18.2557 79.3586 18.77 79.0371 19.3519C78.6604 19.9939 78.6611 21.3353 78.6611 21.3353C79.0185 20.4816 80.1706 19.2517 80.5205 18.8109C80.8704 18.3701 81.0537 18.3422 81.9004 16.9847C82.95 14.8728 83.9551 14.2219 84.3232 13.9554C84.6913 13.6893 85.1337 13.8459 84.8848 14.8461C84.6357 15.8464 81.79 17.9672 81.79 17.9672C81.8113 18.1223 81.8082 18.2797 81.7812 18.434C82.2878 18.4393 83.4756 17.6908 83.4756 17.6908C83.8727 17.5081 84.5816 17.7829 84.1943 18.3519C83.8069 18.9211 81.7256 19.0131 81.7256 19.0131C81.5715 20.6916 81.0512 22.3164 80.2002 23.7728C78.7266 26.5385 75.1169 29.3526 68.832 28.8637C62.5472 28.3747 59.3064 24.3114 58.5947 18.5726C58.115 12.8818 59.0366 8.10756 62.6084 5.24451C66.1759 2.38501 71.1406 2.94922 71.1523 2.95056L72.8135 4.07849C71.9234 3.65553 70.9457 3.44808 69.96 3.47303C67.087 3.50512 65.1166 5.58044 64.1592 7.96619C63.2018 10.3521 62.7592 13.437 62.8086 16.5697C62.8345 18.7146 63.1482 20.8466 63.7412 22.9086C64.0149 23.8512 65.6448 27.3881 68.3086 28.0365C70.9722 28.6847 72.8319 28.1394 74.4707 26.6898C76.1095 25.2401 76.8474 22.8345 77.1973 21.1644C77.547 19.4949 77.6175 17.7676 77.5371 17.182C77.4566 16.597 76.6639 15.943 76.2764 15.7406C75.8889 15.5384 75.328 15.4923 74.1582 15.1254C72.9886 14.7584 72.8245 14.0156 73.5049 13.9867C74.1853 13.9578 75.2544 14.8142 75.7695 15.1351C76.2844 15.4559 76.2953 15.3541 76.083 14.8773C75.8706 14.4002 74.1894 12.988 73.8916 12.6752C73.5944 12.3628 72.1745 10.5424 73.0322 10.2338C73.8908 9.92564 75.0128 12.2337 75.4453 13.0512C75.8777 13.8683 76.1173 14.3175 76.4854 14.8588C76.8535 15.4002 78.4561 17.6869 78.4561 17.6869C78.4555 17.0998 78.3715 16.5153 78.207 15.9515C78.0418 15.346 76.9688 14.0969 76.5137 13.4271C76.0586 12.7574 75.601 12.1059 75.6289 11.4447C75.6568 10.7836 76.1085 10.9314 76.541 11.4086C76.9734 11.8857 77.1022 12.7638 77.3232 13.6195C77.5443 14.4754 77.959 14.6898 77.959 14.6898C78.0051 13.8085 77.6749 13.1676 77.5449 12.6713C77.4151 12.1749 76.5693 9.88989 76.4307 9.49451C76.2922 9.09974 76.5315 8.9526 74.8564 8.5033C72.9153 8.05082 72.4445 7.49401 72.085 7.06287C71.7254 6.63172 71.9015 5.78179 73.5938 6.62146C75.2863 7.46133 76.1699 8.53162 76.1699 8.53162L75.5537 6.6576C75.5471 6.63145 75.2097 5.31304 73.9336 3.95935C72.6446 2.59202 72.3942 1.33806 72.5605 0.489627ZM39.1729 22.9926L47.4463 3.07947H51.793V28.4115H47.4717V4.40076L37.6201 28.4857H37.0488L27.1797 4.58728V28.4115H26.5898V3.07947H30.9639L39.1729 22.9926ZM97.249 3.08338C97.249 3.08338 100.367 2.99831 102.073 3.95252C103.78 4.90682 104.578 6.33833 105.032 7.64783C105.486 8.95739 105.536 10.5735 105.314 12.2992C105.092 14.0014 104.275 15.5714 103.006 16.7318C101.782 17.8292 99.6455 18.1224 99.6455 18.1224C100.888 18.5547 101.699 19.8213 101.984 20.3627C102.27 20.904 103.466 23.3447 104.167 25.0062C104.824 26.5642 105.485 27.8033 106.176 27.9896L106.313 28.0179C107.047 28.0614 107 28.2284 106.999 28.2318C106.287 28.4362 104.544 28.5745 103.242 28.3295C101.94 28.0845 101.046 27.3251 100.431 26.2113C99.8068 25.0361 99.2609 23.8215 98.7979 22.5746C98.3557 21.4117 97.6509 20.0355 97.2334 19.264C96.9136 18.6735 96.2735 18.3384 95.9912 18.2133C95.906 18.1759 95.8137 18.1566 95.7207 18.1566H92.3994V28.4857H88.127V3.08338H97.249ZM21.4346 28.4115H17.0146L8.80078 8.51209L4.30762 19.4974L4.50391 19.3168C4.88489 18.9768 5.76449 18.2943 6.70605 18.267C7.53048 18.2457 8.33994 18.4901 9.01367 18.9642C9.23475 19.1108 10.4626 20.2114 12.1689 20.3549C12.1689 20.3549 11.2288 21.7682 9.11133 22.2806C8.01516 22.5569 6.85931 22.4776 5.81152 22.0541C5.05433 21.7532 4.37362 21.2876 3.81934 20.6918L0.663086 28.4115H0L10.4219 3.07947H11.0107L21.4346 28.4115ZM7.00684 20.1058C5.9454 19.3473 4.35949 19.7675 4.16309 19.851L3.81934 20.6908C3.85166 20.6662 4.99965 19.807 6.70605 20.3627C8.43704 20.9265 8.51144 20.9573 10.1123 20.9135C10.0782 20.9126 8.05929 20.8579 7.00684 20.1058ZM92.4023 3.69568V17.6049L97.0977 17.6097C97.0977 17.6097 99.1444 17.8299 100.154 15.6088C101.164 13.3879 101.168 11.4976 101.058 9.27674C100.947 7.05563 100.186 3.93427 97.5645 3.69568H92.4023Z" fill="white"/>
</svg>
