<svg width="107" height="40" viewBox="0 0 107 40" fill="none" xmlns="http://www.w3.org/2000/svg">
<g clip-path="url(#clip0_428_252)">
<path d="M17.7773 34.8525C18.1944 34.848 18.6 34.9885 18.9258 35.249C19.2547 35.5013 19.481 35.8641 19.5625 36.2705C19.6066 36.4989 19.6275 36.7313 19.624 36.9638V38.5859H19.3008V36.9355C19.3007 36.4222 19.1793 36.0047 18.9365 35.6806C18.6663 35.3172 18.2835 35.1358 17.7881 35.1357C17.581 35.1299 17.3749 35.1691 17.1846 35.251C16.9942 35.3328 16.8237 35.455 16.6855 35.6094C16.4177 35.9263 16.2705 36.3282 16.2705 36.7431C16.2706 37.1579 16.4178 37.5592 16.6855 37.876C16.8247 38.0299 16.9964 38.1523 17.1875 38.2334C17.3784 38.3144 17.5847 38.3525 17.792 38.3457C18.2727 38.3457 18.6949 38.1425 19.0586 37.7353V38.1582C18.7169 38.4817 18.2626 38.6596 17.792 38.6543C17.5448 38.6612 17.2989 38.6158 17.0703 38.5215C16.8418 38.4271 16.6352 38.2857 16.4648 38.1064C16.1294 37.7371 15.9419 37.2567 15.9385 36.7578C15.9351 36.2587 16.1167 35.7753 16.4473 35.4013C16.6172 35.221 16.8237 35.0789 17.0527 34.9844C17.282 34.8897 17.5294 34.8445 17.7773 34.8525ZM39.8271 33.4414H37.7432C37.3539 33.4415 37.1592 33.586 37.1592 33.8769C37.1593 34.0195 37.2453 34.1924 37.417 34.3955L40.0664 37.5517C40.2927 37.2226 40.4132 36.832 40.4111 36.4326C40.4161 36.144 40.3545 35.8582 40.2324 35.5967C40.1103 35.3351 39.9305 35.1043 39.7061 34.9228L39.8906 34.6982C40.1584 34.9016 40.3746 35.1653 40.5215 35.4678C40.6683 35.7702 40.7421 36.1033 40.7363 36.4394C40.7324 36.9264 40.5723 37.3993 40.2803 37.789L40.9541 38.5801H40.5547L40.0811 38.0117C39.8738 38.2177 39.628 38.381 39.3574 38.4912C39.0867 38.6014 38.7962 38.657 38.5039 38.6543C38.2047 38.6576 37.9077 38.6028 37.6289 38.4941C37.2209 38.3362 36.8745 38.0511 36.6416 37.6806C36.3976 37.3121 36.2671 36.8794 36.2676 36.4375C36.2676 35.7043 36.584 35.1039 37.2158 34.6367L36.9551 34.2861C36.8718 34.1653 36.8244 34.0236 36.8184 33.8769C36.8151 33.7691 36.8387 33.6615 36.8877 33.5654C36.9367 33.4695 37.0096 33.3878 37.0986 33.3271C37.279 33.2066 37.4922 33.1452 37.709 33.1523H39.8271V33.4414ZM84.085 34.8476C84.5022 34.8431 84.9085 34.9835 85.2344 35.2441C85.5631 35.4964 85.7896 35.8593 85.8711 36.2656C85.9151 36.494 85.9352 36.7264 85.9316 36.959V38.5859H85.6162V36.9365C85.6162 36.423 85.4948 36.0058 85.252 35.6816C85.1204 35.5033 84.9472 35.3598 84.7471 35.2646C84.5469 35.1695 84.3259 35.1252 84.1045 35.1357C83.8974 35.1299 83.6913 35.1692 83.501 35.251C83.3105 35.3328 83.1394 35.455 83.001 35.6094C82.7331 35.9262 82.586 36.3282 82.5859 36.7431C82.5859 37.1581 82.7331 37.56 83.001 37.8769C83.1403 38.031 83.3117 38.1532 83.5029 38.2344C83.6941 38.3154 83.9009 38.3535 84.1084 38.3467C84.5877 38.3467 85.0095 38.1426 85.374 37.7353V38.1582C85.0325 38.4816 84.5787 38.6593 84.1084 38.6543C83.8612 38.6613 83.6153 38.6168 83.3867 38.5224C83.1583 38.4281 82.9523 38.2867 82.7822 38.1074C82.6087 37.9286 82.4724 37.7164 82.3818 37.4844C82.2913 37.2524 82.2484 37.0047 82.2549 36.7558C82.245 36.5076 82.2832 36.2595 82.3691 36.0263C82.4551 35.7932 82.5862 35.5789 82.7549 35.3965C82.925 35.216 83.1321 35.0741 83.3613 34.9795C83.5905 34.8849 83.8372 34.8397 84.085 34.8476ZM95.8477 34.8447C96.5231 34.8447 97.0433 35.151 97.4092 35.7637L94.8545 37.4678L94.7061 37.2217L96.9727 35.7041C96.847 35.5213 96.6779 35.3726 96.4805 35.2715C96.2826 35.1702 96.062 35.1199 95.8398 35.125C95.6321 35.1209 95.4256 35.1616 95.2354 35.2451C95.0452 35.3286 94.8758 35.4528 94.7383 35.6084C94.4623 35.9201 94.3096 36.3219 94.3096 36.7383C94.3096 37.1547 94.4623 37.5573 94.7383 37.8691C94.8755 38.0228 95.0446 38.1452 95.2334 38.2275C95.4222 38.3098 95.6271 38.3498 95.833 38.3457C96.0333 38.3516 96.2325 38.3145 96.417 38.2363C96.6016 38.158 96.7673 38.0408 96.9023 37.8926C97.1719 37.5892 97.3271 37.2014 97.3418 36.7959H97.6748C97.6613 37.2857 97.4685 37.7534 97.1328 38.1103C96.9654 38.2863 96.7619 38.4254 96.5371 38.5176C96.3125 38.6096 96.0708 38.6532 95.8281 38.6455C95.5821 38.6497 95.3378 38.602 95.1113 38.5058C94.8849 38.4096 94.6814 38.2669 94.5137 38.0869C94.1669 37.7255 93.9727 37.244 93.9727 36.7431C93.9727 36.2423 94.1669 35.7607 94.5137 35.3994C94.6853 35.2195 94.8925 35.077 95.1221 34.9814C95.3517 34.8859 95.5989 34.8396 95.8477 34.8447ZM23.4219 38.5859H23.1006V34.915H23.4219V38.5859ZM28.7666 34.9189V35.2256H28.7559C28.7249 35.2256 28.6823 35.2262 28.627 35.2187C28.5713 35.2112 28.5305 35.2109 28.5059 35.2109C28.3293 35.2055 28.1537 35.2426 27.9941 35.3183C27.8347 35.3941 27.6953 35.5064 27.5879 35.6465C27.3694 35.9308 27.2557 36.2822 27.2666 36.6406V38.5859H26.958V34.916H27.2695V35.6318C27.3951 35.4032 27.581 35.2131 27.8076 35.084C28.0341 34.9549 28.2921 34.891 28.5527 34.8994C28.6243 34.9009 28.6959 34.9076 28.7666 34.9189ZM51.6211 33.4512H50.1621C49.3063 33.4512 48.878 33.7514 48.8779 34.3525C48.8689 34.5792 48.9452 34.8015 49.0918 34.9746C49.2224 35.1286 49.5196 35.2966 49.9824 35.4785L50.5166 35.6924C50.9845 35.8778 51.3121 36.0489 51.499 36.2051C51.6428 36.3239 51.7582 36.4735 51.835 36.6435C51.9117 36.8135 51.9483 36.9991 51.9424 37.1855C51.9424 37.6734 51.7677 38.0377 51.4189 38.2773C51.1258 38.4834 50.7238 38.5859 50.2139 38.5859H48.5391V38.2656H49.8223C50.34 38.2656 50.7271 38.2135 50.9824 38.1094C51.1656 38.047 51.3231 37.9255 51.4307 37.7646C51.5381 37.6038 51.5896 37.4118 51.5771 37.2187C51.5848 36.9795 51.5006 36.7464 51.3418 36.5674C51.1934 36.4005 50.778 36.1828 50.0957 35.914C49.4132 35.6452 48.9849 35.4104 48.8115 35.2099C48.621 34.9781 48.5238 34.6835 48.5381 34.3838C48.5381 33.5706 49.1088 33.1638 50.25 33.1631H51.6211V33.4512ZM55.6289 36.4316H55.9854C56.2052 36.4404 56.4221 36.3808 56.6064 36.2607C56.7782 36.1232 56.9257 35.9576 57.043 35.7715L57.6299 34.916H57.9902L57.3906 35.8398C57.2496 36.0843 57.056 36.2945 56.8232 36.4541C57.5278 36.5447 57.8799 36.9307 57.8799 37.6103V38.5859H57.5693V37.7295C57.5693 37.0599 57.2589 36.7246 56.6377 36.7246H55.6289V38.5859H55.3076V33.1523H55.6289V36.4316ZM61.582 38.5859H61.2607V34.915H61.582V38.5859ZM66.5547 34.8496C67.0297 34.8496 67.4015 35.0101 67.6689 35.331C67.9192 35.632 68.0439 36.0244 68.0439 36.5078V38.5859H67.7334V36.414C67.7463 36.0851 67.6359 35.7627 67.4229 35.5117C67.3109 35.3943 67.1755 35.3011 67.0264 35.2373C66.8773 35.1735 66.7168 35.1406 66.5547 35.1406C66.3925 35.1406 66.2321 35.1735 66.083 35.2373C65.934 35.3011 65.7994 35.3945 65.6875 35.5117C65.4744 35.7627 65.3631 36.085 65.376 36.414V38.5859H65.0654V36.5078C65.0654 36.0222 65.19 35.6298 65.4395 35.331C65.7076 35.0101 66.0797 34.8496 66.5547 34.8496ZM78.9268 33.1504C79.0202 33.1485 79.1141 33.1524 79.207 33.1621V33.4502H78.8818C78.0839 33.4502 77.4531 33.6489 76.9902 34.0469C76.5024 34.4747 76.2589 35.0795 76.2588 35.8603C76.2588 36.6414 76.5085 37.2481 77.0078 37.6797C77.4721 38.079 78.1064 38.278 78.9102 38.2773H79.208V38.5859H78.9355C78.0233 38.5859 77.3001 38.365 76.7666 37.9228C76.191 37.4492 75.9031 36.764 75.9023 35.8681C75.9017 34.9723 76.1875 34.2863 76.7588 33.8105C77.2894 33.3707 78.012 33.1504 78.9268 33.1504ZM91.2256 34.9189V35.2256H91.2148C91.1838 35.2256 91.1406 35.2262 91.085 35.2187C91.0298 35.2113 90.9905 35.2109 90.9648 35.2109C90.7883 35.2055 90.6127 35.2426 90.4531 35.3183C90.2936 35.394 90.1544 35.5064 90.0469 35.6465C89.8284 35.9308 89.7147 36.2822 89.7256 36.6406V38.5859H89.416V34.916H89.7275V35.6318C89.8531 35.4032 90.04 35.2131 90.2666 35.084C90.4931 34.9549 90.7511 34.8909 91.0117 34.8994C91.0834 34.9009 91.1548 34.9076 91.2256 34.9189ZM9.35547 35.582H12.2666V33.1523H12.6113V38.5801H12.2666V35.8867H9.35547V38.5801H9.01465V33.1523H9.35547V35.582ZM37.4131 34.8506C36.8726 35.2905 36.6017 35.8076 36.6016 36.4023C36.5973 36.6564 36.6441 36.9095 36.7383 37.1455C36.8325 37.3813 36.9725 37.5961 37.1504 37.7773C37.3223 37.9618 37.5315 38.1086 37.7637 38.207C37.9959 38.3055 38.2468 38.3534 38.499 38.3486C38.998 38.3486 39.4557 38.1521 39.8721 37.7588L37.4131 34.8506ZM23.2559 33.6611C23.4131 33.6611 23.4912 33.736 23.4912 33.8847C23.4953 33.9164 23.4918 33.9483 23.4814 33.9785C23.4711 34.0086 23.4543 34.0362 23.4316 34.0586C23.4088 34.081 23.381 34.0985 23.3506 34.1084C23.3202 34.1182 23.2875 34.1209 23.2559 34.1162C23.225 34.12 23.1934 34.1158 23.1641 34.1054C23.1348 34.0951 23.1085 34.078 23.0869 34.0556C23.0652 34.0332 23.0485 34.0063 23.0391 33.9765C23.0297 33.9469 23.0274 33.9155 23.0322 33.8847C23.0279 33.8544 23.0313 33.823 23.041 33.7939C23.0508 33.765 23.0673 33.7384 23.0889 33.7168C23.1105 33.6953 23.1371 33.6786 23.166 33.6689C23.1949 33.6594 23.2257 33.6569 23.2559 33.6611ZM61.416 33.6611C61.5733 33.6611 61.6514 33.736 61.6514 33.8847C61.6555 33.9164 61.652 33.9483 61.6416 33.9785C61.6312 34.0086 61.6144 34.0362 61.5918 34.0586C61.569 34.0809 61.5411 34.0985 61.5107 34.1084C61.4803 34.1182 61.4476 34.1209 61.416 34.1162C61.3851 34.12 61.3536 34.1158 61.3242 34.1054C61.2949 34.0951 61.2677 34.078 61.2461 34.0556C61.2246 34.0333 61.2085 34.0061 61.1992 33.9765C61.1899 33.9469 61.1875 33.9155 61.1924 33.8847C61.1881 33.8544 61.1914 33.823 61.2012 33.7939C61.2109 33.765 61.2265 33.7383 61.248 33.7168C61.2697 33.6951 61.2971 33.6787 61.3262 33.6689C61.3551 33.6594 61.3859 33.6569 61.416 33.6611ZM72.334 0.490217C72.4998 -0.358185 73.2582 -0.0978269 74.1387 1.21483C75.019 2.52733 74.9532 4.14407 75.0088 4.69432C75.0644 5.24424 75.9291 7.14472 76.1934 7.97069C76.4564 8.79272 77.3054 10.8515 77.3135 10.8711C77.3117 10.8553 77.0855 8.87555 77.1855 7.88865C77.2861 6.89793 77.901 6.53956 78.2861 7.12694C78.6711 7.71432 78.6364 8.64064 78.5166 9.30174C78.3968 9.96289 78.0748 10.9086 77.9561 11.6885C77.8373 12.4684 78.1217 14.5611 78.2041 15.2031C78.2865 15.845 78.6172 17.9853 78.6172 17.9853C78.824 17.3651 78.9956 16.7334 79.1309 16.0937C79.3052 15.2038 78.929 13.7648 78.8369 13.1943C78.7449 12.6241 78.857 11.2844 79.0859 10.7334C79.3149 10.1824 79.8934 10.1878 80.0859 10.6318C80.2783 11.0764 80.2041 12.9023 80.1035 13.3066C80.0364 13.6418 80.0023 13.9833 80.002 14.3252C80.0661 14.1829 82.3405 9.13855 82.5908 8.72557C82.841 8.31181 82.9501 6.64487 83.4463 5.59569C83.9427 4.54611 84.8974 3.70485 85.4023 3.79686C85.9071 3.8893 85.764 5.90187 84.8975 6.82615C84.0309 7.75048 83.6901 7.7608 82.8643 9.07225C82.0383 10.3839 81.4424 12.1015 81.4424 12.1015C81.6532 11.9817 82.9757 11.1193 83.9482 10.4678C84.9206 9.81636 85.9755 9.97243 85.8936 10.706C85.8112 11.44 83.8461 11.9722 82.8457 12.1562C81.8458 12.3402 81.7491 12.4504 81.3779 12.6611C81.0067 12.8725 80.4787 14.4974 79.9375 15.7724C79.6139 16.5329 79.3432 17.315 79.1289 18.1133C79.1289 18.1133 79.6623 17.3591 80.0293 16.791C80.3963 16.2229 80.2744 15.8484 80.6436 15.2129C81.0127 14.5774 81.8578 14.2853 81.8203 15.1123C81.77 16.0848 80.5926 17.4089 80.0576 17.8369C79.5415 18.2554 79.1115 18.7705 78.791 19.3525C78.4157 19.9946 78.416 21.3349 78.416 21.3349C78.7723 20.4812 79.9207 19.2513 80.2695 18.8105C80.6183 18.3698 80.8014 18.342 81.6455 16.9844C82.6917 14.8727 83.6935 14.2225 84.0605 13.956C84.4275 13.6896 84.8683 13.8455 84.6201 14.8457C84.3719 15.846 81.5352 17.9668 81.5352 17.9668C81.5564 18.1221 81.5543 18.2801 81.5273 18.4346C82.0289 18.4395 83.1982 17.701 83.2148 17.6904C83.6107 17.5075 84.3178 17.7824 83.9316 18.3515C83.5484 18.9164 81.503 19.0113 81.4717 19.0127C81.3181 20.6914 80.7987 22.3168 79.9502 23.7734C78.4812 26.5391 74.8824 29.3522 68.6172 28.8633C62.3521 28.3742 59.1214 24.3111 58.4121 18.5722C57.9339 12.8815 58.8525 8.10717 62.4131 5.24412C65.9737 2.38119 70.9307 2.95115 70.9307 2.95115L72.5869 4.07811C71.6996 3.65513 70.7248 3.44772 69.7422 3.47264C66.8781 3.50474 64.9133 5.5809 63.959 7.96678C63.0048 10.3526 62.5641 13.4369 62.6133 16.5693C62.6391 18.7142 62.9518 20.8462 63.543 22.9082C63.8158 23.8508 65.4402 27.3887 68.0957 28.0371C70.751 28.6853 72.6056 28.1391 74.2393 26.6894C75.8726 25.2398 76.6073 22.835 76.9561 21.165C77.3048 19.4952 77.3761 17.7671 77.2959 17.1816C77.2157 16.5964 76.4243 15.9424 76.0381 15.7402C75.6519 15.5381 75.0935 15.4918 73.9277 15.125C72.7615 14.758 72.5981 14.0152 73.2764 13.9863C73.9547 13.9578 75.0197 14.8138 75.5332 15.1347C76.0467 15.4557 76.0575 15.3541 75.8457 14.8769C75.6339 14.3998 73.9575 12.9872 73.6611 12.6748C73.3647 12.3622 71.9496 10.5419 72.8047 10.2334C73.6606 9.92525 74.7788 12.2334 75.21 13.0508C75.6411 13.8681 75.8802 14.3171 76.2471 14.8584C76.6125 15.3975 78.1975 17.6673 78.2109 17.6865C78.2104 17.0993 78.127 16.515 77.9629 15.9512C77.7981 15.3456 76.7281 14.0965 76.2744 13.4267C75.8209 12.7571 75.3657 12.1054 75.3936 11.4443C75.4215 10.7835 75.8716 10.9311 76.3027 11.4082C76.7339 11.8854 76.8626 12.7642 77.083 13.6201C77.3006 14.4646 77.7054 14.6839 77.7158 14.6894C77.7618 13.808 77.4322 13.1673 77.3027 12.6709C77.1733 12.1744 76.3304 9.88892 76.1924 9.49412C76.0544 9.0994 76.2928 8.95317 74.623 8.50389C72.6877 8.05135 72.2188 7.49364 71.8604 7.06248C71.502 6.63136 71.6775 5.78164 73.3643 6.62108C75.0515 7.46095 75.9326 8.53123 75.9326 8.53123L75.3184 6.65819C75.3184 6.65819 75.0279 5.4878 73.9326 4.21483L73.4736 3.70506C72.3881 2.43769 72.1786 1.28564 72.334 0.490217ZM39.0508 22.9922L47.2988 3.07908H51.6318V28.4111H47.3232V4.40037L37.5029 28.4853H36.9336L27.0947 4.5869V28.4111H26.5078V3.07908H30.8672L39.0508 22.9922ZM96.9463 3.08397C96.9463 3.08397 100.055 2.99778 101.756 3.95213C103.457 4.90638 104.252 6.33803 104.705 7.64744C105.158 8.957 105.207 10.5731 104.986 12.2988C104.765 14.0011 103.95 15.5709 102.686 16.7314C101.466 17.8291 99.335 18.1221 99.335 18.1221C100.574 18.5543 101.382 19.8209 101.667 20.3623C101.952 20.9036 103.144 23.3443 103.843 25.0058C104.498 26.5636 105.157 27.8026 105.845 27.9892L105.982 28.0176C106.712 28.0608 106.666 28.2269 106.665 28.2314C105.956 28.4357 104.219 28.574 102.921 28.3291C101.623 28.0841 100.73 27.3256 100.117 26.2119C99.4952 25.0366 98.9519 23.8212 98.4902 22.5742C98.0495 21.4113 97.3469 20.0351 96.9307 19.2637C96.6118 18.6731 95.9738 18.3381 95.6924 18.2129C95.6075 18.1755 95.5156 18.1562 95.4229 18.1562H92.1113V28.4853H87.8525V3.08397H96.9463ZM21.3672 28.4111H16.9619L8.77344 8.51268L4.29492 19.4961L4.49023 19.3174C4.86997 18.9774 5.7467 18.2939 6.68555 18.2666C7.50723 18.2454 8.31382 18.4899 8.98535 18.9639C9.20574 19.1104 10.4299 20.212 12.1309 20.3555C12.1113 20.3847 11.1717 21.7741 9.08301 22.2812C7.99019 22.5575 6.83753 22.4773 5.79297 22.0537C5.03835 21.7528 4.36007 21.288 3.80762 20.6924C3.80762 20.6924 4.9598 19.7985 6.68555 20.3623C8.41113 20.9261 8.48496 20.9569 10.0811 20.9131C10.0585 20.9125 8.0376 20.8597 6.98535 20.1055C5.92722 19.3469 4.34618 19.7671 4.15039 19.8506L0.661133 28.4111H0L10.3896 3.07908H10.9766L21.3672 28.4111ZM92.1143 3.6953V17.6045L96.7959 17.6094C96.8268 17.6126 98.8437 17.8132 99.8428 15.6094C100.85 13.3883 100.852 11.4974 100.742 9.27635C100.632 7.05524 99.8745 3.93388 97.2607 3.6953H92.1143Z" fill="#824435"/>
</g>
<defs>
<clipPath id="clip0_428_252">
<rect width="106.667" height="40" fill="white"/>
</clipPath>
</defs>
</svg>
