<svg width="32" height="32" viewBox="0 0 32 32" fill="none" xmlns="http://www.w3.org/2000/svg">
<path fill-rule="evenodd" clip-rule="evenodd" d="M20.5857 3.65845C17.8192 3.65845 15.647 5.8013 15.647 8.35959C15.647 9.68492 16.2981 11.637 17.3457 13.2781C17.8618 14.0866 18.4421 14.7678 19.029 15.2364C19.6219 15.7098 20.1495 15.9113 20.5857 15.9113C21.0218 15.9113 21.5494 15.7098 22.1423 15.2364C22.7292 14.7678 23.3095 14.0866 23.8256 13.2781C24.8732 11.637 25.5243 9.68492 25.5243 8.35959C25.5243 5.8013 23.3521 3.65845 20.5857 3.65845ZM13.647 8.35959C13.647 4.62057 16.7924 1.65845 20.5857 1.65845C24.3789 1.65845 27.5243 4.62057 27.5243 8.35959C27.5243 10.1829 26.6908 12.5067 25.5114 14.3543C24.914 15.2902 24.1952 16.1565 23.3903 16.7993C22.5912 17.4374 21.6342 17.9113 20.5857 17.9113C19.5371 17.9113 18.5801 17.4374 17.781 16.7993C16.9761 16.1565 16.2573 15.2902 15.6599 14.3543C14.4805 12.5067 13.647 10.1829 13.647 8.35959ZM20.5857 7.22166C20.154 7.22166 19.8041 7.5716 19.8041 8.00326C19.8041 8.43493 20.154 8.78487 20.5857 8.78487C21.0173 8.78487 21.3673 8.43493 21.3673 8.00326C21.3673 7.5716 21.0173 7.22166 20.5857 7.22166ZM17.8041 8.00326C17.8041 6.46703 19.0494 5.22166 20.5857 5.22166C22.1219 5.22166 23.3673 6.46703 23.3673 8.00326C23.3673 9.5395 22.1219 10.7849 20.5857 10.7849C19.0494 10.7849 17.8041 9.5395 17.8041 8.00326Z" fill="#824435"/>
<path fill-rule="evenodd" clip-rule="evenodd" d="M11.6665 9.03582C12.5631 9.13004 13.357 9.52385 14.1861 10.0845L15.3065 8.4278C14.0378 7.56985 12.5213 6.8332 10.5553 7.05326C9.11479 7.21449 7.59731 7.87514 6.30016 8.59076C4.9848 9.31642 3.80612 10.1496 3.02625 10.7393C2.13402 11.414 1.6665 12.4623 1.6665 13.5301V26.4226C1.6665 28.4459 4.00216 29.4487 5.53929 28.4158C7.14494 27.3368 9.15877 26.2359 10.7777 26.0546C12.5376 25.8577 13.7898 26.7628 15.3944 27.9835C15.424 28.006 15.4537 28.0286 15.4836 28.0514C16.9842 29.1939 18.8319 30.6005 21.4444 30.3081C22.8849 30.1469 24.4024 29.4862 25.6995 28.7706C27.0149 28.0449 28.1936 27.2117 28.9734 26.622C29.8657 25.9474 30.3332 24.8991 30.3332 23.8313H29.3332C30.3332 23.8313 30.3332 23.8314 30.3332 23.8313V10.9387C30.3332 8.91544 27.9975 7.91266 26.4604 8.9456C26.1689 9.14146 25.8589 9.34163 25.536 9.53879L26.5782 11.2458C26.9287 11.0317 27.2633 10.8157 27.5759 10.6056C27.7138 10.5129 27.9056 10.4993 28.0865 10.5888C28.2622 10.6757 28.3332 10.8087 28.3332 10.9387V23.8301C28.3332 23.8302 28.3332 23.8313 29.3332 23.8313L28.3332 23.8301C28.3332 24.3227 28.1197 24.7602 27.7672 25.0267C27.03 25.5842 25.9349 26.3566 24.7334 27.0194C23.9222 27.4669 23.101 27.8427 22.3332 28.0788V16.7469H20.3332V28.3262C19.0093 28.1883 17.9268 27.397 16.6053 26.3917C16.5757 26.3692 16.5459 26.3465 16.5161 26.3238C15.2376 25.3504 13.7072 24.1853 11.6665 24.0425V9.03582ZM9.6665 24.2246V9.28254C8.89871 9.51863 8.07744 9.89443 7.26626 10.3419C6.06475 11.0048 4.96972 11.7772 4.23249 12.3346C3.87999 12.6012 3.6665 13.0374 3.6665 13.5301V26.4226C3.6665 26.5527 3.73748 26.6857 3.91319 26.7726C4.09408 26.8621 4.28585 26.8484 4.42377 26.7558C5.82217 25.816 7.77798 24.6736 9.6665 24.2246Z" fill="#824435"/>
</svg>
