<svg width="24" height="24" viewBox="0 0 24 24" fill="none" xmlns="http://www.w3.org/2000/svg">
<path d="M20.9994 11.5711C20.9994 16.305 17.0466 20.1422 12.1662 20.1422C11.437 20.1422 10.7308 20.0569 10.0533 19.8943C9.84794 19.8451 9.63329 19.864 9.44426 19.958L7.51112 20.9202C7.01204 21.1685 6.42463 20.8072 6.42463 20.2516V18.4825C6.42463 18.2297 6.31112 17.9941 6.12386 17.8236C4.40403 16.2588 3.33301 14.0369 3.33301 11.5711C3.33301 6.83722 7.28587 3 12.1662 3C17.0466 3 20.9994 6.83722 20.9994 11.5711Z" fill="url(#paint0_radial_159_1277)"/>
<path opacity="0.05" d="M17.0214 8.8418C16.8324 8.8418 16.6491 8.90421 16.4914 9.02245L13.9766 10.8751C13.9178 10.9191 13.8529 10.9411 13.7845 10.9411C13.7182 10.9411 13.6559 10.9204 13.6034 10.8813L11.8491 9.56704C11.4922 9.30288 11.0718 9.16354 10.6315 9.16354C9.9354 9.16354 9.29543 9.51122 8.91958 10.0936L8.38473 10.9248L6.56509 13.8675C6.39196 14.1374 6.37871 14.4706 6.53373 14.7528C6.69184 15.0402 6.9904 15.2187 7.31282 15.2187C7.50185 15.2187 7.68514 15.1563 7.84281 15.038L10.3576 13.1854C10.4164 13.1414 10.4813 13.1194 10.5497 13.1194C10.616 13.1194 10.6783 13.1401 10.7308 13.1792L12.4851 14.4934C12.8424 14.7581 13.2624 14.897 13.7028 14.897C14.3988 14.897 15.0388 14.5493 15.4146 13.9669L15.9495 13.1357L17.7691 10.193C17.9423 9.92307 17.9555 9.5899 17.8005 9.30771C17.6424 9.02025 17.3438 8.8418 17.0214 8.8418Z" fill="black"/>
<path opacity="0.07" d="M17.0211 9.0625C16.8802 9.0625 16.7428 9.10953 16.624 9.19876L14.1079 11.0528C14.0125 11.1244 13.9012 11.1618 13.7846 11.1618C13.6702 11.1618 13.562 11.1257 13.471 11.058L11.7163 9.74335C11.3987 9.5082 11.0238 9.38425 10.6311 9.38425C10.0106 9.38425 9.4404 9.69412 9.10518 10.2137L8.57077 11.0448L6.75334 13.9845C6.62216 14.1889 6.61201 14.4386 6.72772 14.6487C6.8452 14.8623 7.07531 15.0003 7.31292 15.0003C7.45381 15.0003 7.59117 14.9533 7.70997 14.864L10.2261 13.01C10.3215 12.9384 10.4328 12.901 10.5494 12.901C10.6638 12.901 10.772 12.9371 10.863 13.0048L12.6177 14.3194C12.9353 14.5546 13.3102 14.6785 13.7029 14.6785C14.3234 14.6785 14.8936 14.3687 15.2288 13.8491L15.7632 13.018L17.5806 10.0783C17.7118 9.8739 17.722 9.62424 17.6063 9.41413C17.4888 9.20052 17.2591 9.0625 17.0211 9.0625Z" fill="black"/>
<path d="M16.7571 9.37528L14.2396 11.2302C13.9702 11.4323 13.6036 11.4323 13.3386 11.2345L11.5835 9.91987C10.8415 9.37044 9.79032 9.55945 9.29124 10.333L8.75683 11.1638L6.94161 14.0999C6.67661 14.5131 7.18452 14.9834 7.5776 14.6889L10.0951 12.834C10.3645 12.6319 10.7311 12.6319 10.9961 12.8297L12.7512 14.1443C13.4932 14.6938 14.5444 14.5047 15.0434 13.7312L15.5778 12.9004L17.3931 9.96427C17.6581 9.5511 17.1501 9.08078 16.7571 9.37528Z" fill="white"/>
<defs>
<radialGradient id="paint0_radial_159_1277" cx="0" cy="0" r="1" gradientUnits="userSpaceOnUse" gradientTransform="translate(6.46306 20.1325) scale(21.0283 20.9275)">
<stop stop-color="#1292FF"/>
<stop offset="0.079" stop-color="#2982FF"/>
<stop offset="0.23" stop-color="#4E69FF"/>
<stop offset="0.351" stop-color="#6559FF"/>
<stop offset="0.428" stop-color="#6D53FF"/>
<stop offset="0.754" stop-color="#DF47AA"/>
<stop offset="0.946" stop-color="#FF6257"/>
</radialGradient>
</defs>
</svg>
