<svg width="32" height="32" viewBox="0 0 32 32" fill="none" xmlns="http://www.w3.org/2000/svg">
<path fill-rule="evenodd" clip-rule="evenodd" d="M5.66675 6.66724C5.66675 3.90581 7.90532 1.66724 10.6667 1.66724H21.3334C24.0948 1.66724 26.3334 3.90581 26.3334 6.66724V25.3339C26.3334 28.0953 24.0948 30.3339 21.3334 30.3339H10.6667C7.90532 30.3339 5.66675 28.0953 5.66675 25.3339V6.66724ZM10.6667 3.66724C9.00989 3.66724 7.66675 5.01038 7.66675 6.66724V25.3339C7.66675 26.9908 9.00989 28.3339 10.6667 28.3339H21.3334C22.9903 28.3339 24.3334 26.9908 24.3334 25.3339V6.66724C24.3334 5.01038 22.9903 3.66724 21.3334 3.66724H10.6667Z" fill="#824435"/>
<path fill-rule="evenodd" clip-rule="evenodd" d="M13.6667 25.3325C13.6667 24.7802 14.1145 24.3325 14.6667 24.3325H17.3334C17.8857 24.3325 18.3334 24.7802 18.3334 25.3325C18.3334 25.8848 17.8857 26.3325 17.3334 26.3325H14.6667C14.1145 26.3325 13.6667 25.8848 13.6667 25.3325Z" fill="#824435"/>
</svg>
