<svg width="32" height="32" viewBox="0 0 32 32" fill="none" xmlns="http://www.w3.org/2000/svg">
<path d="M16.3477 28.3291C16.8994 28.3141 17.3585 28.7491 17.374 29.3008C17.3893 29.8529 16.9544 30.3129 16.4023 30.3281C16.2686 30.3318 16.1345 30.334 16 30.334C15.8655 30.334 15.7313 30.3318 15.5977 30.3281C15.0456 30.3129 14.6098 29.8529 14.625 29.3008C14.6405 28.749 15.1005 28.3139 15.6523 28.3291C15.7677 28.3323 15.8838 28.334 16 28.334C16.1161 28.334 16.2323 28.3323 16.3477 28.3291ZM9.63965 27.7646C9.86557 27.261 10.4571 27.0361 10.9609 27.2617C11.1708 27.3558 11.3847 27.4439 11.6006 27.5264C12.1163 27.7235 12.3747 28.3016 12.1777 28.8174C11.9807 29.3333 11.4026 29.5915 10.8867 29.3945C10.6356 29.2986 10.3876 29.1963 10.1436 29.0869C9.63957 28.861 9.41378 28.2686 9.63965 27.7646ZM21.0381 27.2617C21.5419 27.0359 22.1333 27.261 22.3594 27.7646C22.5852 28.2686 22.3604 28.861 21.8564 29.0869C21.6124 29.1963 21.3644 29.2986 21.1133 29.3945C20.5974 29.5916 20.0193 29.3333 19.8223 28.8174C19.6252 28.3015 19.8835 27.7234 20.3994 27.5264C20.6152 27.4439 20.8282 27.3558 21.0381 27.2617ZM5.62402 24.4346C6.02524 24.0551 6.65761 24.0725 7.03711 24.4736C7.19568 24.6413 7.35967 24.8043 7.52734 24.9629C7.92846 25.3424 7.94585 25.9757 7.56641 26.377C7.1869 26.7781 6.55355 26.7955 6.15234 26.416C5.95775 26.232 5.76803 26.0423 5.58398 25.8477C5.20481 25.4464 5.22299 24.814 5.62402 24.4346ZM24.9619 24.4736C25.3414 24.0724 25.9747 24.0551 26.376 24.4346C26.7769 24.8141 26.7944 25.4465 26.415 25.8477C26.2309 26.0423 26.0413 26.2319 25.8467 26.416C25.4455 26.7953 24.8131 26.7779 24.4336 26.377C24.0541 25.9757 24.0714 25.3424 24.4727 24.9629C24.6403 24.8044 24.8034 24.6412 24.9619 24.4736ZM3.18262 19.8232C3.69852 19.6262 4.27654 19.8845 4.47363 20.4004C4.5561 20.6163 4.64519 20.8292 4.73926 21.0391C4.96506 21.543 4.73926 22.1345 4.23535 22.3604C3.73149 22.5862 3.14006 22.3611 2.91406 21.8574C2.80467 21.6133 2.70139 21.3654 2.60547 21.1143C2.40846 20.5985 2.66701 20.0205 3.18262 19.8232ZM27.5254 20.4004C27.7225 19.8845 28.3005 19.6262 28.8164 19.8232C29.3323 20.0203 29.5906 20.5983 29.3936 21.1143C29.2977 21.3653 29.1953 21.6134 29.0859 21.8574C28.86 22.3612 28.2685 22.586 27.7646 22.3604C27.2607 22.1345 27.0349 21.543 27.2607 21.0391C27.3548 20.8292 27.4429 20.6162 27.5254 20.4004ZM16 7C16.5521 7.0001 16.9998 7.44798 17 8V13.5273C17.6683 13.7979 18.202 14.3317 18.4727 15H21.333C21.8852 15 22.3328 15.4479 22.333 16C22.333 16.5523 21.8853 17 21.333 17H18.4727C18.0771 17.9772 17.119 18.6669 16 18.667C14.5272 18.667 13.333 17.4728 13.333 16C13.3332 14.8811 14.0228 13.9229 15 13.5273V8C15.0002 7.44791 15.4479 7 16 7ZM2.69922 14.626C3.25129 14.6412 3.68614 15.1012 3.6709 15.6533C3.66771 15.7687 3.66602 15.8848 3.66602 16.001C3.66602 16.1169 3.66772 16.2325 3.6709 16.3477C3.68614 16.8997 3.25129 17.3598 2.69922 17.375C2.14718 17.3902 1.68716 16.9553 1.67188 16.4033C1.66818 16.2697 1.66602 16.1355 1.66602 16.001C1.66602 15.8664 1.66818 15.7314 1.67188 15.5977C1.68736 15.0458 2.14731 14.6108 2.69922 14.626ZM16 1.66699C23.916 1.66709 30.333 8.08496 30.333 16.001C30.333 16.1355 30.3308 16.2697 30.3271 16.4033C30.3119 16.9552 29.8526 17.39 29.3008 17.375C28.7487 17.3598 28.3129 16.8997 28.3281 16.3477C28.3313 16.2325 28.333 16.1169 28.333 16.001C28.333 9.18953 22.8114 3.66709 16 3.66699C15.8838 3.66699 15.7677 3.66869 15.6523 3.67188C15.1003 3.68706 14.6403 3.2522 14.625 2.7002C14.6098 2.14812 15.0456 1.6881 15.5977 1.67285C15.7313 1.66917 15.8655 1.66699 16 1.66699ZM2.91406 10.1445C3.13992 9.64057 3.73138 9.4148 4.23535 9.64062C4.73921 9.86644 4.96484 10.458 4.73926 10.9619C4.64522 11.1717 4.55607 11.3848 4.47363 11.6006C4.27657 12.1165 3.69855 12.3758 3.18262 12.1787C2.66699 11.9816 2.40868 11.4034 2.60547 10.8877C2.7014 10.6366 2.80466 10.3886 2.91406 10.1445ZM6.15234 5.58496C6.5536 5.20547 7.18692 5.22374 7.56641 5.625C7.94563 6.02615 7.92823 6.65861 7.52734 7.03809C7.35967 7.19666 7.19568 7.36065 7.03711 7.52832C6.65762 7.92909 6.02514 7.94658 5.62402 7.56738C5.22279 7.18792 5.20457 6.55458 5.58398 6.15332C5.76809 5.95866 5.95768 5.76906 6.15234 5.58496ZM10.8867 2.60645C11.4025 2.40955 11.9806 2.66788 12.1777 3.18359C12.3747 3.69937 12.1162 4.27738 11.6006 4.47461C11.3847 4.55707 11.1708 4.64616 10.9609 4.74023C10.4571 4.96571 9.86544 4.74014 9.63965 4.23633C9.41379 3.73235 9.63958 3.14091 10.1436 2.91504C10.3877 2.80562 10.6355 2.70239 10.8867 2.60645Z" fill="#824435"/>
</svg>
