<svg width="118" height="32" viewBox="0 0 118 32" fill="none" xmlns="http://www.w3.org/2000/svg">
<g clip-path="url(#clip0_159_356)">
<path d="M0 31.4311L11.4936 3.40967H12.142L23.6392 31.4311H18.7653L9.70863 9.42011L0.730374 31.4311H0Z" fill="#824435"/>
<path d="M29.3252 31.4311V3.40967H34.1457L43.2023 25.4385L52.3266 3.40967H57.1186V31.4311H52.3516V4.87042L41.4886 31.513H40.858L29.9736 5.0735V31.4311H29.3252Z" fill="#824435"/>
<path d="M78.467 3.26685C78.467 3.26685 72.9838 2.63623 69.0434 5.80356C65.1029 8.97089 64.0875 14.251 64.6148 20.5464C65.3986 26.8953 68.9757 31.3916 75.9053 31.9331C82.8385 32.4747 86.8182 29.3608 88.4428 26.3004C89.9998 23.6318 90.1209 21.0345 90.1209 21.0345C90.1209 21.0345 92.4153 20.9348 92.8429 20.3042C93.2704 19.6735 92.4866 19.3707 92.0519 19.5738C92.0519 19.5738 90.7408 20.4075 90.185 20.3968C90.185 20.3968 90.2242 20.2543 90.1957 19.8802C90.1957 19.8802 93.3345 17.5359 93.6089 16.4278C93.8832 15.3198 93.3951 15.1488 92.989 15.4409C92.5828 15.7367 91.4748 16.4563 90.3204 18.79C89.387 20.2935 89.1839 20.322 88.7955 20.8101C88.4108 21.2982 87.1388 22.6592 86.7434 23.6033C86.7434 23.6033 86.7434 22.1212 87.1602 21.4086C87.5771 20.6996 87.9725 20.2115 88.5604 19.7341C89.1483 19.2567 90.4487 17.7924 90.5092 16.7164C90.5484 15.8043 89.615 16.1286 89.2088 16.8269C88.8027 17.5252 88.9345 17.9456 88.5283 18.5726C88.1222 19.2033 87.5343 20.0334 87.5343 20.0334C87.5343 20.0334 87.83 18.8541 88.4286 17.4432C89.0271 16.0324 89.615 14.2367 90.0211 14.0016C90.4273 13.7664 90.5378 13.6453 91.6458 13.4422C92.7538 13.2391 94.9271 12.6513 95.0162 11.8389C95.1053 11.0266 93.9402 10.8521 92.8643 11.5753C91.7883 12.295 90.3275 13.2498 90.0924 13.3816C90.0924 13.3816 90.7515 11.4827 91.6672 10.029C92.5828 8.57898 92.9569 8.56829 93.9224 7.54221C94.8879 6.51612 95.0411 4.29293 94.4818 4.19317C93.9224 4.08985 92.8678 5.02687 92.3191 6.18478C91.7705 7.34269 91.6493 9.19178 91.375 9.64782C91.1007 10.1039 88.5818 15.6796 88.5105 15.8435C88.5105 15.8435 88.5105 15.163 88.621 14.7177C88.7314 14.2723 88.8133 12.2487 88.5996 11.7641C88.3858 11.276 87.7481 11.2653 87.4916 11.8746C87.2386 12.4838 87.1139 13.9659 87.2172 14.5966C87.317 15.2272 87.7338 16.8197 87.5414 17.8066C87.349 18.79 86.9714 19.898 86.9714 19.898C86.9714 19.898 86.6044 17.5323 86.5153 16.8233C86.4227 16.1107 86.1092 13.7985 86.241 12.9327C86.3728 12.0705 86.7291 11.0231 86.8609 10.2927C86.9928 9.56232 87.0319 8.53623 86.608 7.8878C86.1804 7.23937 85.4999 7.63484 85.3895 8.73218C85.2791 9.82953 85.532 12.0313 85.532 12.0313C85.532 12.0313 84.5879 9.73689 84.2922 8.82125C83.9964 7.90561 83.0416 5.80712 82.981 5.19788C82.9205 4.58865 82.9917 2.80012 82.0155 1.35006C81.0393 -0.100001 80.1985 -0.395713 80.0168 0.548429C79.8351 1.49257 80.1094 2.87494 81.531 4.38557C82.9525 5.89976 83.3195 7.37119 83.3195 7.37119L84 9.44118C84 9.44118 83.0238 8.26189 81.1569 7.32844C79.29 6.39499 79.094 7.33913 79.4931 7.81654C79.8885 8.29396 80.4087 8.91032 82.5499 9.40912C84.399 9.90791 84.1354 10.0682 84.285 10.5065C84.4382 10.9447 85.3717 13.4707 85.5142 14.0194C85.6567 14.5681 86.0201 15.277 85.9702 16.2533C85.9702 16.2533 85.5142 16.0181 85.2684 15.0668C85.0261 14.112 84.8836 13.1465 84.4062 12.6192C83.9288 12.0919 83.43 11.928 83.4015 12.6584C83.3694 13.3888 83.8682 14.1084 84.3777 14.8531C84.8836 15.5941 86.0629 16.9765 86.2446 17.6463C86.4263 18.3161 86.5082 18.8149 86.5189 19.5667C86.5189 19.5667 84.7518 17.0406 84.3456 16.4385C83.9394 15.84 83.6758 15.3412 83.1984 14.4398C82.721 13.5348 81.4918 10.9874 80.537 11.3223C79.5821 11.6572 81.1569 13.6774 81.4811 14.0229C81.8053 14.3685 83.6651 15.9326 83.8967 16.4599C84.1318 16.9872 84.1211 17.0976 83.5511 16.7449C82.981 16.3886 81.8053 15.4445 81.0536 15.4766C80.3018 15.5086 80.4835 16.3281 81.7733 16.7342C83.063 17.1404 83.6829 17.1903 84.1069 17.4147C84.5344 17.6392 85.4073 18.3589 85.4964 19.0073C85.589 19.6557 85.5071 21.5654 85.1223 23.4145C84.7375 25.2636 83.9252 27.9214 82.1153 29.5283C80.3054 31.1351 78.2568 31.7372 75.3175 31.0175C72.3781 30.3014 70.5789 26.3859 70.2797 25.3455C69.9804 24.3016 69.3034 21.797 69.25 18.3339C69.1966 14.8709 69.6847 11.4577 70.7393 8.81769C71.7938 6.17765 73.9672 3.88321 77.138 3.84046C78.9052 3.77989 80.284 4.51026 80.284 4.51026L78.4563 3.27041L78.467 3.26685Z" fill="#824435"/>
<path d="M117.245 30.9894C116.429 30.9395 115.652 29.5002 114.879 27.6653C114.106 25.8305 112.788 23.1263 112.474 22.5278C112.161 21.9292 111.266 20.529 109.895 20.0516C109.895 20.0516 112.25 19.7274 113.6 18.5089C114.95 17.2905 115.902 15.5126 116.144 13.6065C116.39 11.6969 116.333 9.9119 115.834 8.46184C115.332 7.01178 114.452 5.42989 112.57 4.37174C110.689 3.31715 107.251 3.40978 107.251 3.40978H97.1934V31.5167H101.903V20.0908H105.562C105.666 20.0908 105.765 20.1122 105.858 20.1549C106.168 20.2939 106.873 20.6644 107.226 21.3164C107.686 22.1679 108.466 23.6928 108.951 24.979C109.439 26.2652 110.073 27.7687 110.75 29.0014C111.427 30.2341 112.414 31.0714 113.849 31.3421C115.285 31.6129 117.206 31.4633 117.993 31.2353C117.993 31.2353 118.057 31.0464 117.238 30.9966M107.084 19.4709H101.903V4.07959H107.597C110.49 4.34324 111.327 7.79559 111.448 10.2539C111.569 12.7123 111.569 14.8036 110.454 17.262C109.335 19.7203 107.084 19.4745 107.084 19.4745" fill="#824435"/>
</g>
<defs>
<clipPath id="clip0_159_356">
<rect width="118" height="31.994" fill="white"/>
</clipPath>
</defs>
</svg>
