<svg width="148" height="40" viewBox="0 0 148 40" fill="none" xmlns="http://www.w3.org/2000/svg">
<g clip-path="url(#clip0_37_616)">
<path d="M0 39.2961L14.4157 4.2627H15.229L29.6492 39.2961H23.5361L12.1769 11.7772L0.916063 39.2961H0Z" fill="#824435"/>
<path d="M36.7812 39.2961V4.2627H42.8273L54.1864 31.8039L65.6305 4.2627H71.6408V39.2961H65.6618V6.08898L52.037 39.3986H51.2461L37.5945 6.34287V39.2961H36.7812Z" fill="#824435"/>
<path d="M98.4165 4.08469C98.4165 4.08469 91.5393 3.29628 86.5971 7.25619C81.6548 11.2161 80.3813 17.8174 81.0426 25.6883C82.0257 33.6259 86.5122 39.2473 95.2036 39.9243C103.899 40.6014 108.891 36.7083 110.929 32.882C112.881 29.5457 113.033 26.2985 113.033 26.2985C113.033 26.2985 115.911 26.1738 116.447 25.3854C116.984 24.5969 116 24.2183 115.455 24.4722C115.455 24.4722 113.811 25.5145 113.114 25.5012C113.114 25.5012 113.163 25.323 113.127 24.8553C113.127 24.8553 117.064 21.9243 117.408 20.539C117.752 19.1537 117.14 18.9399 116.631 19.3052C116.121 19.6749 114.731 20.5747 113.284 23.4923C112.113 25.372 111.858 25.4076 111.371 26.0179C110.888 26.6281 109.293 28.3297 108.797 29.5101C108.797 29.5101 108.797 27.6571 109.32 26.7662C109.843 25.8798 110.339 25.2695 111.076 24.6727C111.813 24.0758 113.444 22.245 113.52 20.8998C113.57 19.7595 112.399 20.1649 111.889 21.0379C111.38 21.911 111.545 22.4366 111.036 23.2206C110.526 24.009 109.789 25.0468 109.789 25.0468C109.789 25.0468 110.16 23.5724 110.911 21.8085C111.661 20.0446 112.399 17.7996 112.908 17.5056C113.418 17.2116 113.556 17.0602 114.946 16.8063C116.336 16.5524 119.061 15.8174 119.173 14.8018C119.285 13.7863 117.824 13.568 116.474 14.4722C115.125 15.372 113.292 16.5658 112.998 16.7306C112.998 16.7306 113.824 14.3564 114.973 12.539C116.121 10.7261 116.59 10.7128 117.801 9.4299C119.012 8.14705 119.204 5.36755 118.503 5.24282C117.801 5.11365 116.479 6.28514 115.79 7.7328C115.102 9.18046 114.95 11.4923 114.606 12.0624C114.262 12.6326 111.103 19.6036 111.013 19.8085C111.013 19.8085 111.014 18.9577 111.152 18.401C111.291 17.8442 111.393 15.3141 111.125 14.7083C110.857 14.0981 110.057 14.0847 109.735 14.8464C109.418 15.6081 109.262 17.4611 109.391 18.2495C109.517 19.0379 110.039 21.029 109.798 22.2629C109.557 23.4923 109.083 24.8776 109.083 24.8776C109.083 24.8776 108.623 21.9199 108.511 21.0335C108.395 20.1426 108.002 17.2517 108.167 16.1693C108.332 15.0914 108.779 13.7818 108.945 12.8687C109.11 11.9555 109.159 10.6727 108.627 9.86198C108.091 9.05129 107.238 9.54572 107.099 10.9177C106.96 12.2896 107.278 15.0424 107.278 15.0424C107.278 15.0424 106.094 12.1738 105.723 11.029C105.352 9.88425 104.154 7.26064 104.078 6.49895C104.002 5.73726 104.092 3.50118 102.867 1.68826C101.643 -0.12466 100.588 -0.49437 100.36 0.686031C100.132 1.86643 100.477 3.59472 102.26 5.48336C104.042 7.37645 104.503 9.2161 104.503 9.2161L105.356 11.8041C105.356 11.8041 104.132 10.3297 101.79 9.16264C99.4488 7.99561 99.203 9.17601 99.7035 9.77289C100.199 10.3698 100.852 11.1404 103.538 11.764C105.857 12.3876 105.526 12.588 105.714 13.1359C105.906 13.6838 107.077 16.8419 107.255 17.5279C107.434 18.2139 107.89 19.1003 107.827 20.3208C107.827 20.3208 107.255 20.0268 106.947 18.8375C106.643 17.6437 106.464 16.4366 105.866 15.7773C105.267 15.1181 104.641 14.9132 104.606 15.8263C104.565 16.7395 105.191 17.6393 105.83 18.5702C106.464 19.4967 107.944 21.225 108.171 22.0624C108.399 22.8998 108.502 23.5234 108.516 24.4633C108.516 24.4633 106.299 21.3052 105.79 20.5524C105.28 19.8041 104.95 19.1805 104.351 18.0535C103.752 16.9221 102.21 13.7373 101.013 14.156C99.8152 14.5747 101.79 17.1003 102.197 17.5324C102.604 17.9644 104.936 19.9199 105.227 20.5791C105.522 21.2384 105.508 21.3765 104.793 20.9355C104.078 20.49 102.604 19.3096 101.661 19.3497C100.718 19.3898 100.946 20.4143 102.563 20.9221C104.181 21.4299 104.959 21.4923 105.49 21.7729C106.027 22.0535 107.121 22.9533 107.233 23.764C107.349 24.5747 107.246 26.9622 106.764 29.274C106.281 31.5858 105.262 34.9087 102.992 36.9177C100.722 38.9266 98.1529 39.6793 94.4663 38.7796C90.7797 37.8842 88.523 32.9889 88.1477 31.6883C87.7723 30.3831 86.9233 27.2517 86.8563 22.9221C86.7892 18.5925 87.4014 14.3252 88.7241 11.0246C90.0468 7.72389 92.7727 4.8553 96.7497 4.80184C98.9662 4.72612 100.696 5.63926 100.696 5.63926L98.4031 4.08915L98.4165 4.08469Z" fill="#824435"/>
<path d="M147.053 38.7439C146.029 38.6815 145.055 36.882 144.085 34.588C143.116 32.294 141.462 28.9132 141.069 28.1648C140.676 27.4165 139.554 25.666 137.834 25.0691C137.834 25.0691 140.788 24.6637 142.481 23.1403C144.175 21.617 145.368 19.3942 145.672 17.0112C145.98 14.6236 145.909 12.392 145.283 10.5791C144.653 8.76618 143.549 6.78845 141.19 5.46551C138.83 4.14703 134.518 4.26284 134.518 4.26284H121.903V39.4031H127.811V25.1181H132.4C132.53 25.1181 132.655 25.1448 132.771 25.1983C133.16 25.372 134.045 25.8352 134.487 26.6504C135.063 27.715 136.042 29.6214 136.65 31.2294C137.262 32.8374 138.057 34.7172 138.906 36.2584C139.755 37.7996 140.993 38.8464 142.794 39.1849C144.595 39.5234 147.003 39.3363 147.991 39.0513C147.991 39.0513 148.071 38.8152 147.044 38.7528M134.308 24.343H127.811V5.10026H134.952C138.58 5.42988 139.63 9.74614 139.782 12.8196C139.934 15.8931 139.934 18.5078 138.535 21.5813C137.132 24.6548 134.308 24.3475 134.308 24.3475" fill="#824435"/>
</g>
<defs>
<clipPath id="clip0_37_616">
<rect width="148" height="40" fill="white"/>
</clipPath>
</defs>
</svg>
