<svg width="295" height="80" viewBox="0 0 295 80" fill="none" xmlns="http://www.w3.org/2000/svg">
<g clip-path="url(#clip0_243_397)">
<path d="M0 78.6253L28.7168 8.52222H30.3656L59.0824 78.6253H46.8995L24.2742 23.5509L1.83201 78.6253H0Z" fill="#824435"/>
<path d="M11.8623 53.9749C11.8623 53.9749 15.0225 50.6301 18.4575 50.5384C21.8926 50.4468 24.2284 52.0505 24.8238 52.4628C25.4192 52.8752 28.8084 55.8993 33.5259 56.3116C33.5259 56.3116 30.9152 60.2063 25.0986 61.6725C22.0758 62.4056 18.8697 62.2223 15.9843 61.031C12.4119 59.5648 10.4883 57.2738 10.4883 57.2738C10.4883 57.2738 13.6943 54.7996 18.4575 56.3575C23.2208 57.9153 23.4498 58.0069 27.8466 57.8695C27.8466 57.8695 22.2132 57.732 19.2819 55.6244C16.3507 53.5167 11.9997 54.708 11.4501 54.9371C10.9005 55.1662 11.8623 53.9749 11.8623 53.9749Z" fill="#824435"/>
<path d="M73.3264 78.6253V8.52222H85.3719L107.997 63.5967L130.806 8.52222H142.806V78.6253H130.897V12.1877L103.738 78.8086H102.135L74.9294 12.6917V78.6253H73.3264Z" fill="#824435"/>
<path d="M196.163 8.1559C196.163 8.1559 182.469 6.59805 172.621 14.5247C162.774 22.4514 160.255 35.6473 161.538 51.409C163.507 67.3083 172.438 78.5339 189.751 79.8627C207.063 81.2372 217.048 73.448 221.078 65.7962C224.971 59.1066 225.292 52.6462 225.292 52.6462C225.292 52.6462 231.017 52.3713 232.116 50.8134C233.17 49.2556 231.246 48.4766 230.147 48.9806C230.147 48.9806 226.895 51.0425 225.475 51.0425C225.475 51.0425 225.567 50.6759 225.475 49.7596C225.475 49.7596 233.307 43.8947 233.994 41.1456C234.681 38.3964 233.444 37.9383 232.437 38.6714C231.429 39.4045 228.635 41.1914 225.75 47.0562C223.414 50.8134 222.91 50.905 221.948 52.0963C220.987 53.3334 217.826 56.7241 216.819 59.0608C216.819 59.0608 216.819 55.3495 217.872 53.5625C218.926 51.7756 219.887 50.5843 221.353 49.393C222.819 48.2017 226.07 44.5362 226.208 41.8329C226.299 39.5419 223.964 40.3667 222.956 42.1078C221.948 43.8489 222.269 44.9028 221.261 46.4606C220.254 48.0184 218.788 50.1261 218.788 50.1261C218.788 50.1261 219.521 47.1937 221.032 43.6656C222.544 40.1376 224.009 35.6473 225.017 35.0517C226.025 34.456 226.299 34.1811 229.093 33.6771C231.841 33.1731 237.292 31.7069 237.521 29.645C237.75 27.629 234.818 27.1708 232.162 29.0035C229.46 30.7905 225.796 33.1731 225.246 33.5396C225.246 33.5396 226.895 28.7745 229.185 25.1548C231.475 21.535 232.391 21.4892 234.818 18.9234C237.246 16.3575 237.612 10.8134 236.192 10.5385C234.818 10.2636 232.162 12.6003 230.788 15.5328C229.414 18.4194 229.093 23.0471 228.406 24.1926C227.719 25.338 221.445 39.267 221.261 39.6794C221.261 39.6794 221.261 37.9841 221.536 36.8386C221.811 35.7389 222.04 30.653 221.49 29.4617C220.941 28.2246 219.338 28.2246 218.742 29.7367C218.101 31.2487 217.781 34.96 218.055 36.5637C218.33 38.1215 219.338 42.1078 218.88 44.582C218.376 47.0562 217.46 49.8054 217.46 49.8054C217.46 49.8054 216.544 43.8947 216.315 42.1078C216.086 40.3208 215.307 34.5477 215.628 32.3942C215.949 30.2407 216.865 27.629 217.185 25.7962C217.506 23.9635 217.597 21.3976 216.544 19.7939C215.491 18.1903 213.796 19.1525 213.475 21.9016C213.201 24.6507 213.842 30.149 213.842 30.149C213.842 30.149 211.46 24.4216 210.727 22.1307C209.995 19.8397 207.613 14.5706 207.476 13.0585C207.338 11.5465 207.476 7.05624 205.048 3.43654C202.621 -0.183162 200.514 -0.916266 200.056 1.4205C199.598 3.80309 200.285 7.23952 203.857 10.9967C207.43 14.7997 208.346 18.4652 208.346 18.4652L210.04 23.6427C210.04 23.6427 207.613 20.7103 202.941 18.3735C198.27 16.0368 197.766 18.3735 198.773 19.6107C199.781 20.8019 201.063 22.3598 206.422 23.5969C211.048 24.834 210.361 25.2464 210.773 26.346C211.14 27.4457 213.475 33.7687 213.842 35.1433C214.208 36.5179 215.124 38.3048 214.987 40.7332C214.987 40.7332 213.842 40.1376 213.246 37.755C212.651 35.3724 212.285 32.944 211.094 31.6152C209.903 30.2865 208.666 29.8741 208.575 31.7069C208.483 33.5396 209.72 35.3266 211.002 37.2052C212.285 39.0379 215.216 42.5202 215.674 44.1696C216.132 45.8649 216.315 47.1021 216.361 48.9806C216.361 48.9806 211.964 42.6576 210.911 41.1456C209.903 39.6336 209.216 38.3965 208.025 36.1513C206.834 33.9062 203.766 27.5373 201.384 28.3621C199.002 29.1868 202.941 34.2727 203.766 35.0975C204.59 35.968 209.216 39.8627 209.811 41.1914C210.407 42.5202 210.361 42.7951 208.941 41.9245C207.521 41.054 204.59 38.6714 202.712 38.763C200.834 38.8546 201.292 40.9165 204.499 41.9245C207.705 42.9325 209.262 43.07 210.315 43.6198C211.369 44.1696 213.567 46.0024 213.796 47.6061C214.025 49.2097 213.796 54.0207 212.834 58.6485C211.872 63.2762 209.857 69.9199 205.323 73.952C200.789 77.9841 195.659 79.4503 188.331 77.6633C181.003 75.8764 176.469 66.0711 175.736 63.4595C175.003 60.8478 173.308 54.5706 173.171 45.9108C173.034 37.251 174.27 28.7286 176.881 22.1307C179.537 15.5328 184.942 9.80538 192.865 9.66793C197.262 9.53047 200.743 11.3632 200.743 11.3632L196.163 8.24754V8.1559Z" fill="#824435"/>
<path d="M293.122 77.5258C291.061 77.3883 289.138 73.8144 287.214 69.1867C285.29 64.6048 281.993 57.8236 281.214 56.3574C280.435 54.8453 278.191 51.3631 274.756 50.1718C274.756 50.1718 280.664 49.3471 284.008 46.323C287.351 43.299 289.779 38.8545 290.374 34.0435C290.97 29.2783 290.832 24.7881 289.596 21.1684C288.359 17.5487 286.161 13.5624 281.443 10.9507C276.726 8.29322 268.161 8.56814 268.161 8.56814H243.017V78.8545H254.787V50.2634H263.947C264.222 50.2634 264.451 50.3093 264.68 50.4009C265.459 50.7675 267.245 51.6838 268.115 53.2875C269.26 55.441 271.23 59.244 272.42 62.4513C273.657 65.6586 275.214 69.4158 276.909 72.4857C278.603 75.5555 281.077 77.6632 284.649 78.3505C288.222 79.0378 293.031 78.6712 295 78.0756C295 78.0756 295.137 77.6174 293.122 77.4799M267.703 48.7056H254.741V10.2176H268.985C276.222 10.8591 278.329 19.5189 278.603 25.6586C278.924 31.7984 278.924 37.0217 276.13 43.1615C273.336 49.3012 267.703 48.7056 267.703 48.7056Z" fill="#824435"/>
</g>
<defs>
<clipPath id="clip0_243_397">
<rect width="295" height="80" fill="white"/>
</clipPath>
</defs>
</svg>
