<svg width="119" height="32" viewBox="0 0 119 32" fill="none" xmlns="http://www.w3.org/2000/svg">
<g clip-path="url(#clip0_229_933)">
<path d="M0 31.4502L11.5841 3.40894H12.2492L23.8333 31.4502H18.9188L9.79196 9.42039L0.739016 31.4502H0Z" fill="white"/>
<path d="M4.78513 21.5899C4.78513 21.5899 6.05993 20.252 7.44558 20.2154C8.83124 20.1787 9.77348 20.8202 10.0137 20.9851C10.2538 21.1501 11.621 22.3597 13.524 22.5247C13.524 22.5247 12.4709 24.0825 10.1245 24.669C8.90514 24.9622 7.61186 24.8889 6.44791 24.4124C5.00683 23.8259 4.23087 22.9095 4.23087 22.9095C4.23087 22.9095 5.52414 21.9198 7.44558 22.543C9.36702 23.1661 9.4594 23.2028 11.233 23.1478C11.233 23.1478 8.96057 23.0928 7.77814 22.2497C6.59572 21.4067 4.84055 21.8832 4.61885 21.9748C4.39714 22.0665 4.78513 21.5899 4.78513 21.5899Z" fill="white"/>
<path d="M29.5791 31.4502V3.40894H34.4381L43.565 25.4387L52.7657 3.40894H57.6063V31.4502H52.8027V4.87514L41.8468 31.5235H41.2001L30.2257 5.07675V31.4502H29.5791Z" fill="white"/>
<path d="M79.1301 3.26229C79.1301 3.26229 73.606 2.63915 69.6338 5.80982C65.6615 8.9805 64.6454 14.2589 65.1627 20.5635C65.9572 26.9232 69.5599 31.4135 76.5436 31.945C83.5273 32.4948 87.5549 29.3791 89.1807 26.3184C90.7511 23.6426 90.8805 21.0584 90.8805 21.0584C90.8805 21.0584 93.1899 20.9484 93.6333 20.3253C94.0582 19.7022 93.2823 19.3906 92.8389 19.5922C92.8389 19.5922 91.5271 20.4169 90.9544 20.4169C90.9544 20.4169 90.9913 20.2703 90.9544 19.9038C90.9544 19.9038 94.1137 17.5578 94.3908 16.4582C94.6679 15.3585 94.1691 15.1752 93.7626 15.4685C93.3562 15.7617 92.2292 16.4765 91.0652 18.8224C90.123 20.3253 89.9197 20.3619 89.5318 20.8385C89.1438 21.3333 87.869 22.6896 87.4625 23.6243C87.4625 23.6243 87.4625 22.1397 87.8874 21.4249C88.3124 20.7102 88.7004 20.2337 89.2916 19.7571C89.8828 19.2806 91.1945 17.8144 91.25 16.7331C91.2869 15.8167 90.3447 16.1466 89.9382 16.843C89.5318 17.5395 89.6611 17.961 89.2546 18.5842C88.8482 19.2073 88.257 20.0504 88.257 20.0504C88.257 20.0504 88.5526 18.8774 89.1622 17.4662C89.7719 16.055 90.3632 14.2589 90.7696 14.0206C91.1761 13.7823 91.2869 13.6724 92.4139 13.4708C93.5224 13.2692 95.721 12.6827 95.8134 11.8579C95.9058 11.0515 94.7233 10.8682 93.6518 11.6013C92.5617 12.3161 91.0837 13.2692 90.862 13.4158C90.862 13.4158 91.5271 11.5097 92.4509 10.0618C93.3746 8.61395 93.7441 8.59562 94.7233 7.56927C95.7025 6.54293 95.8503 4.32529 95.2776 4.21532C94.7233 4.10536 93.6518 5.04006 93.0975 6.21303C92.5432 7.36767 92.4139 9.21876 92.1368 9.67695C91.8597 10.1351 89.3285 15.7067 89.2546 15.8717C89.2546 15.8717 89.2546 15.1936 89.3655 14.7354C89.4763 14.2955 89.5687 12.2611 89.347 11.7846C89.1253 11.2898 88.4787 11.2898 88.2385 11.8946C87.9798 12.4994 87.8505 13.9839 87.9614 14.6254C88.0722 15.2485 88.4787 16.843 88.2939 17.8327C88.0907 18.8224 87.7212 19.9221 87.7212 19.9221C87.7212 19.9221 87.3517 17.5578 87.2593 16.843C87.1669 16.1283 86.8528 13.819 86.9822 12.9576C87.1115 12.0962 87.481 11.0515 87.6103 10.3184C87.7396 9.58531 87.7766 8.55897 87.3517 7.9175C86.9267 7.27603 86.2431 7.66091 86.1138 8.76057C86.003 9.86023 86.2616 12.0595 86.2616 12.0595C86.2616 12.0595 85.3009 9.76859 85.0053 8.85221C84.7097 7.93583 83.749 5.82815 83.6935 5.22334C83.6381 4.61853 83.6935 2.82242 82.7143 1.37454C81.7351 -0.0733381 80.8853 -0.36658 80.7005 0.568128C80.5158 1.52116 80.7929 2.89573 82.234 4.3986C83.6751 5.91979 84.0446 7.386 84.0446 7.386L84.7282 9.45702C84.7282 9.45702 83.749 8.28405 81.8645 7.34934C79.98 6.41464 79.7768 7.34934 80.1832 7.84419C80.5897 8.32071 81.107 8.94384 83.2686 9.43869C85.1346 9.93354 84.8575 10.0985 85.0238 10.5383C85.1716 10.9782 86.1138 13.5074 86.2616 14.0572C86.4094 14.6071 86.7789 15.3219 86.7235 16.2932C86.7235 16.2932 86.2616 16.055 86.0214 15.1019C85.7813 14.1489 85.6335 13.1775 85.1531 12.646C84.6727 12.1145 84.1739 11.9496 84.1369 12.6827C84.1 13.4158 84.5988 14.1306 85.1161 14.882C85.6334 15.6151 86.8159 17.008 87.0006 17.6678C87.1854 18.3459 87.2593 18.8408 87.2778 19.5922C87.2778 19.5922 85.5041 17.063 85.0792 16.4582C84.6727 15.8534 84.3956 15.3585 83.9152 14.4605C83.4349 13.5624 82.197 11.0149 81.2363 11.3448C80.2756 11.6747 81.8645 13.709 82.197 14.0389C82.5296 14.3871 84.3956 15.945 84.6358 16.4765C84.876 17.008 84.8575 17.118 84.2847 16.7697C83.712 16.4215 82.5296 15.4685 81.7721 15.5051C81.0146 15.5418 81.1994 16.3665 82.4926 16.7697C83.7859 17.1729 84.4141 17.2279 84.839 17.4479C85.2639 17.6678 86.1508 18.4009 86.2431 19.0424C86.3355 19.6838 86.2431 21.6082 85.8552 23.4593C85.4672 25.3104 84.6543 27.9679 82.8252 29.5807C80.9961 31.1936 78.9269 31.78 75.9708 31.0653C73.0148 30.3505 71.1857 26.4284 70.8901 25.3837C70.5945 24.339 69.9109 21.8282 69.8555 18.3642C69.8 14.9003 70.2989 11.4914 71.352 8.85221C72.4235 6.21303 74.6036 3.92208 77.7999 3.8671C79.5735 3.81211 80.9777 4.54522 80.9777 4.54522L79.1301 3.29894V3.26229Z" fill="white"/>
<path d="M118.243 31.0103C117.411 30.9553 116.635 29.5258 115.859 27.6747C115.083 25.8419 113.753 23.1294 113.439 22.5429C113.125 21.9381 112.22 20.5452 110.834 20.0687C110.834 20.0687 113.217 19.7388 114.566 18.5292C115.915 17.3196 116.894 15.5418 117.134 13.6174C117.374 11.7113 117.319 9.91522 116.82 8.46733C116.321 7.01945 115.434 5.42495 113.531 4.38028C111.628 3.31728 108.173 3.42724 108.173 3.42724H98.0304V31.5418H102.779V20.1054H106.474C106.585 20.1054 106.677 20.1237 106.769 20.1603C107.083 20.307 107.804 20.6735 108.155 21.315C108.617 22.1764 109.411 23.6976 109.892 24.9805C110.39 26.2634 111.019 27.7663 111.702 28.9943C112.386 30.2222 113.383 31.0653 114.825 31.3402C116.266 31.6151 118.206 31.4685 119 31.2302C119 31.2302 119.055 31.0469 118.243 30.992M107.989 19.4822H102.76V4.08704H108.506C111.425 4.34362 112.275 7.80754 112.386 10.2634C112.515 12.7193 112.515 14.8087 111.388 17.2646C110.261 19.7205 107.989 19.4822 107.989 19.4822Z" fill="white"/>
</g>
<defs>
<clipPath id="clip0_229_933">
<rect width="119" height="32" fill="white"/>
</clipPath>
</defs>
</svg>
