<svg width="119" height="32" viewBox="0 0 119 32" fill="none" xmlns="http://www.w3.org/2000/svg">
<g clip-path="url(#clip0_246_655)">
<path d="M0 31.4502L11.5841 3.40894H12.2492L23.8333 31.4502H18.9188L9.79196 9.42039L0.739016 31.4502H0Z" fill="#824435"/>
<path d="M4.78522 21.5899C4.78522 21.5899 6.06002 20.252 7.44568 20.2154C8.83133 20.1787 9.77357 20.8202 10.0138 20.9851C10.2539 21.1501 11.6211 22.3597 13.5241 22.5247C13.5241 22.5247 12.471 24.0825 10.1246 24.669C8.90523 24.9622 7.61195 24.8889 6.448 24.4124C5.00692 23.8259 4.23096 22.9095 4.23096 22.9095C4.23096 22.9095 5.52424 21.9198 7.44568 22.543C9.36712 23.1661 9.45949 23.2028 11.2331 23.1478C11.2331 23.1478 8.96066 23.0928 7.77823 22.2497C6.59581 21.4067 4.84065 21.8832 4.61894 21.9748C4.39724 22.0665 4.78522 21.5899 4.78522 21.5899Z" fill="#824435"/>
<path d="M29.5791 31.4502V3.40894H34.4381L43.565 25.4387L52.7657 3.40894H57.6063V31.4502H52.8027V4.87514L41.8468 31.5235H41.2001L30.2257 5.07675V31.4502H29.5791Z" fill="#824435"/>
<path d="M79.1302 3.26229C79.1302 3.26229 73.6061 2.63915 69.6339 5.80982C65.6617 8.9805 64.6455 14.2589 65.1628 20.5635C65.9573 26.9232 69.56 31.4135 76.5437 31.945C83.5274 32.4948 87.555 29.3791 89.1808 26.3184C90.7513 23.6426 90.8806 21.0584 90.8806 21.0584C90.8806 21.0584 93.19 20.9484 93.6334 20.3253C94.0584 19.7022 93.2824 19.3906 92.839 19.5922C92.839 19.5922 91.5272 20.4169 90.9545 20.4169C90.9545 20.4169 90.9914 20.2703 90.9545 19.9038C90.9545 19.9038 94.1138 17.5578 94.3909 16.4582C94.668 15.3585 94.1692 15.1752 93.7627 15.4685C93.3563 15.7617 92.2293 16.4765 91.0653 18.8224C90.1231 20.3253 89.9199 20.3619 89.5319 20.8385C89.1439 21.3333 87.8691 22.6896 87.4626 23.6243C87.4626 23.6243 87.4626 22.1397 87.8876 21.4249C88.3125 20.7102 88.7005 20.2337 89.2917 19.7571C89.8829 19.2806 91.1947 17.8144 91.2501 16.7331C91.287 15.8167 90.3448 16.1466 89.9383 16.843C89.5319 17.5395 89.6612 17.961 89.2548 18.5842C88.8483 19.2073 88.2571 20.0504 88.2571 20.0504C88.2571 20.0504 88.5527 18.8774 89.1624 17.4662C89.7721 16.055 90.3633 14.2589 90.7697 14.0206C91.1762 13.7823 91.287 13.6724 92.414 13.4708C93.5226 13.2692 95.7211 12.6827 95.8135 11.8579C95.9059 11.0515 94.7235 10.8682 93.6519 11.6013C92.5618 12.3161 91.0838 13.2692 90.8621 13.4158C90.8621 13.4158 91.5272 11.5097 92.451 10.0618C93.3748 8.61395 93.7443 8.59562 94.7235 7.56927C95.7027 6.54293 95.8505 4.32529 95.2777 4.21532C94.7235 4.10536 93.6519 5.04006 93.0976 6.21303C92.5434 7.36767 92.414 9.21876 92.1369 9.67695C91.8598 10.1351 89.3287 15.7067 89.2548 15.8717C89.2548 15.8717 89.2547 15.1936 89.3656 14.7354C89.4765 14.2955 89.5688 12.2611 89.3471 11.7846C89.1254 11.2898 88.4788 11.2898 88.2386 11.8946C87.9799 12.4994 87.8506 13.9839 87.9615 14.6254C88.0723 15.2485 88.4788 16.843 88.294 17.8327C88.0908 18.8224 87.7213 19.9221 87.7213 19.9221C87.7213 19.9221 87.3518 17.5578 87.2594 16.843C87.167 16.1283 86.853 13.819 86.9823 12.9576C87.1116 12.0962 87.4811 11.0515 87.6104 10.3184C87.7398 9.58531 87.7767 8.55897 87.3518 7.9175C86.9268 7.27603 86.2433 7.66091 86.1139 8.76057C86.0031 9.86023 86.2617 12.0595 86.2617 12.0595C86.2617 12.0595 85.301 9.76859 85.0054 8.85221C84.7098 7.93583 83.7491 5.82815 83.6937 5.22334C83.6382 4.61853 83.6937 2.82242 82.7145 1.37454C81.7353 -0.0733381 80.8854 -0.36658 80.7006 0.568128C80.5159 1.52116 80.793 2.89573 82.2341 4.3986C83.6752 5.91979 84.0447 7.386 84.0447 7.386L84.7283 9.45702C84.7283 9.45702 83.7491 8.28405 81.8646 7.34934C79.9801 6.41464 79.7769 7.34934 80.1833 7.84419C80.5898 8.32071 81.1071 8.94384 83.2687 9.43869C85.1347 9.93354 84.8576 10.0985 85.0239 10.5383C85.1717 10.9782 86.1139 13.5074 86.2617 14.0572C86.4095 14.6071 86.779 15.3219 86.7236 16.2932C86.7236 16.2932 86.2617 16.055 86.0216 15.1019C85.7814 14.1489 85.6336 13.1775 85.1532 12.646C84.6729 12.1145 84.174 11.9496 84.1371 12.6827C84.1001 13.4158 84.5989 14.1306 85.1163 14.882C85.6336 15.6151 86.816 17.008 87.0008 17.6678C87.1855 18.3459 87.2594 18.8408 87.2779 19.5922C87.2779 19.5922 85.5042 17.063 85.0793 16.4582C84.6729 15.8534 84.3957 15.3585 83.9154 14.4605C83.435 13.5624 82.1972 11.0149 81.2364 11.3448C80.2757 11.6747 81.8646 13.709 82.1972 14.0389C82.5297 14.3871 84.3957 15.945 84.6359 16.4765C84.8761 17.008 84.8576 17.118 84.2849 16.7697C83.7121 16.4215 82.5297 15.4685 81.7722 15.5051C81.0147 15.5418 81.1995 16.3665 82.4928 16.7697C83.786 17.1729 84.4142 17.2279 84.8391 17.4479C85.2641 17.6678 86.1509 18.4009 86.2433 19.0424C86.3356 19.6838 86.2433 21.6082 85.8553 23.4593C85.4673 25.3104 84.6544 27.9679 82.8253 29.5807C80.9963 31.1936 78.927 31.78 75.9709 31.0653C73.0149 30.3505 71.1858 26.4284 70.8902 25.3837C70.5946 24.339 69.911 21.8282 69.8556 18.3642C69.8002 14.9003 70.299 11.4914 71.3521 8.85221C72.4237 6.21303 74.6038 3.92208 77.8 3.8671C79.5736 3.81211 80.9778 4.54522 80.9778 4.54522L79.1302 3.29894V3.26229Z" fill="#824435"/>
<path d="M118.242 31.0103C117.411 30.9553 116.635 29.5258 115.859 27.6747C115.083 25.8419 113.753 23.1294 113.439 22.5429C113.125 21.9381 112.219 20.5452 110.834 20.0687C110.834 20.0687 113.217 19.7388 114.566 18.5292C115.914 17.3196 116.894 15.5418 117.134 13.6174C117.374 11.7113 117.319 9.91522 116.82 8.46733C116.321 7.01945 115.434 5.42495 113.531 4.38028C111.628 3.31728 108.173 3.42724 108.173 3.42724H98.0303V31.5418H102.778V20.1054H106.474C106.584 20.1054 106.677 20.1237 106.769 20.1603C107.083 20.307 107.804 20.6735 108.155 21.315C108.617 22.1764 109.411 23.6976 109.891 24.9805C110.39 26.2634 111.018 27.7663 111.702 28.9943C112.386 30.2222 113.383 31.0653 114.824 31.3402C116.265 31.6151 118.205 31.4685 119 31.2302C119 31.2302 119.055 31.0469 118.242 30.992M107.989 19.4822H102.76V4.08704H108.506C111.425 4.34362 112.275 7.80754 112.386 10.2634C112.515 12.7193 112.515 14.8087 111.388 17.2646C110.261 19.7205 107.989 19.4822 107.989 19.4822Z" fill="#824435"/>
</g>
<defs>
<clipPath id="clip0_246_655">
<rect width="119" height="32" fill="white"/>
</clipPath>
</defs>
</svg>
