<?xml version="1.0" standalone="no"?>
<!DOCTYPE svg PUBLIC "-//W3C//DTD SVG 20010904//EN"
 "http://www.w3.org/TR/2001/REC-SVG-20010904/DTD/svg10.dtd">
<svg version="1.0" xmlns="http://www.w3.org/2000/svg"
 width="14174.000000pt" height="10135.000000pt" viewBox="0 0 14174.000000 10135.000000"
 preserveAspectRatio="xMidYMid meet">

<g transform="translate(0.000000,10135.000000) scale(0.100000,-0.100000)"
fill="#000000" stroke="none">
<path d="M0 50675 l0 -50675 70870 0 70870 0 0 50675 0 50675 -70870 0 -70870
0 0 -50675z m64970 36046 c135 -6 364 -15 510 -21 652 -26 1499 -88 1935 -140
94 -12 193 -23 220 -26 61 -7 498 -67 653 -90 75 -12 109 -20 100 -27 -9 -6
-8 -7 4 -3 10 3 75 -4 145 -15 70 -11 158 -25 196 -31 37 -6 67 -14 67 -17 0
-3 17 -7 38 -8 36 -3 65 -8 187 -37 33 -8 86 -17 118 -21 62 -8 65 -21 7 -28
-30 -3 -29 -4 12 -5 25 -1 48 3 50 8 2 7 24 4 58 -7 30 -9 62 -18 70 -19 8 0
23 -2 33 -3 21 -1 23 -21 2 -21 -8 0 -15 -9 -15 -20 0 -24 32 -27 50 -5 8 9
28 15 54 14 l41 -2 -35 -6 -35 -7 28 -7 c16 -4 43 -6 60 -4 18 2 23 2 12 -1
l-20 -4 20 -9 c17 -6 17 -8 3 -8 -14 -1 -18 -10 -18 -41 l0 -40 40 0 40 0 0
-40 0 -40 80 0 80 0 0 -40 0 -40 40 0 40 0 0 -40 0 -40 40 0 40 0 0 -40 0 -40
80 0 80 0 0 -40 0 -40 40 0 40 0 0 -40 0 -40 40 0 40 0 0 -40 0 -40 40 0 40 0
0 -40 0 -40 40 0 40 0 0 -40 0 -40 80 0 80 0 0 -40 0 -40 40 0 40 0 0 -40 0
-40 40 0 40 0 0 -40 0 -40 40 0 40 0 0 -80 0 -80 40 0 40 0 0 40 0 40 40 0 40
0 0 -40 0 -40 40 0 40 0 0 -40 0 -40 40 0 40 0 0 -40 0 -40 40 0 40 0 0 -40 0
-40 80 0 80 0 0 -40 0 -40 40 0 40 0 0 -40 0 -40 40 0 40 0 0 -40 0 -40 40 0
40 0 0 -40 0 -40 80 0 80 0 0 -40 0 -40 40 0 40 0 0 -40 0 -40 40 0 40 0 0
-40 0 -40 40 0 40 0 0 -40 0 -40 80 0 80 0 0 -40 0 -40 40 0 40 0 0 -40 0 -40
40 0 40 0 0 -40 0 -40 40 0 40 0 0 -40 0 -40 40 0 40 0 0 -40 0 -40 80 0 80 0
0 -40 0 -40 40 0 40 0 0 -40 0 -40 40 0 40 0 0 -40 0 -40 80 0 80 0 0 -40 0
-40 40 0 40 0 0 -40 0 -40 40 0 40 0 0 -40 0 -40 40 0 40 0 0 -40 0 -40 40 0
40 0 0 -40 0 -40 80 0 80 0 0 -40 0 -40 40 0 40 0 0 -40 0 -40 40 0 40 0 0
-40 0 -40 40 0 40 0 0 -40 0 -40 40 0 40 0 0 -40 0 -40 80 0 80 0 0 -40 0 -40
40 0 40 0 0 -40 0 -40 40 0 40 0 0 -40 0 -40 40 0 40 0 0 -80 0 -80 40 0 40 0
0 40 0 40 40 0 40 0 0 -40 0 -40 40 0 40 0 0 -40 0 -40 40 0 40 0 0 -40 0 -40
40 0 40 0 0 -40 0 -40 80 0 80 0 0 -40 0 -40 40 0 40 0 0 -40 0 -40 40 0 40 0
0 -40 0 -40 40 0 40 0 0 -40 0 -40 80 0 80 0 0 -40 0 -40 40 0 40 0 0 -40 0
-40 40 0 40 0 0 -40 0 -40 40 0 40 0 0 -40 0 -40 80 0 80 0 0 -40 0 -40 40 0
40 0 0 -40 0 -40 40 0 40 0 0 -40 0 -40 40 0 40 0 0 -40 0 -40 40 0 40 0 0
-40 0 -40 80 0 80 0 0 -40 0 -40 40 0 40 0 0 -40 0 -40 40 0 40 0 0 -40 0 -40
40 0 40 0 0 -40 0 -40 80 0 80 0 0 -40 0 -40 40 0 40 0 0 -40 0 -40 40 0 40 0
0 -40 0 -40 40 0 40 0 0 -40 0 -40 80 0 80 0 0 -40 0 -40 40 0 40 0 0 -40 0
-40 40 0 40 0 0 -40 0 -40 40 0 40 0 0 -40 0 -40 80 0 80 0 0 -40 0 -40 40 0
40 0 0 -40 0 -40 40 0 40 0 0 -40 0 -40 40 0 40 0 0 -40 0 -40 80 0 80 0 0
-40 0 -40 40 0 40 0 0 -40 0 -40 40 0 40 0 0 -40 0 -40 40 0 40 0 0 -40 0 -40
40 0 40 0 0 -40 0 -40 79 0 78 0 7 -40 c5 -32 11 -40 27 -40 11 0 29 10 39 22
17 22 17 21 14 -37 -2 -37 0 -52 5 -40 8 19 8 19 15 -2 4 -13 14 -23 22 -23 8
0 14 -9 14 -20 0 -11 3 -20 8 -20 15 0 31 -52 22 -71 -12 -22 -13 -29 -1 -29
5 0 11 8 13 18 3 11 9 3 17 -23 13 -39 25 -68 56 -139 8 -19 15 -41 15 -49 0
-9 5 -19 10 -22 6 -4 8 -11 5 -16 -4 -5 -2 -9 2 -9 5 0 9 -10 10 -22 1 -11 7
-24 13 -28 7 -4 13 -19 13 -33 1 -14 6 -23 11 -20 4 3 5 -5 1 -17 -4 -13 -3
-20 2 -17 17 11 116 -277 108 -313 -4 -17 -3 -21 3 -11 13 18 26 -4 17 -27 -3
-9 -3 -13 1 -9 4 4 16 -16 26 -45 10 -28 16 -54 13 -56 -3 -3 -1 -10 3 -16 18
-24 43 -106 36 -118 -4 -7 -3 -9 1 -5 9 8 21 -23 59 -160 14 -49 19 -83 13
-83 -6 0 -4 -6 5 -12 8 -7 20 -31 26 -53 5 -22 22 -84 36 -138 15 -54 23 -104
20 -110 -4 -7 -3 -9 1 -4 9 7 21 -36 83 -298 41 -167 134 -646 156 -795 9 -63
21 -137 26 -165 28 -151 90 -742 110 -1030 33 -505 38 -1276 11 -1755 -54
-933 -206 -1824 -467 -2733 -165 -576 -387 -1174 -629 -1697 -136 -293 -252
-514 -483 -920 -176 -311 -549 -855 -821 -1200 -405 -514 -1021 -1200 -1431
-1595 -789 -760 -1758 -1448 -3055 -2172 -88 -49 -197 -117 -243 -151 -285
-211 -623 -322 -987 -323 -169 -1 -276 11 -417 47 -420 105 -773 359 -1011
725 -213 328 -305 737 -253 1129 47 354 200 675 444 932 54 57 134 155 177
218 287 419 611 822 958 1190 678 721 1437 2731 1762 4669 101 600 152 1056
197 1736 17 261 17 1254 0 1490 -60 830 -179 1490 -412 2284 -53 181 -203 618
-243 711 -9 19 -41 100 -73 180 -231 588 -603 1291 -987 1865 -87 130 -272
389 -331 465 -28 36 -54 70 -58 75 -76 104 -302 379 -442 540 -403 461 -889
921 -1366 1293 -58 46 -110 86 -116 91 -136 108 -588 422 -779 540 -1119 696
-2379 1164 -3655 1355 -979 147 -2113 215 -3420 203 -778 -7 -1082 -18 -2015
-72 -1206 -70 -2333 -113 -4545 -170 -113 -3 -254 -7 -315 -10 -60 -3 -204 -7
-320 -10 -115 -3 -252 -8 -304 -11 l-94 -6 7 -1532 c3 -842 10 -3110 16 -5041
5 -1930 12 -4057 15 -4725 7 -1399 3 -1518 -66 -1910 -52 -295 -167 -686 -284
-960 -66 -155 -438 -892 -775 -1535 -31 -60 -92 -177 -135 -260 -213 -411
-610 -1158 -775 -1460 -15 -27 -43 -79 -62 -115 -38 -71 -66 -120 -277 -498
-77 -139 -141 -256 -141 -259 0 -3 -8 -17 -19 -31 -21 -31 -232 -418 -338
-622 -210 -404 -935 -1846 -1113 -2215 -88 -182 -181 -377 -222 -465 -17 -36
-60 -126 -95 -200 -36 -74 -72 -152 -80 -172 -8 -21 -19 -38 -25 -38 -5 0 -7
-4 -4 -9 3 -5 -5 -28 -17 -52 -13 -24 -34 -69 -46 -99 -13 -30 -39 -89 -58
-130 -32 -68 -54 -117 -58 -130 -1 -3 -14 -32 -29 -65 -65 -140 -79 -172 -98
-215 -10 -25 -28 -65 -39 -90 -24 -53 -40 -89 -65 -150 -10 -25 -21 -47 -24
-50 -3 -3 -5 -9 -6 -15 0 -9 -13 -40 -44 -110 -23 -52 -39 -93 -51 -128 -12
-35 -14 -37 -27 -20 -13 16 -13 16 -7 -7 9 -30 9 -30 0 -57 -4 -13 -14 -23
-21 -23 -9 0 -14 -11 -14 -29 0 -43 -10 -66 -22 -49 -5 8 -6 3 -2 -14 4 -18 2
-28 -6 -28 -6 0 -8 -4 -5 -10 3 -5 -8 -39 -24 -74 -17 -35 -31 -67 -31 -71 0
-4 -6 -21 -14 -38 -7 -18 -19 -47 -26 -64 -7 -18 -18 -33 -25 -33 -6 0 -20
-10 -31 -22 -10 -12 -13 -18 -6 -14 10 6 11 1 7 -21 l-6 -28 15 30 c19 39 20
18 2 -26 l-14 -34 -8 30 c-4 17 -12 33 -18 37 -8 5 -7 13 2 28 6 11 12 31 12
45 0 23 -3 25 -50 25 l-50 0 0 40 0 40 -80 0 -80 0 0 40 0 40 -40 0 -40 0 0
40 0 40 -40 0 -40 0 0 40 0 40 -40 0 -40 0 0 40 0 40 40 0 40 0 0 40 0 40
-160 0 -160 0 0 40 0 40 -40 0 -40 0 0 40 0 40 -40 0 -40 0 0 40 0 40 -40 0
-40 0 0 40 0 40 -80 0 -80 0 0 40 0 40 -40 0 -40 0 0 40 0 40 -40 0 -40 0 0
40 0 40 40 0 40 0 0 40 0 40 -159 0 -160 0 -4 -42 c-2 -24 -4 -6 -5 40 l-2 82
-30 0 -29 0 -4 -82 c-1 -46 -5 9 -7 122 l-4 205 -6 -245 -6 -245 -4 205 -4
205 -6 -205 -6 -205 -3 285 c-2 157 -7 265 -10 240 -12 -83 -21 1693 -26 5345
-3 1991 -11 4855 -16 6365 -6 1510 -12 3857 -14 5215 -3 2110 -5 2510 -19
2745 -46 793 -123 1359 -257 1880 -312 1216 -950 2065 -1908 2540 -328 163
-651 271 -1118 374 l-162 36 -256 0 -256 0 -42 39 -42 40 0 172 0 173 9210 2
c5380 1 9391 6 9645 12 556 12 3317 7 3640 -7z m4640 -551 c-8 -5 -22 -9 -30
-9 -10 0 -8 3 5 9 27 12 43 12 25 0z m80 -14 c0 -11 -19 -15 -25 -6 -3 5 1 10
9 10 9 0 16 -2 16 -4z m115 -36 c-3 -5 -13 -10 -21 -10 -8 0 -12 -4 -9 -10 3
-5 16 -10 27 -10 12 0 19 -3 15 -6 -3 -4 -18 -4 -32 0 -39 10 -30 43 13 45 7
1 10 -3 7 -9z m40 -10 c-3 -5 2 -10 11 -10 10 0 15 -3 11 -6 -10 -10 -39 5
-32 16 3 5 8 10 11 10 3 0 2 -4 -1 -10z m100 -28 c-3 -3 -11 0 -18 7 -9 10 -8
11 6 5 10 -3 15 -9 12 -12z m92 -18 c-3 -3 -12 -4 -19 -1 -8 3 -5 6 6 6 11 1
17 -2 13 -5z m-215 -51 c-6 -3 -9 -10 -6 -16 5 -8 2 -8 -7 1 -7 6 -21 12 -31
12 -10 0 -18 6 -18 13 0 24 12 27 44 10 17 -9 25 -18 18 -20z m193 27 c3 -5 1
-10 -4 -10 -6 0 -11 5 -11 10 0 6 2 10 4 10 3 0 8 -4 11 -10z m62 4 c-3 -3
-12 -4 -19 -1 -8 3 -5 6 6 6 11 1 17 -2 13 -5z m-50 -40 c-3 -3 -12 -4 -19 -1
-8 3 -5 6 6 6 11 1 17 -2 13 -5z m160 0 c-3 -3 -12 -4 -19 -1 -8 3 -5 6 6 6
11 1 17 -2 13 -5z m226 -51 c-7 -2 -19 -2 -25 0 -7 3 -2 5 12 5 14 0 19 -2 13
-5z m10 -20 c-7 -2 -21 -2 -30 0 -10 3 -4 5 12 5 17 0 24 -2 18 -5z m-56 -9
c-3 -3 -12 -4 -19 -1 -8 3 -5 6 6 6 11 1 17 -2 13 -5z m143 -4 c0 -5 -10 -10
-22 -9 -22 0 -22 1 -3 9 11 5 21 9 23 9 1 1 2 -3 2 -9z m103 -30 l32 -8 -32
-1 c-17 -1 -39 6 -47 15 -20 20 -21 30 -1 14 8 -7 30 -16 48 -20z m67 -19 c0
-8 -43 -41 -53 -41 -2 0 -4 7 -4 15 0 8 9 15 19 15 10 0 18 5 18 10 0 6 5 10
10 10 6 0 10 -4 10 -9z m-90 -5 c0 -2 -7 -6 -15 -10 -8 -3 -15 -1 -15 4 0 6 7
10 15 10 8 0 15 -2 15 -4z m130 -15 c0 -5 10 -7 23 -4 19 4 20 3 5 -7 -13 -8
-23 -8 -38 0 -24 13 -26 20 -5 20 8 0 15 -4 15 -9z m80 -20 c0 -5 18 -12 40
-16 24 -4 40 -12 40 -21 0 -18 36 -36 63 -31 17 2 13 5 -15 11 -21 5 -38 13
-38 18 0 6 8 7 18 3 9 -4 33 -12 52 -17 19 -5 39 -14 45 -19 5 -5 17 -9 28 -9
10 0 15 -4 12 -10 -3 -6 1 -7 9 -4 22 8 20 -13 -1 -25 -24 -14 0 -14 30 0 19
9 31 7 57 -6 17 -9 38 -14 46 -11 8 3 14 1 14 -4 0 -5 -8 -10 -17 -12 -10 -2
6 -4 36 -4 33 0 56 -5 59 -12 2 -7 12 -12 23 -12 10 0 42 -11 69 -24 28 -14
64 -28 80 -31 17 -4 32 -11 35 -16 4 -5 13 -9 22 -9 8 0 29 -6 46 -14 18 -7
52 -22 77 -32 25 -10 47 -21 50 -24 3 -3 12 -6 20 -8 8 -1 24 -7 35 -12 30
-13 105 -46 150 -64 28 -12 36 -19 26 -25 -10 -7 -9 -10 4 -14 9 -4 13 -3 10
3 -12 19 23 10 96 -24 138 -63 184 -85 199 -94 17 -10 62 -30 130 -58 25 -10
61 -28 80 -39 19 -11 55 -30 80 -40 25 -11 47 -22 50 -25 3 -3 37 -20 75 -39
39 -18 77 -37 85 -42 33 -19 135 -75 169 -93 20 -10 38 -21 41 -25 3 -3 28
-17 55 -31 59 -29 314 -177 390 -226 30 -19 58 -34 63 -34 5 0 21 -11 36 -25
15 -14 30 -25 33 -25 3 0 38 -20 77 -45 40 -25 78 -45 84 -45 7 0 12 -4 12 -8
0 -4 14 -16 30 -26 17 -9 28 -22 24 -27 -3 -6 0 -9 7 -8 8 2 46 -18 86 -44 39
-26 74 -47 78 -47 4 0 12 -6 20 -12 32 -31 190 -145 258 -187 20 -12 37 -27
37 -32 0 -5 6 -9 14 -9 8 0 16 -3 18 -7 2 -5 30 -28 63 -53 33 -25 66 -51 73
-57 7 -7 16 -13 20 -13 4 0 22 -13 39 -28 18 -15 53 -43 79 -62 25 -19 99 -78
163 -130 233 -189 241 -195 421 -357 30 -28 67 -60 82 -73 15 -13 25 -27 22
-32 -3 -5 -1 -7 4 -6 26 7 546 -506 817 -808 44 -49 93 -101 109 -116 15 -16
26 -28 24 -28 -3 0 19 -26 48 -57 30 -31 54 -60 54 -64 0 -4 6 -14 13 -21 15
-16 175 -204 197 -232 8 -10 30 -36 48 -56 17 -21 32 -40 32 -43 0 -3 14 -21
30 -39 17 -18 30 -37 30 -42 0 -5 10 -19 23 -30 12 -12 29 -33 37 -45 8 -13
20 -29 27 -36 42 -44 142 -189 137 -197 -4 -7 -2 -8 4 -4 7 4 12 2 12 -5 0 -7
3 -9 6 -6 4 4 16 -10 26 -30 12 -22 16 -38 10 -42 -6 -4 -4 -14 5 -26 15 -20
15 -20 8 3 -9 32 7 27 30 -11 27 -45 29 -51 15 -42 -9 5 -11 4 -6 -4 4 -6 11
-9 16 -6 10 6 50 -42 50 -62 0 -8 5 -11 10 -8 6 3 10 -4 10 -16 0 -12 3 -20 6
-16 6 5 54 -56 54 -68 0 -3 16 -27 36 -55 19 -27 33 -54 29 -60 -4 -6 -1 -9 7
-8 7 2 12 -3 10 -10 -1 -6 4 -11 10 -10 8 2 12 -5 10 -16 -2 -11 1 -15 7 -11
6 3 15 -2 19 -12 4 -10 24 -44 45 -76 26 -40 35 -62 29 -70 -5 -7 -13 -23 -16
-37 -7 -24 -6 -24 9 3 13 23 35 37 35 23 0 -2 3 -13 6 -23 4 -13 3 -14 -4 -5
-8 11 -10 11 -15 -1 -4 -10 2 -14 21 -13 25 1 26 -1 23 -42 -2 -41 -1 -43 21
-40 16 2 26 -4 33 -19 5 -13 13 -23 17 -23 3 0 21 -26 39 -57 18 -32 35 -60
38 -63 15 -13 41 -70 33 -70 -5 0 -12 9 -15 20 -6 25 -67 29 -67 5 0 -8 -5
-15 -11 -15 -12 0 -8 82 5 112 5 12 0 24 -19 40 -15 13 -31 32 -35 43 -8 17
-9 17 -9 2 -1 -9 12 -31 29 -48 36 -38 31 -49 -19 -49 -30 0 -40 4 -44 20 -4
15 -14 20 -41 20 -35 0 -36 1 -36 40 l0 40 -40 0 -40 0 0 40 0 40 -40 0 -40 0
0 40 0 40 -40 0 -40 0 0 40 0 40 -80 0 -80 0 0 40 0 40 -40 0 -40 0 0 40 0 40
-80 0 -80 0 0 65 0 65 -40 0 c-29 0 -40 4 -40 15 0 11 -11 15 -40 15 l-40 0 0
40 0 40 -40 0 -40 0 0 40 0 40 -40 0 -40 0 0 40 0 40 -40 0 -40 0 0 40 0 40
-80 0 -80 0 0 40 0 40 -40 0 -40 0 0 40 0 40 -80 0 -80 0 0 65 0 65 -40 0
c-39 0 -40 1 -40 35 0 34 -1 35 -40 35 -33 0 -40 3 -40 20 0 17 -7 20 -40 20
l-40 0 0 80 0 80 -80 0 -80 0 0 40 0 40 -40 0 -40 0 0 40 0 40 -80 0 -80 0 0
40 0 40 -80 0 -80 0 0 80 0 80 -40 0 c-36 0 -40 3 -40 25 0 23 -4 25 -40 25
-29 0 -40 4 -40 15 0 11 -11 15 -40 15 l-40 0 0 80 0 80 -80 0 -80 0 0 40 0
40 -40 0 -40 0 0 40 0 40 -80 0 -80 0 0 40 0 40 -40 0 -40 0 0 40 0 40 -40 0
-40 0 0 40 0 40 -80 0 -80 0 0 40 0 40 -40 0 -40 0 0 40 0 40 -40 0 -40 0 0
40 0 40 -40 0 -40 0 0 40 0 40 -40 0 -40 0 0 40 0 40 -40 0 -40 0 0 40 0 40
-80 0 -80 0 0 40 0 40 -40 0 -40 0 0 40 0 40 -80 0 -80 0 0 65 0 65 -40 0
c-29 0 -40 4 -40 15 0 11 -11 15 -40 15 l-40 0 0 40 0 40 -40 0 -40 0 0 40 0
40 -40 0 -40 0 0 40 0 40 -40 0 -40 0 0 40 0 40 -80 0 -80 0 0 40 0 40 -40 0
-40 0 0 40 0 40 -80 0 -80 0 0 80 0 80 -40 0 c-36 0 -40 3 -40 25 0 23 -4 25
-40 25 -29 0 -40 4 -40 15 0 11 -11 15 -40 15 l-40 0 0 80 0 80 -80 0 c-79 0
-80 0 -80 25 0 23 -4 25 -40 25 l-40 0 0 55 0 55 -80 0 -80 0 0 40 0 40 -80 0
-80 0 0 80 0 80 -40 0 c-36 0 -40 3 -40 25 0 23 -4 25 -40 25 -29 0 -40 4 -40
15 0 11 -11 15 -40 15 l-40 0 0 80 0 80 -80 0 -80 0 0 40 0 40 -40 0 -40 0 0
40 0 40 -80 0 -80 0 0 39 c0 36 3 40 28 44 15 2 -10 2 -55 -1 -72 -4 -83 -3
-83 12 0 9 6 15 13 14 7 -2 13 9 15 25 3 23 0 27 -22 27 -32 0 -77 20 -70 32
6 10 -8 15 -54 22 -39 5 -47 10 -37 25 8 13 25 14 25 2z m-10 -41 c0 -5 7 -6
17 -3 11 4 14 3 9 -5 -4 -7 -14 -12 -22 -12 -8 0 -14 -4 -14 -10 0 -5 -13 -10
-29 -10 -24 0 -29 4 -28 20 1 14 6 18 18 15 10 -3 20 -1 24 5 8 13 25 13 25 0z
m63 -37 c-7 -2 -19 -2 -25 0 -7 3 -2 5 12 5 14 0 19 -2 13 -5z m47 -23 c0 -5
-5 -10 -11 -10 -5 0 -7 5 -4 10 3 6 8 10 11 10 2 0 4 -4 4 -10z m-12275 -4865
c1167 -953 2031 -1773 2695 -2557 1282 -1512 1977 -3021 2189 -4753 52 -423
60 -641 62 -1595 2 -820 6 -1002 29 -1390 115 -1930 559 -3476 1383 -4820 22
-36 70 -114 107 -175 37 -60 175 -279 307 -485 132 -206 252 -396 267 -422 21
-36 251 -316 409 -498 30 -34 309 -361 371 -435 28 -33 63 -73 77 -90 14 -16
80 -93 146 -170 306 -359 1017 -1192 1352 -1585 96 -113 215 -252 264 -310 49
-58 110 -130 137 -160 26 -30 118 -138 205 -240 86 -102 167 -197 180 -211 47
-54 56 -94 33 -144 -7 -17 -83 -73 -212 -159 -403 -269 -685 -530 -896 -831
-182 -259 -441 -504 -640 -605 -78 -40 -214 -90 -243 -90 -20 0 -65 25 -140
78 -61 42 -121 84 -133 92 -12 8 -42 29 -66 46 -23 17 -83 59 -132 93 l-89 62
-56 -23 c-84 -34 -221 -130 -287 -200 -105 -114 -173 -237 -220 -397 -41 -143
-81 -39 398 -1041 94 -195 232 -479 309 -631 220 -441 253 -539 253 -749 -1
-114 -3 -133 -32 -218 -60 -174 -168 -304 -372 -448 -180 -127 -279 -236 -331
-365 -16 -39 -23 -83 -27 -160 -7 -159 13 -224 153 -504 127 -255 161 -354
171 -510 7 -108 -11 -207 -55 -301 -57 -121 -120 -196 -276 -325 -137 -114
-216 -166 -283 -185 -229 -66 -493 -210 -642 -350 -232 -219 -344 -483 -357
-846 -7 -178 5 -308 47 -533 15 -82 31 -199 34 -260 4 -60 13 -164 21 -230 26
-217 38 -568 26 -758 -30 -440 -129 -817 -288 -1092 -64 -110 -99 -163 -173
-259 -44 -58 -156 -175 -232 -243 -69 -61 -210 -163 -219 -157 -5 3 -8 0 -7
-8 2 -7 -5 -12 -15 -12 -10 1 -16 -1 -13 -4 7 -6 -112 -74 -131 -75 -7 0 -10
-3 -8 -7 7 -12 -158 -85 -185 -82 -16 2 -21 0 -12 -6 8 -5 -11 -17 -57 -35
-38 -15 -76 -27 -84 -27 -9 0 -19 -5 -22 -10 -4 -6 -16 -8 -27 -4 -13 4 -18 2
-14 -4 7 -12 -109 -10 -138 3 -14 6 -17 5 -12 -3 4 -7 17 -12 29 -13 21 0 21
-1 2 -9 -18 -8 -18 -9 -2 -9 10 -1 15 -6 11 -12 -3 -6 -15 -9 -25 -6 -10 3
-19 1 -21 -4 -3 -8 -204 -19 -226 -11 -7 2 -12 21 -12 43 0 39 0 39 -40 39
l-40 0 0 40 0 40 40 0 40 0 0 40 0 40 -80 0 -80 0 0 -40 0 -40 -40 0 -40 0 0
40 0 40 -40 0 -40 0 0 40 0 40 -40 0 -40 0 0 40 0 40 -40 0 -40 0 0 40 0 40
-80 0 -80 0 0 40 0 40 -40 0 -40 0 0 40 0 40 -40 0 -40 0 0 40 0 40 -40 0 -40
0 0 40 0 40 40 0 40 0 0 40 0 40 -160 0 -160 0 0 40 0 40 -40 0 -40 0 0 40 0
40 -40 0 -40 0 0 40 0 40 -40 0 -40 0 0 40 0 40 -80 0 -80 0 0 40 0 40 -40 0
-40 0 0 40 0 40 -40 0 -40 0 0 40 0 40 40 0 40 0 0 40 0 40 -160 0 -160 0 0
40 0 40 -40 0 -40 0 0 40 0 40 -40 0 -40 0 0 40 0 40 -40 0 -40 0 0 40 0 40
-80 0 -80 0 0 40 0 40 -40 0 -40 0 0 40 0 40 -40 0 -40 0 0 40 0 40 -40 0 -40
0 0 40 0 40 -40 0 -40 0 0 80 0 80 -40 0 -40 0 0 -40 0 -40 -40 0 -40 0 0 40
0 40 -40 0 -40 0 0 40 0 40 -40 0 -40 0 0 40 0 40 -40 0 -40 0 0 40 0 40 -80
0 -80 0 0 40 0 40 -40 0 -40 0 0 40 0 40 -40 0 -40 0 0 40 0 40 -40 0 -40 0 0
80 0 80 -40 0 -40 0 0 -40 0 -40 -40 0 -40 0 0 40 0 40 -40 0 -40 0 0 40 0 40
-40 0 -40 0 0 40 0 40 -40 0 -40 0 0 40 0 40 -80 0 -80 0 0 40 0 40 -40 0 -40
0 0 40 0 40 -40 0 -40 0 0 40 0 40 -40 0 -40 0 0 40 0 40 40 0 40 0 0 40 0 40
-80 0 -80 0 0 -40 0 -40 -40 0 -40 0 0 40 0 40 -40 0 -40 0 0 40 0 40 -40 0
-40 0 0 40 0 40 -40 0 -40 0 0 40 0 40 -40 0 -40 0 0 40 0 40 -80 0 -80 0 0
40 0 40 -40 0 -40 0 0 40 0 40 -40 0 -40 0 0 40 0 40 40 0 40 0 0 40 0 40
-160 0 -160 0 0 40 0 40 -40 0 -40 0 0 40 0 40 -40 0 -40 0 0 40 0 40 -40 0
-40 0 0 40 0 40 -80 0 -80 0 0 40 0 40 -40 0 -40 0 0 40 0 40 -40 0 -40 0 0
40 0 40 -40 0 -40 0 0 40 0 40 -80 0 -80 0 0 40 0 40 -40 0 -40 0 0 40 0 40
-40 0 -40 0 0 40 0 40 -40 0 -40 0 0 40 0 40 -40 0 -40 0 0 40 0 40 -80 0 -80
0 0 40 0 40 -40 0 -40 0 0 40 0 40 -40 0 -40 0 0 40 0 40 -40 0 -40 0 0 80 0
80 -40 0 -40 0 0 -40 0 -40 -40 0 -40 0 0 40 0 40 -40 0 -40 0 0 40 0 40 -40
0 -40 0 0 40 0 40 -40 0 -40 0 0 40 0 40 -80 0 -80 0 0 40 0 40 -40 0 -40 0 0
40 0 40 40 0 40 0 0 40 0 40 -40 0 -40 0 0 40 0 40 -40 0 -40 0 0 -40 0 -40
-40 0 -40 0 0 40 0 40 40 0 40 0 0 40 0 40 -80 0 -80 0 0 -40 0 -40 -40 0 -40
0 0 40 0 40 -40 0 -40 0 0 40 0 40 -40 0 -40 0 0 40 0 40 -40 0 -40 0 0 40 0
40 -40 0 -40 0 0 40 0 40 -80 0 -80 0 0 40 0 40 -40 0 -40 0 0 40 0 40 -40 0
-40 0 0 40 0 40 40 0 40 0 0 40 0 40 -160 0 -160 0 0 40 0 40 -40 0 -40 0 0
40 0 40 -40 0 -40 0 0 40 0 40 -40 0 -40 0 0 40 0 40 -80 0 -80 0 0 40 0 40
-40 0 -40 0 0 40 0 40 -40 0 -40 0 0 40 0 40 -40 0 -40 0 0 40 0 40 -80 0 -80
0 0 40 0 40 -40 0 -40 0 0 40 0 40 -40 0 -40 0 0 40 0 40 -40 0 -40 0 0 40 0
40 -80 0 -80 0 0 40 0 40 -40 0 -40 0 0 40 0 40 -40 0 -40 0 0 40 0 40 -40 0
-40 0 0 40 0 40 -40 0 -40 0 0 80 0 80 -40 0 -40 0 0 -40 0 -40 -40 0 -40 0 0
40 0 40 -40 0 -40 0 0 40 0 40 -40 0 -40 0 0 40 0 40 -40 0 -40 0 0 40 0 40
-80 0 -80 0 0 40 0 40 -40 0 -40 0 0 40 0 40 40 0 40 0 0 40 0 40 -40 0 -40 0
0 40 0 40 -40 0 -40 0 0 -40 0 -40 -40 0 -40 0 0 40 0 40 40 0 40 0 0 40 0 40
-80 0 -80 0 0 -40 0 -40 -40 0 -40 0 0 40 0 40 -40 0 -40 0 0 40 0 40 -40 0
-40 0 0 40 0 40 -40 0 -40 0 0 40 0 40 -80 0 -80 0 0 40 0 40 -40 0 -40 0 0
40 0 40 -40 0 -40 0 0 40 0 40 -40 0 -40 0 0 40 0 40 40 0 40 0 0 40 0 40
-160 0 -160 0 0 40 0 40 -40 0 -40 0 0 40 0 40 -40 0 -40 0 0 40 0 40 -40 0
-40 0 0 40 0 40 -80 0 -80 0 0 40 0 40 -40 0 c-38 0 -40 1 -41 33 -1 17 -1 35
0 40 0 4 -4 7 -10 7 -6 0 -9 -7 -6 -15 4 -8 2 -17 -3 -20 -5 -3 -11 5 -13 17
-3 17 -5 14 -6 -9 0 -18 4 -33 9 -33 22 0 9 -16 -15 -18 -21 -1 -25 3 -30 36
-3 20 -10 52 -16 70 -6 19 -8 36 -5 39 3 4 6 1 6 -6 0 -7 11 1 25 16 13 15 25
22 25 16 0 -7 4 -13 8 -13 5 0 6 15 4 32 -5 31 -4 32 13 18 16 -13 18 -13 13
0 -8 24 -39 25 -45 1 -3 -12 -9 -21 -14 -21 -5 0 -9 -7 -9 -15 0 -8 -4 -15
-10 -15 -13 0 -13 7 4 38 8 15 20 42 26 59 7 18 16 30 20 28 5 -3 11 -1 14 4
4 5 2 12 -4 16 -6 3 0 21 14 43 12 20 27 50 33 66 5 17 15 32 23 34 9 3 11 -1
5 -14 -4 -11 -8 -26 -10 -34 -1 -8 0 -9 2 -2 3 7 8 10 11 8 4 -2 8 9 9 25 1
15 -2 31 -8 34 -5 4 -6 11 -3 17 4 6 10 5 16 -3 6 -9 7 -5 2 13 -4 18 -1 29
10 35 13 7 22 30 25 68 1 6 10 -1 20 -14 l18 -23 -2 28 c-1 16 -3 34 -5 39 -5
20 1 36 20 55 17 17 26 39 29 73 1 5 5 5 11 2 6 -4 7 1 3 11 -4 12 -3 15 5 10
8 -4 10 -2 6 7 -3 8 -1 18 5 22 6 3 11 -2 11 -12 0 -15 2 -16 10 -3 6 9 5 17
-2 21 -10 7 -8 14 34 94 9 17 33 65 54 108 21 42 42 77 46 77 4 0 8 8 8 18 0
10 4 22 9 27 10 12 115 220 160 320 73 160 95 205 103 205 4 0 8 6 8 14 0 17
57 150 85 196 11 19 29 55 40 80 11 25 29 61 40 80 11 19 29 55 40 80 10 25
24 52 30 60 7 8 48 85 92 170 144 278 393 738 565 1045 87 155 118 211 183
330 21 39 53 96 71 128 19 32 34 60 34 62 0 3 13 26 28 52 38 64 122 213 164
293 19 36 92 170 162 297 69 128 126 235 126 237 0 2 17 35 38 73 21 37 74
136 117 218 43 83 97 186 120 230 23 44 71 134 105 200 35 66 82 156 105 200
23 44 84 161 135 260 51 99 132 257 181 350 280 541 1014 2001 1277 2542 166
341 296 610 347 718 23 50 65 137 93 195 140 294 172 362 269 570 320 684 692
1507 940 2080 63 146 130 299 148 340 361 813 1066 2580 1412 3535 581 1603
774 3220 577 4830 -50 408 -115 780 -205 1161 l-41 177 27 58 c17 34 33 56 39
52 6 -4 106 -84 221 -178z m18768 -218 c-8 -13 -23 3 -23 26 0 20 0 20 14 2 8
-11 12 -23 9 -28z m135 -286 c12 -34 3 -55 -15 -35 -8 8 -9 15 -3 19 6 3 10
11 10 17 0 7 -5 6 -15 -2 -16 -14 -35 -6 -35 16 0 8 10 14 24 14 17 0 27 -8
34 -29z m40 8 c19 -31 9 -33 -18 -4 -16 17 -19 25 -9 25 8 0 20 -9 27 -21z
m-94 -24 c11 -8 15 -15 9 -15 -6 0 -18 -2 -25 -5 -9 -4 -14 2 -14 15 0 24 4
24 30 5z m101 -25 c3 -5 -1 -10 -9 -10 -9 0 -16 5 -16 10 0 6 4 10 9 10 6 0
13 -4 16 -10z m63 -65 c-1 -5 12 -32 30 -59 18 -28 32 -54 32 -59 0 -14 -47
46 -54 71 -8 23 -26 31 -26 10 0 -20 -14 2 -17 27 -3 19 1 23 17 22 11 -1 19
-6 18 -12z m-8 -75 c0 -5 -7 -10 -16 -10 -8 0 -12 5 -9 10 3 6 10 10 16 10 5
0 9 -4 9 -10z m80 -92 c0 17 17 15 17 -2 0 -7 -7 -13 -14 -12 -16 3 -33 24
-32 41 0 6 6 -1 14 -15 8 -14 14 -19 15 -12z m80 -113 c0 -5 -5 -3 -10 5 -5 8
-10 20 -10 25 0 6 5 3 10 -5 5 -8 10 -19 10 -25z m23 -37 c9 -31 2 -33 -11 -3
-6 14 -8 25 -3 25 5 0 11 -10 14 -22z m-23 -9 c0 -6 -4 -7 -10 -4 -5 3 -10 11
-10 16 0 6 5 7 10 4 6 -3 10 -11 10 -16z m73 -81 c10 -16 14 -28 9 -28 -8 0
-32 43 -32 57 0 7 1 6 23 -29z m28 -91 c-10 -9 -11 -8 -5 6 3 10 9 15 12 12 3
-3 0 -11 -7 -18z m69 -97 c32 -68 22 -70 -13 -4 -15 30 -23 54 -19 54 5 0 19
-22 32 -50z m-19 -63 c-10 -9 -11 -8 -5 6 3 10 9 15 12 12 3 -3 0 -11 -7 -18z
m79 -65 c0 -15 -2 -15 -10 -2 -13 20 -13 33 0 25 6 -3 10 -14 10 -23z m10 -26
c0 -3 -4 -8 -10 -11 -5 -3 -10 -1 -10 4 0 6 5 11 10 11 6 0 10 -2 10 -4z m-5
-39 c19 26 28 11 8 -16 -12 -18 -17 -20 -24 -10 -5 8 -8 21 -8 29 1 10 3 9 6
-3 5 -18 5 -18 18 0z m26 -30 c-10 -9 -11 -8 -5 6 3 10 9 15 12 12 3 -3 0 -11
-7 -18z m49 -72 c0 -5 -5 -3 -10 5 -5 8 -10 20 -10 25 0 6 5 3 10 -5 5 -8 10
-19 10 -25z m4 -40 c-4 -16 0 -35 12 -53 17 -26 17 -27 -2 -12 -30 24 -33 31
-22 61 12 36 21 38 12 4z m32 -42 c-3 -4 -6 -1 -6 6 0 7 -4 9 -10 6 -11 -7
-14 8 -3 19 4 3 11 -1 16 -9 5 -9 6 -19 3 -22z m73 -158 c0 -5 -8 6 -19 25
-11 19 -19 40 -19 45 0 6 8 -6 19 -25 11 -19 19 -39 19 -45z m10232 -8552
c200 -4 344 -10 319 -14 l-45 -6 43 -1 c35 -2 42 -5 42 -22 0 -18 7 -20 80
-20 l80 0 0 -60 0 -60 40 0 40 0 0 -40 0 -40 40 0 40 0 0 -40 0 -40 40 0 40 0
0 -40 0 -40 80 0 80 0 0 -40 0 -40 40 0 40 0 0 -40 0 -40 40 0 40 0 0 -40 0
-40 40 0 40 0 0 -40 0 -40 80 0 80 0 0 -40 0 -40 40 0 40 0 0 -40 0 -40 40 0
40 0 0 -40 0 -40 40 0 40 0 0 -40 0 -40 80 0 80 0 0 -40 0 -40 40 0 40 0 0
-40 0 -40 40 0 40 0 0 -40 0 -40 40 0 40 0 0 -40 0 -40 80 0 80 0 0 -40 0 -40
40 0 40 0 0 -40 0 -40 40 0 40 0 0 -40 0 -40 40 0 40 0 0 -40 0 -40 40 0 40 0
0 -40 0 -40 80 0 80 0 0 -40 0 -40 40 0 40 0 0 -40 0 -40 40 0 40 0 0 -40 0
-40 40 0 40 0 0 -40 0 -40 80 0 80 0 0 -40 0 -40 40 0 40 0 0 -40 0 -40 40 0
40 0 0 -40 0 -40 40 0 40 0 0 -40 c0 -40 0 -40 38 -40 36 0 39 2 39 30 0 17 5
36 11 42 9 9 12 7 12 -11 0 -16 10 -26 34 -36 l34 -14 -19 -38 c-11 -21 -22
-36 -26 -35 -12 7 -21 -22 -12 -39 12 -23 11 -32 -2 -23 -7 4 -9 0 -5 -12 3
-11 -1 -32 -9 -48 -8 -15 -15 -35 -15 -42 0 -24 -24 -94 -32 -94 -5 0 -8 5 -8
12 0 6 -3 8 -6 5 -4 -4 -1 -13 5 -21 7 -9 9 -21 5 -28 -5 -7 -7 -21 -6 -30 2
-10 -2 -18 -8 -18 -6 0 -9 -4 -5 -9 3 -5 0 -13 -5 -16 -6 -4 -10 -17 -9 -28 1
-12 -1 -33 -4 -47 -94 -386 -141 -717 -167 -1165 -14 -259 -41 -1584 -60
-2985 -45 -3301 -51 -5044 -48 -12685 1 -4990 -1 -7365 -10 -8453 -10 -1110
-10 -1589 -2 -1795 44 -1158 202 -1834 560 -2407 141 -224 428 -565 641 -761
261 -240 578 -465 864 -613 l88 -46 626 0 626 0 38 -25 c65 -45 77 -83 77
-250 l0 -145 -4727 2 c-2601 2 -5261 5 -5913 8 -1127 6 -1195 7 -1398 28 -215
22 -238 25 -482 62 -176 26 -479 84 -605 116 -55 13 -109 26 -120 28 -38 6
-191 47 -365 97 -295 86 -760 255 -955 348 -33 16 -85 39 -115 52 -182 79
-459 225 -628 331 -51 32 -97 58 -101 58 -5 0 -20 11 -35 25 -14 13 -26 22
-26 20 0 -5 -151 94 -160 104 -3 3 -48 35 -100 71 -90 61 -164 114 -203 146
-9 8 -21 14 -26 14 -5 0 -11 3 -13 8 -2 6 -61 52 -133 104 -5 4 -23 18 -40 32
-16 13 -63 49 -104 80 -41 31 -89 69 -106 84 -29 25 -121 102 -155 129 -68 53
-150 127 -150 134 0 5 -5 9 -11 9 -13 0 -170 137 -168 147 0 4 -6 10 -14 13
-22 8 -127 107 -127 120 0 6 -3 9 -8 6 -8 -5 -388 373 -491 489 -34 39 -83 93
-109 120 -27 28 -63 70 -82 95 -19 25 -48 61 -65 81 -16 20 -37 44 -45 55 -80
102 -144 183 -158 200 -9 11 -33 43 -51 70 -19 27 -38 51 -42 54 -15 11 -292
392 -348 478 -24 38 -101 143 -111 152 -11 9 -165 196 -203 246 -82 105 -169
221 -207 274 -22 30 -58 80 -80 110 -188 260 -584 870 -655 1009 -9 19 -21 39
-26 45 -12 15 -139 228 -139 234 0 3 -22 41 -48 86 -73 122 -172 302 -172 311
0 5 -6 16 -14 24 -7 9 -37 61 -66 116 -29 55 -56 105 -60 110 -5 6 -34 60 -65
120 -32 61 -66 124 -75 140 -10 17 -59 109 -110 205 -199 375 -260 490 -332
625 -108 202 -163 306 -226 425 -30 58 -63 119 -72 135 -10 17 -50 93 -90 170
-40 77 -76 145 -80 150 -4 6 -44 82 -90 170 -46 88 -86 165 -90 170 -4 6 -54
98 -110 205 -56 107 -119 227 -140 265 -67 126 -306 577 -375 710 -37 72 -75
144 -85 160 -9 17 -42 77 -72 135 -31 58 -96 182 -145 275 -50 94 -118 224
-153 290 -34 66 -104 199 -155 295 -198 373 -360 680 -422 800 -36 69 -82 157
-103 195 -20 39 -68 129 -105 200 -37 72 -87 166 -110 210 -77 146 -226 428
-287 545 -34 63 -75 142 -93 175 -37 68 -70 130 -290 550 -87 165 -177 336
-200 380 -55 103 -108 205 -235 445 -56 107 -125 238 -153 290 -27 52 -134
230 -237 395 -456 733 -603 987 -824 1425 -313 620 -465 1031 -535 1445 -37
219 -44 333 -38 618 6 311 28 480 98 762 147 590 478 1255 834 1675 94 111
180 191 361 337 396 320 594 603 675 968 21 92 18 388 -4 500 -44 215 -118
399 -280 695 -46 84 -159 384 -181 477 -19 84 -21 166 -5 229 24 93 144 186
243 186 103 -1 158 -59 249 -267 24 -55 77 -154 117 -220 41 -66 110 -181 155
-255 45 -74 133 -218 195 -320 287 -467 875 -1435 985 -1620 53 -91 108 -181
120 -200 12 -19 57 -96 100 -170 43 -74 106 -182 140 -240 121 -205 421 -738
518 -920 22 -41 50 -93 62 -115 117 -208 378 -718 536 -1047 88 -182 159 -332
159 -334 0 -11 69 -152 77 -156 4 -3 249 -2 543 3 294 4 749 10 1010 13 261 4
783 11 1160 16 377 5 881 12 1120 15 239 3 703 10 1030 15 327 5 793 12 1035
15 242 3 753 10 1135 15 382 5 898 12 1145 15 248 3 599 7 780 10 613 10 1687
24 2230 30 545 6 815 12 820 17 2 2 8 255 14 563 13 676 14 1256 1 1905 -5
267 -11 674 -14 905 -4 231 -8 528 -11 660 -6 272 -8 434 -35 2215 -32 2093
-39 2595 -50 3615 -15 1386 -26 1694 -75 2065 -37 285 -97 558 -173 797 -33
102 -54 146 -137 280 -506 822 -1112 1325 -1920 1594 l-160 54 -467 3 -468 3
0 137 c1 176 18 221 105 266 27 14 311 16 2836 16 1543 0 2970 -3 3170 -7z
m6394 -21 c71 -50 80 -77 80 -242 l0 -145 -385 -5 -385 -5 -180 -64 c-600
-211 -1026 -461 -1394 -818 -36 -35 -69 -63 -75 -63 -5 0 -7 -3 -3 -6 9 -9
-64 -84 -76 -77 -6 3 -7 2 -4 -4 4 -6 -19 -39 -49 -74 -31 -35 -73 -89 -93
-119 -20 -30 -42 -61 -49 -68 -6 -8 -17 -22 -23 -33 -5 -11 -15 -16 -21 -13
-7 5 -9 2 -6 -7 3 -8 0 -23 -8 -34 -13 -18 -14 -18 -14 -1 0 15 -3 16 -15 6
-17 -14 -21 -35 -5 -25 14 8 13 -18 -1 -32 -14 -14 -36 -52 -45 -75 -3 -10
-15 -18 -25 -18 -10 0 -25 -12 -34 -27 l-16 -28 6 28 c4 19 2 26 -5 22 -6 -4
-10 10 -10 39 l0 46 -40 0 -40 0 0 40 0 40 -40 0 -40 0 0 40 0 40 -80 0 -80 0
0 80 0 80 -80 0 -80 0 0 40 0 40 -40 0 -40 0 0 40 0 40 -40 0 -40 0 0 40 0 40
-40 0 c-36 0 -40 3 -40 25 0 23 -4 25 -40 25 -29 0 -40 4 -40 15 0 11 -11 15
-40 15 l-40 0 0 40 0 40 -40 0 -40 0 0 40 0 40 -80 0 -80 0 0 80 0 80 -80 0
-80 0 0 40 0 40 -40 0 -40 0 0 40 0 40 -40 0 -40 0 0 40 0 40 -40 0 -40 0 0
40 0 40 -40 0 c-33 0 -40 3 -40 20 0 17 -7 20 -40 20 -33 0 -40 3 -40 20 0 17
-7 20 -40 20 l-40 0 0 40 0 40 -80 0 -80 0 0 65 0 65 -40 0 c-39 0 -40 1 -40
35 0 34 -1 35 -40 35 -33 0 -40 3 -40 20 0 17 -7 20 -40 20 l-40 0 0 40 0 40
-40 0 c-22 0 -40 4 -40 8 0 5 -34 8 -77 8 -53 -1 -78 3 -80 12 -4 9 16 12 76
12 81 0 81 0 81 26 l0 26 -82 -5 -83 -5 90 12 c70 10 642 13 2600 14 l2510 2
40 -28z m-2800 -1983 c-13 -24 -25 -40 -25 -36 0 13 41 89 46 84 2 -2 -7 -24
-21 -48z m-87 -124 c-3 -3 -9 2 -12 12 -6 14 -5 15 5 6 7 -7 10 -15 7 -18z
m23 -2 c-12 -20 -14 -14 -5 12 4 9 9 14 11 11 3 -2 0 -13 -6 -23z m-28 -63
c-3 -11 -10 -23 -16 -27 -5 -3 -8 -2 -5 3 3 5 8 17 11 27 9 24 16 22 10 -3z
m-45 -95 c-6 -14 -13 -23 -16 -21 -7 7 9 46 18 46 5 0 4 -11 -2 -25z m-31 -17
c-3 -8 -6 -5 -6 6 -1 11 2 17 5 13 3 -3 4 -12 1 -19z m-6 -44 c11 -14 1 -46
-12 -38 -5 3 -9 10 -9 15 0 6 5 7 10 4 6 -3 10 -2 10 4 0 5 -4 13 -10 16 -5 3
-9 16 -9 28 1 20 2 21 6 2 3 -11 9 -25 14 -31z m-124 -36 c-3 -8 -6 -5 -6 6
-1 11 2 17 5 13 3 -3 4 -12 1 -19z m73 -128 c0 -5 -2 -10 -4 -10 -3 0 -8 5
-11 10 -3 6 -1 10 4 10 6 0 11 -4 11 -10z m-45203 -7252 c-2 -13 -4 -3 -4 22
0 25 2 35 4 23 2 -13 2 -33 0 -45z m-20 -50 c-3 -7 -5 -2 -5 12 0 14 2 19 5
13 2 -7 2 -19 0 -25z m45 -102 c-2 -51 -1 -132 3 -180 6 -75 9 -86 26 -86 17
0 19 8 19 74 0 41 5 78 10 81 6 4 10 -23 10 -74 l0 -81 50 0 50 0 0 -40 0 -40
40 0 40 0 0 -40 0 -40 80 0 80 0 0 -80 0 -80 80 0 80 0 0 -40 0 -40 40 0 40 0
0 -80 0 -80 80 0 80 0 0 -80 0 -80 40 0 40 0 0 40 0 40 40 0 40 0 0 -40 0 -40
40 0 40 0 0 -40 0 -40 40 0 40 0 0 -40 0 -40 40 0 40 0 0 -40 0 -40 40 0 c39
0 40 -1 40 -34 0 -19 4 -37 9 -40 5 -4 7 13 5 36 l-4 43 14 -30 c8 -16 13 -39
10 -50 -5 -18 -4 -19 6 -2 7 10 9 31 5 50 -7 30 -6 31 9 12 9 -12 16 -15 17
-7 1 6 2 16 3 21 0 5 4 13 9 17 13 14 7 -21 -13 -61 -10 -22 -16 -43 -14 -47
3 -5 0 -8 -6 -8 -6 0 -9 -4 -5 -9 3 -5 -3 -31 -13 -57 -13 -31 -21 -43 -26
-33 -3 8 -4 2 -1 -14 5 -22 -27 -117 -39 -117 -1 0 -1 15 0 33 l3 32 -8 -30
c-4 -16 -4 -37 1 -47 11 -22 -11 -85 -24 -66 -7 9 -7 7 -3 -9 3 -12 -3 -48
-14 -80 -10 -32 -30 -97 -44 -144 -14 -47 -32 -100 -41 -117 -9 -17 -15 -35
-14 -39 3 -17 -15 -83 -23 -83 -5 0 -8 -3 -7 -7 5 -19 -36 -161 -45 -156 -6 3
-7 1 -3 -6 4 -6 -2 -42 -13 -79 -12 -37 -26 -85 -32 -107 -6 -22 -17 -60 -25
-85 -7 -25 -22 -81 -33 -125 -10 -44 -27 -107 -36 -140 -34 -121 -89 -348
-140 -580 -15 -66 -29 -127 -32 -135 -3 -8 -7 -28 -9 -45 -2 -16 -13 -70 -24
-120 -77 -351 -193 -1044 -330 -1970 -33 -225 -80 -540 -105 -700 -24 -159
-47 -315 -50 -345 -21 -191 -43 -257 -112 -321 -40 -38 -116 -89 -132 -89 -12
0 -13 6194 -2 6800 l7 375 4 -365 c3 -342 4 -353 11 -180 3 102 7 260 8 351 1
143 7 229 16 229 1 0 0 -42 -3 -94z m1580 -465 c-6 -3 -12 -20 -15 -36 -3 -22
-4 -18 -6 16 -1 50 8 68 22 43 6 -10 6 -19 -1 -23z m-32 -21 c0 -27 -4 -50
-10 -50 -5 0 -10 23 -10 50 0 28 5 50 10 50 6 0 10 -22 10 -50z m37 -22 c-3
-8 -6 -5 -6 6 -1 11 2 17 5 13 3 -3 4 -12 1 -19z m43 -32 c0 -8 -7 -19 -15
-26 -13 -11 -15 -9 -11 11 3 13 5 28 5 32 1 13 21 -3 21 -17z m-31 -73 c0 -5
-7 -24 -14 -43 -13 -33 -14 -34 -14 -8 -1 32 8 58 20 58 5 0 9 -3 8 -7z m-38
-77 c12 -13 12 -29 -1 -21 -5 3 -10 4 -10 1 0 -2 -3 -12 -7 -22 -5 -12 -3 -15
6 -9 11 6 11 3 1 -16 -18 -35 -19 -35 -14 8 3 21 6 58 6 83 0 33 2 37 5 15 2
-16 9 -34 14 -39z m-160 -383 c-8 -15 -10 -15 -11 -2 0 17 10 32 18 25 2 -3
-1 -13 -7 -23z m6 -45 c-3 -8 -6 -5 -6 6 -1 11 2 17 5 13 3 -3 4 -12 1 -19z
m-13 -30 c3 -13 6 -27 6 -33 -1 -15 -30 27 -30 42 0 22 17 15 24 -9z m2514
-443 c-3 -3 -9 2 -12 12 -6 14 -5 15 5 6 7 -7 10 -15 7 -18z m-235 -495 c3
-11 1 -18 -4 -14 -8 5 -29 -35 -29 -57 0 -18 18 -9 25 14 6 19 8 19 12 5 5
-21 -28 -60 -35 -40 -2 6 -10 12 -18 12 -8 0 -14 5 -14 10 0 6 5 10 10 10 6 0
10 7 10 15 0 19 21 65 30 65 4 0 10 -9 13 -20z m-63 -106 c0 -8 -5 -12 -10 -9
-6 4 -8 11 -5 16 9 14 15 11 15 -7z m-3 -39 c9 -24 -1 -27 -15 -5 -8 13 -8 20
-2 20 6 0 13 -7 17 -15z m-35 -83 c-6 -2 -12 -11 -12 -20 0 -14 -2 -14 -9 -3
-7 11 -10 9 -16 -8 -4 -13 -9 -20 -11 -18 -8 8 19 57 27 51 5 -3 9 7 10 23 l0
28 12 -24 c9 -19 9 -25 -1 -29z m28 -22 c0 -5 -4 -10 -10 -10 -5 0 -10 5 -10
10 0 6 5 10 10 10 6 0 10 -4 10 -10z m-73 -142 c-3 -8 -6 -5 -6 6 -1 11 2 17
5 13 3 -3 4 -12 1 -19z m-122 -167 c-3 -12 -10 -21 -15 -21 -5 0 -4 11 2 25
13 29 23 26 13 -4z m-49 -98 c-18 -33 -21 -26 -6 13 6 15 13 24 16 21 3 -3 -1
-18 -10 -34z m84 -18 c7 -9 10 -18 7 -22 -4 -3 -9 2 -13 11 -5 12 -10 14 -20
5 -15 -12 -38 -3 -29 12 9 14 41 11 55 -6z m-71 -51 c-9 -12 -10 -15 -1 -10 6
4 12 5 12 2 0 -3 -9 -10 -20 -16 -19 -10 -20 -9 -14 17 10 39 15 46 27 34 7
-7 6 -15 -4 -27z m-38 -2 c-16 -31 -13 -41 14 -48 28 -7 27 -6 19 -28 -5 -13
-9 -14 -20 -5 -10 8 -14 8 -14 0 0 -6 -5 -11 -11 -11 -6 0 -8 9 -4 20 3 11 2
20 -3 20 -15 0 -27 -43 -24 -82 3 -36 5 -38 38 -38 38 0 64 18 64 44 0 9 8 16
20 16 11 0 20 5 20 11 0 5 5 7 10 4 15 -9 12 -75 -2 -76 -7 -1 -25 0 -40 1
-26 1 -28 -1 -28 -39 l0 -41 40 0 40 0 0 40 0 40 40 0 40 0 0 -40 0 -40 40 0
40 0 0 -40 0 -40 80 0 80 0 0 -80 0 -80 80 0 80 0 0 -40 0 -40 40 0 40 0 0
-80 0 -80 80 0 80 0 0 -80 0 -80 40 0 40 0 0 40 0 40 40 0 40 0 0 -40 0 -40
40 0 40 0 0 -40 0 -40 40 0 40 0 0 -40 0 -40 40 0 40 0 0 -40 0 -40 80 0 80 0
0 -40 0 -40 40 0 40 0 0 -80 0 -80 80 0 80 0 0 -80 0 -80 40 0 40 0 0 40 0 40
40 0 40 0 0 -40 0 -40 40 0 40 0 0 -40 0 -40 40 0 40 0 0 -40 0 -40 40 0 40 0
0 -40 0 -40 80 0 80 0 0 -40 0 -40 40 0 40 0 0 -80 0 -80 80 0 80 0 0 -80 0
-80 120 0 120 0 0 -40 0 -40 40 0 40 0 0 -40 0 -40 40 0 40 0 0 -40 0 -40 80
0 80 0 0 -40 0 -40 40 0 40 0 0 -80 0 -80 80 0 80 0 0 -80 0 -80 120 0 120 0
0 -40 0 -40 40 0 40 0 0 -40 0 -40 40 0 40 0 0 -40 0 -40 80 0 80 0 0 -80 0
-80 80 0 80 0 0 -40 0 -40 40 0 40 0 0 -80 0 -80 80 0 80 0 0 -80 0 -80 40 0
40 0 0 40 0 40 40 0 40 0 0 -40 0 -40 40 0 40 0 0 -40 0 -40 40 0 40 0 0 -40
0 -40 40 0 40 0 0 -40 0 -40 80 0 80 0 0 -40 0 -40 40 0 40 0 0 -80 0 -80 80
0 80 0 0 -80 0 -80 40 0 40 0 0 40 0 40 40 0 40 0 0 -40 0 -40 40 0 40 0 0
-40 0 -40 40 0 40 0 0 -40 0 -40 40 0 40 0 0 -40 0 -40 80 0 80 0 0 -40 0 -40
40 0 40 0 0 -80 0 -80 80 0 80 0 0 -80 0 -80 120 0 120 0 0 -40 0 -40 40 0 40
0 0 -40 0 -40 40 0 40 0 0 -40 0 -40 80 0 80 0 0 -40 0 -40 40 0 40 0 0 -80 0
-80 80 0 80 0 0 -80 0 -80 120 0 120 0 0 -40 0 -40 40 0 40 0 0 -40 0 -40 40
0 40 0 0 -40 0 -40 80 0 80 0 0 -40 0 -40 40 0 40 0 0 -40 0 -40 40 0 40 0 0
-40 0 -40 40 0 40 0 0 -80 0 -80 80 0 80 0 0 -80 0 -80 40 0 40 0 0 40 0 40
40 0 40 0 0 -40 0 -40 40 0 40 0 0 -40 0 -40 80 0 80 0 0 -80 0 -80 80 0 80 0
0 -40 0 -40 40 0 40 0 0 -80 0 -80 80 0 80 0 0 -80 0 -80 40 0 40 0 0 40 0 40
40 0 40 0 0 -40 0 -40 40 0 40 0 0 -40 0 -40 40 0 40 0 0 -40 0 -40 40 0 40 0
0 -40 0 -40 80 0 80 0 0 -40 0 -40 40 0 40 0 0 -80 0 -80 80 0 80 0 0 -80 0
-80 120 0 120 0 0 -40 0 -40 40 0 40 0 0 -40 0 -40 40 0 40 0 0 -40 0 -40 80
0 80 0 0 -40 0 -40 40 0 40 0 0 -80 0 -80 80 0 80 0 0 -80 0 -80 120 0 120 0
0 -40 0 -40 40 0 40 0 0 -40 0 -40 40 0 40 0 0 -40 0 -40 80 0 80 0 0 -40 0
-40 40 0 40 0 0 -40 0 -40 40 0 40 0 0 -40 0 -40 40 0 40 0 0 -80 0 -80 120 0
120 0 0 -40 0 -40 40 0 40 0 0 -40 0 -40 40 0 40 0 0 -40 0 -40 80 0 80 0 0
-80 0 -80 80 0 80 0 0 -40 0 -40 40 0 40 0 0 -40 0 -40 40 0 c40 0 40 0 40
-38 l0 -38 58 1 c73 1 82 -21 13 -30 -72 -10 -79 -13 -33 -14 24 0 41 -4 39
-8 -3 -5 63 -7 146 -5 83 2 149 0 145 -3 -3 -4 -89 -7 -190 -7 -246 0 -313 3
-299 12 9 5 8 9 -4 14 -26 10 -35 7 -35 -10 0 -13 -7 -15 -37 -10 -21 4 -94 8
-161 11 -134 5 -189 12 -198 26 -3 5 -11 9 -17 9 -7 0 -6 -4 3 -11 11 -8 5 -9
-25 -5 -22 3 -101 11 -175 17 -74 6 -139 15 -145 19 -5 4 -33 8 -60 8 -45 1
-503 56 -675 82 -368 54 -918 116 -1205 135 -415 27 -518 35 -710 61 -236 31
-679 44 -882 25 -232 -22 -472 -70 -675 -135 -328 -104 -669 -288 -938 -505
-190 -152 -453 -427 -596 -621 -192 -260 -279 -403 -611 -995 -182 -324 -169
-296 -251 -545 -95 -289 -123 -383 -176 -595 -133 -531 -204 -1003 -237 -1565
-13 -225 -7 -824 10 -1045 48 -601 134 -1128 281 -1715 72 -288 64 -261 142
-460 189 -479 444 -970 718 -1380 409 -612 933 -1166 1516 -1601 131 -98 146
-107 388 -211 696 -303 1016 -412 1426 -488 121 -22 195 -30 278 -30 182 0
192 -14 192 -255 l0 -165 -7670 0 -7670 0 0 170 c0 262 -16 250 335 250 288 0
285 -1 575 97 569 191 1109 479 1678 893 175 127 223 170 375 334 356 383 617
756 833 1186 318 636 489 1292 544 2095 10 140 13 1324 4 1480 -2 39 -6 518
-10 1065 -9 1337 9 1939 81 2760 8 94 16 355 20 605 19 1590 165 3107 454
4745 108 609 295 1445 466 2085 37 138 71 264 75 280 59 235 329 1110 451
1460 120 345 272 766 303 840 12 28 65 166 88 227 6 15 14 26 18 23 5 -3 6 5
2 17 -4 16 -2 19 8 13 9 -5 11 -4 6 4 -8 13 14 81 27 81 4 0 6 4 2 9 -3 6 8
38 24 73 16 35 32 74 36 88 4 14 11 30 15 35 4 6 13 27 20 48 6 21 16 34 22
31 6 -4 8 2 3 16 -5 17 -4 21 5 15 9 -6 11 -4 5 4 -7 13 -4 23 34 99 11 24 21
51 22 60 0 10 7 -1 14 -23 l13 -40 -4 55 c-3 43 2 66 20 105 13 28 36 82 52
120 16 39 32 72 36 73 5 2 8 7 8 12 0 17 21 63 26 57 3 -3 1 -14 -5 -25z m119
3 c0 -8 -4 -15 -10 -15 -5 0 -10 7 -10 15 0 8 5 15 10 15 6 0 10 -7 10 -15z
m13133 -9422 c-7 -2 -19 -2 -25 0 -7 3 -2 5 12 5 14 0 19 -2 13 -5z m-358 -33
c-3 -5 -26 -10 -50 -10 -24 0 -47 -4 -50 -10 -8 -13 -35 -13 -35 0 0 5 7 7 15
4 8 -4 15 -1 15 4 0 6 24 13 53 15 28 2 53 4 55 5 2 1 0 -2 -3 -8z m135 -21
c12 -8 10 -9 -9 -4 -16 5 -21 4 -17 -4 5 -7 -8 -11 -38 -11 -25 0 -46 5 -46
10 0 6 10 8 24 4 14 -3 33 -1 43 5 23 13 25 13 43 0z m53 4 c-7 -2 -19 -2 -25
0 -7 3 -2 5 12 5 14 0 19 -2 13 -5z m-1283 -13 c0 -6 -32 -10 -75 -10 -43 0
-75 4 -75 10 0 6 32 10 75 10 43 0 75 -4 75 -10z m1029 -9 c12 -8 9 -11 -12
-16 -15 -4 -27 -11 -27 -16 0 -5 -6 -9 -14 -9 -11 0 -8 7 7 25 25 28 26 28 46
16z m-949 -31 c0 -5 -16 -10 -35 -10 -19 0 -35 5 -35 10 0 6 16 10 35 10 19 0
35 -4 35 -10z m160 -20 c0 -6 -46 -9 -122 -8 l-123 2 115 6 c63 3 118 7 123 8
4 1 7 -2 7 -8z m353 3 c-7 -2 -19 -2 -25 0 -7 3 -2 5 12 5 14 0 19 -2 13 -5z
m-120 -10 c-7 -2 -19 -2 -25 0 -7 3 -2 5 12 5 14 0 19 -2 13 -5z m320 0 c-7
-2 -19 -2 -25 0 -7 3 -2 5 12 5 14 0 19 -2 13 -5z m-650 -20 c-40 -2 -107 -2
-150 0 -43 1 -10 3 72 3 83 0 118 -2 78 -3z m225 0 c-10 -2 -26 -2 -35 0 -10
3 -2 5 17 5 19 0 27 -2 18 -5z m131 -9 c2 -2 -19 -4 -47 -4 -29 0 -52 4 -52 9
0 8 90 3 99 -5z m-231 -12 c2 -7 -3 -12 -12 -12 -9 0 -16 7 -16 16 0 17 22 14
28 -4z m79 2 c-3 -3 -12 -4 -19 -1 -8 3 -5 6 6 6 11 1 17 -2 13 -5z m-46705
-23651 c9 -36 8 -229 -1 -243 -9 -13 -59 -16 -308 -21 -250 -5 -313 -9 -393
-27 -321 -70 -503 -198 -621 -436 -102 -207 -110 -396 -107 -2376 l3 -1465
1783 -3 1782 -2 0 1542 c0 1806 -8 2051 -70 2249 -66 213 -309 405 -605 478
-135 34 -230 42 -490 44 l-250 2 -3 138 -3 137 2636 0 2636 0 -3 -137 -3 -138
-300 -6 c-165 -3 -324 -11 -353 -17 -302 -65 -478 -165 -596 -341 -96 -143
-120 -226 -148 -496 -10 -105 -13 -861 -13 -3940 0 -3564 1 -3820 18 -3961 30
-265 65 -358 175 -471 127 -131 283 -221 469 -268 131 -33 265 -45 511 -45
l242 0 0 -140 0 -140 -2632 2 -2633 3 -3 136 -3 137 293 5 c242 4 310 9 390
25 187 39 334 103 447 192 110 87 216 269 245 420 38 200 39 248 43 2113 l4
1827 -1783 -2 -1783 -3 0 -1765 c0 -1858 2 -1934 46 -2180 32 -182 117 -312
277 -423 141 -98 241 -140 422 -179 79 -17 143 -21 388 -25 l293 -5 -3 -137
-3 -136 -2615 -3 c-1438 -1 -2625 0 -2637 3 -22 5 -23 9 -23 140 l0 135 248 0
c362 0 547 32 737 125 164 80 258 176 336 341 66 139 85 276 99 699 13 381 12
6816 0 7205 -13 414 -35 591 -85 705 -72 163 -284 332 -505 404 -148 48 -362
71 -662 71 l-168 0 0 135 0 135 2639 0 c2505 0 2639 -1 2643 -17z m23899 0 c0
-10 0 -1955 -1 -4323 0 -2848 3 -4375 10 -4513 27 -547 100 -742 320 -856 112
-59 248 -93 463 -116 l58 -7 -3 -131 -3 -132 -1880 0 -1880 0 -3 132 -3 131
78 7 c332 29 594 174 672 372 27 69 56 220 73 373 19 182 19 7871 0 8035 -39
331 -85 467 -194 571 -111 106 -332 181 -583 197 l-40 2 -3 138 -3 137 1461 0
c1384 0 1460 -1 1461 -17z m9439 -1995 l0 -2013 163 161 c194 192 315 300 474
422 373 284 719 439 1108 497 139 21 443 21 589 0 387 -54 705 -213 995 -498
366 -361 509 -720 571 -1437 33 -391 35 -469 35 -2235 1 -1971 3 -2013 70
-2272 32 -122 61 -177 127 -240 104 -98 249 -153 521 -198 l37 -6 0 -134 0
-135 -1767 2 -1766 3 2 130 c2 80 7 132 13 136 6 4 32 10 56 14 60 9 206 61
262 93 124 71 211 159 257 258 29 65 67 241 84 399 9 81 13 571 16 1845 5
2070 -3 2502 -53 2755 -65 334 -330 552 -644 531 -390 -26 -709 -267 -1079
-818 l-72 -107 4 -2073 c4 -2174 4 -2152 46 -2385 51 -275 216 -424 544 -492
48 -10 90 -20 92 -23 2 -2 5 -62 6 -133 l1 -130 -1763 0 -1764 0 -3 132 -3
132 33 5 c134 22 173 31 253 57 181 58 339 182 384 304 28 74 57 246 73 425
17 189 14 7743 -3 7965 -19 250 -56 423 -114 521 -71 120 -236 207 -486 255
-63 12 -120 23 -126 25 -10 3 -13 39 -13 139 l0 135 1420 0 1420 0 0 -2012z
m32330 -2025 c1 -2221 3 -4146 6 -4278 12 -642 46 -799 206 -959 83 -82 155
-122 283 -155 94 -24 262 -51 323 -51 l43 0 -3 -127 -3 -127 -215 -43 c-118
-23 -390 -76 -605 -118 -214 -42 -550 -107 -745 -145 -195 -38 -519 -101 -720
-140 -201 -39 -429 -83 -507 -99 l-143 -28 0 544 c0 300 -4 543 -8 541 -5 -1
-51 -52 -103 -113 -311 -364 -632 -641 -893 -772 -379 -191 -833 -246 -1326
-162 -669 114 -1213 487 -1634 1119 -372 558 -581 1224 -637 2025 -23 339 -3
887 46 1225 98 672 325 1282 667 1792 410 611 1068 1038 1783 1154 131 21 521
30 653 15 493 -58 852 -251 1295 -693 l157 -158 0 1157 c0 1371 -10 1688 -56
1853 -53 188 -206 351 -382 407 -99 31 -240 51 -424 59 l-148 7 0 154 0 153
1545 0 1545 0 0 -4037z m8225 3962 c0 -38 1 -897 3 -1908 l2 -1838 128 117
c488 451 956 688 1496 760 142 18 450 18 593 -1 532 -70 1048 -329 1443 -725
69 -69 148 -154 175 -190 27 -36 52 -67 55 -70 15 -13 114 -156 170 -245 233
-372 404 -833 485 -1310 45 -264 57 -403 62 -760 6 -366 -6 -580 -48 -855
-159 -1049 -654 -1972 -1362 -2539 -107 -86 -315 -225 -422 -282 -44 -23 -84
-45 -90 -49 -27 -20 -274 -123 -380 -160 -352 -120 -678 -173 -1085 -173 -255
-1 -391 12 -601 53 -428 85 -812 285 -1182 615 -62 55 -102 83 -110 79 -6 -5
-75 -49 -152 -100 -77 -50 -331 -216 -563 -368 l-424 -276 -129 0 -129 0 0
4609 c0 2986 -4 4653 -10 4737 -18 234 -61 359 -160 467 -121 132 -258 183
-577 212 l-73 7 0 134 0 134 1443 -2 1442 -3 0 -70z m-45717 -1782 l2 -1273
828 -2 827 -3 2 -367 3 -368 -830 0 -830 0 1 -2297 c1 -1264 5 -2363 10 -2443
20 -341 80 -494 243 -616 128 -97 213 -123 339 -104 262 38 500 223 736 573
32 48 68 103 80 122 l21 35 106 -77 c58 -42 108 -83 111 -90 3 -6 -31 -86 -75
-175 -369 -753 -897 -1156 -1621 -1239 -155 -17 -497 -7 -639 20 -346 65 -649
228 -907 486 -277 276 -412 537 -450 865 -35 300 -37 475 -42 2712 l-5 2228
-451 2 -452 3 -2 124 c-1 116 0 125 20 142 12 10 103 78 202 152 693 512 1265
1058 1731 1652 253 322 529 732 709 1055 98 175 76 159 213 157 l117 -2 3
-1272z m77140 430 c-1 -461 -3 -812 -5 -780 -3 41 -8 57 -18 57 -11 0 -15 -15
-17 -57 l-2 -58 -3 58 -4 57 -54 0 c-48 0 -55 2 -55 20 0 18 -7 20 -59 20 -32
0 -86 3 -120 6 -61 7 -61 7 -61 -20 0 -24 -3 -26 -40 -26 l-40 0 0 40 0 40
-40 0 c-32 0 -40 4 -40 19 0 15 -11 19 -61 25 -34 3 -88 6 -120 6 -46 0 -59 3
-59 15 0 12 -16 15 -80 15 -72 0 -80 2 -80 19 0 16 -11 20 -76 26 -78 7 -99 0
-88 -30 3 -8 -6 -12 -26 -13 l-30 -1 21 30 c11 16 25 27 30 24 5 -4 9 3 9 15
0 12 5 18 10 15 6 -3 10 0 10 8 0 8 9 22 19 31 18 17 20 17 30 -1 8 -14 10
-15 11 -2 0 8 -5 20 -10 25 -8 8 -6 15 5 24 10 8 15 9 15 1 0 -6 4 -11 9 -11
6 0 9 12 8 28 -1 18 2 26 12 24 8 -2 11 3 8 11 -3 8 7 27 21 43 15 16 43 52
62 79 19 28 43 59 54 70 17 18 18 18 13 2 -4 -11 -3 -16 4 -12 6 4 8 14 4 22
-5 14 14 43 107 165 15 20 28 39 28 42 0 9 143 221 152 224 4 2 8 12 8 21 0
10 11 30 25 45 13 14 22 26 20 26 -2 0 19 37 47 82 60 97 158 266 158 273 0 2
12 25 27 50 l28 45 117 0 118 0 -2 -837z m-1215 -620 c-5 -12 -3 -14 8 -8 8 5
1 -5 -16 -21 -16 -17 -38 -33 -49 -37 -11 -5 -16 -13 -12 -23 3 -8 2 -12 -4
-9 -6 3 -14 -5 -19 -18 -6 -14 -15 -28 -20 -32 -30 -18 11 57 46 85 15 11 35
34 45 50 19 33 31 40 21 13z m7 -67 c0 -3 -4 -8 -10 -11 -5 -3 -10 -1 -10 4 0
6 5 11 10 11 6 0 10 -2 10 -4z m-153 -105 c0 -11 -7 -17 -14 -14 -9 4 -9 8 0
19 16 17 16 17 14 -5z m-33 -37 c-13 -11 -15 -17 -6 -20 16 -7 15 -21 -1 -27
-8 -3 -13 3 -12 17 0 26 12 46 28 46 6 0 2 -7 -9 -16z m-42 -41 c-6 -3 -10 -8
-7 -13 3 -4 -2 -10 -10 -14 -8 -3 -15 -2 -15 1 0 12 33 43 39 37 3 -4 0 -9 -7
-11z m-23 -52 c12 -8 12 -12 2 -25 -8 -9 -18 -16 -23 -16 -6 0 -5 7 2 15 22
27 3 27 -25 1 -38 -35 -50 -33 -17 3 29 32 39 36 61 22z m-55 -79 c-3 -33 -5
-36 -15 -19 -12 21 -33 23 -25 2 3 -8 1 -15 -3 -15 -14 0 -21 26 -10 37 13 13
54 9 53 -5z m111 8 c-3 -5 -12 -10 -18 -10 -7 0 -6 4 3 10 19 12 23 12 15 0z
m37 -17 c-6 -2 -10 -9 -6 -14 3 -5 0 -9 -5 -9 -12 0 -14 13 -4 23 3 4 11 7 17
6 6 0 5 -3 -2 -6z m-183 -29 c9 -1 37 -2 64 -3 43 -1 47 -3 47 -26 0 -22 4
-25 40 -25 29 0 40 -4 40 -15 0 -12 20 -15 120 -15 l120 0 0 -25 c0 -25 1 -25
80 -25 64 0 80 -3 80 -15 0 -12 20 -15 120 -15 l120 0 0 -25 c0 -25 1 -25 80
-25 64 0 80 -3 80 -15 0 -12 20 -15 120 -15 l120 0 0 -25 c0 -25 1 -25 80 -25
64 0 80 -3 80 -15 0 -12 13 -15 55 -15 l55 0 2 43 1 42 4 -42 c3 -35 8 -43 24
-43 18 0 19 -8 19 -164 0 -90 2 -170 5 -178 4 -11 152 -13 825 -13 635 0 821
-3 824 -12 7 -17 -5 -21 -34 -12 -19 5 -20 7 -6 8 11 1 17 2 15 4 -2 1 -155 0
-339 -3 l-335 -6 314 -2 c215 -1 325 -6 348 -14 l33 -12 1 -151 c1 -82 3 -220
5 -305 5 -181 0 -222 -24 -219 -9 1 -380 1 -824 0 l-808 -1 1 -1222 c2 -1828
15 -3577 28 -3678 30 -226 100 -362 239 -463 126 -93 209 -117 332 -98 174 26
315 100 469 245 91 87 226 254 296 367 56 92 68 109 76 109 8 0 134 -88 198
-138 l24 -19 -76 -157 c-330 -681 -777 -1073 -1388 -1216 -290 -68 -711 -68
-982 1 -122 31 -263 85 -376 145 -127 67 -169 95 -296 199 -199 163 -357 357
-455 559 -166 342 -170 406 -170 3344 l0 2022 -450 0 -451 0 3 131 3 132 130
93 c122 88 171 125 199 149 6 6 56 44 111 85 55 41 109 83 119 93 11 10 26 15
34 12 7 -2 10 0 7 5 -8 13 57 71 73 65 7 -3 11 -1 8 4 -5 7 78 86 128 121 11
8 31 25 42 37 12 13 24 23 28 23 3 0 32 25 63 55 54 51 92 76 62 38 -12 -14
-12 -16 1 -11 8 3 15 13 15 24 0 11 36 53 84 99 47 44 92 87 102 97 13 12 20
13 29 5 8 -9 10 -8 5 4 -8 20 16 41 34 29 12 -7 11 -11 -2 -25 -21 -20 -21
-21 1 -21 20 0 24 34 6 57 -8 11 -6 18 8 32 20 19 25 9 6 -13 -11 -12 -10 -12
2 -3 8 6 29 10 46 8 28 -1 30 1 29 29 -2 17 2 38 8 46 9 12 9 13 -3 3 -22 -20
-32 -15 -12 5 13 14 20 16 31 8 8 -6 21 -11 30 -12z m151 11 c0 -8 -3 -15 -6
-15 -3 0 -12 7 -20 15 -14 13 -13 15 5 15 12 0 21 -6 21 -15z m-215 -45 c10
-16 -24 -45 -37 -32 -8 8 -8 15 2 27 14 17 26 19 35 5z m-86370 -435 c465 -23
897 -152 1218 -364 226 -149 487 -395 619 -581 73 -104 165 -279 198 -378 39
-120 71 -364 89 -702 5 -80 9 -914 10 -1855 1 -1620 7 -2007 31 -2135 22 -116
89 -217 175 -263 60 -32 172 -31 245 4 71 33 154 103 215 179 26 33 51 60 54
60 6 0 185 -140 209 -164 12 -11 3 -29 -54 -107 -415 -576 -819 -858 -1339
-934 -134 -20 -427 -19 -564 0 -527 77 -852 351 -992 835 -15 54 -33 134 -40
179 -7 45 -15 81 -18 81 -3 0 -35 -26 -71 -56 -666 -575 -1300 -922 -1877
-1029 -119 -23 -445 -31 -554 -15 -329 48 -593 184 -813 421 -174 188 -286
412 -332 669 -26 142 -24 417 5 574 99 549 446 1018 1070 1450 273 188 676
425 1141 671 234 124 927 466 1228 606 l202 94 0 530 c0 875 -24 1090 -139
1266 -116 176 -331 321 -563 378 -261 64 -645 17 -903 -111 -204 -102 -310
-219 -322 -358 -11 -113 41 -220 195 -404 204 -244 278 -398 289 -601 21 -386
-233 -735 -622 -858 -126 -40 -225 -50 -418 -44 -176 5 -257 20 -384 67 -149
56 -302 158 -411 274 -195 209 -271 435 -242 721 31 306 146 567 376 851 145
179 372 375 589 507 435 264 1051 455 1705 528 97 11 592 28 650 22 14 -1 79
-5 145 -8z m-7008 -10 c493 -65 950 -292 1341 -669 260 -251 429 -480 582
-790 249 -504 384 -1090 426 -1843 l7 -123 -1912 0 -1911 0 0 -28 c0 -57 31
-361 51 -497 72 -489 232 -967 439 -1310 318 -527 704 -836 1170 -937 136 -29
403 -36 536 -14 198 33 347 87 510 184 238 141 504 421 761 800 60 88 102 141
110 138 7 -3 65 -39 128 -81 l116 -75 -75 -147 c-94 -185 -237 -430 -345 -592
-486 -725 -1004 -1116 -1716 -1295 -472 -119 -1138 -103 -1614 40 -483 145
-885 400 -1198 760 -499 575 -791 1341 -863 2263 -13 173 -13 684 0 866 73
991 401 1790 993 2411 486 510 1060 825 1682 923 171 27 173 27 437 29 155 1
264 -3 345 -13z m36338 5 c402 -38 749 -138 1028 -297 305 -173 652 -508 806
-778 128 -224 162 -370 197 -849 14 -187 18 -517 24 -2121 5 -1249 11 -1917
18 -1950 21 -100 53 -167 106 -221 144 -143 347 -97 524 118 31 38 62 66 68
64 22 -8 213 -161 213 -170 2 -29 -234 -328 -376 -477 -339 -353 -700 -532
-1148 -568 -126 -10 -358 -1 -480 19 -263 41 -474 139 -641 293 -177 165 -296
401 -349 692 -10 55 -20 102 -21 104 -2 2 -45 -32 -96 -76 -762 -652 -1452
-995 -2080 -1033 -357 -21 -655 55 -918 234 -92 62 -269 237 -334 330 -107
151 -185 340 -221 536 -27 144 -25 407 5 570 68 378 245 707 553 1027 267 277
648 541 1332 923 216 120 984 512 1260 642 243 115 375 177 436 204 l59 27 2
416 c6 825 -21 1162 -104 1324 -102 201 -358 384 -619 444 -101 23 -378 22
-509 -1 -324 -57 -582 -201 -665 -370 -53 -109 -43 -204 35 -336 42 -71 54
-86 151 -200 118 -138 194 -265 241 -406 20 -60 23 -89 23 -214 0 -162 -15
-231 -81 -364 -85 -171 -240 -319 -426 -405 -251 -117 -602 -128 -892 -29
-296 101 -547 345 -642 623 -24 71 -28 99 -32 240 -5 185 8 277 64 445 84 251
238 488 463 710 174 172 363 309 591 429 454 238 1092 409 1690 454 111 8 646
6 745 -3z m8992 -6 c287 -42 539 -143 753 -302 41 -30 129 -110 195 -177 175
-176 287 -341 376 -550 89 -211 126 -365 159 -658 41 -369 43 -472 50 -2437 5
-1266 11 -1947 19 -2010 37 -327 81 -461 179 -551 107 -97 248 -150 525 -194
l37 -6 0 -119 c0 -65 -3 -125 -6 -134 -6 -15 -170 -16 -1765 -16 l-1759 0 0
135 0 135 28 6 c124 27 192 48 268 84 70 34 103 58 169 123 123 122 155 200
192 468 17 126 18 256 18 2224 0 2165 -1 2236 -41 2445 -66 347 -326 567 -649
546 -372 -23 -730 -288 -1054 -781 l-86 -130 1 -1995 c1 -2032 3 -2159 40
-2390 45 -291 119 -409 318 -505 79 -38 156 -62 304 -91 21 -4 22 -7 22 -139
l0 -135 -1762 2 -1763 3 -3 132 -3 131 73 12 c83 13 173 35 236 56 121 40 255
131 317 214 73 100 107 275 125 633 14 282 13 4413 -1 4622 -37 571 -113 713
-440 819 -57 18 -148 41 -201 51 l-98 17 0 139 0 139 1415 0 c1341 0 1415 -1
1415 -17 0 -436 3 -860 7 -866 3 -5 60 47 127 115 345 352 645 582 961 738
238 118 437 180 685 215 137 19 488 19 617 -1z m27553 1 c361 -45 673 -162
994 -376 359 -237 679 -585 888 -964 281 -512 448 -1183 485 -1947 l6 -138
-1912 0 -1911 0 5 -72 c71 -919 288 -1555 708 -2078 270 -336 582 -540 949
-621 147 -32 399 -37 553 -11 305 53 543 177 789 413 162 156 316 343 469 571
51 76 97 135 104 133 27 -9 243 -151 243 -159 0 -12 -137 -273 -213 -406 -203
-353 -433 -668 -659 -901 -555 -573 -1277 -843 -2138 -799 -374 19 -661 75
-948 186 -349 135 -633 324 -897 595 -558 575 -885 1398 -955 2399 -13 185
-13 593 0 780 60 873 297 1562 744 2160 123 165 456 504 621 631 245 190 471
322 725 424 247 99 462 151 785 188 91 11 453 6 565 -8z m7235 -9 c562 -79
926 -240 1307 -580 249 -222 415 -450 508 -701 39 -103 61 -234 86 -500 14
-146 18 -444 24 -2100 8 -1832 11 -2020 36 -2140 12 -55 51 -132 90 -174 137
-153 354 -107 535 111 28 35 56 65 61 66 5 2 26 -11 47 -30 21 -18 63 -53 95
-77 87 -68 86 -59 16 -158 -109 -152 -220 -284 -345 -409 -271 -272 -521 -421
-835 -498 -148 -36 -249 -46 -448 -46 -629 0 -1029 232 -1220 707 -40 100 -85
263 -98 356 -3 26 -9 47 -13 47 -3 0 -37 -28 -75 -61 -38 -33 -124 -105 -190
-158 -628 -506 -1218 -802 -1746 -876 -132 -18 -379 -21 -495 -4 -392 54 -717
258 -944 593 -91 132 -169 337 -197 513 -23 150 -15 464 16 607 45 210 149
456 266 631 186 279 458 539 824 787 509 346 1297 770 2319 1247 118 55 218
104 224 110 13 13 2 1133 -12 1296 -23 251 -58 399 -116 487 -80 121 -217 239
-364 313 -133 66 -253 96 -421 102 -361 14 -725 -99 -905 -281 -134 -136 -149
-274 -48 -444 30 -51 168 -231 192 -252 11 -9 65 -84 94 -128 87 -137 126
-253 134 -397 13 -252 -79 -473 -274 -655 -131 -122 -296 -203 -480 -235 -99
-17 -337 -20 -433 -5 -408 65 -747 339 -860 695 -31 97 -38 311 -16 447 90
552 532 1071 1186 1394 410 203 991 358 1534 409 201 19 778 13 941 -9z m6428
-2798 c4 -2657 5 -2725 42 -2958 20 -124 35 -173 86 -271 71 -137 186 -233
339 -285 77 -27 305 -27 405 0 271 71 522 289 877 762 l99 132 -4 2088 c-3
1898 -5 2100 -20 2214 -29 213 -72 349 -133 426 -81 101 -284 191 -511 225
l-83 12 0 134 0 133 1415 0 1415 0 1 -1117 c1 -615 5 -1944 9 -2953 6 -1631 9
-1848 24 -1955 37 -264 78 -376 171 -464 89 -85 273 -159 455 -186 25 -3 57
-8 73 -11 l27 -6 0 -134 0 -134 -1420 0 -1420 0 0 467 0 466 -32 -39 c-84 -99
-216 -240 -329 -349 -460 -443 -917 -673 -1464 -736 -135 -15 -419 -15 -530 0
-383 54 -722 234 -1021 544 -318 329 -447 643 -508 1237 -38 367 -39 421 -46
2355 -6 1739 -8 1933 -24 2055 -32 255 -79 400 -154 477 -84 86 -267 164 -469
199 l-103 17 0 134 0 133 1414 0 1415 0 4 -2612z m10411 2580 c-3 -4 3 -8 13
-8 16 0 18 -8 17 -62 -1 -35 0 -48 3 -29 l4 33 157 -7 c86 -4 159 -11 160 -16
2 -5 21 -9 43 -9 35 0 39 -3 39 -25 0 -25 1 -25 80 -25 64 0 80 -3 80 -15 0
-12 20 -15 120 -15 l120 0 0 -25 c0 -25 1 -25 80 -25 64 0 80 -3 80 -15 0 -12
20 -15 120 -15 l120 0 0 -25 c0 -22 4 -25 40 -25 29 0 40 -4 40 -15 0 -12 20
-15 120 -15 l120 0 0 -25 c0 -25 1 -25 80 -25 64 0 80 -3 80 -15 0 -12 20 -15
120 -15 l120 0 0 -25 c0 -25 1 -25 80 -25 64 0 80 -3 80 -15 0 -12 20 -15 120
-15 l120 0 0 -25 c0 -25 1 -25 80 -25 64 0 80 -3 80 -15 0 -12 20 -15 120 -15
l120 0 0 -25 c0 -25 1 -25 80 -25 64 0 80 -3 80 -15 0 -19 76 -21 83 -2 2 6 3
-30 2 -81 -1 -51 1 -94 5 -97 4 -2 6 8 4 23 -2 15 3 3 12 -27 10 -38 12 -57 5
-64 -6 -6 -11 -16 -11 -22 0 -5 5 -3 10 5 8 12 10 9 10 -12 0 -16 4 -28 9 -28
6 0 10 -8 10 -17 -1 -10 17 -69 39 -130 22 -62 38 -113 36 -113 -2 0 7 -22 21
-49 14 -29 22 -57 18 -67 -4 -11 -3 -15 5 -10 6 3 14 -3 18 -16 9 -33 73 -197
89 -233 8 -16 32 -70 54 -118 23 -49 41 -94 41 -101 0 -6 4 -16 9 -22 5 -5 23
-43 41 -84 46 -107 78 -177 105 -235 13 -27 35 -79 50 -115 41 -100 153 -356
196 -448 22 -46 39 -86 39 -89 0 -2 9 -23 19 -46 11 -23 43 -96 71 -162 29
-66 63 -142 75 -170 13 -27 38 -84 55 -125 18 -41 43 -97 55 -125 13 -27 34
-77 48 -110 27 -61 134 -308 236 -540 32 -71 88 -201 126 -287 38 -87 72 -158
75 -158 5 0 40 89 178 450 30 80 63 165 73 190 26 67 145 374 244 630 48 124
119 306 157 405 38 99 75 195 81 213 6 17 14 32 18 32 4 0 8 8 8 18 -1 14 202
557 230 617 5 11 12 33 16 49 5 24 8 27 16 15 8 -10 9 -9 4 8 -8 28 4 75 18
66 6 -4 8 2 4 16 -3 14 2 37 14 59 11 19 22 45 23 56 1 12 5 28 8 36 3 8 16
56 29 105 12 50 28 104 35 120 l12 30 7 -27 c4 -16 12 -28 17 -28 13 0 1 52
-14 61 -6 4 -8 18 -3 35 l7 29 18 -35 c23 -42 24 -38 5 15 -16 46 -19 79 -6
70 6 -3 7 9 4 30 -4 22 -2 35 5 35 6 0 9 6 6 14 -3 8 0 17 6 21 6 3 10 3 9 -2
-4 -24 4 -33 31 -33 30 0 30 1 30 52 0 51 0 52 16 30 11 -15 14 -33 9 -50 -20
-84 -21 -82 24 -82 30 0 41 -4 41 -15 0 -12 20 -15 120 -15 l120 0 0 -25 c0
-22 4 -25 40 -25 33 0 38 3 33 18 -5 13 -3 14 7 6 6 -7 12 -29 12 -49 0 -26 3
-34 9 -24 10 16 12 8 3 -15 -3 -9 -10 -13 -15 -10 -5 3 -8 -5 -6 -18 1 -15 -3
-22 -11 -20 -9 2 -12 -4 -7 -17 3 -11 1 -22 -5 -26 -5 -3 -10 -13 -10 -21 0
-16 -30 -90 -56 -136 -8 -15 -13 -30 -12 -35 5 -18 -27 -83 -39 -79 -7 3 -15
1 -18 -5 -4 -5 -1 -8 6 -7 18 5 22 -18 5 -35 -8 -8 -13 -17 -10 -19 2 -3 -6
-29 -20 -59 -33 -75 -40 -93 -41 -104 -1 -12 -21 -66 -45 -120 -18 -41 -43
-104 -65 -165 -21 -59 -149 -395 -235 -615 -23 -60 -55 -144 -70 -185 -16 -41
-72 -187 -125 -325 -53 -137 -135 -351 -182 -475 -47 -124 -94 -245 -104 -270
-40 -103 -194 -504 -293 -765 -59 -154 -115 -300 -126 -325 -16 -37 -132 -340
-351 -915 -16 -44 -39 -100 -49 -125 -11 -25 -87 -223 -170 -440 -153 -400
-343 -889 -386 -990 -13 -30 -62 -149 -109 -265 -339 -824 -621 -1384 -816
-1619 -353 -425 -810 -634 -1344 -613 -184 7 -322 30 -469 79 -397 130 -711
448 -811 819 -62 232 -49 512 32 718 108 270 331 478 596 555 127 37 356 40
482 5 339 -91 545 -356 585 -754 5 -55 14 -170 20 -255 15 -217 38 -294 103
-344 123 -94 332 -22 516 180 187 204 421 679 661 1334 21 58 86 232 144 387
l105 282 -110 253 c-61 139 -130 298 -154 353 -23 55 -158 366 -300 690 -366
839 -453 1039 -492 1130 -19 44 -41 94 -48 110 -7 17 -59 136 -115 265 -56
129 -129 295 -161 368 -33 74 -59 136 -59 138 0 2 -16 38 -35 80 -19 41 -35
77 -35 80 0 2 -9 23 -19 47 -32 69 -341 778 -341 782 0 2 -13 32 -29 67 -16
35 -50 113 -76 173 -282 656 -340 789 -417 953 -21 45 -38 84 -38 87 0 12
-200 421 -300 615 -27 52 -50 101 -50 108 0 6 -4 12 -10 12 -5 0 -10 7 -10 15
0 8 -4 15 -8 15 -5 0 -19 19 -32 43 -35 63 -100 157 -140 200 -19 21 -38 46
-41 55 -3 10 -10 17 -15 17 -5 0 -19 10 -32 22 -60 55 -81 73 -135 113 l-59
44 34 17 c18 10 29 18 25 19 -4 0 -21 -7 -38 -15 -26 -14 -32 -14 -57 -1 -15
8 -24 15 -19 16 4 0 -5 13 -19 30 -27 30 -56 32 -32 2 7 -9 9 -13 3 -10 -5 2
-19 8 -30 12 l-20 7 20 16 20 16 -20 -8 c-31 -13 -57 -9 -105 14 -24 11 -49
21 -56 21 -18 0 -24 49 -6 52 12 2 16 22 18 86 2 47 -1 82 -7 82 -5 0 -10 -37
-11 -82 l-2 -83 -5 95 c-6 102 -4 131 10 109 4 -7 5 -17 3 -21z m3636 23 c0
-6 5 -11 11 -11 5 0 7 5 4 10 -3 6 -2 10 3 10 6 0 13 -7 16 -16 9 -23 7 -217
-2 -232 -5 -8 -37 -14 -83 -16 -43 -2 -63 0 -49 5 23 6 23 7 -8 8 -47 1 -122
22 -122 33 0 6 23 7 58 2 63 -7 81 -14 37 -14 -55 0 -19 -8 69 -15 63 -5 86
-4 82 4 -4 6 -2 11 3 11 7 0 10 25 9 68 l-2 67 -3 -61 -4 -62 -45 -7 c-52 -7
-71 -1 -24 9 21 4 29 10 24 17 -5 9 0 10 14 7 19 -5 22 -2 22 20 0 18 -3 23
-9 14 -15 -24 -161 -11 -161 14 0 11 -23 14 -120 14 -76 0 -120 4 -120 10 0 7
-79 10 -240 8 -215 -3 -268 1 -227 14 6 2 96 4 199 3 102 0 185 2 183 5 -2 3
-89 5 -194 5 -105 0 -191 3 -191 7 0 5 70 8 155 8 94 0 155 4 155 10 0 6 66
11 163 13 128 2 102 3 -123 7 l-285 5 285 5 285 5 -315 4 c-173 1 -337 6 -365
9 -27 4 167 8 433 10 337 2 482 0 482 -7z m3690 -121 c0 -142 3 -136 -65 -144
-85 -11 -193 -49 -292 -102 -83 -46 -120 -73 -181 -134 -25 -25 -53 -44 -61
-42 -12 2 -13 1 -3 -6 9 -6 2 -23 -28 -65 -22 -32 -47 -72 -56 -89 -13 -24
-18 -28 -26 -17 -7 10 -8 8 -5 -9 7 -30 -49 -123 -69 -115 -8 3 -14 15 -14 27
1 20 1 20 15 -4 l14 -25 1 28 c0 57 -63 82 -67 26 -2 -21 2 -29 10 -26 8 3 17
-9 23 -29 10 -32 6 -43 -10 -26 -4 4 -12 8 -17 8 -22 3 -23 5 -9 14 12 8 9 10
-12 10 -32 0 -35 7 -10 26 16 13 16 13 -3 14 -11 0 -16 4 -10 8 28 20 13 32
-40 32 -47 0 -55 3 -55 19 0 15 -11 19 -61 25 -34 3 -88 6 -120 6 -46 0 -59 3
-59 15 0 12 -16 15 -80 15 -70 0 -80 2 -80 18 0 19 -33 26 -127 26 -31 0 -43
5 -46 18 -3 9 -2 20 2 23 3 4 6 21 6 38 0 29 -3 32 -32 34 -24 1 -42 12 -65
39 -18 21 -33 41 -33 45 0 10 -14 24 -26 25 -5 1 -11 2 -14 3 -3 0 -1 10 5 21
9 16 8 18 -5 14 -8 -4 -15 -11 -15 -17 0 -6 -8 -4 -17 4 -30 24 -76 47 -121
58 -23 7 -40 16 -37 20 5 10 -25 25 -33 16 -3 -3 1 -5 8 -5 7 0 11 -3 7 -6 -3
-3 -20 -1 -39 5 -49 15 -204 40 -281 44 -37 2 -71 8 -75 11 -4 4 -8 64 -8 132
l-2 124 1159 0 1159 0 0 -130z m-7147 113 c-13 -2 -33 -2 -45 0 -13 2 -3 4 22
4 25 0 35 -2 23 -4z m2280 0 c-35 -2 -91 -2 -125 0 -35 2 -7 3 62 3 69 0 97
-1 63 -3z m-2107 -25 c4 -4 -64 -7 -150 -5 -86 1 -156 5 -156 8 0 9 297 5 306
-3z m2367 5 c-24 -2 -43 -8 -43 -12 0 -6 -67 -7 -80 -1 -9 5 84 17 125 17 l40
0 -42 -4z m787 -149 c0 -2 -7 -4 -15 -4 -8 0 -15 4 -15 10 0 5 7 7 15 4 8 -4
15 -8 15 -10z m-190 -124 c20 -6 21 -8 5 -8 -11 0 -29 3 -40 8 -25 11 1 11 35
0z m-199 -89 c-8 -5 -11 -17 -7 -28 4 -13 -1 -26 -15 -39 l-22 -19 18 28 c10
16 13 27 6 27 -6 0 -11 5 -11 11 0 13 33 40 40 33 2 -3 -2 -9 -9 -13z m68 16
c-2 -1 -13 -9 -24 -17 -19 -14 -19 -14 -6 3 7 9 18 17 24 17 6 0 8 -1 6 -3z
m-162 -161 c-1 -35 -5 -62 -9 -60 -3 2 -9 -2 -12 -8 -3 -7 -3 -2 1 12 3 14 5
42 5 64 -2 35 3 56 13 56 3 0 4 -29 2 -64z m32 24 c-6 -16 -15 -28 -20 -25 -9
6 10 55 22 55 4 0 3 -13 -2 -30z m2708 -35 c9 -25 -4 -29 -17 -6 -7 15 -7 21
0 21 6 0 13 -7 17 -15z m20 -37 c-3 -8 -6 -5 -6 6 -1 11 2 17 5 13 3 -3 4 -12
1 -19z m113 -102 c0 -13 -7 -30 -17 -37 -15 -13 -16 -11 -10 22 3 22 1 42 -6
49 -10 10 -7 10 11 1 13 -7 22 -21 22 -35z m52 -43 c5 -7 6 -18 2 -25 -10 -16
-22 23 -22 67 l1 30 4 -30 c3 -16 9 -35 15 -42z m-102 31 c0 -8 -4 -12 -10 -9
-5 3 -10 -2 -11 -12 0 -11 -3 -13 -6 -5 -6 17 3 42 17 42 5 0 10 -7 10 -16z
m20 -93 c0 -58 -6 -50 -14 19 -4 38 -3 50 4 40 5 -8 10 -35 10 -59z m657 -143
c-7 -10 -15 -18 -19 -18 -5 0 -8 -7 -8 -15 0 -8 -4 -15 -10 -15 -17 0 -11 18
13 42 13 13 22 30 19 38 -3 13 -2 13 6 1 7 -10 6 -20 -1 -33z m-67 -38 c0 -11
-2 -20 -4 -20 -2 0 -6 9 -9 20 -3 11 -1 20 4 20 5 0 9 -9 9 -20z m-613 -22
c-3 -8 -6 -5 -6 6 -1 11 2 17 5 13 3 -3 4 -12 1 -19z m30 -25 c-3 -10 -5 -4
-5 12 0 17 2 24 5 18 2 -7 2 -21 0 -30z m610 10 c-2 -5 -11 -25 -21 -45 -19
-43 -31 -51 -16 -12 14 35 30 64 36 64 3 0 3 -3 1 -7z m-640 -95 c-2 -13 -4
-3 -4 22 0 25 2 35 4 23 2 -13 2 -33 0 -45z m-20 20 c-3 -7 -5 -2 -5 12 0 14
2 19 5 13 2 -7 2 -19 0 -25z m40 -30 c-3 -7 -5 -2 -5 12 0 14 2 19 5 13 2 -7
2 -19 0 -25z m516 -56 c-9 -36 -9 -36 -15 -10 -3 16 -1 25 5 21 6 -3 7 11 3
38 -5 39 -4 41 5 16 7 -18 8 -41 2 -65z m43 36 c-9 -12 -16 -17 -16 -10 0 14
23 42 29 37 1 -2 -4 -14 -13 -27z m-566 -56 c0 -39 -11 -47 -25 -19 -14 26 -9
47 11 47 9 0 14 -11 14 -28z m553 16 c-5 -7 -17 -34 -27 -60 -10 -27 -22 -48
-27 -48 -5 0 -3 10 5 23 7 12 19 39 26 60 6 20 16 37 22 37 7 0 7 -4 1 -12z
m-70 -88 c-3 -11 -9 -17 -14 -14 -14 8 -10 34 5 34 9 0 12 -7 9 -20z m-37 -46
c-8 -21 -36 -17 -36 6 0 11 7 20 15 20 8 0 16 8 16 18 1 11 3 8 6 -6 3 -13 2
-30 -1 -38z m25 -55 c-20 -43 -20 -43 -27 -16 -3 16 -4 31 0 34 3 4 6 -2 6
-13 1 -12 6 -7 16 15 8 19 17 32 19 29 3 -3 -3 -25 -14 -49z"/>
<path d="M68648 86353 c6 -2 18 -2 25 0 6 3 1 5 -13 5 -14 0 -19 -2 -12 -5z"/>
<path d="M68698 86333 c7 -3 16 -2 19 1 4 3 -2 6 -13 5 -11 0 -14 -3 -6 -6z"/>
<path d="M68828 86323 c6 -2 18 -2 25 0 6 3 1 5 -13 5 -14 0 -19 -2 -12 -5z"/>
<path d="M69210 86240 c-12 -8 -9 -10 12 -10 15 0 30 5 33 10 8 13 -25 13 -45
0z"/>
<path d="M69410 86160 c0 -5 21 -10 47 -10 55 0 54 5 -4 14 -27 4 -43 2 -43
-4z"/>
<path d="M70000 85630 l0 -40 40 0 40 0 0 40 0 40 -40 0 -40 0 0 -40z"/>
<path d="M73360 82910 l0 -40 40 0 40 0 0 40 0 40 -40 0 -40 0 0 -40z"/>
<path d="M77520 79550 l0 -40 40 0 40 0 0 40 0 40 -40 0 -40 0 0 -40z"/>
<path d="M78166 79095 c-3 -9 -5 -29 -5 -43 1 -20 3 -17 9 13 8 43 7 57 -4 30z"/>
<path d="M78187 79063 c-5 -27 -2 -41 7 -32 11 10 17 59 8 59 -5 0 -12 -12
-15 -27z"/>
<path d="M78220 79041 c0 -5 7 -12 16 -15 14 -5 15 -4 4 9 -14 17 -20 19 -20
6z"/>
<path d="M78252 78958 c-7 -7 -12 -17 -12 -22 0 -6 5 -4 10 4 9 13 10 13 10 0
0 -8 8 -24 16 -35 15 -19 15 -19 8 10 -11 48 -18 57 -32 43z"/>
<path d="M78327 78793 c-4 -3 -6 -25 -6 -47 l2 -41 7 45 c8 48 7 54 -3 43z"/>
<path d="M78338 78693 c-10 -2 -18 -8 -18 -13 0 -4 9 -6 20 -3 11 3 20 9 20
14 0 5 -1 8 -2 8 -2 -1 -11 -3 -20 -6z"/>
<path d="M78370 78656 c0 -8 5 -18 10 -21 6 -3 10 1 10 9 0 8 -4 18 -10 21 -5
3 -10 -1 -10 -9z"/>
<path d="M78413 78548 c0 -7 -3 -24 -7 -38 -5 -17 -4 -20 2 -10 16 25 24 60
14 60 -5 0 -9 -6 -9 -12z"/>
<path d="M78426 78514 c-4 -9 -4 -19 -1 -22 2 -3 7 3 11 12 4 9 4 19 1 22 -2
3 -7 -3 -11 -12z"/>
<path d="M78506 78307 c3 -10 9 -15 12 -12 3 3 0 11 -7 18 -10 9 -11 8 -5 -6z"/>
<path d="M46613 62070 c0 -47 2 -66 4 -42 2 23 2 61 0 85 -2 23 -4 4 -4 -43z"/>
<path d="M46613 61870 c0 -25 2 -35 4 -22 2 12 2 32 0 45 -2 12 -4 2 -4 -23z"/>
<path d="M46720 61550 l0 -40 40 0 40 0 0 40 0 40 -40 0 -40 0 0 -40z"/>
<path d="M47360 61070 l0 -40 40 0 40 0 0 40 0 40 -40 0 -40 0 0 -40z"/>
<path d="M47520 60910 l0 -40 40 0 40 0 0 40 0 40 -40 0 -40 0 0 -40z"/>
<path d="M48402 60590 c0 -14 2 -19 5 -12 2 6 2 18 0 25 -3 6 -5 1 -5 -13z"/>
<path d="M48160 60430 l0 -40 40 0 40 0 0 40 0 40 -40 0 -40 0 0 -40z"/>
<path d="M48350 60458 c0 -9 5 -20 10 -23 13 -8 13 5 0 25 -8 13 -10 13 -10
-2z"/>
<path d="M48321 60449 c0 -9 2 -30 5 -47 6 -28 8 -29 21 -16 8 8 12 22 8 31
-5 14 -8 15 -15 3 -6 -10 -9 -6 -13 16 -2 16 -5 22 -6 13z"/>
<path d="M48320 60332 c0 -13 -6 -22 -15 -22 -19 0 -20 -16 -1 -23 10 -4 17 4
21 24 4 17 4 33 1 36 -3 4 -6 -3 -6 -15z"/>
<path d="M71092 85702 c-9 -6 -5 -12 14 -21 20 -9 30 -9 38 -1 8 8 6 9 -7 4
-12 -4 -17 -2 -15 6 4 16 -13 22 -30 12z"/>
<path d="M71288 85633 c7 -3 16 -2 19 1 4 3 -2 6 -13 5 -11 0 -14 -3 -6 -6z"/>
<path d="M71321 85626 c2 -2 15 -9 29 -15 24 -11 24 -11 6 3 -16 13 -49 24
-35 12z"/>
<path d="M71286 85611 c-3 -5 8 -11 26 -13 28 -5 29 -4 13 9 -22 15 -32 16
-39 4z"/>
<path d="M71478 85553 c6 -2 18 -2 25 0 6 3 1 5 -13 5 -14 0 -19 -2 -12 -5z"/>
<path d="M71545 85530 c3 -5 14 -10 23 -10 15 0 15 2 2 10 -20 13 -33 13 -25
0z"/>
<path d="M71505 85520 c27 -12 43 -12 25 0 -8 5 -22 9 -30 9 -10 0 -8 -3 5 -9z"/>
<path d="M71708 85443 c7 -3 16 -2 19 1 4 3 -2 6 -13 5 -11 0 -14 -3 -6 -6z"/>
<path d="M71860 85369 c0 -5 5 -7 10 -4 6 3 10 8 10 11 0 2 -4 4 -10 4 -5 0
-10 -5 -10 -11z"/>
<path d="M72087 85279 c7 -7 15 -10 18 -7 3 3 -2 9 -12 12 -14 6 -15 5 -6 -5z"/>
<path d="M76967 81215 c3 -8 9 -12 14 -9 12 7 11 11 -5 17 -10 4 -13 1 -9 -8z"/>
<path d="M77040 81131 c0 -6 4 -13 10 -16 6 -3 7 1 4 9 -7 18 -14 21 -14 7z"/>
<path d="M77080 81060 c0 -5 5 -10 11 -10 5 0 7 5 4 10 -3 6 -8 10 -11 10 -2
0 -4 -4 -4 -10z"/>
<path d="M77123 81006 c3 -24 27 -34 27 -11 0 9 -4 14 -9 11 -5 -4 -12 0 -15
6 -3 7 -5 4 -3 -6z"/>
<path d="M77204 80896 c-3 -8 -4 -23 -2 -33 3 -11 6 -6 9 15 6 34 2 42 -7 18z"/>
<path d="M77231 80850 c0 -19 23 -50 38 -50 6 0 11 -7 11 -17 0 -9 3 -14 6
-10 10 9 -6 47 -20 47 -7 0 -18 10 -24 23 -6 13 -11 16 -11 7z"/>
<path d="M77360 80604 c0 -8 5 -12 10 -9 6 4 8 11 5 16 -9 14 -15 11 -15 -7z"/>
<path d="M77455 80500 c-7 -11 2 -30 13 -30 4 0 8 9 8 20 0 21 -11 26 -21 10z"/>
<path d="M66960 59579 c0 -22 -90 -32 -97 -11 -4 10 -9 10 -22 -2 -9 -7 -25
-16 -36 -20 -11 -3 -3 -3 17 0 31 4 39 1 49 -18 9 -19 9 -21 -2 -10 -15 14
-39 16 -39 3 0 -5 10 -13 23 -17 34 -12 47 -13 47 -4 0 4 15 7 33 5 28 -3 38
3 61 31 26 32 27 54 4 54 -5 0 -8 -7 -4 -15 7 -20 -4 -19 -20 3 -12 15 -13 15
-14 1z m11 -56 c-12 -20 -14 -14 -5 12 4 9 9 14 11 11 3 -2 0 -13 -6 -23z"/>
<path d="M50686 59363 c-6 -14 -5 -15 5 -6 7 7 10 15 7 18 -3 3 -9 -2 -12 -12z"/>
<path d="M50525 58990 c3 -5 8 -10 11 -10 2 0 4 5 4 10 0 6 -5 10 -11 10 -5 0
-7 -4 -4 -10z"/>
<path d="M50417 58823 c-4 -3 -7 -13 -7 -22 1 -13 3 -13 11 2 11 19 8 33 -4
20z"/>
<path d="M50450 58800 c0 -5 5 -10 10 -10 6 0 10 5 10 10 0 6 -4 10 -10 10 -5
0 -10 -4 -10 -10z"/>
<path d="M50357 58727 c-3 -8 3 -14 16 -15 12 0 17 2 12 6 -6 4 -13 11 -16 15
-4 4 -9 2 -12 -6z"/>
<path d="M50720 58350 l0 -40 40 0 40 0 0 40 0 40 -40 0 -40 0 0 -40z"/>
<path d="M50880 58190 l0 -40 40 0 40 0 0 40 0 40 -40 0 -40 0 0 -40z"/>
<path d="M51520 57710 l0 -40 40 0 40 0 0 40 0 40 -40 0 -40 0 0 -40z"/>
<path d="M51680 57550 l0 -40 40 0 40 0 0 40 0 40 -40 0 -40 0 0 -40z"/>
<path d="M52480 56910 l0 -40 40 0 40 0 0 40 0 40 -40 0 -40 0 0 -40z"/>
<path d="M53280 56270 l0 -40 40 0 40 0 0 40 0 40 -40 0 -40 0 0 -40z"/>
<path d="M53440 56110 l0 -40 40 0 40 0 0 40 0 40 -40 0 -40 0 0 -40z"/>
<path d="M54080 55630 l0 -40 40 0 40 0 0 40 0 40 -40 0 -40 0 0 -40z"/>
<path d="M54240 55470 l0 -40 40 0 40 0 0 40 0 40 -40 0 -40 0 0 -40z"/>
<path d="M54880 54990 l0 -40 40 0 40 0 0 40 0 40 -40 0 -40 0 0 -40z"/>
<path d="M55040 54830 l0 -40 40 0 40 0 0 40 0 40 -40 0 -40 0 0 -40z"/>
<path d="M55840 54190 l0 -40 40 0 40 0 0 40 0 40 -40 0 -40 0 0 -40z"/>
<path d="M56640 53550 l0 -40 40 0 40 0 0 40 0 40 -40 0 -40 0 0 -40z"/>
<path d="M56800 53390 l0 -40 40 0 40 0 0 40 0 40 -40 0 -40 0 0 -40z"/>
<path d="M57440 52910 l0 -40 40 0 40 0 0 40 0 40 -40 0 -40 0 0 -40z"/>
<path d="M57600 52750 l0 -40 40 0 40 0 0 40 0 40 -40 0 -40 0 0 -40z"/>
<path d="M58240 52270 l0 -40 40 0 40 0 0 40 0 40 -40 0 -40 0 0 -40z"/>
<path d="M58400 52110 l0 -40 40 0 40 0 0 40 0 40 -40 0 -40 0 0 -40z"/>
<path d="M59040 51630 l0 -40 40 0 40 0 0 40 0 40 -40 0 -40 0 0 -40z"/>
<path d="M59200 51470 l0 -40 40 0 40 0 0 40 0 40 -40 0 -40 0 0 -40z"/>
<path d="M60000 50830 l0 -40 40 0 40 0 0 40 0 40 -40 0 -40 0 0 -40z"/>
<path d="M60800 50190 l0 -40 40 0 40 0 0 40 0 40 -40 0 -40 0 0 -40z"/>
<path d="M60960 50030 l0 -40 40 0 40 0 0 40 0 40 -40 0 -40 0 0 -40z"/>
<path d="M61600 49550 l0 -40 40 0 40 0 0 40 0 40 -40 0 -40 0 0 -40z"/>
<path d="M61760 49390 l0 -40 40 0 40 0 0 40 0 40 -40 0 -40 0 0 -40z"/>
<path d="M62400 48910 l0 -40 40 0 40 0 0 40 0 40 -40 0 -40 0 0 -40z"/>
<path d="M62560 48750 l0 -40 40 0 40 0 0 40 0 40 -40 0 -40 0 0 -40z"/>
<path d="M63432 48524 c-7 -8 -8 -14 -3 -14 10 0 25 19 20 25 -2 1 -10 -3 -17
-11z"/>
<path d="M63368 48523 c7 -3 16 -2 19 1 4 3 -2 6 -13 5 -11 0 -14 -3 -6 -6z"/>
<path d="M91776 68162 c-3 -5 -8 -33 -11 -63 -5 -39 -4 -50 4 -39 6 8 11 34
11 58 0 23 5 42 10 42 6 0 10 -10 10 -22 0 -16 3 -19 11 -11 7 7 9 19 6 27 -7
17 -32 22 -41 8z"/>
<path d="M91760 68000 c0 -5 5 -10 10 -10 6 0 10 5 10 10 0 6 -4 10 -10 10 -5
0 -10 -4 -10 -10z"/>
<path d="M91718 67883 c5 -21 7 -23 10 -9 2 10 0 22 -6 28 -6 6 -7 0 -4 -19z"/>
<path d="M91680 67865 c0 -5 5 -17 10 -25 5 -8 10 -10 10 -5 0 6 -5 17 -10 25
-5 8 -10 11 -10 5z"/>
<path d="M91692 67790 c0 -14 2 -19 5 -12 2 6 2 18 0 25 -3 6 -5 1 -5 -13z"/>
<path d="M85759 55433 c-13 -16 -12 -17 4 -4 9 7 17 15 17 17 0 8 -8 3 -21
-13z"/>
<path d="M75310 52761 c0 -28 869 -1741 1182 -2331 25 -47 112 -211 193 -365
81 -154 155 -293 165 -310 9 -16 43 -79 75 -140 59 -112 342 -639 465 -865 37
-69 83 -152 100 -185 30 -56 102 -187 500 -920 84 -154 171 -314 193 -355 22
-41 92 -169 155 -285 63 -115 154 -282 202 -370 48 -88 136 -250 195 -360 59
-110 138 -256 175 -325 85 -157 106 -195 247 -460 64 -118 148 -276 188 -350
40 -74 99 -187 132 -250 34 -63 105 -198 158 -300 170 -323 362 -695 543
-1050 418 -823 620 -1190 935 -1694 173 -277 521 -788 556 -816 3 -3 33 -41
65 -85 109 -146 335 -423 461 -561 238 -265 567 -585 800 -781 143 -119 313
-252 397 -309 31 -22 105 -73 165 -115 250 -174 607 -378 873 -498 63 -29 123
-57 133 -62 87 -47 466 -186 662 -243 181 -52 572 -146 610 -146 7 0 6 4400
-2 9867 l-6 4650 -1906 6 c-4717 17 -8611 20 -8611 8z"/>
<path d="M92186 68843 c-6 -14 -5 -15 5 -6 7 7 10 15 7 18 -3 3 -9 -2 -12 -12z"/>
<path d="M92096 68774 c-3 -8 -3 -26 0 -39 3 -12 1 -26 -5 -29 -6 -4 -11 -15
-11 -24 0 -9 8 -1 19 18 13 25 15 37 7 42 -8 5 -8 13 2 28 7 11 8 20 3 20 -5
0 -12 -7 -15 -16z"/>
<path d="M47926 59324 c-3 -11 -2 -32 2 -49 l9 -30 7 39 c8 41 -7 74 -18 40z"/>
<path d="M47849 59178 c-5 -83 -4 -127 1 -112 12 31 18 124 9 124 -5 0 -9 -6
-10 -12z"/>
<path d="M47890 59180 c0 -5 4 -10 9 -10 6 0 13 5 16 10 3 6 -1 10 -9 10 -9 0
-16 -4 -16 -10z"/>
<path d="M47801 58904 c0 -11 3 -14 6 -6 3 7 2 16 -1 19 -3 4 -6 -2 -5 -13z"/>
<path d="M47770 58825 c0 -5 5 -17 10 -25 5 -8 10 -10 10 -5 0 6 -5 17 -10 25
-5 8 -10 11 -10 5z"/>
<path d="M49901 57705 c-1 -12 -6 -26 -12 -32 -8 -8 -8 -17 -1 -29 9 -16 11
-13 17 18 4 20 5 43 2 50 -3 7 -6 4 -6 -7z"/>
<path d="M49912 57620 c0 -14 2 -19 5 -12 2 6 2 18 0 25 -3 6 -5 1 -5 -13z"/>
<path d="M49870 57623 c0 -4 5 -15 10 -23 8 -13 10 -13 10 2 0 9 -4 20 -10 23
-5 3 -10 3 -10 -2z"/>
<path d="M49711 57234 c0 -11 3 -14 6 -6 3 7 2 16 -1 19 -3 4 -6 -2 -5 -13z"/>
<path d="M53360 54910 l0 -40 40 0 40 0 0 40 0 40 -40 0 -40 0 0 -40z"/>
<path d="M56720 52190 l0 -40 40 0 40 0 0 40 0 40 -40 0 -40 0 0 -40z"/>
<path d="M60880 48830 l0 -40 40 0 40 0 0 40 0 40 -40 0 -40 0 0 -40z"/>
<path d="M61105 48300 c-17 -6 -14 -9 17 -15 20 -4 43 -5 50 -2 7 3 -3 6 -22
7 -29 1 -32 3 -15 10 26 11 -3 12 -30 0z"/>
<path d="M61255 48295 l-30 -13 28 -1 c15 -1 27 3 27 8 0 5 8 12 18 14 12 3
12 5 2 5 -8 1 -28 -5 -45 -13z"/>
<path d="M61490 48300 l-35 -7 32 -2 c17 0 33 -7 36 -13 4 -10 7 -10 18 0 11
10 10 12 -6 13 -16 1 -15 3 5 9 33 11 0 11 -50 0z"/>
<path d="M61338 48293 c7 -3 16 -2 19 1 4 3 -2 6 -13 5 -11 0 -14 -3 -6 -6z"/>
<path d="M61413 48293 c9 -2 23 -2 30 0 6 3 -1 5 -18 5 -16 0 -22 -2 -12 -5z"/>
<path d="M61343 48273 c9 -2 25 -2 35 0 9 3 1 5 -18 5 -19 0 -27 -2 -17 -5z"/>
<path d="M77550 20954 c-182 -23 -319 -91 -439 -220 -112 -119 -210 -289 -297
-510 -175 -448 -247 -1012 -253 -1979 -4 -778 57 -1470 165 -1875 114 -422
282 -750 492 -957 80 -80 129 -113 217 -148 159 -63 375 -71 548 -21 329 97
638 386 936 878 l71 117 0 1830 0 1830 -59 104 c-84 148 -122 206 -220 337
-240 322 -532 528 -836 591 -91 19 -261 31 -325 23z"/>
<path d="M90409 20840 c-152 -17 -321 -71 -459 -147 -67 -36 -190 -115 -225
-144 -144 -119 -282 -253 -384 -372 l-41 -48 0 -1822 c0 -2324 4 -2429 102
-2721 113 -337 363 -601 658 -694 134 -42 172 -47 360 -47 201 0 267 11 403
66 281 113 440 295 592 674 185 461 253 939 286 2015 12 401 7 1027 -11 1275
-79 1087 -309 1653 -767 1884 -132 66 -346 100 -514 81z"/>
<path d="M119796 22923 c-4 -12 -15 -23 -24 -25 -9 -2 -12 -6 -7 -10 16 -10
47 18 43 39 -4 16 -5 15 -12 -4z"/>
<path d="M119743 22818 c1 -15 6 -23 11 -18 4 4 4 16 -2 26 -9 16 -10 14 -9
-8z"/>
<path d="M119635 22731 c-3 -5 -2 -12 3 -15 5 -3 9 1 9 9 0 17 -3 19 -12 6z"/>
<path d="M119571 22662 c-7 -13 -6 -19 2 -19 7 0 13 9 13 19 0 10 -1 18 -3 18
-1 0 -7 -8 -12 -18z"/>
<path d="M118950 21985 c-7 -9 -10 -18 -7 -21 3 -3 10 4 17 15 13 25 8 27 -10
6z"/>
<path d="M118915 21950 c-3 -5 -1 -10 4 -10 6 0 11 5 11 10 0 6 -2 10 -4 10
-3 0 -8 -4 -11 -10z"/>
<path d="M118885 21921 c-3 -6 3 -9 14 -8 11 0 17 5 15 9 -7 11 -22 10 -29 -1z"/>
<path d="M118844 21877 c-38 -39 -39 -53 -2 -22 35 29 47 46 31 44 -5 0 -17
-10 -29 -22z"/>
<path d="M118862 21844 c-7 -8 -8 -14 -3 -14 10 0 25 19 20 25 -2 1 -10 -3
-17 -11z"/>
<path d="M118777 21774 c-10 -13 -13 -24 -8 -24 10 0 36 39 29 45 -2 2 -11 -8
-21 -21z"/>
<path d="M122023 21433 c15 -2 37 -2 50 0 12 2 0 4 -28 4 -27 0 -38 -2 -22 -4z"/>
<path d="M122258 21433 c12 -2 30 -2 40 0 9 3 -1 5 -23 4 -22 0 -30 -2 -17 -4z"/>
<path d="M122331 21374 c0 -11 3 -14 6 -6 3 7 2 16 -1 19 -3 4 -6 -2 -5 -13z"/>
<path d="M32660 18342 c-386 -240 -669 -461 -921 -719 -395 -403 -573 -759
-572 -1138 1 -157 22 -248 87 -380 147 -298 384 -438 714 -423 89 5 126 12
217 43 169 57 343 157 528 304 l77 61 0 1165 c0 641 -1 1165 -2 1165 -2 0 -59
-35 -128 -78z"/>
<path d="M25140 21195 c-137 -32 -288 -126 -383 -239 -240 -289 -413 -729
-486 -1241 -33 -232 -43 -386 -45 -680 l-1 -280 1010 0 1010 0 -3 300 c-4 500
-41 959 -96 1218 -58 271 -160 493 -307 672 -105 127 -206 199 -339 240 -77
23 -276 29 -360 10z"/>
<path d="M61865 18319 c-438 -276 -770 -551 -1028 -853 -137 -159 -217 -277
-287 -421 -102 -209 -140 -359 -140 -552 0 -254 77 -441 255 -618 144 -145
262 -189 500 -189 143 0 155 1 250 33 55 18 136 51 180 74 94 46 283 173 373
249 l63 53 0 1159 c-1 638 -2 1161 -4 1162 -2 2 -74 -42 -162 -97z"/>
<path d="M98041 21194 c-133 -28 -284 -120 -374 -226 -202 -241 -367 -607
-451 -1003 -61 -291 -86 -558 -89 -950 l-2 -260 1010 0 1010 0 3 120 c8 287
-26 924 -63 1195 -58 423 -191 730 -409 946 -104 103 -193 154 -311 179 -87
18 -239 18 -324 -1z"/>
<path d="M105554 18339 c-383 -240 -669 -464 -910 -711 -394 -405 -574 -762
-574 -1140 0 -251 79 -438 263 -626 178 -182 506 -234 792 -127 36 14 101 43
143 64 114 57 358 225 413 284 19 20 19 45 19 1173 0 634 -4 1155 -9 1158 -4
3 -66 -31 -137 -75z"/>
<path d="M122711 21264 c0 -11 3 -14 6 -6 3 7 2 16 -1 19 -3 4 -6 -2 -5 -13z"/>
<path d="M122680 21240 c0 -5 5 -10 11 -10 5 0 7 5 4 10 -3 6 -8 10 -11 10 -2
0 -4 -4 -4 -10z"/>
<path d="M122945 21180 c3 -5 8 -10 11 -10 2 0 4 5 4 10 0 6 -5 10 -11 10 -5
0 -7 -4 -4 -10z"/>
<path d="M123026 21072 c-2 -4 -1 -14 4 -22 7 -11 9 -9 7 8 -1 24 -3 26 -11
14z"/>
<path d="M123090 21026 c0 -2 8 -10 18 -17 15 -13 16 -12 3 4 -13 16 -21 21
-21 13z"/>
<path d="M123172 20938 c2 -6 10 -13 16 -14 7 -1 8 0 2 3 -5 2 -8 9 -4 14 3 5
0 9 -6 9 -7 0 -10 -5 -8 -12z"/>
<path d="M123320 20771 c0 -5 7 -15 17 -22 15 -13 15 -12 4 9 -12 23 -21 28
-21 13z"/>
<path d="M125771 20304 c0 -11 3 -14 6 -6 3 7 2 16 -1 19 -3 4 -6 -2 -5 -13z"/>
<path d="M128870 20063 c5 -2 8 -9 4 -14 -3 -5 0 -9 6 -9 15 0 7 23 -8 26 -7
1 -8 0 -2 -3z"/>
<path d="M128882 19965 c0 -16 2 -22 5 -12 2 9 2 23 0 30 -3 6 -5 -1 -5 -18z"/>
<path d="M128897 19923 c-12 -12 -7 -22 8 -17 8 4 15 10 15 15 0 11 -14 12
-23 2z"/>
<path d="M128391 19864 c0 -11 3 -14 6 -6 3 7 2 16 -1 19 -3 4 -6 -2 -5 -13z"/>
<path d="M128801 19814 c0 -11 3 -14 6 -6 3 7 2 16 -1 19 -3 4 -6 -2 -5 -13z"/>
<path d="M128391 19794 c0 -11 3 -14 6 -6 3 7 2 16 -1 19 -3 4 -6 -2 -5 -13z"/>
<path d="M128825 19760 c-4 -7 -1 -18 7 -26 13 -13 15 -12 13 5 -2 26 -11 36
-20 21z"/>
<path d="M128335 19680 c-3 -5 -1 -10 4 -10 6 0 11 5 11 10 0 6 -2 10 -4 10
-3 0 -8 -4 -11 -10z"/>
<path d="M126328 21438 c5 -7 12 -22 15 -33 3 -13 5 -9 6 13 1 23 -3 32 -15
32 -12 0 -14 -3 -6 -12z"/>
<path d="M127720 21250 c0 -5 5 -10 11 -10 5 0 7 5 4 10 -3 6 -8 10 -11 10 -2
0 -4 -4 -4 -10z"/>
<path d="M127768 21253 c6 -2 18 -2 25 0 6 3 1 5 -13 5 -14 0 -19 -2 -12 -5z"/>
<path d="M127848 21223 c7 -3 16 -2 19 1 4 3 -2 6 -13 5 -11 0 -14 -3 -6 -6z"/>
<path d="M128148 21183 c7 -3 16 -2 19 1 4 3 -2 6 -13 5 -11 0 -14 -3 -6 -6z"/>
<path d="M128188 21153 c7 -3 16 -2 19 1 4 3 -2 6 -13 5 -11 0 -14 -3 -6 -6z"/>
<path d="M128360 21036 c0 -20 26 -40 35 -26 4 6 1 9 -7 8 -8 -2 -12 4 -10 15
2 9 -2 17 -8 17 -5 0 -10 -6 -10 -14z"/>
<path d="M129367 20883 c-4 -3 -7 -11 -7 -17 0 -6 5 -5 12 2 6 6 9 14 7 17 -3
3 -9 2 -12 -2z"/>
<path d="M129330 20844 c0 -8 5 -12 10 -9 6 3 10 10 10 16 0 5 -4 9 -10 9 -5
0 -10 -7 -10 -16z"/>
<path d="M129302 20800 c-6 -11 -8 -21 -3 -25 5 -3 13 4 16 16 9 28 2 33 -13
9z"/>
<path d="M129250 20700 c0 -5 4 -10 9 -10 6 0 13 5 16 10 3 6 -1 10 -9 10 -9
0 -16 -4 -16 -10z"/>
</g>
</svg>
