<svg width="86" height="52" viewBox="0 0 86 52" fill="none" xmlns="http://www.w3.org/2000/svg">
<path d="M82.4951 45.126C82.3178 45.1317 82.1989 45.1663 82.1279 45.2236C82.057 45.281 82.0215 45.3562 82.0215 45.4365C82.0216 45.5686 82.1108 45.8209 82.2881 46.2051L83.1338 48.0811L83.707 46.6299C83.914 46.1135 84.0205 45.7516 84.0205 45.5508C84.0205 45.4248 83.9791 45.3216 83.8906 45.2471C83.8078 45.1725 83.6534 45.1317 83.4346 45.126V44.9424H85.0908V45.1318C84.9312 45.1491 84.7949 45.2122 84.6943 45.3154C84.5879 45.4187 84.4221 45.7746 84.1797 46.377L82.7666 49.9287C82.412 50.8175 82.1461 51.3625 81.9746 51.5693C81.7321 51.8562 81.4243 52 81.0576 52C80.7678 52 80.531 51.9194 80.3477 51.7588C80.1645 51.5982 80.0762 51.4032 80.0762 51.1738C80.0762 50.9732 80.1407 50.8125 80.2646 50.6807C80.3888 50.5487 80.5491 50.4853 80.7266 50.4853C80.9039 50.4854 81.0459 50.5424 81.1523 50.6514C81.2588 50.7603 81.3173 50.9269 81.3174 51.1562C81.3233 51.2882 81.3357 51.369 81.3652 51.4092C81.3948 51.4492 81.4361 51.4668 81.4893 51.4668C81.578 51.4668 81.6671 51.4149 81.7617 51.3174C81.9036 51.1739 82.0686 50.8406 82.2578 50.3301L82.4121 49.9287L80.8154 46.377C80.5732 45.8381 80.3956 45.5055 80.2832 45.3848C80.1709 45.2586 80.0288 45.1719 79.8691 45.126V44.9375H82.4951V45.126ZM10.8525 44.7939C11.3492 44.794 11.7867 44.9948 12.1533 45.3906H12.1592C12.5317 45.7922 12.7273 46.3829 12.7568 47.1631H10.0479C10.0774 47.7998 10.2491 48.3047 10.5684 48.6719C10.8108 48.9529 11.1005 49.0966 11.4434 49.0967C11.6504 49.0967 11.8461 49.0396 12.0176 48.9248C12.1891 48.81 12.3781 48.603 12.5732 48.3047L12.751 48.4199C12.4848 48.9478 12.1885 49.3259 11.8633 49.5439C11.544 49.7676 11.1659 49.8769 10.7402 49.877C10.0069 49.877 9.45076 49.6016 9.07227 49.0566C8.77071 48.6149 8.61724 48.0699 8.61719 47.416C8.61719 46.6128 8.8416 45.9811 9.28516 45.5049C9.72867 45.0288 10.2553 44.7939 10.8525 44.7939ZM50.3574 48.2939C50.3574 48.6663 50.3641 48.884 50.3877 48.9531L50.3936 48.9482C50.4231 49.0626 50.4761 49.1429 50.5527 49.2002C50.6296 49.2575 50.7717 49.2922 50.9668 49.3037V49.4756L48.8789 49.8711V49.1143C48.6306 49.4124 48.406 49.6136 48.2109 49.7168C48.0159 49.8257 47.7971 49.8769 47.5488 49.877C46.916 49.877 46.4194 49.6017 46.0527 49.0566C45.7571 48.6149 45.6094 48.0701 45.6094 47.4219C45.6094 46.9055 45.6976 46.4405 45.8809 46.0332C46.0642 45.6259 46.3125 45.3159 46.6318 45.1094C46.9512 44.8971 47.2945 44.7939 47.6611 44.7939C47.8977 44.794 48.1048 44.8397 48.2881 44.9258C48.4714 45.0118 48.6661 45.167 48.873 45.3906V43.9443C48.873 43.5835 48.8557 43.36 48.8262 43.2852C48.7848 43.1876 48.7195 43.1123 48.6367 43.0664C48.5539 43.0149 48.3943 42.9922 48.1641 42.9922V42.7744H50.3574V48.2939ZM56.1895 45.4189C56.6093 45.0003 57.0649 44.7939 57.5557 44.7939C57.8926 44.794 58.2122 44.8861 58.5137 45.0811V45.0859C58.8152 45.2753 59.0453 45.5515 59.2168 45.9072C59.3882 46.2629 59.4717 46.676 59.4717 47.1406C59.4716 47.6626 59.3594 48.139 59.1465 48.5635C58.9277 48.988 58.643 49.3153 58.2822 49.5391C57.9216 49.7626 57.5137 49.8769 57.0527 49.877C56.7807 49.877 56.5439 49.8371 56.3369 49.7568C56.13 49.6708 55.9227 49.539 55.7217 49.3555L54.8994 49.8711H54.7227V43.7725C54.7227 43.4971 54.7102 43.3248 54.6865 43.2617C54.6511 43.1644 54.5982 43.0957 54.5215 43.0498C54.4446 43.0039 54.3141 42.9745 54.1367 42.9687V42.7803H56.1895V45.4189ZM62.5938 44.7939C63.0905 44.7939 63.5288 44.9947 63.8955 45.3906H63.9014C64.2737 45.7922 64.4685 46.3831 64.498 47.1631H61.79C61.8196 47.7999 61.9912 48.3047 62.3105 48.6719C62.553 48.953 62.8426 49.0967 63.1855 49.0967C63.3924 49.0966 63.5874 49.0394 63.7588 48.9248C63.9303 48.8101 64.1203 48.603 64.3154 48.3047L64.4922 48.4199C64.2262 48.9475 63.9306 49.3259 63.6055 49.5439C63.2861 49.7677 62.9073 49.877 62.4814 49.877C61.7482 49.8769 61.1919 49.6017 60.8135 49.0566C60.512 48.615 60.3585 48.0699 60.3584 47.416C60.3584 46.6128 60.5829 45.9811 61.0264 45.5049C61.4699 45.0287 61.9965 44.794 62.5938 44.7939ZM75.291 48.6895L75.2969 48.6953C75.2969 49.0564 75.3325 49.286 75.4033 49.3779C75.4742 49.4697 75.6165 49.5268 75.8291 49.5498V49.7334H73.8125V49.0908C73.5761 49.366 73.3399 49.5613 73.1035 49.6875C72.867 49.8137 72.6003 49.877 72.3105 49.877C72.0268 49.8769 71.7842 49.7962 71.5654 49.6299C71.3468 49.4693 71.2048 49.2744 71.1279 49.0508C71.0511 48.827 71.0156 48.4422 71.0156 47.8857V45.9814C71.0156 45.6203 70.9859 45.3966 70.915 45.3047C70.8441 45.2186 70.7022 45.1605 70.4834 45.1318V44.9424H72.5V48.2187C72.5 48.5573 72.5114 48.7814 72.5469 48.8789C72.5824 48.9764 72.6361 49.0509 72.707 49.1025C72.7779 49.1541 72.8606 49.1767 72.9551 49.1768C73.0793 49.1768 73.1983 49.1422 73.2988 49.0791C73.4407 48.9872 73.6117 48.8093 73.8066 48.54V45.9756C73.8066 45.6141 73.777 45.3906 73.7061 45.2988C73.6351 45.2128 73.4932 45.1547 73.2744 45.126V44.9375H75.291V48.6895ZM15.8496 44.8047C16.3166 44.8047 16.6889 44.8969 16.9609 45.0918C17.233 45.2811 17.4113 45.494 17.4941 45.7178C17.5472 45.8614 17.5703 46.1884 17.5703 46.7041V48.5635C17.5703 48.7813 17.576 48.9192 17.5938 48.9766C17.6115 49.0338 17.6355 49.0739 17.6709 49.1025C17.7063 49.1312 17.7478 49.1425 17.7949 49.1426V49.1543C17.8836 49.1543 17.9786 49.0911 18.0732 48.9648L18.2334 49.085C18.0619 49.3374 17.8777 49.521 17.6885 49.6357C17.4992 49.7505 17.2864 49.8086 17.0439 49.8086C16.7602 49.8086 16.5415 49.7394 16.3818 49.6133C16.2222 49.4871 16.1273 49.2914 16.0918 49.0332C15.4886 49.5495 14.9507 49.8086 14.4717 49.8086C14.1879 49.8086 13.9568 49.7169 13.7676 49.5391C13.5842 49.3555 13.4902 49.131 13.4902 48.8613C13.4903 48.4943 13.6496 48.1675 13.9746 47.875C14.2939 47.5824 15.0037 47.1976 16.0918 46.71V46.2285C16.0918 45.8671 16.0746 45.6367 16.0332 45.5449C15.9918 45.4533 15.9148 45.3676 15.8027 45.2988C15.6904 45.23 15.5657 45.1953 15.4238 45.1953C15.1933 45.1953 15.0043 45.2473 14.8564 45.3447C14.7677 45.4078 14.7197 45.4822 14.7197 45.5625C14.7197 45.6313 14.7676 45.7229 14.8682 45.8262C15.0042 45.9696 15.0693 46.1133 15.0693 46.251C15.0693 46.4231 15.0041 46.5612 14.874 46.6816C14.7498 46.8021 14.5781 46.8594 14.3711 46.8594C14.1523 46.8594 13.9633 46.7959 13.8154 46.6641C13.6676 46.5321 13.5908 46.3772 13.5908 46.2051C13.5908 45.9584 13.6905 45.7228 13.8916 45.499C14.0926 45.2754 14.3709 45.1039 14.7314 44.9834C15.0863 44.8629 15.4593 44.8047 15.8496 44.8047ZM36.6016 44.8047C37.0688 44.8047 37.4418 44.8967 37.7139 45.0918C37.9859 45.2811 38.1633 45.494 38.2461 45.7178C38.2992 45.8614 38.3232 46.1883 38.3232 46.7041V48.5635C38.3232 48.7813 38.3289 48.9192 38.3467 48.9766C38.3644 49.0338 38.3884 49.0739 38.4238 49.1025C38.4592 49.1311 38.5007 49.1426 38.5479 49.1426L38.5537 49.1543C38.6423 49.1542 38.7366 49.0908 38.8311 48.9648L38.9912 49.085C38.8139 49.3372 38.6305 49.521 38.4414 49.6357C38.2523 49.7504 38.0392 49.8085 37.7969 49.8086C37.513 49.8086 37.2935 49.7395 37.1338 49.6133C36.9742 49.4871 36.8802 49.2913 36.8447 49.0332C36.2415 49.5496 35.7027 49.8086 35.2236 49.8086C34.9401 49.8085 34.7096 49.7166 34.5205 49.5391C34.3372 49.3555 34.2422 49.131 34.2422 48.8613C34.2423 48.4942 34.4023 48.1675 34.7275 47.875C35.0469 47.5824 35.7567 47.1976 36.8447 46.71V46.2285C36.8447 45.8671 36.8266 45.6367 36.7852 45.5449C36.7438 45.4533 36.6668 45.3676 36.5547 45.2988C36.4423 45.23 36.3177 45.1953 36.1758 45.1953C35.9452 45.1953 35.7562 45.2472 35.6084 45.3447C35.5197 45.4078 35.4727 45.4822 35.4727 45.5625C35.4727 45.6313 35.5197 45.7229 35.6201 45.8262C35.7561 45.9696 35.8213 46.1133 35.8213 46.251C35.8213 46.4231 35.7561 46.5612 35.626 46.6816C35.5018 46.802 35.3299 46.8594 35.123 46.8594C34.9043 46.8593 34.7152 46.796 34.5674 46.6641C34.4196 46.5321 34.3428 46.3772 34.3428 46.2051C34.3428 45.9584 34.4435 45.7228 34.6445 45.499C34.8456 45.2754 35.1238 45.1038 35.4844 44.9834C35.8391 44.863 36.2114 44.8047 36.6016 44.8047ZM67.5918 44.8047C68.0587 44.8047 68.4312 44.8969 68.7031 45.0918C68.9752 45.2811 69.1526 45.494 69.2354 45.7178C69.2885 45.8613 69.3125 46.1882 69.3125 46.7041V48.5635C69.3125 48.7813 69.3182 48.9192 69.3359 48.9766C69.3537 49.0338 69.3776 49.0739 69.4131 49.1025C69.4485 49.1311 69.4899 49.1426 69.5371 49.1426V49.1543C69.6258 49.1543 69.7208 49.091 69.8154 48.9648L69.9746 49.085C69.8032 49.3373 69.6198 49.521 69.4307 49.6357C69.2415 49.7505 69.0285 49.8086 68.7861 49.8086C68.5024 49.8086 68.2837 49.7393 68.124 49.6133C67.9643 49.4871 67.8695 49.2914 67.834 49.0332C67.231 49.5494 66.6928 49.8084 66.2139 49.8086C65.9302 49.8086 65.699 49.7167 65.5098 49.5391C65.3264 49.3555 65.2314 49.131 65.2314 48.8613C65.2315 48.4942 65.3916 48.1675 65.7168 47.875C66.0362 47.5824 66.7458 47.1976 67.834 46.71V46.2285C67.834 45.8671 67.8158 45.6367 67.7744 45.5449C67.733 45.4533 67.6561 45.3676 67.5439 45.2988C67.4317 45.2301 67.3078 45.1954 67.166 45.1953C66.9354 45.1953 66.7455 45.2472 66.5977 45.3447C66.5091 45.4078 66.4619 45.4822 66.4619 45.5625C66.4619 45.6313 66.509 45.723 66.6094 45.8262C66.7454 45.9696 66.8105 46.1133 66.8105 46.251C66.8105 46.4231 66.7453 46.5612 66.6152 46.6816C66.4912 46.8018 66.3199 46.8593 66.1133 46.8594C65.8945 46.8594 65.7045 46.796 65.5566 46.6641C65.4089 46.5321 65.332 46.3771 65.332 46.2051C65.332 45.9584 65.4327 45.7228 65.6338 45.499C65.8348 45.2754 66.113 45.1038 66.4736 44.9834C66.8285 44.8629 67.2015 44.8047 67.5918 44.8047ZM23.7451 44.9199H24.916V45.4307H23.7451V48.3906C23.7451 48.666 23.7625 48.8445 23.7861 48.9248C23.8157 49.0051 23.8627 49.0685 23.9277 49.1201C23.9927 49.1717 24.0522 49.1943 24.1113 49.1943C24.3419 49.1943 24.5548 49.0279 24.7617 48.6895L24.9219 48.8037C24.6381 49.4634 24.1708 49.7909 23.5322 49.791C23.2129 49.791 22.9522 49.7102 22.7334 49.5381C22.5207 49.366 22.3785 49.1771 22.3193 48.9707C22.2839 48.856 22.2666 48.5399 22.2666 48.0293V45.4424H21.6221V45.2637C22.0654 44.9597 22.4435 44.6383 22.7568 44.3057C23.0702 43.9672 23.3426 43.5947 23.5732 43.1816H23.7451V44.9199ZM78.4971 44.9199H79.668V45.4307H78.4971V48.3906C78.4971 48.666 78.5085 48.8445 78.5381 48.9248C78.5676 49.005 78.6147 49.0685 78.6797 49.1201C78.7447 49.1717 78.8042 49.1943 78.8633 49.1943C79.0939 49.1943 79.3067 49.0279 79.5137 48.6895L79.6738 48.8037C79.39 49.4634 78.9227 49.7909 78.2842 49.791C77.9707 49.791 77.71 49.7102 77.4912 49.5381C77.2785 49.366 77.1363 49.1771 77.0771 48.9707C77.0417 48.856 77.0244 48.5399 77.0244 48.0293V45.4424H76.3799V45.2637C76.8232 44.9597 77.2013 44.6383 77.5146 44.3057C77.828 43.9672 78.1004 43.5947 78.3311 43.1816H78.4971V44.9199ZM43.0303 44.7939C43.3496 44.7939 43.6162 44.8796 43.8291 45.0518C44.0419 45.2239 44.1839 45.4362 44.2549 45.6943C44.3081 45.8894 44.3379 46.2628 44.3379 46.8193V48.6895C44.3379 49.0564 44.3666 49.286 44.4375 49.3779C44.5085 49.4697 44.6513 49.5269 44.8701 49.5498V49.7334H42.3682V49.5498C42.5573 49.5268 42.6877 49.4524 42.7705 49.3262C42.8237 49.24 42.8525 49.0277 42.8525 48.6895V46.5547C42.8525 46.1595 42.8352 45.913 42.8057 45.8096C42.7761 45.7065 42.7232 45.6257 42.6465 45.5684C42.5755 45.511 42.4862 45.4824 42.3975 45.4824C42.0959 45.4825 41.8119 45.6945 41.5518 46.1133V48.6836C41.5518 49.0448 41.5815 49.2686 41.6523 49.3662C41.7233 49.458 41.8479 49.521 42.0371 49.5439V49.7275H39.5352V49.5439C39.7419 49.521 39.8898 49.4584 39.9785 49.3496C40.0377 49.275 40.0674 49.0508 40.0674 48.6836V45.9756C40.0674 45.6143 40.0377 45.3907 39.9668 45.2988C39.8958 45.2128 39.754 45.1547 39.5352 45.126V44.9375H41.5518V45.5566C41.806 45.2928 42.0487 45.098 42.2793 44.9775C42.5099 44.8571 42.7642 44.794 43.0303 44.7939ZM3.74902 42.958H3.5127C3.30581 42.958 3.13391 42.9976 3.00977 43.0664C2.91527 43.1123 2.84419 43.1988 2.79102 43.3135C2.74969 43.3997 2.73242 43.6122 2.73242 43.9619V45.9297H5.26367V43.9619C5.26367 43.6062 5.23959 43.3877 5.2041 43.2959C5.16854 43.2043 5.0859 43.1293 4.96777 43.0605C4.84951 42.9975 4.68925 42.9639 4.48828 42.9639H4.26367V42.7744H8.00781V42.9639H7.77734C7.56456 42.9639 7.39859 43.0035 7.27441 43.0723C7.17979 43.1182 7.10889 43.2046 7.05566 43.3193C7.01428 43.4054 6.99609 43.6178 6.99609 43.9678V48.54C6.99609 48.8958 7.01427 49.12 7.05566 49.2061C7.09121 49.2977 7.17383 49.3726 7.29199 49.4414C7.41026 49.5045 7.57049 49.5391 7.77148 49.5391H8.00195V49.7275H4.25781V49.5391H4.48828C4.70106 49.5391 4.86704 49.4985 4.99121 49.4297C5.08584 49.3838 5.15673 49.2974 5.20996 49.1826C5.25133 49.0965 5.26953 48.884 5.26953 48.5342V46.3828H2.73828V48.5342C2.73828 48.8898 2.75551 49.1141 2.79688 49.2002C2.83827 49.292 2.9159 49.3724 3.03418 49.4355C3.15238 49.4985 3.31191 49.5332 3.5127 49.5332H3.74902V49.7227H0V49.5332H0.236328C0.443319 49.5332 0.615063 49.4927 0.739258 49.4238C0.833876 49.3779 0.904838 49.2915 0.952148 49.1768C0.993443 49.0905 1.01172 48.8779 1.01172 48.5283V43.9561C1.01172 43.6003 0.993547 43.3818 0.952148 43.29C0.910752 43.1985 0.833745 43.1187 0.71582 43.0557C0.59754 42.9925 0.437405 42.958 0.236328 42.958H0V42.7686H3.74902V42.958ZM20.7168 48.7353L20.7227 48.7295C20.7227 49.0678 20.764 49.286 20.8467 49.3779C20.9236 49.4697 21.0838 49.5276 21.3203 49.5391V49.7227H18.6523V49.5391C18.871 49.5333 19.0312 49.4701 19.1377 49.3555C19.2087 49.2751 19.2441 49.068 19.2441 48.7295V43.7666C19.2441 43.4339 19.2029 43.2158 19.1201 43.124C19.0373 43.0323 18.8771 42.9753 18.6465 42.9639V42.7744H20.7168V48.7353ZM27.4111 45.5508C27.6831 45.2755 27.9316 45.0806 28.1562 44.9658C28.381 44.8511 28.6179 44.794 28.8604 44.7939C29.1738 44.7939 29.4404 44.8796 29.6592 45.0518C29.8779 45.2238 30.0257 45.4249 30.0967 45.6543C30.1676 45.8838 30.2031 46.2743 30.2031 46.8193V48.6895L30.21 48.9297C30.2232 49.1511 30.2564 49.2973 30.3096 49.3662C30.3805 49.458 30.5224 49.5161 30.7354 49.5391V49.7227H28.2275V49.5391C28.405 49.5161 28.5353 49.4468 28.624 49.332C28.689 49.2401 28.7188 49.0218 28.7188 48.6777V46.5381C28.7188 46.1422 28.7005 45.8953 28.6709 45.792C28.6413 45.6946 28.5885 45.614 28.5117 45.5566C28.4408 45.4993 28.3515 45.4707 28.2568 45.4707C28.115 45.4708 27.9787 45.5225 27.8428 45.6143C27.7127 45.7061 27.5648 45.8724 27.4111 46.1074V48.6777C27.4111 49.0215 27.4352 49.234 27.4883 49.3203C27.5592 49.4408 27.6954 49.5104 27.9023 49.5391V49.7227H25.3945V49.5391C25.6013 49.5161 25.7492 49.4526 25.8379 49.3437C25.897 49.2692 25.9268 49.0508 25.9268 48.6836V43.8125C25.9267 43.4512 25.8971 43.2275 25.8262 43.1357C25.7552 43.0498 25.6132 42.9925 25.3945 42.9639V42.7744H27.4111V45.5508ZM57.0586 45.373C56.7571 45.373 56.4673 45.5395 56.1895 45.8721V48.0068C56.1895 48.4428 56.1951 48.7184 56.2188 48.8389C56.2542 49.0394 56.3368 49.2 56.4727 49.3262C56.6086 49.4524 56.7804 49.5156 56.9873 49.5156C57.1647 49.5156 57.3191 49.4637 57.4492 49.3662C57.5791 49.2686 57.6858 49.0677 57.7744 48.7754H57.7686C57.8572 48.4827 57.8984 47.9206 57.8984 47.1865C57.8984 46.4523 57.8034 45.9473 57.6143 45.6719C57.4783 45.4711 57.2892 45.3731 57.0586 45.373ZM47.9336 45.2988C47.7976 45.2988 47.6902 45.3335 47.6074 45.4023C47.4775 45.5057 47.3708 45.6953 47.2881 45.959C47.2054 46.2286 47.1641 46.6361 47.1641 47.1865C47.1641 47.7889 47.2121 48.2367 47.3008 48.5293C47.3895 48.8217 47.5133 49.0283 47.6729 49.1602C47.7497 49.2232 47.8621 49.2578 48.0039 49.2578C48.3114 49.2578 48.6069 49.0222 48.8789 48.5518H48.8916V46.0273C48.6315 45.5399 48.3119 45.299 47.9336 45.2988ZM16.0977 47.0488C15.672 47.2897 15.3524 47.5538 15.1455 47.8291C15.0096 48.0126 14.9385 48.1965 14.9385 48.3857C14.9386 48.5405 14.9922 48.6784 15.1104 48.7988C15.199 48.8904 15.3231 48.9364 15.4824 48.9365C15.6598 48.9365 15.8671 48.8386 16.0977 48.6494V47.0488ZM36.8506 47.0488C36.4248 47.2898 36.1054 47.5537 35.8984 47.8291C35.7624 48.0127 35.6914 48.1964 35.6914 48.3857C35.6915 48.5405 35.7441 48.6784 35.8623 48.7988C35.951 48.8906 36.0757 48.9365 36.2354 48.9365C36.4127 48.9365 36.62 48.8387 36.8506 48.6494V47.0488ZM67.834 47.0488C67.4082 47.2898 67.0888 47.5537 66.8818 47.8291C66.7459 48.0127 66.6748 48.1964 66.6748 48.3857C66.6749 48.5405 66.7276 48.6785 66.8457 48.7988C66.9344 48.8906 67.0591 48.9365 67.2188 48.9365C67.3962 48.9365 67.6033 48.8387 67.834 48.6494V47.0488ZM10.7754 45.126C10.5921 45.126 10.4445 45.2185 10.3262 45.3906C10.1193 45.6946 10.0128 46.113 10.0127 46.6406V46.8193H11.4551C11.4551 46.2685 11.4195 45.8892 11.3604 45.6826C11.2953 45.482 11.2013 45.321 11.0713 45.2178C11.0003 45.1547 10.8995 45.126 10.7754 45.126ZM62.5107 45.126C62.3276 45.1261 62.1797 45.2186 62.0615 45.3906C61.8547 45.6946 61.7481 46.1132 61.748 46.6406V46.8193H63.1914C63.1914 46.2685 63.1558 45.8892 63.0967 45.6826C63.0316 45.4819 62.9367 45.321 62.8066 45.2178C62.7357 45.1549 62.6347 45.126 62.5107 45.126ZM23.751 43.1816H23.7451V43.1641L23.751 43.1816ZM78.5029 43.1816H78.4971V43.1641L78.5029 43.1816ZM60.0625 11.1377C60.1334 11.1377 60.1864 11.1948 60.1865 11.2578V11.4297H59.6729C58.3067 11.8141 57.804 12.7385 57.7686 14.1728C57.6385 19.7611 57.7269 25.3551 57.6855 30.9434C57.6855 31.5573 57.6618 32.1711 57.8037 32.7793C57.9456 33.3875 58.2771 33.709 58.4072 33.8467C58.4786 33.9217 58.7387 34.1964 59.1875 34.4199C59.193 34.4253 59.2089 34.431 59.2109 34.4316H60.0625L60.0869 34.4375C60.1575 34.4378 60.2107 34.4948 60.2109 34.5576V34.7305H52.1318C51.5464 34.719 50.4882 34.621 49.4121 34.0361C49.4121 34.0361 48.4652 33.5021 47.6904 32.6357C47.5605 32.4982 47.4482 32.3434 47.3301 32.1943C47.2591 32.0911 47.1823 31.9872 47.1113 31.8896C46.4491 31.1324 45.9877 30.2549 45.5146 29.3887C44.5685 27.6618 43.6336 25.9349 42.6934 24.208C42.3267 23.6457 41.9602 23.0825 41.7178 22.4629C41.4637 21.7976 41.5461 21.121 41.8711 20.4844C42.0189 20.1918 42.2027 19.91 42.457 19.7207C43.0482 19.2905 43.1253 18.7969 42.7646 18.2061C42.7469 18.1831 42.7403 18.1548 42.7285 18.1318C42.6694 17.977 42.516 17.7186 42.7285 17.6152C42.9119 17.5234 42.9535 17.7533 43.0186 17.8623C43.7873 19.1014 44.6038 20.3116 45.2188 21.6367C48.0574 21.6023 50.9025 21.5627 53.7471 21.5283C53.7116 21.5627 53.6693 21.5854 53.6279 21.6084C53.6752 21.5912 53.7116 21.5685 53.7471 21.5283C53.753 21.1841 53.7646 20.8453 53.7646 20.5068C53.7292 18.3382 53.6877 16.1696 53.6641 14.001C53.6581 13.5477 53.6284 13.1052 53.4688 12.6807C53.0962 12.0496 52.5934 11.5961 51.8838 11.4297H51.2568V11.2578C51.257 11.1891 51.3159 11.1378 51.3809 11.1377H60.0625ZM34.2656 3.92578C36.2705 5.49785 37.9917 7.19059 37.9385 9.95605C37.9089 11.4361 38.0388 12.9164 38.8193 14.2588C39.0144 14.5972 39.2393 14.9183 39.4521 15.251C39.4565 15.2594 39.4577 15.2621 39.458 15.2627L39.4766 15.2402C40.2097 16.0777 40.9485 16.9096 41.6816 17.7471C41.7112 17.7815 41.6996 17.8394 41.6582 17.8623C41.2327 18.1089 41.0138 18.3437 40.8896 18.5215C40.8896 18.5215 40.6472 18.8768 40.3398 18.9687C40.3162 18.9745 40.2747 19.0034 40.2451 18.9805C40.1268 18.8944 40.0021 18.8146 39.8779 18.7285C39.8247 18.7514 39.7476 18.7798 39.6768 18.8428C39.5172 18.9747 39.4698 19.1531 39.458 19.2334C39.4523 19.2505 39.458 19.2679 39.4639 19.2793C39.659 19.6752 39.8487 20.0708 40.0557 20.4609C40.2272 20.7937 40.2033 21.0748 39.8721 21.2871C39.5883 21.4764 39.5414 21.6831 39.7188 21.9814C39.8725 22.2339 39.9431 22.5207 39.6475 22.7559C39.5765 22.8075 39.5115 22.8823 39.4287 22.9053C38.7723 23.0946 38.613 23.5363 38.749 24.1387C38.7667 24.2074 38.7548 24.282 38.7666 24.3564C38.9558 25.7506 38.3288 26.457 36.8682 26.5029C36.0107 26.5316 35.1826 26.3186 34.3311 26.2842C34.2305 26.2784 34.1298 26.2673 34.0352 26.2559C32.9352 26.1067 32.1426 26.5315 31.6104 27.415C31.498 27.6043 31.3857 27.7883 31.2793 27.9775C31.2739 27.9775 31.2735 27.9866 31.2734 27.9883C30.8003 29.2218 30.818 30.473 31.1729 31.7295V31.7412C31.5218 32.6533 32.0775 33.4164 32.8994 33.9844C32.9047 33.9945 32.9148 33.996 32.917 33.9961C33.3073 34.1567 33.6924 34.3402 34.1182 34.4033C34.1419 34.4091 34.1953 34.4199 34.1953 34.4199H34.3428C34.3901 34.42 34.4258 34.4608 34.4258 34.501V34.7129H23.5381V34.501C23.5381 34.4609 23.573 34.426 23.6143 34.4258H23.958C24.5315 34.2766 25.0339 34.0012 25.501 33.6514C25.506 33.6465 25.5113 33.6456 25.5127 33.6455C26.2933 32.9112 26.6308 32.0107 26.6309 30.9551C26.6309 29.8133 26.5653 28.6652 26.6836 27.5234C26.6836 24.3622 27.3881 21.3673 28.9316 18.5732C29.3278 17.7243 29.83 16.9384 30.2734 16.1182C31.6572 13.5766 32.9525 11 33.9756 8.29785C34.5078 6.90376 34.6029 5.47489 34.2305 4.02343C34.2246 4.00053 34.2479 3.97151 34.2656 3.92578ZM46.2598 23.3984C47.3953 25.659 48.7139 27.8222 49.7666 29.8418C50.3698 31.0007 51.3042 32.5897 53.0547 33.2266C53.3205 33.324 53.5805 33.3814 53.7402 33.4102C53.7343 30.0998 53.7285 26.7205 53.7285 23.4102C51.3631 23.4102 48.6252 23.3984 46.2598 23.3984ZM34.5322 0.024411C36.4601 0.0301392 38.3944 -0.067872 40.3223 0.0927704C43.421 0.351036 45.9998 1.55656 47.7266 4.16699C48.7081 5.64714 49.0748 7.28809 49.0098 9.02636C48.9329 11.028 48.1406 12.4218 47.9688 12.7266C47.5429 13.4667 47.093 13.9552 46.75 14.3281C46.401 14.7069 45.7204 15.4523 43.9941 16.3643C43.7458 16.5593 43.4144 16.6688 43.0537 16.6172C42.5394 16.5425 42.1257 16.1406 42.0488 15.6416C41.9897 15.2285 42.1488 14.8551 42.4268 14.6084C42.48 14.5281 42.5452 14.4364 42.6221 14.3389C42.8409 14.052 42.954 13.915 43.1846 13.6855C43.6813 13.1807 44.6453 10.9713 44.5625 8.47558C44.4501 5.14218 41.8419 2.23277 38.4414 1.78515C37.1995 1.6245 35.9394 1.63635 34.6797 1.71093C33.3669 1.78551 32.0482 1.80274 30.7354 1.84863C30.7472 4.69437 30.7528 7.54586 30.7646 10.3916C30.7646 10.8793 30.6407 11.379 30.4219 11.7978C30.2031 12.2166 29.9422 12.7152 29.6348 13.2773C29.0257 14.4075 28.9849 14.4024 28.6064 15.1309C27.6839 16.8923 26.7732 18.6597 26.377 20.6162C26.2469 21.2588 26.1641 21.9073 26.0576 22.5498C26.04 22.6588 26.069 22.791 25.874 22.877V21.4883C25.8681 16.1697 25.8675 10.8567 25.8379 5.53808C25.832 4.56845 25.9031 3.5928 25.7139 2.6289L25.7021 2.62304C25.3236 0.68969 23.9575 0.436886 23.3779 0.316403H23.0469C22.9937 0.316361 22.9463 0.27036 22.9463 0.218747V0.024411H34.5322Z" fill="#CC424E"/>
</svg>
