<svg width="161" height="99" viewBox="0 0 161 99" fill="none" xmlns="http://www.w3.org/2000/svg">
<path d="M156 85.3359C155.665 85.3467 155.441 85.412 155.307 85.5204C155.172 85.6289 155.106 85.77 155.105 85.9218C155.105 86.1713 155.273 86.649 155.608 87.3759L157.208 90.9237L158.293 88.1786C158.684 87.2023 158.886 86.5183 158.886 86.1386C158.886 85.9003 158.807 85.7053 158.64 85.5644C158.483 85.4234 158.192 85.3467 157.778 85.3359V84.9892H160.909V85.3466C160.607 85.3792 160.35 85.499 160.16 85.6943C159.959 85.8896 159.646 86.5622 159.188 87.7011L156.515 94.4169C155.844 96.0986 155.34 97.1298 155.016 97.5204C154.557 98.0628 153.976 98.3339 153.282 98.3339C152.734 98.3339 152.287 98.1824 151.94 97.8788C151.594 97.575 151.426 97.2054 151.426 96.7714C151.426 96.392 151.549 96.0882 151.783 95.8388C152.018 95.5892 152.321 95.4696 152.656 95.4696C152.991 95.4697 153.26 95.5782 153.461 95.7841C153.662 95.9902 153.774 96.3052 153.774 96.7392C153.786 96.9887 153.808 97.1408 153.864 97.2167C153.92 97.2924 153.998 97.3251 154.099 97.3251C154.266 97.3251 154.434 97.2273 154.613 97.0429C154.882 96.7716 155.195 96.1422 155.553 95.1767L155.844 94.4169L152.824 87.7011C152.366 86.6812 152.03 86.052 151.817 85.8241C151.605 85.5855 151.336 85.4226 151.034 85.3359V84.9784H156V85.3359ZM106.255 85.8896C107.049 85.0975 107.911 84.7069 108.839 84.7069C109.476 84.707 110.08 84.8802 110.65 85.2489V85.2607C111.221 85.6187 111.657 86.1389 111.981 86.8114C112.306 87.4841 112.462 88.2656 112.462 89.1444C112.462 90.1317 112.249 91.032 111.847 91.8349C111.433 92.6378 110.896 93.2565 110.214 93.6796C109.532 94.1026 108.76 94.3202 107.888 94.3202C107.373 94.3202 106.926 94.2435 106.535 94.0917C106.144 93.929 105.752 93.6799 105.372 93.3329L103.817 94.3085H103.481V82.7753C103.481 82.2555 103.46 81.9302 103.415 81.8105C103.348 81.626 103.247 81.4949 103.102 81.4081C102.956 81.3214 102.71 81.2676 102.375 81.2568V80.8984H106.255V85.8896ZM20.5215 84.7069C21.4609 84.7069 22.289 85.0862 22.9824 85.8349H22.9932C23.6977 86.5943 24.0671 87.7119 24.123 89.1874H19.001C19.0569 90.3917 19.3814 91.3465 19.9854 92.0409C20.4439 92.5725 20.992 92.8437 21.6406 92.8437C22.0318 92.8436 22.4005 92.7353 22.7246 92.5185C23.0489 92.3015 23.4073 91.9108 23.7764 91.3466L24.1113 91.5634C23.6081 92.5615 23.0496 93.278 22.4346 93.6903C21.8307 94.1134 21.1147 94.3192 20.3096 94.3193C18.9228 94.3193 17.871 93.7982 17.1553 92.7675C16.5851 91.9322 16.294 90.9016 16.2939 89.665C16.2939 88.146 16.7198 86.9522 17.5586 86.0517C18.3972 85.1515 19.3922 84.707 20.5215 84.7069ZM95.2285 91.3251C95.2285 92.0303 95.2394 92.443 95.2842 92.5732L95.2949 92.5614C95.3508 92.7784 95.4523 92.9305 95.5977 93.039C95.7431 93.1474 96.011 93.2126 96.3799 93.2343V93.5605L92.4326 94.3085V92.8769C91.9631 93.4408 91.5379 93.8202 91.1689 94.0155C90.7999 94.2217 90.3857 94.3192 89.916 94.3193C88.7196 94.3193 87.7803 93.7989 87.0869 92.7685C86.5277 91.933 86.248 90.9017 86.248 89.6757C86.2481 88.6995 86.4152 87.8209 86.7617 87.0507C87.1084 86.2804 87.5787 85.6942 88.1826 85.3036C88.7864 84.9023 89.4347 84.707 90.1279 84.7069C90.5751 84.7069 90.9669 84.7934 91.3135 84.956C91.6601 85.1187 92.0295 85.4118 92.4209 85.8349V83.1005C92.4209 82.4178 92.3879 81.9948 92.332 81.8534C92.2538 81.669 92.1301 81.5281 91.9736 81.4413C91.8171 81.3437 91.5152 81.2997 91.0791 81.2997V80.8876H95.2285V91.3251ZM118.367 84.7069C119.306 84.707 120.134 85.0864 120.827 85.8349H120.839C121.543 86.5943 121.912 87.7119 121.968 89.1874H116.846C116.902 90.3917 117.226 91.3466 117.83 92.0409C118.289 92.5725 118.837 92.8436 119.485 92.8437C119.877 92.8437 120.246 92.7355 120.57 92.5185C120.895 92.3015 121.252 91.9107 121.621 91.3466L121.957 91.5634C121.454 92.5616 120.894 93.2781 120.279 93.6903C119.675 94.1134 118.959 94.3193 118.154 94.3193C116.768 94.3192 115.717 93.7981 115.001 92.7675C114.431 91.9321 114.14 90.9017 114.14 89.665C114.14 88.146 114.565 86.9522 115.403 86.0517C116.242 85.1512 117.238 84.7069 118.367 84.7069ZM142.378 92.0741L142.39 92.0849C142.39 92.7683 142.457 93.2023 142.591 93.3759C142.725 93.5493 142.993 93.6577 143.396 93.7011V94.0487H139.582V92.8329C139.135 93.3537 138.688 93.7231 138.24 93.9618C137.793 94.2005 137.289 94.3193 136.741 94.3193C136.205 94.3192 135.746 94.168 135.332 93.8534C134.918 93.5498 134.65 93.1807 134.505 92.7577C134.359 92.3346 134.292 91.607 134.292 90.5546V86.953C134.292 86.27 134.237 85.8466 134.103 85.6728C133.968 85.51 133.7 85.4009 133.286 85.3466V84.9892H137.1V91.1845C137.1 91.824 137.121 92.247 137.188 92.4316C137.256 92.616 137.357 92.7577 137.491 92.8554C137.625 92.9528 137.782 92.996 137.961 92.996C138.196 92.996 138.419 92.9307 138.609 92.8114C138.878 92.6378 139.202 92.3017 139.571 91.7919V86.9423C139.571 86.2591 139.515 85.8358 139.381 85.662C139.247 85.4993 138.978 85.3901 138.564 85.3359V84.9784H142.378V92.0741ZM29.9717 84.7275C30.8551 84.7275 31.5598 84.9016 32.0742 85.2704C32.5887 85.6285 32.9245 86.0299 33.0811 86.453C33.1817 86.7243 33.2266 87.3429 33.2266 88.3193V91.8349C33.2266 92.2465 33.238 92.5065 33.2715 92.6152C33.305 92.7236 33.3499 92.8002 33.417 92.8544C33.484 92.9084 33.5621 92.9306 33.6514 92.9306V92.9521C33.8191 92.9521 33.9978 92.8324 34.1768 92.5937L34.4785 92.8222C34.1543 93.2992 33.8079 93.6463 33.4502 93.8632C33.0924 94.0801 32.6898 94.1883 32.2314 94.1884C31.6947 94.1884 31.2805 94.0588 30.9785 93.8202C30.6767 93.5816 30.4978 93.2125 30.4307 92.7245C29.29 93.7009 28.272 94.1884 27.3662 94.1884C26.8294 94.1884 26.393 94.015 26.0352 93.6786C25.6886 93.3315 25.5098 92.9082 25.5098 92.3984C25.5098 91.7041 25.8117 91.0854 26.4268 90.5321C27.0307 89.9788 28.373 89.2522 30.4307 88.33V87.4189C30.4307 86.7356 30.3966 86.3016 30.3184 86.1278C30.2401 85.9543 30.0951 85.7912 29.8828 85.661C29.6704 85.5309 29.4353 85.4658 29.167 85.4657C28.7308 85.4657 28.3724 85.5635 28.0928 85.748C27.9253 85.8673 27.8359 86.0083 27.8359 86.1601C27.836 86.2902 27.9252 86.4639 28.1152 86.6591C28.3724 86.9303 28.4961 87.2015 28.4961 87.4618C28.4961 87.7872 28.3728 88.0475 28.127 88.2753C27.8921 88.5032 27.5672 88.6122 27.1758 88.6122C26.7622 88.6122 26.4045 88.4925 26.125 88.2431C25.8454 87.9935 25.7002 87.7004 25.7002 87.3749C25.7003 86.9085 25.8903 86.464 26.2705 86.0409C26.6507 85.6178 27.1762 85.2922 27.8584 85.0644C28.5293 84.8366 29.2337 84.7275 29.9717 84.7275ZM69.2148 84.7275C70.0983 84.7275 70.803 84.9016 71.3174 85.2704C71.8318 85.6285 72.1676 86.0299 72.3242 86.453C72.4248 86.7243 72.4697 87.3429 72.4697 88.3193V91.8349C72.4697 92.2465 72.4812 92.5065 72.5146 92.6152C72.5482 92.7236 72.5931 92.8002 72.6602 92.8544C72.7272 92.9085 72.8052 92.9306 72.8945 92.9306L72.9062 92.9521C73.0739 92.9518 73.2529 92.8321 73.4316 92.5937L73.7334 92.8222C73.398 93.2994 73.0511 93.6462 72.6934 93.8632C72.3356 94.0801 71.933 94.1883 71.4746 94.1884C70.9379 94.1884 70.5236 94.0589 70.2217 93.8202C69.9198 93.5816 69.741 93.2125 69.6738 92.7245C68.5332 93.7009 67.5152 94.1884 66.6094 94.1884C66.0726 94.1884 65.6362 94.015 65.2783 93.6786C64.9318 93.3315 64.7529 92.9082 64.7529 92.3984C64.753 91.7041 65.0549 91.0854 65.6699 90.5321C66.2739 89.9788 67.6162 89.2522 69.6738 88.33V87.4189C69.6738 86.7356 69.6397 86.3016 69.5615 86.1278C69.4833 85.9543 69.3383 85.7912 69.126 85.661C68.9135 85.5309 68.6785 85.4658 68.4102 85.4657C67.974 85.4657 67.6155 85.5635 67.3359 85.748C67.1685 85.8672 67.0791 86.0083 67.0791 86.1601C67.0791 86.2902 67.1684 86.4639 67.3584 86.6591C67.6156 86.9303 67.7392 87.2015 67.7393 87.4618C67.7393 87.7872 67.616 88.0475 67.3701 88.2753C67.1353 88.5032 66.8104 88.6122 66.4189 88.6122C66.0053 88.6122 65.6477 88.4925 65.3682 88.2431C65.0886 87.9935 64.9434 87.7004 64.9434 87.3749C64.9434 86.9085 65.1335 86.464 65.5137 86.0409C65.8939 85.6178 66.4194 85.2922 67.1016 85.0644C67.7725 84.8366 68.4769 84.7275 69.2148 84.7275ZM127.817 84.7275C128.701 84.7275 129.406 84.9016 129.92 85.2704C130.434 85.6284 130.77 86.0299 130.927 86.453C131.027 86.7244 131.071 87.3431 131.071 88.3193V91.8349C131.071 92.2463 131.083 92.5064 131.116 92.6152C131.15 92.7236 131.195 92.8002 131.262 92.8544C131.329 92.9086 131.408 92.9306 131.497 92.9306V92.9521C131.665 92.9519 131.844 92.8322 132.022 92.5937L132.324 92.8222C132 93.2994 131.653 93.6463 131.295 93.8632C130.937 94.0801 130.535 94.1884 130.076 94.1884C129.54 94.1884 129.126 94.0587 128.824 93.8202C128.522 93.5816 128.343 93.2126 128.275 92.7245C127.135 93.7006 126.118 94.1882 125.212 94.1884C124.675 94.1884 124.239 94.015 123.881 93.6786C123.534 93.3314 123.355 92.9083 123.355 92.3984C123.356 91.7041 123.657 91.0854 124.272 90.5321C124.877 89.9789 126.218 89.252 128.275 88.33V87.4189C128.275 86.7358 128.242 86.3017 128.164 86.1278C128.086 85.9543 127.94 85.7912 127.728 85.661C127.515 85.5309 127.28 85.4657 127.012 85.4657C126.576 85.4658 126.218 85.5636 125.938 85.748C125.771 85.8673 125.682 86.0082 125.682 86.1601C125.682 86.2903 125.771 86.4638 125.961 86.6591C126.218 86.9303 126.341 87.2015 126.341 87.4618C126.341 87.7873 126.218 88.0475 125.972 88.2753C125.737 88.5031 125.413 88.6122 125.021 88.6122C124.608 88.6122 124.249 88.4926 123.97 88.2431C123.69 87.9936 123.545 87.7003 123.545 87.3749C123.545 86.9086 123.735 86.4639 124.115 86.0409C124.495 85.6179 125.021 85.2922 125.703 85.0644C126.374 84.8365 127.079 84.7275 127.817 84.7275ZM44.9023 84.9452H47.1162V85.911H44.9023V91.5097C44.9024 92.0303 44.9357 92.3666 44.9805 92.5185C45.0364 92.6704 45.126 92.79 45.249 92.8876C45.372 92.9851 45.4839 93.0282 45.5957 93.0282C46.0318 93.0282 46.4348 92.7132 46.8262 92.0732L47.1279 92.2909C46.5912 93.5384 45.7075 94.157 44.5 94.1571C43.8963 94.1571 43.4039 94.0049 42.9902 93.6796C42.5877 93.3541 42.3189 92.9959 42.207 92.6054C42.1399 92.3884 42.1064 91.7916 42.1064 90.8261V85.9325H40.8877V85.5966C41.7264 85.0216 42.4415 84.4133 43.0342 83.7841C43.6269 83.144 44.142 82.4393 44.5781 81.6581H44.9023V84.9452ZM148.439 84.9452H150.654V85.911H148.439V91.5097C148.439 92.0302 148.462 92.3666 148.518 92.5185C148.573 92.6704 148.663 92.79 148.786 92.8876C148.909 92.9852 149.021 93.0282 149.133 93.0282C149.569 93.0282 149.972 92.7133 150.363 92.0732L150.665 92.2909C150.128 93.5384 149.245 94.1571 148.037 94.1571C147.444 94.1571 146.952 94.0051 146.538 93.6796C146.136 93.3542 145.868 92.9959 145.756 92.6054C145.689 92.3884 145.655 91.7916 145.655 90.8261V85.9325H144.436V85.5966C145.274 85.0216 145.99 84.4134 146.583 83.7841C147.176 83.1441 147.69 82.4391 148.126 81.6581H148.439V84.9452ZM81.3721 84.7069C81.9759 84.707 82.4793 84.8698 82.8818 85.1952C83.2843 85.5207 83.5524 85.922 83.6865 86.4101C83.7872 86.7789 83.8437 87.4839 83.8438 88.536V92.0732C83.8438 92.7675 83.899 93.2023 84.0332 93.3759C84.1674 93.5494 84.4361 93.6577 84.8496 93.7011V94.0478H80.1191V93.7011C80.4769 93.6577 80.7233 93.5168 80.8799 93.2782C80.9805 93.1155 81.0361 92.7133 81.0361 92.0732V88.037C81.0361 87.2886 81.0032 86.8221 80.9473 86.6269C80.8913 86.4316 80.7899 86.2793 80.6445 86.1708C80.5104 86.0626 80.3424 86.0087 80.1748 86.0087C79.6046 86.0089 79.0681 86.4103 78.5762 87.2021V92.0624C78.5762 92.7454 78.6317 93.1687 78.7656 93.3534C78.8998 93.527 79.1353 93.6469 79.4932 93.6903V94.037H74.7627V93.6903C75.1539 93.6469 75.4339 93.5273 75.6016 93.3212C75.7133 93.1799 75.7686 92.7564 75.7686 92.0624V86.9413C75.7685 86.258 75.7133 85.8346 75.5791 85.661C75.4449 85.4984 75.1763 85.3901 74.7627 85.3359V84.9775H78.5762V86.1493C79.0569 85.6505 79.5152 85.2814 79.9512 85.0536C80.3873 84.8258 80.8688 84.7069 81.3721 84.7069ZM7.09082 81.2343H6.64258C6.25145 81.2344 5.92713 81.3103 5.69238 81.4403C5.51346 81.5271 5.37897 81.6902 5.27832 81.9071C5.20004 82.0699 5.16699 82.4719 5.16699 83.1337V86.8544H9.95312V83.1337C9.95312 82.4612 9.90886 82.0486 9.8418 81.8749C9.7747 81.7013 9.61816 81.5598 9.39453 81.4296C9.17086 81.3103 8.86852 81.246 8.48828 81.246H8.06348V80.8876H15.1426V81.246H14.7061C14.3036 81.2461 13.9906 81.3219 13.7559 81.4521C13.577 81.5389 13.4424 81.701 13.3418 81.9179C13.2635 82.0806 13.2305 82.4826 13.2305 83.1444V91.7919C13.2305 92.4639 13.2636 92.8868 13.3418 93.0497C13.4089 93.2233 13.5655 93.3649 13.7891 93.495C14.0127 93.6144 14.3151 93.6796 14.6953 93.6796H15.1318V94.037H8.05176V93.6796H8.48828C8.8906 93.6796 9.20368 93.6036 9.43848 93.4735C9.61737 93.3868 9.75189 93.2237 9.85254 93.0068C9.93082 92.844 9.96484 92.442 9.96484 91.7802V87.7118H5.17773V91.7802C5.17773 92.4527 5.21179 92.8762 5.29004 93.039C5.36832 93.2126 5.51363 93.3649 5.7373 93.4843C5.96086 93.6035 6.26267 93.6688 6.64258 93.6689H7.09082V94.0263H0V93.6689H0.447266C0.838374 93.6689 1.16265 93.5928 1.39746 93.4628C1.57637 93.376 1.71131 93.213 1.80078 92.996C1.87907 92.8333 1.91211 92.4313 1.91211 91.7694V83.123C1.91211 82.4506 1.87898 82.0379 1.80078 81.8642C1.72251 81.6906 1.57712 81.5382 1.35352 81.4189C1.12984 81.2995 0.827507 81.2343 0.447266 81.2343H0V80.8769H7.09082V81.2343ZM39.1758 92.1601L39.1875 92.1493C39.1875 92.7895 39.2653 93.2023 39.4219 93.3759C39.5673 93.5494 39.8693 93.6579 40.3164 93.6796V94.0263H35.2725V93.6796C35.6863 93.6688 35.9891 93.5489 36.1904 93.3319C36.3244 93.1798 36.3916 92.7889 36.3916 92.1493V82.7646C36.3916 82.1354 36.3128 81.7234 36.1562 81.5497C35.9997 81.3761 35.6979 81.2677 35.2617 81.246V80.8876H39.1758V92.1601ZM51.8359 86.1386C52.3503 85.6179 52.8202 85.2491 53.2451 85.0321C53.6701 84.8152 54.1177 84.7069 54.5762 84.7069C55.1688 84.707 55.6722 84.8698 56.0859 85.1952C56.4995 85.5206 56.7789 85.9001 56.9131 86.3339C57.0473 86.7679 57.1143 87.5063 57.1143 88.537V92.0741L57.127 92.5282C57.1521 92.947 57.2148 93.2242 57.3154 93.3544C57.4497 93.5279 57.7186 93.6362 58.1211 93.6796V94.0263H53.3789V93.6796C53.7144 93.6362 53.9612 93.506 54.1289 93.289C54.2519 93.1153 54.3076 92.7025 54.3076 92.0517V88.0048C54.3076 87.2564 54.2737 86.79 54.2178 86.5946C54.1619 86.4102 54.0614 86.2578 53.916 86.1493C53.782 86.041 53.6142 85.9873 53.4355 85.9872C53.1672 85.9872 52.9095 86.0843 52.6523 86.2577C52.4063 86.4313 52.1267 86.7465 51.8359 87.1913V92.0517C51.8359 92.7027 51.8808 93.1047 51.9814 93.2675C52.1157 93.495 52.3727 93.6254 52.7637 93.6796V94.0263H48.0225V93.6796C48.4138 93.6362 48.6936 93.5166 48.8613 93.3105C48.9731 93.1692 49.0283 92.7565 49.0283 92.0624V82.8515C49.0283 82.1682 48.973 81.7449 48.8389 81.5712C48.7047 81.4085 48.4361 81.3003 48.0225 81.246V80.8876H51.8359V86.1386ZM107.899 85.8027C107.329 85.8027 106.781 86.1177 106.255 86.747V90.7831C106.255 91.6075 106.267 92.1285 106.312 92.3564C106.379 92.7359 106.535 93.0396 106.792 93.2782C107.049 93.5169 107.373 93.6366 107.765 93.6366C108.1 93.6366 108.392 93.5389 108.638 93.3544C108.884 93.1699 109.085 92.7895 109.253 92.2362H109.241C109.409 91.6828 109.487 90.6198 109.487 89.2314C109.487 87.8426 109.308 86.8879 108.95 86.3671C108.693 85.9874 108.335 85.8027 107.899 85.8027ZM90.6426 85.661C90.3855 85.6611 90.1839 85.7262 90.0273 85.8564C89.7813 86.0517 89.5804 86.4101 89.4238 86.9091C89.2673 87.419 89.1895 88.1898 89.1895 89.2314C89.1895 90.3702 89.2786 91.2162 89.4463 91.7694C89.614 92.3228 89.8484 92.7142 90.1504 92.9638C90.2958 93.0831 90.5089 93.1474 90.7773 93.1474C91.3588 93.1472 91.9183 92.7029 92.4326 91.8134H92.4551V87.039C91.963 86.1168 91.3583 85.661 90.6426 85.661ZM30.4414 88.9696C29.6365 89.4252 29.033 89.9246 28.6416 90.4452C28.3844 90.7924 28.25 91.14 28.25 91.498C28.25 91.7909 28.3505 92.0514 28.5742 92.2792C28.7419 92.4527 28.9765 92.5399 29.2783 92.54C29.6138 92.54 30.0053 92.355 30.4414 91.997V88.9696ZM69.6846 88.9696C68.8796 89.4252 68.2762 89.9246 67.8848 90.4452C67.6276 90.7924 67.4932 91.14 67.4932 91.498C67.4932 91.7909 67.5937 92.0514 67.8174 92.2792C67.9851 92.4527 68.2197 92.5399 68.5215 92.54C68.857 92.54 69.2485 92.355 69.6846 91.997V88.9696ZM128.275 88.9696C127.47 89.4252 126.867 89.9246 126.476 90.4452C126.218 90.7924 126.084 91.14 126.084 91.498C126.084 91.7909 126.185 92.0514 126.408 92.2792C126.576 92.4527 126.811 92.5399 127.112 92.54C127.448 92.54 127.839 92.3549 128.275 91.997V88.9696ZM20.376 85.3359C20.0295 85.336 19.7499 85.5095 19.5264 85.8349C19.135 86.4099 18.9336 87.202 18.9336 88.2001V88.536H21.6621C21.6621 87.4949 21.5952 86.7792 21.4834 86.3886C21.3604 86.0089 21.1815 85.705 20.9355 85.5097C20.8013 85.3903 20.6108 85.3359 20.376 85.3359ZM118.211 85.3359C117.864 85.3359 117.584 85.5094 117.36 85.8349C116.969 86.4099 116.768 87.202 116.768 88.2001V88.536H119.497C119.497 87.4949 119.429 86.7792 119.317 86.3886C119.194 86.0089 119.016 85.705 118.77 85.5097C118.635 85.3904 118.446 85.3359 118.211 85.3359ZM44.9131 81.6581H44.9023V81.6249L44.9131 81.6581ZM148.451 81.6581H148.439V81.6249L148.451 81.6581ZM113.58 21.0614C113.714 21.0614 113.815 21.1697 113.815 21.289V21.6142H112.843C110.259 22.3411 109.308 24.0883 109.241 26.8007C108.995 37.3683 109.163 47.9469 109.085 58.5146C109.085 59.6754 109.04 60.8363 109.309 61.9862C109.577 63.1363 110.203 63.7444 110.449 64.0048C110.584 64.1461 111.076 64.6668 111.926 65.0898C111.937 65.0999 111.966 65.1101 111.97 65.1112H113.58L113.625 65.122C113.759 65.122 113.86 65.2304 113.86 65.3495V65.6757H98.583C97.4758 65.654 95.4737 65.4688 93.4385 64.3622C93.405 64.3433 91.6357 63.3383 90.1846 61.7157C89.9385 61.4553 89.7256 61.1619 89.502 60.8798C89.3678 60.6846 89.223 60.489 89.0889 60.3046C87.8363 58.8724 86.964 57.2124 86.0693 55.5741C84.28 52.3084 82.5125 49.043 80.7344 45.7773C80.041 44.714 79.3472 43.6502 78.8887 42.4784C78.4079 41.22 78.5647 39.9395 79.1797 38.7353C79.4592 38.182 79.8063 37.6509 80.2871 37.2929C81.4054 36.4792 81.5503 35.5461 80.8682 34.4286C80.8346 34.3852 80.8241 34.3304 80.8018 34.287C80.6899 33.9941 80.3992 33.5058 80.8018 33.3105C81.1481 33.1373 81.2266 33.5712 81.3496 33.7773C82.8034 36.1207 84.3467 38.4098 85.5098 40.9159C90.8779 40.8508 96.2574 40.775 101.637 40.7099C101.57 40.7749 101.491 40.8189 101.413 40.8622C101.502 40.8297 101.57 40.7858 101.637 40.7099C101.648 40.0591 101.67 39.4192 101.67 38.7792C101.603 34.6781 101.524 30.5767 101.479 26.4755C101.468 25.6185 101.412 24.7832 101.11 23.9804C100.406 22.7869 99.4553 21.9288 98.1133 21.6142H96.9277V21.289C96.9278 21.1589 97.0401 21.0614 97.1631 21.0614H113.58ZM64.7979 7.42374C68.5889 10.3964 71.8436 13.5969 71.7432 18.8261C71.6872 21.6253 71.9329 24.4249 73.4092 26.9638C73.7782 27.6039 74.2029 28.2115 74.6055 28.8407C74.6148 28.8589 74.6169 28.8617 74.6172 28.8622L74.6504 28.8193C76.0371 30.4033 77.4355 31.9764 78.8223 33.5605C78.8779 33.6255 78.8554 33.7338 78.7773 33.7773C77.9721 34.2438 77.5581 34.689 77.3232 35.0253C77.315 35.0373 76.8594 35.699 76.2832 35.871C76.2385 35.8818 76.1604 35.9365 76.1045 35.8935C75.8809 35.7308 75.6459 35.5786 75.4111 35.4159C75.3105 35.4593 75.1645 35.5134 75.0303 35.6327C74.7289 35.882 74.6397 36.2179 74.6172 36.37C74.6061 36.4024 74.6168 36.4352 74.6279 36.4569C74.997 37.2055 75.3547 37.9546 75.7461 38.6923C76.0704 39.3216 76.0257 39.8534 75.3994 40.2548C74.8629 40.6128 74.7739 41.0032 75.1094 41.5673C75.4001 42.0447 75.5338 42.5873 74.9746 43.0321C74.8404 43.1298 74.7171 43.271 74.5605 43.3144C73.3195 43.6725 73.0172 44.5083 73.2744 45.6474C73.3079 45.7775 73.2862 45.9185 73.3086 46.0595C73.6664 48.6958 72.4809 50.0302 69.7188 50.1171C68.0972 50.1714 66.5313 49.7701 64.9209 49.705C64.7308 49.6941 64.5403 49.672 64.3613 49.6503C62.2813 49.3683 60.7828 50.1719 59.7764 51.8427C59.564 52.2005 59.3516 52.5474 59.1504 52.9052C59.1392 52.9052 59.1387 52.9277 59.1387 52.9277C58.2442 55.2601 58.2774 57.6251 58.9482 60.0009V60.0234C59.6081 61.7483 60.6595 63.1915 62.2139 64.2655C62.2251 64.2872 62.248 64.287 62.248 64.287C62.9861 64.5908 63.7134 64.9382 64.5186 65.0575C64.5618 65.068 64.656 65.0882 64.6631 65.0898H64.9434C65.0327 65.0899 65.0996 65.1662 65.0996 65.2421V65.6435H44.5107V65.2421C44.5107 65.1662 44.578 65.1005 44.6562 65.1005H45.3047C46.3895 64.8184 47.3401 64.2975 48.2236 63.6357C48.2348 63.6249 48.2461 63.6249 48.2461 63.6249C49.7223 62.2362 50.3594 60.5324 50.3594 58.536C50.3594 56.3772 50.2364 54.2076 50.46 52.0487C50.46 46.0706 51.7911 40.4067 54.71 35.123C55.4592 33.5173 56.4103 32.0309 57.249 30.4794C59.8659 25.6731 62.3153 20.8014 64.25 15.6913C65.2565 13.055 65.4349 10.3532 64.7305 7.60832C64.7193 7.56496 64.7643 7.51039 64.7979 7.42374ZM87.4775 44.247C89.6248 48.5218 92.1197 52.6124 94.1104 56.4316C95.2511 58.6232 97.0179 61.6286 100.328 62.8329C100.831 63.0173 101.323 63.1253 101.625 63.1796C101.614 56.9194 101.603 50.5286 101.603 44.2685C97.1292 44.2685 91.9509 44.247 87.4775 44.247ZM65.3008 0.0458152C68.9466 0.056665 72.6042 -0.128095 76.25 0.175698C82.11 0.663987 86.9864 2.94234 90.252 7.87882C92.1084 10.6781 92.8017 13.7818 92.6787 17.0693C92.5333 20.8557 91.0343 23.4923 90.71 24.0673C89.9049 25.4666 89.0548 26.3885 88.4062 27.0937C87.7464 27.8097 86.4599 29.2211 83.1943 30.9462C82.7247 31.3149 82.098 31.5204 81.416 31.4228C80.4434 31.2815 79.6611 30.5226 79.5156 29.579C79.4038 28.7978 79.7058 28.0924 80.2314 27.6259C80.332 27.4741 80.4544 27.3004 80.5996 27.1161C81.0134 26.5737 81.226 26.3127 81.6621 25.8788C82.6015 24.924 84.4251 20.7469 84.2686 16.0273C84.056 9.72364 79.1238 4.22319 72.6934 3.37687C70.3448 3.07308 67.9622 3.09422 65.5801 3.23527C63.0975 3.37629 60.6037 3.40922 58.1211 3.49601C58.1435 8.87746 58.1544 14.2698 58.1768 19.6513C58.1767 20.5735 57.9421 21.5175 57.5283 22.3095C57.1146 23.1014 56.6225 24.0452 56.041 25.1083C54.8891 27.2457 54.8105 27.2353 54.0947 28.6132C52.3502 31.9439 50.6282 35.2857 49.8789 38.9853C49.6329 40.2004 49.4757 41.4264 49.2744 42.6415C49.2409 42.8477 49.2968 43.0979 48.9277 43.2607V40.6347C48.9166 30.5771 48.9172 20.5302 48.8613 10.4726C48.8501 8.63898 48.9838 6.79434 48.626 4.9716L48.6035 4.96085C47.8878 1.30487 45.3052 0.827399 44.209 0.599526H43.582C43.4817 0.599292 43.3928 0.51233 43.3926 0.414956V0.0458152H65.3008Z" fill="#CC424E"/>
</svg>
