<svg width="341" height="208" viewBox="0 0 341 208" fill="none" xmlns="http://www.w3.org/2000/svg">
<path d="M17.0324 171.854H17.955C18.7593 171.854 19.398 171.992 19.8711 172.244C20.3442 172.52 20.6754 172.818 20.8174 173.185C20.9593 173.552 21.0539 174.424 21.0539 175.847V183.719H10.9291V175.847C10.9291 174.447 11.0001 173.598 11.1657 173.254C11.3786 172.795 11.6625 172.451 12.0409 172.267C12.5377 171.992 13.2237 171.831 14.0517 171.831H14.998V171.074H0V171.831H0.946243C1.75055 171.831 2.38926 171.969 2.86238 172.221C3.33551 172.474 3.64303 172.795 3.80863 173.162C3.97422 173.529 4.04519 174.401 4.04519 175.824V194.115C4.04519 195.515 3.97422 196.365 3.80863 196.709C3.61938 197.168 3.33551 197.512 2.95701 197.696C2.46023 197.971 1.77421 198.132 0.946243 198.132H0V198.889H14.998V198.132H14.0517C13.2474 198.132 12.6087 197.994 12.1356 197.742C11.6624 197.489 11.3549 197.168 11.1893 196.801C11.0237 196.456 10.9528 195.561 10.9528 194.138V185.532H21.0776V194.138C21.0776 195.538 21.0066 196.388 20.841 196.732C20.6281 197.191 20.3442 197.535 19.9657 197.719C19.469 197.994 18.8066 198.155 17.955 198.155H17.0324V198.912H32.0067V198.155H31.0841C30.2798 198.155 29.6411 198.017 29.168 197.765C28.6948 197.489 28.3636 197.191 28.2217 196.824C28.0561 196.479 27.9852 195.584 27.9852 194.161V175.87C27.9852 174.47 28.0561 173.621 28.2217 173.277C28.4346 172.818 28.7185 172.474 29.097 172.29C29.5938 172.015 30.2561 171.854 31.1078 171.854H32.0303V171.097H17.056V171.854H17.0324Z" fill="url(#paint0_linear_1_3911)"/>
<path d="M48.6131 181.562C47.1465 179.978 45.3959 179.175 43.4088 179.175C41.0195 179.175 38.9141 180.116 37.1399 182.021C35.3657 183.925 34.4668 186.45 34.4668 189.663C34.4668 192.279 35.0819 194.459 36.2883 196.227C37.8023 198.407 40.026 199.508 42.9593 199.508C44.6626 199.508 46.1766 199.072 47.454 198.177C48.7551 197.305 49.9379 195.791 51.0024 193.679L50.2927 193.22C49.5121 194.414 48.7551 195.24 48.069 195.699C47.383 196.158 46.6024 196.387 45.7744 196.387C44.4024 196.387 43.2432 195.814 42.2733 194.689C40.9959 193.22 40.3098 191.201 40.1916 188.653H51.026C50.9078 185.532 50.1271 183.168 48.6368 181.562H48.6131ZM40.0496 187.276V186.565C40.0496 184.453 40.4754 182.778 41.3034 181.562C41.7765 180.873 42.3679 180.506 43.1013 180.506C43.598 180.506 44.0002 180.621 44.2841 180.873C44.8045 181.286 45.183 181.929 45.4432 182.732C45.6798 183.558 45.8217 185.073 45.8217 187.276H40.0733H40.0496Z" fill="url(#paint1_linear_1_3911)"/>
<path d="M71.1816 196.571C70.9923 196.571 70.8268 196.525 70.6848 196.411C70.5429 196.296 70.4483 196.135 70.3773 195.906C70.3063 195.676 70.2827 195.126 70.2827 194.253V186.818C70.2827 184.752 70.188 183.444 69.9751 182.87C69.6439 181.975 68.9343 181.126 67.8461 180.369C66.7579 179.588 65.2676 179.221 63.3987 179.221C61.8374 179.221 60.3471 179.451 58.9277 179.933C57.4847 180.415 56.3729 181.103 55.5686 181.998C54.7643 182.893 54.3621 183.834 54.3621 184.821C54.3621 185.509 54.6696 186.129 55.261 186.657C55.8524 187.185 56.6094 187.437 57.4847 187.437C58.3127 187.437 58.9987 187.208 59.4955 186.726C60.0159 186.244 60.2761 185.693 60.2761 185.005C60.2761 184.454 60.0159 183.88 59.4718 183.306C59.0697 182.893 58.8804 182.526 58.8804 182.251C58.8804 181.929 59.0697 181.631 59.4245 181.378C60.0159 180.988 60.7729 180.782 61.6955 180.782C62.2632 180.782 62.76 180.919 63.2095 181.195C63.659 181.47 63.9665 181.815 64.1321 182.182C64.2977 182.549 64.3686 183.467 64.3686 184.913V186.841C60.0159 188.791 57.1772 190.329 55.8998 191.499C54.5987 192.67 53.96 193.978 53.96 195.447C53.96 196.525 54.3385 197.421 55.0718 198.155C55.8288 198.866 56.7514 199.234 57.8869 199.234C59.803 199.234 61.9557 198.201 64.3686 196.135C64.5106 197.168 64.8891 197.948 65.5278 198.453C66.1665 198.958 67.0418 199.234 68.1773 199.234C69.1472 199.234 69.9988 199.004 70.7558 198.545C71.5128 198.086 72.2461 197.352 72.9321 196.342L72.2934 195.86C71.9149 196.365 71.5364 196.617 71.1816 196.617V196.571ZM64.3923 194.598C63.4697 195.355 62.6417 195.745 61.9321 195.745C61.2933 195.745 60.7966 195.562 60.4417 195.194C59.9686 194.712 59.7557 194.162 59.7557 193.542C59.7557 192.785 60.0396 192.05 60.5837 191.316C61.4116 190.214 62.6891 189.159 64.3923 188.195V194.621V194.598Z" fill="url(#paint2_linear_1_3911)"/>
<path d="M82.8675 194.942V171.097H74.5879V171.855C75.5105 171.9 76.1492 172.13 76.4804 172.497C76.8116 172.864 76.9772 173.736 76.9772 175.067V194.919C76.9772 196.273 76.8352 197.099 76.5513 197.421C76.1255 197.88 75.4868 198.132 74.6115 198.155V198.89H85.2804V198.155C84.3342 198.109 83.6955 197.88 83.3879 197.513C83.0568 197.145 82.8912 196.273 82.8912 194.919L82.8675 194.942Z" fill="url(#paint3_linear_1_3911)"/>
<path d="M95.0025 172.726H94.2928C93.3702 174.378 92.2821 175.87 91.0283 177.224C89.7745 178.555 88.2605 179.841 86.4863 181.057V181.768H89.0648V192.119C89.0648 194.161 89.1358 195.424 89.2777 195.883C89.5143 196.709 90.0821 197.466 90.9337 198.155C91.8089 198.843 92.8498 199.164 94.1272 199.164C96.6821 199.164 98.5509 197.856 99.6864 195.217L99.0477 194.758C98.2197 196.112 97.3681 196.778 96.4455 196.778C96.209 196.778 95.9724 196.686 95.7122 196.479C95.452 196.273 95.2627 196.02 95.1445 195.699C95.0498 195.378 94.9789 194.666 94.9789 193.565V181.722H99.6628V179.68H94.9789V172.657L95.0025 172.726Z" fill="url(#paint4_linear_1_3911)"/>
<path d="M120.811 194.759V187.277C120.811 185.097 120.67 183.536 120.386 182.618C120.102 181.7 119.51 180.897 118.635 180.208C117.76 179.52 116.695 179.176 115.442 179.176C114.472 179.176 113.525 179.405 112.626 179.864C111.728 180.323 110.734 181.103 109.646 182.205V171.097H101.579V171.855C102.454 171.969 103.022 172.199 103.306 172.543C103.59 172.91 103.708 173.805 103.708 175.251V194.736C103.708 196.204 103.59 197.076 103.353 197.375C102.998 197.811 102.407 198.063 101.579 198.155V198.89H111.609V198.155C110.781 198.04 110.237 197.765 109.953 197.283C109.74 196.939 109.646 196.09 109.646 194.713V184.431C110.261 183.49 110.852 182.825 111.373 182.457C111.917 182.09 112.461 181.884 113.029 181.884C113.407 181.884 113.762 181.998 114.046 182.228C114.353 182.457 114.566 182.779 114.685 183.169C114.803 183.582 114.874 184.569 114.874 186.152V194.713C114.874 196.09 114.756 196.962 114.495 197.329C114.14 197.788 113.62 198.063 112.91 198.155V198.89H122.941V198.155C122.089 198.063 121.521 197.834 121.237 197.467C120.953 197.099 120.811 196.181 120.811 194.736V194.759Z" fill="url(#paint5_linear_1_3911)"/>
<path d="M154.19 196.571C154.001 196.571 153.836 196.525 153.694 196.411C153.552 196.296 153.457 196.135 153.386 195.906C153.315 195.676 153.291 195.126 153.291 194.253V186.818C153.291 184.752 153.197 183.444 152.984 182.87C152.653 181.975 151.943 181.126 150.855 180.369C149.767 179.588 148.276 179.221 146.408 179.221C144.846 179.221 143.356 179.451 141.937 179.933C140.494 180.415 139.382 181.103 138.577 181.998C137.773 182.893 137.371 183.834 137.371 184.821C137.371 185.509 137.678 186.129 138.27 186.657C138.861 187.185 139.618 187.437 140.494 187.437C141.321 187.437 142.007 187.208 142.504 186.726C143.025 186.244 143.285 185.693 143.285 185.005C143.285 184.454 143.025 183.88 142.481 183.306C142.078 182.893 141.889 182.526 141.889 182.251C141.889 181.929 142.078 181.631 142.433 181.378C143.025 180.988 143.782 180.782 144.704 180.782C145.272 180.782 145.769 180.919 146.218 181.195C146.668 181.47 146.975 181.815 147.141 182.182C147.306 182.549 147.377 183.467 147.377 184.913V186.841C143.025 188.791 140.186 190.329 138.909 191.499C137.607 192.67 136.969 193.978 136.969 195.447C136.969 196.525 137.347 197.421 138.081 198.155C138.838 198.866 139.76 199.234 140.896 199.234C142.812 199.234 144.965 198.201 147.377 196.135C147.519 197.168 147.898 197.948 148.537 198.453C149.175 198.958 150.051 199.234 151.186 199.234C152.156 199.234 153.008 199.004 153.765 198.545C154.522 198.086 155.255 197.352 155.965 196.342L155.326 195.86C154.947 196.365 154.569 196.617 154.214 196.617L154.19 196.571ZM147.401 194.598C146.478 195.355 145.651 195.745 144.941 195.745C144.302 195.745 143.805 195.562 143.451 195.194C142.977 194.712 142.764 194.162 142.764 193.542C142.764 192.785 143.048 192.05 143.592 191.316C144.42 190.214 145.698 189.159 147.401 188.195V194.621V194.598Z" fill="url(#paint6_linear_1_3911)"/>
<path d="M177.349 194.735V187.276C177.349 185.05 177.231 183.558 177.018 182.778C176.734 181.745 176.167 180.896 175.315 180.208C174.463 179.519 173.399 179.175 172.121 179.175C171.057 179.175 170.04 179.427 169.117 179.909C168.194 180.391 167.225 181.171 166.207 182.227V179.749H158.141V180.506C159.016 180.621 159.584 180.85 159.868 181.194C160.151 181.562 160.27 182.457 160.27 183.902V194.735C160.27 196.204 160.151 197.099 159.915 197.397C159.56 197.833 158.969 198.086 158.141 198.177V198.912H168.147V198.177C167.39 198.086 166.893 197.833 166.61 197.466C166.326 197.076 166.207 196.181 166.207 194.735V184.453C167.248 182.778 168.384 181.929 169.59 181.929C169.945 181.929 170.3 182.044 170.584 182.273C170.891 182.503 171.104 182.824 171.222 183.237C171.341 183.65 171.412 184.637 171.412 186.22V194.758C171.412 196.112 171.293 196.961 171.081 197.305C170.749 197.81 170.229 198.109 169.472 198.2V198.935H179.478V198.2C178.603 198.109 178.035 197.879 177.752 197.512C177.468 197.145 177.349 196.227 177.349 194.758V194.735Z" fill="url(#paint7_linear_1_3911)"/>
<path d="M201.55 195.814C201.455 195.539 201.431 194.667 201.431 193.175V171.097H192.655V171.969C193.578 171.969 194.216 172.061 194.547 172.268C194.879 172.451 195.139 172.75 195.304 173.14C195.423 173.438 195.494 174.333 195.494 175.779V181.562C194.666 180.667 193.885 180.048 193.152 179.703C192.418 179.359 191.59 179.176 190.644 179.176C189.178 179.176 187.805 179.589 186.528 180.438C185.251 181.264 184.257 182.503 183.524 184.133C182.79 185.762 182.436 187.621 182.436 189.687C182.436 192.28 183.027 194.46 184.21 196.227C185.676 198.408 187.664 199.509 190.195 199.509C191.188 199.509 192.064 199.303 192.844 198.867C193.625 198.453 194.524 197.65 195.517 196.457V199.486L203.868 197.903V197.214C203.087 197.168 202.52 197.031 202.212 196.801C201.905 196.572 201.692 196.25 201.573 195.791L201.55 195.814ZM195.517 194.208C194.429 196.09 193.246 197.031 192.016 197.031C191.449 197.031 190.999 196.893 190.692 196.64C190.053 196.113 189.556 195.286 189.201 194.116C188.846 192.946 188.657 191.155 188.657 188.746C188.657 186.542 188.823 184.913 189.154 183.834C189.485 182.779 189.911 182.021 190.431 181.608C190.762 181.333 191.188 181.195 191.732 181.195C193.246 181.195 194.524 182.159 195.565 184.11V194.208H195.517Z" fill="url(#paint8_linear_1_3911)"/>
<path d="M234.053 180.323C232.847 179.542 231.569 179.175 230.221 179.175C228.258 179.175 226.436 180.001 224.757 181.677V171.12H216.548V171.877C217.258 171.9 217.778 172.015 218.086 172.198C218.393 172.382 218.606 172.657 218.748 173.047C218.842 173.3 218.89 173.988 218.89 175.09V199.486H219.599L222.888 197.42C223.692 198.155 224.52 198.683 225.348 199.027C226.176 199.348 227.122 199.509 228.21 199.509C230.055 199.509 231.688 199.05 233.131 198.155C234.574 197.26 235.709 195.951 236.585 194.253C237.436 192.555 237.886 190.65 237.886 188.562C237.886 186.703 237.554 185.05 236.868 183.627C236.182 182.204 235.26 181.103 234.053 180.346V180.323ZM231.096 195.102C230.742 196.273 230.316 197.076 229.795 197.466C229.275 197.856 228.66 198.063 227.95 198.063C227.122 198.063 226.436 197.81 225.892 197.306C225.348 196.801 225.017 196.158 224.875 195.355C224.78 194.873 224.757 193.771 224.757 192.027V183.49C225.868 182.159 227.028 181.493 228.234 181.493C229.157 181.493 229.914 181.883 230.458 182.686C231.215 183.788 231.593 185.808 231.593 188.745C231.593 191.683 231.428 193.932 231.073 195.102H231.096Z" fill="url(#paint9_linear_1_3911)"/>
<path d="M255.58 181.562C254.113 179.978 252.363 179.175 250.376 179.175C247.986 179.175 245.881 180.116 244.107 182.021C242.333 183.925 241.434 186.45 241.434 189.663C241.434 192.279 242.049 194.459 243.255 196.227C244.769 198.407 246.993 199.508 249.926 199.508C251.629 199.508 253.143 199.072 254.421 198.177C255.722 197.305 256.905 195.791 257.969 193.679L257.26 193.22C256.479 194.414 255.722 195.24 255.036 195.699C254.35 196.158 253.569 196.387 252.741 196.387C251.369 196.387 250.21 195.814 249.24 194.689C247.963 193.22 247.277 191.201 247.158 188.653H257.993C257.875 185.532 257.094 183.168 255.604 181.562H255.58ZM246.993 187.276V186.565C246.993 184.453 247.419 182.778 248.247 181.562C248.72 180.873 249.311 180.506 250.044 180.506C250.541 180.506 250.943 180.621 251.227 180.873C251.748 181.286 252.126 181.929 252.386 182.732C252.623 183.558 252.765 185.073 252.765 187.276H247.016H246.993Z" fill="url(#paint10_linear_1_3911)"/>
<path d="M278.148 196.571C277.959 196.571 277.794 196.525 277.652 196.411C277.51 196.296 277.415 196.135 277.344 195.906C277.273 195.676 277.249 195.126 277.249 194.253V186.818C277.249 184.752 277.155 183.444 276.942 182.87C276.611 181.975 275.901 181.126 274.813 180.369C273.725 179.588 272.234 179.221 270.366 179.221C268.804 179.221 267.314 179.451 265.895 179.933C264.451 180.415 263.34 181.103 262.535 181.998C261.731 182.893 261.329 183.834 261.329 184.821C261.329 185.509 261.636 186.129 262.228 186.657C262.819 187.185 263.576 187.437 264.452 187.437C265.279 187.437 265.965 187.208 266.462 186.726C266.983 186.244 267.243 185.693 267.243 185.005C267.243 184.454 266.983 183.88 266.439 183.306C266.036 182.893 265.847 182.526 265.847 182.251C265.847 181.929 266.036 181.631 266.391 181.378C266.983 180.988 267.74 180.782 268.662 180.782C269.23 180.782 269.727 180.919 270.176 181.195C270.626 181.47 270.933 181.815 271.099 182.182C271.264 182.549 271.335 183.467 271.335 184.913V186.841C266.983 188.791 264.144 190.329 262.867 191.499C261.565 192.67 260.927 193.978 260.927 195.447C260.927 196.525 261.305 197.421 262.039 198.155C262.796 198.866 263.718 199.234 264.854 199.234C266.77 199.234 268.922 198.201 271.335 196.135C271.477 197.168 271.856 197.948 272.495 198.453C273.133 198.958 274.009 199.234 275.144 199.234C276.114 199.234 276.966 199.004 277.723 198.545C278.48 198.086 279.213 197.352 279.899 196.342L279.26 195.86C278.882 196.365 278.503 196.617 278.148 196.617V196.571ZM271.335 194.598C270.413 195.355 269.585 195.745 268.875 195.745C268.236 195.745 267.74 195.562 267.385 195.194C266.912 194.712 266.699 194.162 266.699 193.542C266.699 192.785 266.983 192.05 267.527 191.316C268.355 190.214 269.632 189.159 271.335 188.195V194.621V194.598Z" fill="url(#paint11_linear_1_3911)"/>
<path d="M301.166 194.758V179.749H293.099V180.506C293.975 180.621 294.542 180.85 294.826 181.194C295.11 181.562 295.228 182.457 295.228 183.902V194.161C294.448 195.24 293.762 195.951 293.194 196.318C292.792 196.571 292.319 196.709 291.822 196.709C291.443 196.709 291.112 196.617 290.828 196.41C290.544 196.204 290.331 195.905 290.19 195.515C290.048 195.125 290 194.23 290 192.876V179.771H281.934V180.529C282.809 180.644 283.377 180.873 283.66 181.217C283.944 181.585 284.063 182.48 284.063 183.925V191.545C284.063 193.771 284.205 195.309 284.512 196.204C284.82 197.099 285.387 197.879 286.263 198.522C287.138 199.187 288.108 199.508 289.243 199.508C290.402 199.508 291.467 199.256 292.413 198.751C293.359 198.246 294.306 197.466 295.252 196.364V198.935H303.319V198.2C302.467 198.108 301.899 197.879 301.615 197.512C301.332 197.145 301.19 196.227 301.19 194.781L301.166 194.758Z" fill="url(#paint12_linear_1_3911)"/>
<path d="M314.011 172.726H313.325C312.402 174.378 311.314 175.87 310.061 177.224C308.807 178.555 307.293 179.841 305.519 181.057V181.768H308.097V192.119C308.097 194.161 308.168 195.424 308.31 195.883C308.547 196.709 309.114 197.466 309.966 198.155C310.841 198.843 311.882 199.164 313.136 199.164C315.691 199.164 317.56 197.856 318.695 195.217L318.056 194.758C317.228 196.112 316.377 196.778 315.454 196.778C315.218 196.778 314.981 196.686 314.721 196.479C314.461 196.273 314.271 196.02 314.153 195.699C314.035 195.378 313.987 194.666 313.987 193.565V181.722H318.671V179.68H313.987V172.657L314.011 172.726Z" fill="url(#paint13_linear_1_3911)"/>
<path d="M333.74 179.749V180.506C334.615 180.529 335.231 180.689 335.562 180.988C335.917 181.286 336.082 181.699 336.082 182.204C336.082 183.007 335.656 184.453 334.828 186.519L332.534 192.325L329.151 184.82C328.441 183.283 328.086 182.273 328.086 181.745C328.086 181.424 328.228 181.126 328.512 180.896C328.796 180.667 329.269 180.529 329.979 180.506V179.749H319.476V180.506C320.114 180.689 320.682 181.034 321.132 181.539C321.581 182.021 322.291 183.352 323.261 185.509L329.648 199.715L329.033 201.321C328.276 203.364 327.613 204.695 327.046 205.269C326.667 205.659 326.312 205.866 325.957 205.866C325.744 205.866 325.579 205.797 325.461 205.636C325.342 205.475 325.295 205.154 325.271 204.626C325.271 203.708 325.035 203.043 324.609 202.607C324.183 202.171 323.615 201.941 322.906 201.941C322.196 201.941 321.557 202.194 321.061 202.721C320.564 203.249 320.304 203.892 320.304 204.695C320.304 205.613 320.658 206.393 321.392 207.036C322.125 207.679 323.071 208 324.23 208C325.697 208 326.927 207.426 327.897 206.279C328.583 205.452 329.648 203.272 331.067 199.715L336.721 185.509C337.691 183.099 338.353 181.676 338.779 181.263C339.181 180.85 339.725 180.598 340.364 180.529V179.771H333.74V179.749Z" fill="url(#paint14_linear_1_3911)"/>
<path d="M102.856 10.5158C103.613 14.3714 103.329 18.2729 103.353 22.1514C103.471 43.426 103.471 64.6777 103.495 85.9523C103.495 87.7653 103.495 89.5784 103.495 91.5062C104.276 91.1619 104.157 90.6341 104.228 90.198C104.654 87.6276 104.985 85.0343 105.506 82.4639C107.091 74.638 110.734 67.5694 114.424 60.5237C115.938 57.6091 116.104 57.632 118.54 53.1109C119.77 50.8618 120.811 48.8652 121.686 47.1898C122.562 45.5145 123.059 43.5178 123.059 41.5671C123.011 30.1839 122.988 18.7778 122.94 7.39462C128.192 7.21102 133.467 7.14217 138.719 6.84382C143.758 6.54547 148.796 6.49957 153.764 7.14217C167.366 8.93227 177.799 20.5679 178.248 33.9018C178.579 43.885 174.723 52.7208 172.736 54.7404C171.814 55.6584 171.364 56.2092 170.489 57.3567C170.181 57.7468 169.921 58.114 169.708 58.4353C168.596 59.4221 167.958 60.9139 168.194 62.5663C168.502 64.5629 170.158 66.1694 172.216 66.4678C173.659 66.6743 174.984 66.2383 175.977 65.458C182.885 61.8089 185.605 58.8255 187.001 57.3108C188.373 55.819 190.171 53.8683 191.874 50.9077C192.56 49.6914 195.73 44.1145 196.038 36.105C196.298 29.1512 194.831 22.5875 190.904 16.6664C183.997 6.22417 173.683 1.40468 161.287 0.371935C153.575 -0.270664 145.839 0.119488 138.127 0.0965378C137.347 0.0965378 123.035 0.0965378 94.4346 0.0965378H91.7852V0.876832C91.7852 1.08338 91.9744 1.26698 92.1873 1.26698H93.512C95.8303 1.74893 101.295 2.75873 102.809 10.4929L102.856 10.5158Z" fill="url(#paint15_linear_1_3911)"/>
<path d="M157.833 61.0512C157.833 61.0512 157.833 61.0512 157.809 61.0053C156.957 59.6742 156.058 58.389 155.278 57.035C152.155 51.6647 151.635 45.7436 151.753 39.8225C151.966 28.7607 145.082 21.9904 137.063 15.7021C136.992 15.8857 136.897 16.0005 136.921 16.0923C138.411 21.8986 138.032 27.6132 135.903 33.19C131.811 43.9994 126.63 54.304 121.095 64.4708C119.32 67.7526 117.31 70.8968 115.725 74.2934C109.55 85.47 106.735 97.4499 106.735 110.095C106.262 114.662 106.523 119.252 106.523 123.819C106.523 128.042 105.174 131.645 102.052 134.583C102.052 134.583 102.028 134.583 102.004 134.606C100.135 136.006 98.1246 137.107 95.83 137.704H94.4579C94.2923 137.704 94.1504 137.842 94.1504 138.002V138.852H137.701V138.002C137.701 137.842 137.559 137.681 137.37 137.681H136.779C136.779 137.681 136.566 137.635 136.471 137.612C134.768 137.36 133.23 136.625 131.669 135.983C131.669 135.983 131.622 135.983 131.598 135.937C128.31 133.665 126.086 130.613 124.69 126.963C124.69 126.963 124.69 126.941 124.69 126.918C123.271 121.892 123.2 116.888 125.093 111.954C125.093 111.954 125.093 111.908 125.116 111.908C125.542 111.151 125.991 110.417 126.441 109.659C128.57 106.125 131.74 104.427 136.14 105.023C136.518 105.069 136.921 105.115 137.323 105.138C140.729 105.276 144.041 106.125 147.471 106.01C153.314 105.827 155.822 103.004 155.065 97.4269C155.018 97.1286 155.065 96.8302 154.994 96.5548C154.45 94.1451 155.088 92.3779 157.714 91.6206C158.045 91.5288 158.306 91.2304 158.59 91.0239C159.772 90.0829 159.489 88.9354 158.873 87.9256C158.164 86.7322 158.353 85.906 159.488 85.1487C160.813 84.2995 160.908 83.175 160.222 81.8439C159.394 80.2833 158.637 78.6997 157.856 77.1162C157.833 77.0703 157.809 77.0015 157.833 76.9326C157.88 76.6113 158.069 75.8999 158.708 75.372C158.992 75.1196 159.299 75.0048 159.512 74.913C160.009 75.2573 160.506 75.5786 160.979 75.9228C161.097 76.0146 161.263 75.8999 161.357 75.8769C162.587 75.5097 163.557 74.0868 163.557 74.0868C164.054 73.3754 164.929 72.4344 166.633 71.4476C166.798 71.3558 166.846 71.1263 166.727 70.9886C163.794 67.6379 160.837 64.3101 157.904 60.9594L157.833 61.0512Z" fill="url(#paint16_linear_1_3911)"/>
<path d="M240.25 137.727H236.844C236.844 137.727 236.773 137.704 236.749 137.681C234.951 136.786 233.91 135.685 233.627 135.386C233.106 134.835 231.781 133.55 231.214 131.117C230.646 128.685 230.741 126.229 230.741 123.774C230.906 101.42 230.551 79.0441 231.072 56.6908C231.214 50.9533 233.224 47.2584 238.689 45.7207H240.747V45.0322C240.747 44.7798 240.534 44.5503 240.25 44.5503H240.108C228.682 44.5503 217.233 44.5503 205.807 44.5503H205.523C205.263 44.5503 205.026 44.7568 205.026 45.0322V45.7207H207.534C210.373 46.3863 212.383 48.1993 213.874 50.7238C214.512 52.4221 214.631 54.1893 214.654 56.0023C214.749 64.6774 214.915 73.3525 215.057 82.0276C215.057 83.3816 215.009 84.7356 214.986 86.1126C214.844 86.2733 214.702 86.3651 214.512 86.4339C214.678 86.3421 214.844 86.2503 214.986 86.1126C203.607 86.2503 192.228 86.411 180.874 86.5487C178.413 81.2473 175.149 76.4048 172.073 71.4476C171.813 71.0116 171.648 70.0936 170.914 70.4608C170.063 70.8739 170.678 71.9066 170.914 72.5263C170.962 72.6181 170.985 72.7328 171.056 72.8246C172.499 75.1885 172.192 77.1622 169.826 78.8834C168.809 79.6408 168.076 80.7653 167.484 81.9358C166.183 84.4832 165.852 87.1913 166.869 89.8535C167.839 92.3321 169.306 94.5812 170.772 96.8303C174.534 103.738 178.271 110.646 182.056 117.554C183.949 121.02 185.794 124.531 188.443 127.56C188.727 127.95 189.035 128.363 189.319 128.777C189.792 129.373 190.241 129.993 190.762 130.544C193.861 134.009 197.646 136.144 197.646 136.144C201.951 138.484 206.186 138.875 208.528 138.92C219.409 138.92 229.96 138.92 240.842 138.92V138.232C240.842 137.98 240.629 137.75 240.345 137.75L240.25 137.727ZM212.218 132.908C205.216 130.36 201.478 124.003 199.065 119.367C194.854 111.289 189.579 102.637 185.037 93.5943C194.499 93.5943 205.452 93.6402 214.915 93.6402C214.915 106.882 214.938 120.4 214.962 133.642C214.323 133.527 213.282 133.298 212.218 132.908Z" fill="url(#paint17_linear_1_3911)"/>
<path d="M164.528 70.7593C164.528 70.7593 158.827 73.8116 158.046 75.2345C158.164 75.1198 158.874 74.546 159.867 74.6378C160.624 74.7067 161.098 75.0968 161.263 75.2345L164.504 70.7593H164.528Z" fill="url(#paint18_linear_1_3911)"/>
<defs>
<linearGradient id="paint0_linear_1_3911" x1="43.9057" y1="54.0979" x2="-16.2878" y2="354.203" gradientUnits="userSpaceOnUse">
<stop stop-color="#F8F3A6"/>
<stop offset="0.11" stop-color="#FAEF7F"/>
<stop offset="0.13" stop-color="#F5E87A"/>
<stop offset="0.15" stop-color="#E8D66D"/>
<stop offset="0.18" stop-color="#D3B858"/>
<stop offset="0.21" stop-color="#B68F3B"/>
<stop offset="0.22" stop-color="#A6782B"/>
<stop offset="0.23" stop-color="#AB7F2F"/>
<stop offset="0.27" stop-color="#CAAC4F"/>
<stop offset="0.32" stop-color="#E1CC66"/>
<stop offset="0.35" stop-color="#EFE073"/>
<stop offset="0.37" stop-color="#F5E879"/>
<stop offset="0.4" stop-color="#EEDE72"/>
<stop offset="0.45" stop-color="#DCC560"/>
<stop offset="0.51" stop-color="#BF9C44"/>
<stop offset="0.56" stop-color="#A6782B"/>
<stop offset="0.59" stop-color="#B9933E"/>
<stop offset="0.65" stop-color="#DCC461"/>
<stop offset="0.69" stop-color="#F1E376"/>
<stop offset="0.72" stop-color="#FAEF7F"/>
<stop offset="0.86" stop-color="#C8A445"/>
<stop offset="1" stop-color="#F8F2A2"/>
</linearGradient>
<linearGradient id="paint1_linear_1_3911" x1="70.7316" y1="59.4908" x2="10.538" y2="359.596" gradientUnits="userSpaceOnUse">
<stop stop-color="#F8F3A6"/>
<stop offset="0.11" stop-color="#FAEF7F"/>
<stop offset="0.13" stop-color="#F5E87A"/>
<stop offset="0.15" stop-color="#E8D66D"/>
<stop offset="0.18" stop-color="#D3B858"/>
<stop offset="0.21" stop-color="#B68F3B"/>
<stop offset="0.22" stop-color="#A6782B"/>
<stop offset="0.23" stop-color="#AB7F2F"/>
<stop offset="0.27" stop-color="#CAAC4F"/>
<stop offset="0.32" stop-color="#E1CC66"/>
<stop offset="0.35" stop-color="#EFE073"/>
<stop offset="0.37" stop-color="#F5E879"/>
<stop offset="0.4" stop-color="#EEDE72"/>
<stop offset="0.45" stop-color="#DCC560"/>
<stop offset="0.51" stop-color="#BF9C44"/>
<stop offset="0.56" stop-color="#A6782B"/>
<stop offset="0.59" stop-color="#B9933E"/>
<stop offset="0.65" stop-color="#DCC461"/>
<stop offset="0.69" stop-color="#F1E376"/>
<stop offset="0.72" stop-color="#FAEF7F"/>
<stop offset="0.86" stop-color="#C8A445"/>
<stop offset="1" stop-color="#F8F2A2"/>
</linearGradient>
<linearGradient id="paint2_linear_1_3911" x1="90.6979" y1="63.4846" x2="30.5043" y2="363.59" gradientUnits="userSpaceOnUse">
<stop stop-color="#F8F3A6"/>
<stop offset="0.11" stop-color="#FAEF7F"/>
<stop offset="0.13" stop-color="#F5E87A"/>
<stop offset="0.15" stop-color="#E8D66D"/>
<stop offset="0.18" stop-color="#D3B858"/>
<stop offset="0.21" stop-color="#B68F3B"/>
<stop offset="0.22" stop-color="#A6782B"/>
<stop offset="0.23" stop-color="#AB7F2F"/>
<stop offset="0.27" stop-color="#CAAC4F"/>
<stop offset="0.32" stop-color="#E1CC66"/>
<stop offset="0.35" stop-color="#EFE073"/>
<stop offset="0.37" stop-color="#F5E879"/>
<stop offset="0.4" stop-color="#EEDE72"/>
<stop offset="0.45" stop-color="#DCC560"/>
<stop offset="0.51" stop-color="#BF9C44"/>
<stop offset="0.56" stop-color="#A6782B"/>
<stop offset="0.59" stop-color="#B9933E"/>
<stop offset="0.65" stop-color="#DCC461"/>
<stop offset="0.69" stop-color="#F1E376"/>
<stop offset="0.72" stop-color="#FAEF7F"/>
<stop offset="0.86" stop-color="#C8A445"/>
<stop offset="1" stop-color="#F8F2A2"/>
</linearGradient>
<linearGradient id="paint3_linear_1_3911" x1="105.199" y1="66.3995" x2="45.0054" y2="366.505" gradientUnits="userSpaceOnUse">
<stop stop-color="#F8F3A6"/>
<stop offset="0.11" stop-color="#FAEF7F"/>
<stop offset="0.13" stop-color="#F5E87A"/>
<stop offset="0.15" stop-color="#E8D66D"/>
<stop offset="0.18" stop-color="#D3B858"/>
<stop offset="0.21" stop-color="#B68F3B"/>
<stop offset="0.22" stop-color="#A6782B"/>
<stop offset="0.23" stop-color="#AB7F2F"/>
<stop offset="0.27" stop-color="#CAAC4F"/>
<stop offset="0.32" stop-color="#E1CC66"/>
<stop offset="0.35" stop-color="#EFE073"/>
<stop offset="0.37" stop-color="#F5E879"/>
<stop offset="0.4" stop-color="#EEDE72"/>
<stop offset="0.45" stop-color="#DCC560"/>
<stop offset="0.51" stop-color="#BF9C44"/>
<stop offset="0.56" stop-color="#A6782B"/>
<stop offset="0.59" stop-color="#B9933E"/>
<stop offset="0.65" stop-color="#DCC461"/>
<stop offset="0.69" stop-color="#F1E376"/>
<stop offset="0.72" stop-color="#FAEF7F"/>
<stop offset="0.86" stop-color="#C8A445"/>
<stop offset="1" stop-color="#F8F2A2"/>
</linearGradient>
<linearGradient id="paint4_linear_1_3911" x1="118.469" y1="69.0612" x2="58.2759" y2="369.167" gradientUnits="userSpaceOnUse">
<stop stop-color="#F8F3A6"/>
<stop offset="0.11" stop-color="#FAEF7F"/>
<stop offset="0.13" stop-color="#F5E87A"/>
<stop offset="0.15" stop-color="#E8D66D"/>
<stop offset="0.18" stop-color="#D3B858"/>
<stop offset="0.21" stop-color="#B68F3B"/>
<stop offset="0.22" stop-color="#A6782B"/>
<stop offset="0.23" stop-color="#AB7F2F"/>
<stop offset="0.27" stop-color="#CAAC4F"/>
<stop offset="0.32" stop-color="#E1CC66"/>
<stop offset="0.35" stop-color="#EFE073"/>
<stop offset="0.37" stop-color="#F5E879"/>
<stop offset="0.4" stop-color="#EEDE72"/>
<stop offset="0.45" stop-color="#DCC560"/>
<stop offset="0.51" stop-color="#BF9C44"/>
<stop offset="0.56" stop-color="#A6782B"/>
<stop offset="0.59" stop-color="#B9933E"/>
<stop offset="0.65" stop-color="#DCC461"/>
<stop offset="0.69" stop-color="#F1E376"/>
<stop offset="0.72" stop-color="#FAEF7F"/>
<stop offset="0.86" stop-color="#C8A445"/>
<stop offset="1" stop-color="#F8F2A2"/>
</linearGradient>
<linearGradient id="paint5_linear_1_3911" x1="136.235" y1="72.619" x2="76.0193" y2="372.725" gradientUnits="userSpaceOnUse">
<stop stop-color="#F8F3A6"/>
<stop offset="0.11" stop-color="#FAEF7F"/>
<stop offset="0.13" stop-color="#F5E87A"/>
<stop offset="0.15" stop-color="#E8D66D"/>
<stop offset="0.18" stop-color="#D3B858"/>
<stop offset="0.21" stop-color="#B68F3B"/>
<stop offset="0.22" stop-color="#A6782B"/>
<stop offset="0.23" stop-color="#AB7F2F"/>
<stop offset="0.27" stop-color="#CAAC4F"/>
<stop offset="0.32" stop-color="#E1CC66"/>
<stop offset="0.35" stop-color="#EFE073"/>
<stop offset="0.37" stop-color="#F5E879"/>
<stop offset="0.4" stop-color="#EEDE72"/>
<stop offset="0.45" stop-color="#DCC560"/>
<stop offset="0.51" stop-color="#BF9C44"/>
<stop offset="0.56" stop-color="#A6782B"/>
<stop offset="0.59" stop-color="#B9933E"/>
<stop offset="0.65" stop-color="#DCC461"/>
<stop offset="0.69" stop-color="#F1E376"/>
<stop offset="0.72" stop-color="#FAEF7F"/>
<stop offset="0.86" stop-color="#C8A445"/>
<stop offset="1" stop-color="#F8F2A2"/>
</linearGradient>
<linearGradient id="paint6_linear_1_3911" x1="170.3" y1="79.4577" x2="110.107" y2="379.563" gradientUnits="userSpaceOnUse">
<stop stop-color="#F8F3A6"/>
<stop offset="0.11" stop-color="#FAEF7F"/>
<stop offset="0.13" stop-color="#F5E87A"/>
<stop offset="0.15" stop-color="#E8D66D"/>
<stop offset="0.18" stop-color="#D3B858"/>
<stop offset="0.21" stop-color="#B68F3B"/>
<stop offset="0.22" stop-color="#A6782B"/>
<stop offset="0.23" stop-color="#AB7F2F"/>
<stop offset="0.27" stop-color="#CAAC4F"/>
<stop offset="0.32" stop-color="#E1CC66"/>
<stop offset="0.35" stop-color="#EFE073"/>
<stop offset="0.37" stop-color="#F5E879"/>
<stop offset="0.4" stop-color="#EEDE72"/>
<stop offset="0.45" stop-color="#DCC560"/>
<stop offset="0.51" stop-color="#BF9C44"/>
<stop offset="0.56" stop-color="#A6782B"/>
<stop offset="0.59" stop-color="#B9933E"/>
<stop offset="0.65" stop-color="#DCC461"/>
<stop offset="0.69" stop-color="#F1E376"/>
<stop offset="0.72" stop-color="#FAEF7F"/>
<stop offset="0.86" stop-color="#C8A445"/>
<stop offset="1" stop-color="#F8F2A2"/>
</linearGradient>
<linearGradient id="paint7_linear_1_3911" x1="191.33" y1="83.6801" x2="131.137" y2="383.786" gradientUnits="userSpaceOnUse">
<stop stop-color="#F8F3A6"/>
<stop offset="0.11" stop-color="#FAEF7F"/>
<stop offset="0.13" stop-color="#F5E87A"/>
<stop offset="0.15" stop-color="#E8D66D"/>
<stop offset="0.18" stop-color="#D3B858"/>
<stop offset="0.21" stop-color="#B68F3B"/>
<stop offset="0.22" stop-color="#A6782B"/>
<stop offset="0.23" stop-color="#AB7F2F"/>
<stop offset="0.27" stop-color="#CAAC4F"/>
<stop offset="0.32" stop-color="#E1CC66"/>
<stop offset="0.35" stop-color="#EFE073"/>
<stop offset="0.37" stop-color="#F5E879"/>
<stop offset="0.4" stop-color="#EEDE72"/>
<stop offset="0.45" stop-color="#DCC560"/>
<stop offset="0.51" stop-color="#BF9C44"/>
<stop offset="0.56" stop-color="#A6782B"/>
<stop offset="0.59" stop-color="#B9933E"/>
<stop offset="0.65" stop-color="#DCC461"/>
<stop offset="0.69" stop-color="#F1E376"/>
<stop offset="0.72" stop-color="#FAEF7F"/>
<stop offset="0.86" stop-color="#C8A445"/>
<stop offset="1" stop-color="#F8F2A2"/>
</linearGradient>
<linearGradient id="paint8_linear_1_3911" x1="215.412" y1="88.5003" x2="155.219" y2="388.606" gradientUnits="userSpaceOnUse">
<stop stop-color="#F8F3A6"/>
<stop offset="0.11" stop-color="#FAEF7F"/>
<stop offset="0.13" stop-color="#F5E87A"/>
<stop offset="0.15" stop-color="#E8D66D"/>
<stop offset="0.18" stop-color="#D3B858"/>
<stop offset="0.21" stop-color="#B68F3B"/>
<stop offset="0.22" stop-color="#A6782B"/>
<stop offset="0.23" stop-color="#AB7F2F"/>
<stop offset="0.27" stop-color="#CAAC4F"/>
<stop offset="0.32" stop-color="#E1CC66"/>
<stop offset="0.35" stop-color="#EFE073"/>
<stop offset="0.37" stop-color="#F5E879"/>
<stop offset="0.4" stop-color="#EEDE72"/>
<stop offset="0.45" stop-color="#DCC560"/>
<stop offset="0.51" stop-color="#BF9C44"/>
<stop offset="0.56" stop-color="#A6782B"/>
<stop offset="0.59" stop-color="#B9933E"/>
<stop offset="0.65" stop-color="#DCC461"/>
<stop offset="0.69" stop-color="#F1E376"/>
<stop offset="0.72" stop-color="#FAEF7F"/>
<stop offset="0.86" stop-color="#C8A445"/>
<stop offset="1" stop-color="#F8F2A2"/>
</linearGradient>
<linearGradient id="paint9_linear_1_3911" x1="245.55" y1="94.5586" x2="185.357" y2="394.664" gradientUnits="userSpaceOnUse">
<stop stop-color="#F8F3A6"/>
<stop offset="0.11" stop-color="#FAEF7F"/>
<stop offset="0.13" stop-color="#F5E87A"/>
<stop offset="0.15" stop-color="#E8D66D"/>
<stop offset="0.18" stop-color="#D3B858"/>
<stop offset="0.21" stop-color="#B68F3B"/>
<stop offset="0.22" stop-color="#A6782B"/>
<stop offset="0.23" stop-color="#AB7F2F"/>
<stop offset="0.27" stop-color="#CAAC4F"/>
<stop offset="0.32" stop-color="#E1CC66"/>
<stop offset="0.35" stop-color="#EFE073"/>
<stop offset="0.37" stop-color="#F5E879"/>
<stop offset="0.4" stop-color="#EEDE72"/>
<stop offset="0.45" stop-color="#DCC560"/>
<stop offset="0.51" stop-color="#BF9C44"/>
<stop offset="0.56" stop-color="#A6782B"/>
<stop offset="0.59" stop-color="#B9933E"/>
<stop offset="0.65" stop-color="#DCC461"/>
<stop offset="0.69" stop-color="#F1E376"/>
<stop offset="0.72" stop-color="#FAEF7F"/>
<stop offset="0.86" stop-color="#C8A445"/>
<stop offset="1" stop-color="#F8F2A2"/>
</linearGradient>
<linearGradient id="paint10_linear_1_3911" x1="269.206" y1="99.286" x2="209.012" y2="399.392" gradientUnits="userSpaceOnUse">
<stop stop-color="#F8F3A6"/>
<stop offset="0.11" stop-color="#FAEF7F"/>
<stop offset="0.13" stop-color="#F5E87A"/>
<stop offset="0.15" stop-color="#E8D66D"/>
<stop offset="0.18" stop-color="#D3B858"/>
<stop offset="0.21" stop-color="#B68F3B"/>
<stop offset="0.22" stop-color="#A6782B"/>
<stop offset="0.23" stop-color="#AB7F2F"/>
<stop offset="0.27" stop-color="#CAAC4F"/>
<stop offset="0.32" stop-color="#E1CC66"/>
<stop offset="0.35" stop-color="#EFE073"/>
<stop offset="0.37" stop-color="#F5E879"/>
<stop offset="0.4" stop-color="#EEDE72"/>
<stop offset="0.45" stop-color="#DCC560"/>
<stop offset="0.51" stop-color="#BF9C44"/>
<stop offset="0.56" stop-color="#A6782B"/>
<stop offset="0.59" stop-color="#B9933E"/>
<stop offset="0.65" stop-color="#DCC461"/>
<stop offset="0.69" stop-color="#F1E376"/>
<stop offset="0.72" stop-color="#FAEF7F"/>
<stop offset="0.86" stop-color="#C8A445"/>
<stop offset="1" stop-color="#F8F2A2"/>
</linearGradient>
<linearGradient id="paint11_linear_1_3911" x1="289.148" y1="103.303" x2="228.955" y2="403.408" gradientUnits="userSpaceOnUse">
<stop stop-color="#F8F3A6"/>
<stop offset="0.11" stop-color="#FAEF7F"/>
<stop offset="0.13" stop-color="#F5E87A"/>
<stop offset="0.15" stop-color="#E8D66D"/>
<stop offset="0.18" stop-color="#D3B858"/>
<stop offset="0.21" stop-color="#B68F3B"/>
<stop offset="0.22" stop-color="#A6782B"/>
<stop offset="0.23" stop-color="#AB7F2F"/>
<stop offset="0.27" stop-color="#CAAC4F"/>
<stop offset="0.32" stop-color="#E1CC66"/>
<stop offset="0.35" stop-color="#EFE073"/>
<stop offset="0.37" stop-color="#F5E879"/>
<stop offset="0.4" stop-color="#EEDE72"/>
<stop offset="0.45" stop-color="#DCC560"/>
<stop offset="0.51" stop-color="#BF9C44"/>
<stop offset="0.56" stop-color="#A6782B"/>
<stop offset="0.59" stop-color="#B9933E"/>
<stop offset="0.65" stop-color="#DCC461"/>
<stop offset="0.69" stop-color="#F1E376"/>
<stop offset="0.72" stop-color="#FAEF7F"/>
<stop offset="0.86" stop-color="#C8A445"/>
<stop offset="1" stop-color="#F8F2A2"/>
</linearGradient>
<linearGradient id="paint12_linear_1_3911" x1="310.061" y1="107.479" x2="249.867" y2="407.585" gradientUnits="userSpaceOnUse">
<stop stop-color="#F8F3A6"/>
<stop offset="0.11" stop-color="#FAEF7F"/>
<stop offset="0.13" stop-color="#F5E87A"/>
<stop offset="0.15" stop-color="#E8D66D"/>
<stop offset="0.18" stop-color="#D3B858"/>
<stop offset="0.21" stop-color="#B68F3B"/>
<stop offset="0.22" stop-color="#A6782B"/>
<stop offset="0.23" stop-color="#AB7F2F"/>
<stop offset="0.27" stop-color="#CAAC4F"/>
<stop offset="0.32" stop-color="#E1CC66"/>
<stop offset="0.35" stop-color="#EFE073"/>
<stop offset="0.37" stop-color="#F5E879"/>
<stop offset="0.4" stop-color="#EEDE72"/>
<stop offset="0.45" stop-color="#DCC560"/>
<stop offset="0.51" stop-color="#BF9C44"/>
<stop offset="0.56" stop-color="#A6782B"/>
<stop offset="0.59" stop-color="#B9933E"/>
<stop offset="0.65" stop-color="#DCC461"/>
<stop offset="0.69" stop-color="#F1E376"/>
<stop offset="0.72" stop-color="#FAEF7F"/>
<stop offset="0.86" stop-color="#C8A445"/>
<stop offset="1" stop-color="#F8F2A2"/>
</linearGradient>
<linearGradient id="paint13_linear_1_3911" x1="328.489" y1="111.197" x2="268.295" y2="411.28" gradientUnits="userSpaceOnUse">
<stop stop-color="#F8F3A6"/>
<stop offset="0.11" stop-color="#FAEF7F"/>
<stop offset="0.13" stop-color="#F5E87A"/>
<stop offset="0.15" stop-color="#E8D66D"/>
<stop offset="0.18" stop-color="#D3B858"/>
<stop offset="0.21" stop-color="#B68F3B"/>
<stop offset="0.22" stop-color="#A6782B"/>
<stop offset="0.23" stop-color="#AB7F2F"/>
<stop offset="0.27" stop-color="#CAAC4F"/>
<stop offset="0.32" stop-color="#E1CC66"/>
<stop offset="0.35" stop-color="#EFE073"/>
<stop offset="0.37" stop-color="#F5E879"/>
<stop offset="0.4" stop-color="#EEDE72"/>
<stop offset="0.45" stop-color="#DCC560"/>
<stop offset="0.51" stop-color="#BF9C44"/>
<stop offset="0.56" stop-color="#A6782B"/>
<stop offset="0.59" stop-color="#B9933E"/>
<stop offset="0.65" stop-color="#DCC461"/>
<stop offset="0.69" stop-color="#F1E376"/>
<stop offset="0.72" stop-color="#FAEF7F"/>
<stop offset="0.86" stop-color="#C8A445"/>
<stop offset="1" stop-color="#F8F2A2"/>
</linearGradient>
<linearGradient id="paint14_linear_1_3911" x1="343.96" y1="114.295" x2="283.766" y2="414.378" gradientUnits="userSpaceOnUse">
<stop stop-color="#F8F3A6"/>
<stop offset="0.11" stop-color="#FAEF7F"/>
<stop offset="0.13" stop-color="#F5E87A"/>
<stop offset="0.15" stop-color="#E8D66D"/>
<stop offset="0.18" stop-color="#D3B858"/>
<stop offset="0.21" stop-color="#B68F3B"/>
<stop offset="0.22" stop-color="#A6782B"/>
<stop offset="0.23" stop-color="#AB7F2F"/>
<stop offset="0.27" stop-color="#CAAC4F"/>
<stop offset="0.32" stop-color="#E1CC66"/>
<stop offset="0.35" stop-color="#EFE073"/>
<stop offset="0.37" stop-color="#F5E879"/>
<stop offset="0.4" stop-color="#EEDE72"/>
<stop offset="0.45" stop-color="#DCC560"/>
<stop offset="0.51" stop-color="#BF9C44"/>
<stop offset="0.56" stop-color="#A6782B"/>
<stop offset="0.59" stop-color="#B9933E"/>
<stop offset="0.65" stop-color="#DCC461"/>
<stop offset="0.69" stop-color="#F1E376"/>
<stop offset="0.72" stop-color="#FAEF7F"/>
<stop offset="0.86" stop-color="#C8A445"/>
<stop offset="1" stop-color="#F8F2A2"/>
</linearGradient>
<linearGradient id="paint15_linear_1_3911" x1="206.162" y1="-51.2425" x2="29.1357" y2="174.347" gradientUnits="userSpaceOnUse">
<stop stop-color="#F8F3A6"/>
<stop offset="0.11" stop-color="#FAEF7F"/>
<stop offset="0.13" stop-color="#F5E87A"/>
<stop offset="0.15" stop-color="#E8D66D"/>
<stop offset="0.18" stop-color="#D3B858"/>
<stop offset="0.21" stop-color="#B68F3B"/>
<stop offset="0.22" stop-color="#A6782B"/>
<stop offset="0.23" stop-color="#AB7F2F"/>
<stop offset="0.27" stop-color="#CAAC4F"/>
<stop offset="0.32" stop-color="#E1CC66"/>
<stop offset="0.35" stop-color="#EFE073"/>
<stop offset="0.37" stop-color="#F5E879"/>
<stop offset="0.4" stop-color="#EEDE72"/>
<stop offset="0.45" stop-color="#DCC560"/>
<stop offset="0.51" stop-color="#BF9C44"/>
<stop offset="0.56" stop-color="#A6782B"/>
<stop offset="0.59" stop-color="#B9933E"/>
<stop offset="0.65" stop-color="#DCC461"/>
<stop offset="0.69" stop-color="#F1E376"/>
<stop offset="0.72" stop-color="#FAEF7F"/>
<stop offset="0.86" stop-color="#C8A445"/>
<stop offset="1" stop-color="#F8F2A2"/>
</linearGradient>
<linearGradient id="paint16_linear_1_3911" x1="229.369" y1="-33.0435" x2="52.3185" y2="192.547" gradientUnits="userSpaceOnUse">
<stop stop-color="#F8F3A6"/>
<stop offset="0.11" stop-color="#FAEF7F"/>
<stop offset="0.13" stop-color="#F5E87A"/>
<stop offset="0.15" stop-color="#E8D66D"/>
<stop offset="0.18" stop-color="#D3B858"/>
<stop offset="0.21" stop-color="#B68F3B"/>
<stop offset="0.22" stop-color="#A6782B"/>
<stop offset="0.23" stop-color="#AB7F2F"/>
<stop offset="0.27" stop-color="#CAAC4F"/>
<stop offset="0.32" stop-color="#E1CC66"/>
<stop offset="0.35" stop-color="#EFE073"/>
<stop offset="0.37" stop-color="#F5E879"/>
<stop offset="0.4" stop-color="#EEDE72"/>
<stop offset="0.45" stop-color="#DCC560"/>
<stop offset="0.51" stop-color="#BF9C44"/>
<stop offset="0.56" stop-color="#A6782B"/>
<stop offset="0.59" stop-color="#B9933E"/>
<stop offset="0.65" stop-color="#DCC461"/>
<stop offset="0.69" stop-color="#F1E376"/>
<stop offset="0.72" stop-color="#FAEF7F"/>
<stop offset="0.86" stop-color="#C8A445"/>
<stop offset="1" stop-color="#F8F2A2"/>
</linearGradient>
<linearGradient id="paint17_linear_1_3911" x1="284.487" y1="10.2172" x2="107.437" y2="235.808" gradientUnits="userSpaceOnUse">
<stop stop-color="#F8F3A6"/>
<stop offset="0.11" stop-color="#FAEF7F"/>
<stop offset="0.13" stop-color="#F5E87A"/>
<stop offset="0.15" stop-color="#E8D66D"/>
<stop offset="0.18" stop-color="#D3B858"/>
<stop offset="0.21" stop-color="#B68F3B"/>
<stop offset="0.22" stop-color="#A6782B"/>
<stop offset="0.23" stop-color="#AB7F2F"/>
<stop offset="0.27" stop-color="#CAAC4F"/>
<stop offset="0.32" stop-color="#E1CC66"/>
<stop offset="0.35" stop-color="#EFE073"/>
<stop offset="0.37" stop-color="#F5E879"/>
<stop offset="0.4" stop-color="#EEDE72"/>
<stop offset="0.45" stop-color="#DCC560"/>
<stop offset="0.51" stop-color="#BF9C44"/>
<stop offset="0.56" stop-color="#A6782B"/>
<stop offset="0.59" stop-color="#B9933E"/>
<stop offset="0.65" stop-color="#DCC461"/>
<stop offset="0.69" stop-color="#F1E376"/>
<stop offset="0.72" stop-color="#FAEF7F"/>
<stop offset="0.86" stop-color="#C8A445"/>
<stop offset="1" stop-color="#F8F2A2"/>
</linearGradient>
<linearGradient id="paint18_linear_1_3911" x1="163.203" y1="79.5491" x2="157.322" y2="58.1352" gradientUnits="userSpaceOnUse">
<stop stop-color="#F8F3A6"/>
<stop offset="0.11" stop-color="#FAEF7F"/>
<stop offset="0.13" stop-color="#F5E87A"/>
<stop offset="0.15" stop-color="#E8D66D"/>
<stop offset="0.18" stop-color="#D3B858"/>
<stop offset="0.21" stop-color="#B68F3B"/>
<stop offset="0.22" stop-color="#A6782B"/>
<stop offset="0.23" stop-color="#AB7F2F"/>
<stop offset="0.27" stop-color="#CAAC4F"/>
<stop offset="0.32" stop-color="#E1CC66"/>
<stop offset="0.35" stop-color="#EFE073"/>
<stop offset="0.37" stop-color="#F5E879"/>
<stop offset="0.4" stop-color="#EEDE72"/>
<stop offset="0.45" stop-color="#DCC560"/>
<stop offset="0.51" stop-color="#BF9C44"/>
<stop offset="0.56" stop-color="#A6782B"/>
<stop offset="0.59" stop-color="#B9933E"/>
<stop offset="0.65" stop-color="#DCC461"/>
<stop offset="0.69" stop-color="#F1E376"/>
<stop offset="0.72" stop-color="#FAEF7F"/>
<stop offset="0.86" stop-color="#C8A445"/>
<stop offset="1" stop-color="#F8F2A2"/>
</linearGradient>
</defs>
</svg>
