<svg width="44" height="44" viewBox="0 0 44 44" fill="none" xmlns="http://www.w3.org/2000/svg">
<path fill-rule="evenodd" clip-rule="evenodd" d="M11.25 16C11.25 13.3766 13.3766 11.25 16 11.25H28C30.6234 11.25 32.75 13.3766 32.75 16V28C32.75 30.6234 30.6234 32.75 28 32.75H23.5C23.0858 32.75 22.75 32.4142 22.75 32V25C22.75 24.5858 23.0858 24.25 23.5 24.25H26.25V22.75H23.5C23.0858 22.75 22.75 22.4142 22.75 22V20C22.75 19.0335 23.5335 18.25 24.5 18.25H26.25V16.75H24.5C22.7051 16.75 21.25 18.2051 21.25 20V22C21.25 22.4142 20.9142 22.75 20.5 22.75H17.75V24.25H20.5C20.9142 24.25 21.25 24.5858 21.25 25V32C21.25 32.4142 20.9142 32.75 20.5 32.75H16C13.3766 32.75 11.25 30.6234 11.25 28V16ZM16 12.75C14.2051 12.75 12.75 14.2051 12.75 16V28C12.75 29.7949 14.2051 31.25 16 31.25H19.75V25.75H17C16.5858 25.75 16.25 25.4142 16.25 25V22C16.25 21.5858 16.5858 21.25 17 21.25H19.75V20C19.75 17.3766 21.8766 15.25 24.5 15.25H27C27.4142 15.25 27.75 15.5858 27.75 16V19C27.75 19.4142 27.4142 19.75 27 19.75H24.5C24.3619 19.75 24.25 19.8619 24.25 20V21.25H27C27.4142 21.25 27.75 21.5858 27.75 22V25C27.75 25.4142 27.4142 25.75 27 25.75H24.25V31.25H28C29.7949 31.25 31.25 29.7949 31.25 28V16C31.25 14.2051 29.7949 12.75 28 12.75H16Z" fill="#824435"/>
</svg>
