<svg width="44" height="44" viewBox="0 0 44 44" fill="none" xmlns="http://www.w3.org/2000/svg">
<path fill-rule="evenodd" clip-rule="evenodd" d="M22 12.75C16.8914 12.75 12.75 16.8914 12.75 22C12.75 23.3995 13.0603 24.7244 13.6151 25.9115C13.6788 26.0479 13.7001 26.2004 13.676 26.3491L12.9633 30.7445C12.9359 30.9134 13.0824 31.0592 13.2512 31.0311L17.6065 30.3052C17.7573 30.2801 17.9122 30.3017 18.0505 30.367C19.2473 30.9331 20.5856 31.25 22 31.25C27.1086 31.25 31.25 27.1086 31.25 22C31.25 16.8914 27.1086 12.75 22 12.75ZM11.25 22C11.25 16.0629 16.0629 11.25 22 11.25C27.9371 11.25 32.75 16.0629 32.75 22C32.75 27.9371 27.9371 32.75 22 32.75C20.4438 32.75 18.9632 32.4189 17.6261 31.8227L13.4978 32.5107C12.3166 32.7076 11.291 31.6865 11.4827 30.5044L12.159 26.3326C11.5743 25.0064 11.25 23.5401 11.25 22Z" fill="#824435"/>
<path d="M20 19L16 25L20 22L24 25L28 19L24 22L20 19Z" fill="#824435"/>
</svg>
