<svg width="44" height="44" viewBox="0 0 44 44" fill="none" xmlns="http://www.w3.org/2000/svg">
<path d="M14.381 12C13.0717 12 12 13.0717 12 14.381V29.619C12 30.9283 13.0717 32 14.381 32H29.619C30.9283 32 32 30.9283 32 29.619V14.381C32 13.0717 30.9283 12 29.619 12H14.381ZM14.381 12.9524H17.5125C15.8657 14.6658 14.8571 16.916 14.8571 19.381C14.8571 21.934 15.9372 24.2612 17.6901 25.9946C17.6264 25.9339 17.7089 26.0395 17.7171 26.2262C17.7255 26.4189 17.6965 26.6838 17.6185 26.9461C17.4624 27.4706 17.136 27.9542 16.6112 28.1291C16.5116 28.1623 16.4257 28.2276 16.3669 28.3147C16.3082 28.4018 16.2799 28.5059 16.2865 28.6107C16.2931 28.7156 16.3341 28.8153 16.4033 28.8944C16.4725 28.9735 16.5659 29.0275 16.6689 29.048C17.983 29.3108 18.9126 28.9151 19.5977 28.6006C20.2827 28.2861 20.6529 28.0745 21.3452 28.3542C21.3471 28.3548 21.349 28.3554 21.3508 28.356C22.6472 28.8627 24.0744 29.1429 25.5714 29.1429C27.5702 29.1429 29.4434 28.6434 31.0476 27.7729V29.619C31.0476 30.4136 30.4136 31.0476 29.619 31.0476H14.381C13.5864 31.0476 12.9524 30.4136 12.9524 29.619V14.381C12.9524 13.5864 13.5864 12.9524 14.381 12.9524ZM18.9029 12.9524H29.619C30.4136 12.9524 31.0476 13.5864 31.0476 14.381V26.6689C29.489 27.6251 27.607 28.1905 25.5714 28.1905C24.1953 28.1905 22.8875 27.9331 21.7024 27.4706C20.6962 27.0641 19.8765 27.4244 19.2005 27.7347C18.8344 27.9028 18.4732 28.0426 18.0649 28.1198C18.2669 27.8318 18.4397 27.5242 18.5309 27.2176C18.6386 26.8555 18.6824 26.5008 18.6685 26.1843C18.6547 25.869 18.6271 25.5801 18.3607 25.3185L18.3597 25.3175C16.77 23.7454 15.8095 21.6661 15.8095 19.381C15.8095 16.8464 16.9934 14.5655 18.9029 12.9524ZM25.8021 17.2316C25.676 17.2336 25.5558 17.2855 25.4679 17.376C25.38 17.4665 25.3316 17.5882 25.3333 17.7143V22C25.3324 22.0631 25.3441 22.1257 25.3676 22.1843C25.3912 22.2429 25.4261 22.2962 25.4704 22.3411C25.5147 22.386 25.5675 22.4217 25.6257 22.4461C25.6839 22.4704 25.7464 22.483 25.8095 22.483C25.8726 22.483 25.9351 22.4704 25.9933 22.4461C26.0515 22.4217 26.1043 22.386 26.1486 22.3411C26.193 22.2962 26.2279 22.2429 26.2514 22.1843C26.2749 22.1257 26.2866 22.0631 26.2857 22V17.7143C26.2866 17.6506 26.2747 17.5873 26.2507 17.5283C26.2267 17.4693 26.191 17.4157 26.1459 17.3707C26.1009 17.3257 26.0472 17.2902 25.9881 17.2663C25.929 17.2424 25.8658 17.2306 25.8021 17.2316ZM18.6667 17.7143C18.6036 17.7134 18.5409 17.7251 18.4824 17.7486C18.4238 17.7721 18.3705 17.807 18.3256 17.8514C18.2806 17.8957 18.2449 17.9485 18.2206 18.0067C18.1962 18.0649 18.1837 18.1274 18.1837 18.1905C18.1837 18.2536 18.1962 18.3161 18.2206 18.3743C18.2449 18.4325 18.2806 18.4853 18.3256 18.5296C18.3705 18.5739 18.4238 18.6088 18.4824 18.6324C18.5409 18.6559 18.6036 18.6676 18.6667 18.6667H20.1892L18.263 21.748C18.2181 21.82 18.1932 21.9028 18.191 21.9877C18.1889 22.0726 18.2094 22.1565 18.2506 22.2308C18.2918 22.3051 18.3521 22.367 18.4252 22.4102C18.4984 22.4533 18.5817 22.4761 18.6667 22.4762H21.0476C21.1107 22.4771 21.1734 22.4654 21.2319 22.4419C21.2905 22.4184 21.3438 22.3834 21.3887 22.3391C21.4337 22.2948 21.4693 22.242 21.4937 22.1838C21.518 22.1256 21.5306 22.0631 21.5306 22C21.5306 21.9369 21.518 21.8744 21.4937 21.8162C21.4693 21.758 21.4337 21.7052 21.3887 21.6609C21.3438 21.6166 21.2905 21.5816 21.2319 21.5581C21.1734 21.5346 21.1107 21.5229 21.0476 21.5238H19.5251L21.4513 18.4425C21.4962 18.3705 21.5211 18.2877 21.5232 18.2028C21.5254 18.1179 21.5049 18.0339 21.4637 17.9596C21.4225 17.8854 21.3622 17.8234 21.2891 17.7803C21.2159 17.7372 21.1326 17.7144 21.0476 17.7143H18.6667ZM24.3735 19.1363C24.2954 19.1377 24.2188 19.1583 24.1505 19.1963C24.0823 19.2342 24.0244 19.2884 23.982 19.354C23.745 19.2239 23.4778 19.1429 23.1905 19.1429C22.2756 19.1429 21.5238 19.8947 21.5238 20.8095C21.5238 21.7244 22.2756 22.4762 23.1905 22.4762C23.4775 22.4762 23.7443 22.3949 23.981 22.2651C24.0371 22.3518 24.12 22.418 24.217 22.4536C24.314 22.4892 24.4199 22.4922 24.5189 22.4623C24.6178 22.4324 24.7043 22.3711 24.7653 22.2877C24.8263 22.2043 24.8586 22.1033 24.8571 22V20.8095V19.619C24.858 19.5553 24.8461 19.4921 24.8221 19.4331C24.7981 19.3741 24.7625 19.3205 24.7174 19.2755C24.6723 19.2304 24.6186 19.1949 24.5595 19.171C24.5005 19.1472 24.4372 19.1354 24.3735 19.1363ZM28.4286 19.1429C27.5137 19.1429 26.7619 19.8947 26.7619 20.8095C26.7619 21.7244 27.5137 22.4762 28.4286 22.4762C29.3434 22.4762 30.0952 21.7244 30.0952 20.8095C30.0952 19.8947 29.3434 19.1429 28.4286 19.1429ZM23.1905 20.0952C23.5906 20.0952 23.9048 20.4094 23.9048 20.8095C23.9048 21.2097 23.5906 21.5238 23.1905 21.5238C22.7903 21.5238 22.4762 21.2097 22.4762 20.8095C22.4762 20.4094 22.7903 20.0952 23.1905 20.0952ZM28.4286 20.0952C28.8287 20.0952 29.1429 20.4094 29.1429 20.8095C29.1429 21.2097 28.8287 21.5238 28.4286 21.5238C28.0284 21.5238 27.7143 21.2097 27.7143 20.8095C27.7143 20.4094 28.0284 20.0952 28.4286 20.0952Z" fill="#824435"/>
</svg>
