<?xml version="1.0" standalone="no"?>
<!DOCTYPE svg PUBLIC "-//W3C//DTD SVG 20010904//EN"
 "http://www.w3.org/TR/2001/REC-SVG-20010904/DTD/svg10.dtd">
<svg version="1.0" xmlns="http://www.w3.org/2000/svg"
 width="460.000000pt" height="884.000000pt" viewBox="0 0 460.000000 884.000000"
 preserveAspectRatio="xMidYMid meet">

<g transform="translate(0.000000,884.000000) scale(0.100000,-0.100000)"
fill="#000000" stroke="none">
<path d="M1955 8824 c-112 -15 -181 -27 -194 -34 -26 -12 -88 -31 -98 -28 -27
7 -283 -181 -344 -253 -57 -68 -129 -174 -134 -197 -2 -10 -10 -34 -18 -54 -9
-20 -13 -39 -9 -42 3 -4 -3 -12 -13 -20 -10 -7 -16 -20 -12 -28 3 -9 1 -20 -4
-25 -15 -15 -31 -221 -24 -317 6 -91 16 -150 40 -241 30 -112 33 -102 -37
-121 -81 -23 -150 -88 -171 -160 -17 -59 -14 -175 6 -230 19 -48 28 -78 28
-82 -1 -1 8 -19 19 -39 11 -21 20 -45 20 -53 0 -30 41 -81 76 -96 19 -8 56
-14 80 -13 25 2 49 -2 52 -7 13 -19 87 -71 119 -83 18 -7 38 -20 44 -28 26
-31 76 -47 159 -53 82 -5 85 -6 87 -30 5 -77 -67 -397 -95 -418 -15 -12 -15
-16 6 -55 26 -49 28 -70 8 -86 -8 -7 -13 -21 -11 -32 2 -12 -2 -19 -11 -19 -8
0 -14 -5 -14 -11 0 -5 -5 -7 -12 -3 -8 5 -9 2 -5 -9 4 -11 1 -17 -8 -17 -16 0
-20 -12 -7 -24 12 -13 8 -64 -5 -59 -6 2 -10 16 -8 31 3 24 2 25 -11 7 -10
-13 -17 -16 -25 -8 -7 7 -21 5 -47 -7 -20 -10 -59 -25 -87 -35 -27 -9 -100
-36 -162 -61 -62 -24 -119 -44 -128 -44 -24 0 -18 -14 16 -32 42 -25 71 -22
99 7 13 14 30 25 37 25 9 0 11 5 7 13 -5 9 -4 9 6 0 11 -10 11 -15 0 -28 -12
-15 -11 -15 16 -3 16 7 38 18 49 25 17 10 26 9 52 -7 l32 -19 23 28 c16 18 30
26 41 22 24 -9 108 -1 102 9 -3 5 5 19 17 32 13 13 32 36 43 51 14 20 28 27
52 27 17 0 34 4 38 9 8 14 97 3 116 -15 10 -9 53 -65 95 -125 43 -60 80 -107
82 -104 3 2 33 -18 68 -46 58 -46 64 -48 73 -31 6 11 9 64 7 119 -3 107 10
181 37 208 9 9 17 22 17 28 0 26 36 43 92 45 59 1 168 46 185 76 4 8 11 15 16
15 20 1 94 40 111 59 19 21 18 22 -5 31 -21 9 -22 10 -4 11 91 6 136 1 164
-19 18 -13 44 -21 70 -21 23 0 41 2 41 4 0 9 -68 115 -83 131 -15 15 -22 35
-18 58 0 4 -5 6 -11 5 -7 -2 -12 3 -10 10 1 8 -2 11 -8 7 -5 -3 -10 -1 -10 5
0 6 -4 8 -10 5 -5 -3 -10 -1 -10 5 0 6 -5 8 -11 5 -12 -8 -62 42 -54 55 3 5 1
11 -5 15 -5 3 -10 11 -10 16 0 6 6 7 13 3 8 -5 8 -3 -2 9 -7 9 -11 27 -8 39 4
14 0 30 -11 42 -9 11 -11 16 -4 12 11 -7 11 -4 0 13 -11 18 -11 23 2 32 13 9
12 10 -2 5 -21 -6 -23 6 -7 36 6 12 7 18 1 14 -5 -3 -12 1 -15 9 -4 10 -1 12
10 8 12 -5 15 -2 10 10 -6 16 15 42 26 31 3 -3 10 4 17 15 6 12 7 21 3 21 -4
0 -2 5 5 12 7 7 12 17 12 22 0 6 -4 5 -9 -2 -7 -11 -9 -11 -14 1 -3 9 2 21 11
29 11 9 14 10 8 1 -4 -8 -2 -13 4 -13 7 0 10 6 7 14 -3 7 -1 18 4 23 5 5 0 9
-13 10 -19 2 -20 0 -8 -8 13 -9 13 -10 0 -6 -17 4 -21 26 -8 43 5 7 3 18 -4
26 -15 15 -21 35 -20 61 0 9 -3 17 -9 17 -5 0 -9 4 -9 10 0 5 7 7 16 3 9 -3 5
5 -9 19 -18 18 -24 33 -20 47 3 12 1 21 -6 21 -7 0 -11 6 -10 13 3 24 -1 38
-10 33 -5 -3 -18 10 -30 30 -12 19 -15 32 -9 29 7 -4 6 -1 -3 7 -32 27 -52 67
-40 81 6 8 8 16 5 20 -3 3 5 10 18 17 22 11 22 10 4 -4 -11 -9 -16 -16 -10
-16 13 1 45 26 39 32 -3 3 6 13 20 22 14 9 24 13 23 9 -8 -23 128 -103 150
-89 6 3 14 1 18 -5 5 -8 3 -9 -7 -4 -11 6 -12 5 -1 -6 8 -9 15 -10 23 -2 7 7
5 15 -7 27 -15 16 -15 17 12 10 16 -4 34 -10 39 -14 6 -5 24 -10 42 -11 35 -4
62 20 63 56 0 15 5 11 18 -14 21 -43 42 -52 42 -18 0 14 -6 28 -12 30 -8 3 -6
6 4 6 11 1 15 6 12 16 -4 8 -10 12 -15 9 -5 -3 -9 0 -9 5 0 6 5 11 11 11 5 0
8 4 5 9 -4 5 -3 11 1 14 5 2 3 3 -3 1 -6 -1 -25 11 -42 27 -18 17 -32 26 -32
22 0 -4 -17 -9 -37 -9 -60 -2 -82 -7 -88 -22 -3 -8 0 -10 8 -6 9 5 9 4 1 -5
-20 -22 -62 -20 -68 1 -2 11 -9 17 -14 14 -6 -3 -12 -2 -14 3 -1 4 -14 11 -28
15 -17 5 -21 4 -11 -2 9 -7 10 -12 2 -16 -6 -4 -9 -11 -6 -16 3 -5 1 -11 -4
-15 -6 -3 -8 6 -5 21 5 25 3 26 -13 13 -16 -13 -17 -12 -5 3 8 9 11 22 8 27
-4 6 5 8 21 5 21 -3 24 -2 13 5 -13 9 -12 13 7 30 11 11 24 17 28 13 3 -4 1 6
-5 22 -6 16 -8 31 -5 34 3 3 5 0 5 -7 0 -8 5 -7 16 3 8 9 28 16 43 16 15 0 33
6 40 13 8 7 11 7 8 1 -5 -8 12 -13 51 -16 60 -5 81 -13 146 -53 28 -17 45 -21
57 -15 9 5 20 6 24 2 4 -4 6 4 4 18 -2 14 1 31 5 39 7 11 5 13 -7 8 -10 -4
-20 0 -26 11 -6 9 -11 13 -11 8 0 -5 -8 -2 -18 7 -16 15 -45 24 -80 26 -7 1
-11 5 -8 9 3 5 -1 9 -9 9 -8 0 -12 -4 -8 -9 3 -6 -9 -2 -27 7 -24 13 -35 14
-46 4 -9 -7 -14 -8 -14 -1 0 11 -18 11 -37 -1 -6 -4 -14 -3 -18 2 -3 5 -14 8
-24 6 -14 -2 -21 4 -26 22 -3 14 -4 28 0 31 3 3 5 -3 6 -14 0 -10 9 14 20 55
10 40 16 78 12 84 -3 5 -2 7 4 4 5 -3 20 26 33 66 12 40 35 92 51 117 57 93
129 242 135 280 6 39 17 50 29 30 4 -6 11 -7 17 -4 6 4 9 3 6 -2 -3 -5 6 -20
19 -33 14 -13 23 -17 22 -10 -2 16 13 60 36 102 8 16 15 39 15 51 0 12 5 27
11 33 11 11 9 82 -3 73 -3 -3 -18 5 -31 18 -16 15 -27 20 -32 13 -3 -6 -11 -9
-16 -5 -5 3 -16 0 -24 -6 -27 -23 -86 -30 -111 -13 -13 8 -29 16 -36 17 -28 6
-48 19 -42 28 3 5 21 0 40 -11 40 -24 44 -15 9 23 -24 26 -25 27 -49 9 -13
-10 -23 -22 -23 -27 1 -5 -4 -10 -11 -11 -7 -2 -8 -1 -2 2 19 9 -9 31 -33 26
-18 -4 -19 -3 -7 6 13 10 13 11 0 11 -13 0 -13 1 0 10 19 12 33 13 25 1 -8
-13 35 -25 47 -13 7 7 3 12 -11 17 -12 3 -19 11 -16 16 3 5 0 6 -8 3 -8 -3
-21 1 -28 8 -17 15 -43 22 -35 9 8 -12 -18 -21 -43 -14 -12 3 -21 1 -21 -6 0
-6 15 -11 33 -11 28 0 33 -4 35 -25 1 -19 -3 -25 -17 -25 -11 0 -21 5 -23 12
-3 9 -6 9 -12 0 -4 -7 -2 -12 3 -12 6 0 11 -4 11 -9 0 -6 -9 -9 -20 -8 -14 1
-19 6 -15 16 3 9 3 12 -1 8 -4 -4 -19 0 -33 10 -14 9 -43 16 -66 16 -34 -1
-36 0 -15 7 18 6 20 8 7 9 -10 1 -15 6 -12 11 4 6 15 8 25 5 10 -3 21 -1 25 5
3 5 0 11 -7 12 -7 0 -17 2 -23 3 -5 2 -16 3 -22 4 -25 2 -12 17 14 17 17 -1
27 5 29 16 2 14 -1 15 -17 5 -10 -6 -21 -8 -25 -5 -11 12 7 28 32 28 13 0 24
5 24 12 0 6 -3 9 -6 5 -3 -3 -25 5 -48 18 -24 13 -51 22 -62 21 -10 -2 -21 0
-24 4 -3 4 -27 10 -55 13 -27 4 -68 11 -89 16 -44 11 -264 21 -311 15z m565
-254 c0 -5 -5 -10 -11 -10 -5 0 -7 5 -4 10 3 6 8 10 11 10 2 0 4 -4 4 -10z
m215 0 c-3 -5 -12 -10 -18 -10 -7 0 -6 4 3 10 19 12 23 12 15 0z m-135 -7 c0
-5 -12 -9 -27 -10 -19 -1 -22 1 -12 8 17 11 39 12 39 2z m118 -12 c6 0 12 -5
12 -11 0 -6 -9 -6 -24 0 -13 5 -27 6 -30 2 -4 -3 -16 -7 -29 -9 -21 -3 -21 -3
-3 10 11 8 29 13 40 12 12 -1 27 -3 34 -4z m-103 -21 c3 -5 1 -10 -4 -10 -6 0
-11 5 -11 10 0 6 2 10 4 10 3 0 8 -4 11 -10z m42 -16 c-3 -3 -12 -4 -19 -1 -8
3 -5 6 6 6 11 1 17 -2 13 -5z m413 -42 c0 -4 -10 -9 -22 -9 -18 -2 -20 0 -8 7
18 12 30 13 30 2z m-158 -176 c6 4 5 -2 -1 -15 -7 -12 -9 -26 -6 -31 4 -6 1
-9 -6 -8 -7 2 -14 -6 -15 -18 -1 -20 -31 -74 -41 -74 -3 0 2 12 12 26 12 19
14 29 6 37 -13 13 -13 54 0 82 6 14 7 5 4 -30 l-5 -50 17 55 c10 31 19 47 21
37 2 -9 8 -14 14 -11z m-92 -46 c0 -5 -5 -10 -11 -10 -5 0 -7 5 -4 10 3 6 8
10 11 10 2 0 4 -4 4 -10z m15 -39 c0 -21 -3 -37 -7 -35 -7 5 -23 -36 -20 -50
4 -14 -28 -57 -39 -51 -5 4 -7 11 -3 16 3 5 10 7 15 4 5 -4 9 -4 9 -1 0 2 3
12 7 22 4 11 2 15 -4 11 -5 -3 1 23 15 58 14 36 26 65 27 65 0 0 1 -18 0 -39z
m-25 9 c0 -5 -2 -10 -4 -10 -3 0 -8 5 -11 10 -3 6 -1 10 4 10 6 0 11 -4 11
-10z m-20 -44 c0 -2 -8 -10 -17 -17 -16 -13 -17 -12 -4 4 13 16 21 21 21 13z
m80 -781 c10 -12 10 -15 -3 -15 -9 0 -19 5 -22 10 -4 6 -12 7 -18 3 -7 -5 -29
-8 -49 -9 -30 0 -35 2 -26 13 15 18 102 17 118 -2z m-310 -39 c0 -3 -4 -8 -10
-11 -5 -3 -10 -1 -10 4 0 6 5 11 10 11 6 0 10 -2 10 -4z m274 -22 c4 -9 4 -19
2 -21 -8 -8 -26 8 -26 23 0 19 16 18 24 -2z m-1039 -494 c-4 -12 -9 -19 -12
-17 -3 3 -2 15 2 27 4 12 9 19 12 17 3 -3 2 -15 -2 -27z m85 -47 c0 -32 -5
-28 -14 10 -4 19 -3 26 4 22 5 -3 10 -18 10 -32z m-139 -7 c-6 -14 -8 -39 -5
-56 4 -19 2 -30 -5 -30 -14 0 -14 62 1 95 15 32 22 26 9 -9z m842 -53 c-3 -7
-9 -10 -14 -7 -14 8 -11 21 5 21 8 0 12 -6 9 -14z m-697 -51 c-9 -8 -26 10
-26 26 1 15 2 15 15 -2 8 -11 13 -21 11 -24z m-86 -43 c0 -11 -4 -17 -10 -14
-5 3 -10 13 -10 21 0 8 5 14 10 14 6 0 10 -9 10 -21z m719 7 c9 -10 8 -15 -3
-19 -11 -4 -13 -1 -9 10 5 12 3 14 -7 8 -9 -5 -11 -4 -6 3 9 15 11 15 25 -2z"/>
<path d="M2615 8671 c-3 -5 -2 -12 3 -15 5 -3 9 1 9 9 0 17 -3 19 -12 6z"/>
<path d="M2648 8653 c7 -3 16 -2 19 1 4 3 -2 6 -13 5 -11 0 -14 -3 -6 -6z"/>
<path d="M2578 8640 c12 -5 22 -15 22 -21 0 -9 -4 -9 -14 0 -10 8 -16 9 -21 1
-3 -5 -3 -10 2 -10 40 -2 89 -14 95 -24 5 -7 8 -5 8 7 0 12 -8 17 -26 17 -16
0 -28 7 -31 18 -2 11 -15 18 -31 19 -26 2 -26 1 -4 -7z"/>
<path d="M3050 8551 c0 -6 5 -13 10 -16 6 -3 10 1 10 9 0 9 -4 16 -10 16 -5 0
-10 -4 -10 -9z"/>
<path d="M3127 8119 c4 -13 8 -18 11 -10 2 7 -1 18 -6 23 -8 8 -9 4 -5 -13z"/>
<path d="M3229 7523 c-13 -15 -12 -15 9 -4 23 12 28 21 13 21 -5 0 -15 -7 -22
-17z"/>
<path d="M3233 7376 c4 -10 -2 -13 -23 -12 -16 1 -27 -2 -24 -6 3 -4 -1 -8 -9
-8 -18 0 -59 -57 -55 -77 2 -9 16 -21 32 -26 29 -10 47 2 59 36 2 6 10 6 24
-1 18 -10 23 -8 39 16 27 41 26 65 -3 59 -17 -3 -23 -1 -19 8 3 8 -2 16 -11
19 -10 4 -13 2 -10 -8z m-43 -66 c0 -11 -4 -20 -10 -20 -5 0 -10 9 -10 20 0
11 5 20 10 20 6 0 10 -9 10 -20z"/>
<path d="M2895 6900 c-10 -11 -18 -37 -19 -57 -1 -33 3 -40 31 -54 17 -9 42
-22 55 -31 13 -8 43 -15 68 -17 39 -2 49 2 74 28 41 42 24 61 -47 55 -29 -3
-58 -7 -66 -10 -11 -3 -11 -1 -2 9 9 11 6 20 -10 41 -11 14 -25 23 -31 20 -7
-4 -8 -2 -4 4 3 6 -2 16 -12 21 -15 8 -23 6 -37 -9z"/>
<path d="M2748 6611 l-22 -18 30 -16 c16 -8 63 -18 104 -22 41 -3 101 -11 133
-17 55 -10 60 -10 80 11 12 12 18 21 12 20 -10 -2 -28 4 -80 26 -31 14 -80 22
-177 29 -45 4 -62 1 -80 -13z"/>
<path d="M2860 6475 c0 -7 5 -17 12 -21 7 -5 9 -2 4 7 -4 8 -1 6 7 -3 8 -10
20 -18 26 -18 7 0 9 -4 6 -10 -4 -6 8 -10 29 -10 39 0 49 14 16 23 -11 3 -22
5 -24 4 -2 -1 -12 5 -22 14 -28 24 -54 31 -54 14z"/>
<path d="M2588 5710 c-4 -36 -8 -132 -9 -215 0 -86 -5 -155 -11 -162 -6 -7 -7
-13 -2 -13 24 0 -43 -33 -74 -37 -21 -3 -41 -10 -47 -17 -5 -6 -19 -10 -30 -8
-13 2 -16 0 -8 -5 9 -6 -2 -13 -32 -21 -25 -7 -45 -16 -45 -22 0 -5 -5 -10
-11 -10 -7 0 -18 -8 -26 -17 -8 -10 -11 -12 -8 -5 6 11 3 12 -14 3 -11 -6 -25
-20 -31 -32 -6 -11 -15 -17 -20 -14 -11 7 -4 -14 35 -100 27 -59 27 -64 26
-235 -2 -178 -13 -279 -35 -315 -6 -11 -29 -63 -51 -115 -40 -98 -76 -160
-129 -220 -17 -19 18 12 77 70 106 103 145 158 131 183 -6 9 -5 9 8 0 8 -7 19
-9 23 -5 5 4 5 1 0 -7 -6 -10 -2 -12 13 -7 21 7 111 -25 142 -49 17 -14 58
-30 47 -19 -4 4 1 16 10 27 13 15 14 18 3 12 -13 -7 -13 -6 1 11 8 10 14 29
13 42 -1 13 4 22 12 22 8 0 14 9 14 20 0 11 4 20 10 20 5 0 9 3 9 8 -3 17 2
32 16 46 8 8 16 26 17 40 1 14 6 26 10 26 5 0 6 12 4 26 -3 16 2 32 15 45 10
10 17 19 14 19 -2 0 7 11 21 25 14 14 22 30 18 37 -4 7 -3 8 5 4 6 -4 8 -12 5
-18 -5 -7 -2 -8 5 -4 7 5 10 14 7 21 -2 7 2 16 10 19 9 3 12 11 8 17 -4 7 -3
9 4 5 6 -3 13 -2 17 4 3 5 0 10 -7 10 -7 1 -3 6 10 13 12 7 19 17 15 22 -4 4
-3 5 3 2 15 -9 56 22 47 36 -4 7 2 5 12 -3 10 -8 16 -10 12 -4 -4 7 0 15 9 18
11 4 14 14 11 29 -6 21 -6 21 8 3 11 -15 15 -16 15 -5 0 8 -6 21 -12 28 -10
11 -10 12 -1 7 7 -4 24 1 38 10 19 13 23 20 15 34 -6 12 -17 16 -30 13 -15 -4
-20 0 -20 16 0 13 -7 21 -17 22 -11 0 -13 3 -5 6 6 2 10 9 6 14 -3 5 -1 9 3 9
5 0 8 13 7 29 -1 20 2 28 11 25 13 -5 13 34 0 55 -4 7 0 8 11 4 11 -4 15 -3
11 4 -5 7 0 9 13 6 12 -3 20 0 20 6 0 7 -4 10 -9 6 -5 -3 -13 0 -17 6 -5 8 -3
9 6 4 10 -6 12 -3 8 13 -8 30 0 28 12 -4 10 -25 30 -25 30 1 0 22 26 24 39 3
7 -11 8 -17 2 -13 -15 9 -14 -1 5 -36 8 -17 13 -37 10 -45 -3 -8 1 -14 9 -14
8 0 15 -9 15 -19 0 -11 6 -21 13 -24 12 -4 88 51 119 88 36 42 12 101 -36 89
-20 -5 -32 1 -57 25 -17 17 -34 31 -39 31 -5 0 -14 -17 -21 -37 -7 -21 -14
-32 -17 -25 -2 8 4 28 13 46 13 24 15 38 8 50 -9 16 -12 15 -34 -11 -18 -22
-29 -27 -42 -21 -9 4 -25 12 -34 16 -22 11 -74 103 -68 120 6 18 -1 15 -27
-11 -20 -20 -105 -54 -113 -45 -1 2 -9 15 -16 30 -14 27 -15 27 -38 12 -13 -9
-29 -31 -37 -48 -13 -30 -13 -29 -15 39 -1 39 -4 133 -8 210 -5 129 -7 135
-13 75z m-1 -498 c-3 -26 -11 -60 -18 -75 -10 -23 -14 -25 -21 -12 -5 8 -15
15 -22 15 -9 0 -4 19 17 60 17 33 35 60 40 60 6 0 7 -20 4 -48z m317 -253 c-3
-5 -10 -7 -15 -3 -5 3 -7 10 -3 15 3 5 10 7 15 3 5 -3 7 -10 3 -15z"/>
<path d="M2895 5610 c-29 -13 -82 -59 -67 -60 6 0 12 4 12 8 0 5 18 18 40 31
48 27 57 39 15 21z"/>
<path d="M2744 5498 l-29 -33 33 29 c30 28 37 36 29 36 -2 0 -16 -15 -33 -32z"/>
<path d="M440 5517 c0 -2 15 -16 33 -33 l32 -29 -29 33 c-28 30 -36 37 -36 29z"/>
<path d="M187 5418 c-19 -7 -30 -19 -34 -39 -5 -24 -8 -27 -20 -17 -13 10 -14
8 -11 -12 2 -18 -3 -28 -19 -35 -28 -12 -56 -77 -55 -131 0 -24 11 -63 27 -93
14 -29 24 -56 21 -59 -3 -3 -1 -11 5 -19 9 -9 8 -13 0 -13 -17 0 -13 -39 15
-125 15 -44 28 -109 30 -145 2 -36 12 -101 23 -145 11 -44 27 -125 36 -180 9
-55 21 -123 27 -152 6 -28 8 -58 5 -67 -3 -8 -1 -16 4 -18 5 -2 11 -16 13 -32
2 -16 10 -33 19 -38 10 -5 17 -16 17 -24 0 -8 3 -13 7 -11 5 3 9 -14 10 -36 5
-80 59 -290 112 -437 51 -140 68 -180 73 -175 5 5 18 -20 23 -45 10 -46 18
-70 24 -70 4 0 8 -6 9 -12 1 -15 3 -24 21 -88 7 -25 16 -49 20 -55 4 -5 13
-29 21 -52 7 -23 22 -52 32 -63 10 -11 16 -20 13 -20 -3 0 1 -13 10 -30 10
-19 20 -27 30 -24 11 5 13 2 8 -12 -4 -12 -3 -15 6 -10 8 5 11 3 10 -5 -4 -20
11 -59 22 -59 6 0 8 -4 5 -8 -7 -11 49 -124 57 -115 4 3 7 -1 7 -10 0 -10 6
-17 14 -17 8 0 17 -14 21 -32 4 -18 23 -71 42 -118 19 -47 39 -94 43 -105 7
-18 4 -20 -34 -17 -22 2 -61 -4 -86 -13 -25 -9 -68 -20 -97 -25 -62 -10 -115
-38 -102 -54 5 -6 18 -23 29 -38 12 -15 36 -33 55 -39 19 -7 35 -18 35 -25 0
-6 11 -19 25 -28 l26 -17 -66 -64 c-61 -61 -139 -112 -159 -106 -16 4 -25 -21
-16 -45 5 -12 6 -25 2 -29 -3 -3 1 -3 11 1 11 4 24 -2 37 -17 25 -31 25 -31
-13 -53 -18 -11 -27 -21 -19 -23 6 -3 12 -16 12 -29 0 -39 44 -77 85 -72 29 3
35 0 40 -19 3 -14 10 -21 16 -17 8 4 7 9 -2 15 -7 4 -10 12 -5 16 5 4 11 2 13
-4 3 -7 12 -13 21 -13 10 -1 -4 -12 -29 -25 l-46 -24 -27 -108 c-15 -59 -47
-169 -71 -243 -59 -183 -88 -298 -82 -335 7 -39 -5 -88 -63 -275 -61 -195
-125 -409 -144 -480 -8 -30 -28 -93 -45 -140 -17 -47 -31 -93 -31 -102 0 -17
45 -18 798 -18 518 0 792 4 782 10 -13 8 -12 10 3 10 15 0 16 3 7 20 -11 20
-10 20 12 8 13 -7 26 -17 30 -23 5 -6 8 -5 8 3 0 21 -4 27 -16 24 -6 -1 -11 8
-10 20 3 28 -12 50 -27 41 -5 -3 -7 -1 -3 5 3 6 2 13 -4 17 -5 3 -10 11 -10
17 0 5 8 0 18 -13 11 -12 29 -24 41 -26 21 -3 21 -2 7 13 -9 8 -16 20 -16 27
0 6 7 2 15 -9 14 -18 14 -18 8 4 -3 12 -8 22 -12 22 -4 0 -7 11 -7 25 0 15 6
25 15 25 8 0 12 3 8 6 -3 3 -15 3 -28 -1 -15 -5 -18 -9 -9 -15 8 -5 8 -10 2
-14 -5 -3 -12 0 -15 7 -5 14 6 39 17 38 20 -3 24 1 18 21 -3 14 -1 19 6 14 6
-3 13 -2 17 4 6 9 -8 14 -28 11 -4 -1 -3 8 3 19 6 11 13 20 16 20 3 0 2 -6 -2
-13 -4 -6 -4 -9 1 -5 4 4 15 2 24 -4 14 -11 14 -10 0 7 -9 11 -15 26 -13 33 1
7 0 8 -3 2 -2 -5 -9 -10 -14 -10 -6 0 -7 5 -4 10 3 6 1 10 -4 10 -6 0 -11 7
-11 16 0 13 3 14 15 4 17 -14 35 -5 35 16 0 8 -4 13 -9 9 -9 -5 -5 45 4 54 3
2 -2 9 -10 15 -12 9 -9 11 17 11 18 0 40 -4 48 -9 13 -9 13 -8 1 7 -7 9 -20
17 -28 17 -8 0 -11 5 -8 10 4 6 12 7 18 3 7 -4 6 0 -2 10 -12 16 -8 22 12 18
5 -1 6 7 2 18 -5 16 -2 19 14 16 11 -2 24 1 27 7 5 7 2 8 -7 4 -8 -4 0 5 16
19 17 15 24 24 17 21 -6 -4 -12 -2 -12 3 0 6 5 11 11 11 5 0 7 5 4 10 -8 13
17 9 28 -5 5 -6 7 2 4 17 -2 16 0 26 7 25 6 -1 10 3 9 10 -2 8 4 10 14 6 11
-4 14 -3 9 5 -4 7 -2 12 4 12 7 0 9 7 6 16 -3 8 -2 12 4 9 9 -5 36 33 32 46
-1 4 9 5 21 2 22 -5 22 -5 2 10 -20 16 -19 16 5 11 14 -3 20 -2 14 3 -13 9
-15 45 -2 37 5 -3 5 -10 2 -16 -4 -7 -2 -8 5 -4 6 4 9 11 7 15 -3 4 -2 11 2
17 9 12 78 65 89 67 4 1 7 5 5 10 -1 4 11 10 28 14 28 5 29 7 13 19 -17 13
-17 14 1 7 13 -4 17 -3 12 5 -5 8 -2 10 8 6 11 -4 19 2 26 20 5 14 14 26 20
26 6 0 9 4 5 9 -7 12 11 23 39 25 13 1 21 8 20 19 -1 9 3 14 9 10 5 -3 15 1
21 9 16 22 55 40 68 32 7 -4 8 -3 4 4 -4 7 -2 12 4 12 6 0 9 4 6 8 -2 4 4 14
16 21 16 10 19 10 13 -1 -3 -7 2 -3 13 9 18 21 21 21 33 6 15 -18 70 -43 94
-43 13 0 12 7 -4 50 -18 48 -96 186 -166 295 -18 28 -55 86 -82 130 -252 405
-304 477 -356 500 l-29 12 116 78 c64 42 116 79 116 80 0 2 -12 -1 -27 -5
-127 -40 -203 -49 -203 -24 0 11 6 14 20 9 12 -4 20 -2 20 5 0 6 10 8 25 4 14
-3 25 -2 25 4 0 6 9 8 20 5 12 -3 20 0 20 7 0 7 8 9 20 5 11 -3 20 -2 20 3 0
6 7 13 16 16 8 3 12 2 9 -4 -10 -16 5 -12 22 6 11 11 26 14 45 10 18 -3 27 -2
23 4 -3 6 3 10 15 10 28 0 111 43 132 69 11 13 24 18 35 15 13 -5 11 -1 -5 10
-12 10 -30 16 -40 15 -9 -2 -26 1 -37 7 -11 6 -40 9 -64 8 -25 -1 -77 5 -115
13 -81 17 -93 18 -123 8 -22 -7 -40 -48 -23 -53 6 -2 10 -7 10 -11 0 -12 -67
-81 -79 -81 -11 0 -83 41 -91 52 -9 11 -161 -159 -155 -174 13 -34 150 -107
203 -108 13 0 21 -4 17 -10 -9 -15 33 -50 61 -50 44 0 115 -91 99 -127 -5 -10
-7 -22 -6 -28 23 -90 25 -130 6 -159 -10 -14 -21 -23 -26 -20 -5 3 -9 0 -9 -6
0 -19 -170 -1 -196 21 -6 5 -14 6 -18 2 -4 -4 -11 -2 -15 5 -13 22 -68 32 -82
16 -9 -11 -15 -12 -25 -3 -11 9 -14 8 -14 -1 0 -7 -7 -10 -16 -6 -11 4 -18 -3
-26 -25 -10 -30 -11 -30 -25 -9 -8 11 -19 17 -25 14 -6 -4 -8 -2 -4 4 3 6 2
13 -4 17 -5 3 -10 1 -10 -6 0 -7 -7 -4 -16 7 -8 10 -12 13 -8 5 5 -9 -2 -7
-18 5 -14 10 -24 22 -21 27 2 4 -3 7 -11 7 -9 0 -16 5 -16 11 0 8 -6 7 -17 -2
-9 -8 -14 -9 -10 -3 4 7 -1 18 -10 25 -14 12 -15 12 -9 1 7 -12 4 -12 -14 -2
-14 8 -20 18 -17 30 3 12 0 17 -7 14 -7 -3 -21 3 -33 13 -17 15 -18 20 -7 31
9 8 14 9 14 2 0 -7 5 -8 12 -3 7 4 16 8 20 8 3 0 10 4 15 9 5 5 3 6 -5 2 -8
-5 -12 0 -12 16 0 13 -5 29 -12 36 -9 9 -7 13 8 18 71 25 86 34 77 47 -57 71
-102 141 -96 150 3 6 1 7 -5 3 -7 -4 -12 -1 -12 8 0 8 -9 22 -21 30 -13 9 -18
19 -14 27 5 7 4 10 -1 7 -5 -3 -17 10 -27 29 -16 33 -16 35 -1 29 14 -5 15 -4
5 8 -9 11 -10 27 -4 58 9 43 9 68 -1 163 -3 28 -8 102 -11 165 -3 63 -11 156
-16 205 -6 50 -13 110 -16 135 -2 25 -11 77 -20 115 -8 39 -15 76 -16 84 -1
31 -82 -101 -102 -169 -9 -32 -76 -152 -81 -147 -2 2 3 26 11 53 20 65 18 67
-10 14 -51 -95 -16 8 44 129 38 77 43 101 21 101 -4 0 -20 -19 -33 -43 -28
-48 -126 -168 -211 -262 -61 -66 -73 -58 -29 21 22 39 23 46 8 34 -14 -11 -12
-5 6 20 14 19 52 73 84 120 l57 85 -76 -75 c-86 -84 -146 -167 -146 -202 0
-30 -15 -52 -29 -44 -24 15 -10 75 44 181 30 60 65 119 77 132 12 13 18 23 13
23 -5 0 1 10 12 23 26 28 46 67 36 68 -4 0 -16 2 -25 4 -10 2 -20 -1 -23 -5
-3 -5 -13 -6 -22 -3 -11 4 -14 3 -9 -5 5 -8 2 -10 -9 -5 -13 4 -14 8 -4 14 8
4 10 11 7 15 -4 4 -3 14 2 24 6 12 5 23 -4 36 -16 21 -10 47 8 37 6 -4 5 1 -3
10 -7 10 -9 17 -3 17 6 0 9 11 8 24 -2 18 1 23 12 18 10 -3 13 -1 8 6 -4 7 -1
15 8 18 9 3 14 10 11 14 -7 11 5 41 14 35 4 -2 7 6 6 17 -1 12 -7 24 -13 26
-7 2 -12 9 -12 16 0 7 -9 21 -20 31 -11 10 -20 14 -20 10 0 -4 -11 4 -25 19
-14 15 -25 24 -25 20 0 -3 -7 -1 -15 6 -8 6 -20 8 -26 4 -8 -5 -9 -3 -5 5 6 8
2 11 -10 9 -11 -2 -18 2 -17 9 2 7 -3 10 -11 7 -8 -3 -24 5 -36 18 -12 13 -21
19 -20 13 5 -25 -2 -24 -24 2 -18 22 -23 37 -20 63 2 19 4 43 5 54 0 10 6 28
14 40 7 11 23 48 34 81 11 33 27 78 37 100 33 78 34 92 12 120 -14 18 -27 25
-40 22 -10 -3 -24 1 -32 8 -7 8 -16 11 -20 8 -3 -4 -6 -2 -6 4 0 15 -63 20
-125 10 -22 -3 -33 -4 -25 0 8 3 31 12 50 21 19 8 38 14 42 14 4 -1 4 6 1 15
-5 11 -3 14 6 8 10 -6 11 -3 2 13 -14 27 -14 35 2 26 6 -4 -1 8 -18 27 -16 18
-21 27 -10 19 11 -8 7 0 -9 17 -15 17 -25 36 -22 41 4 6 2 13 -4 17 -5 3 -10
1 -10 -6 0 -7 -3 -9 -6 -6 -4 4 -1 13 5 21 8 10 9 16 1 21 -6 3 -8 11 -5 16 4
5 2 9 -3 9 -12 0 -37 58 -29 67 4 3 2 14 -4 24 -11 22 3 31 50 33 84 5 226
-98 318 -231 40 -59 63 -83 77 -83 43 0 66 -13 88 -49 12 -20 45 -65 73 -101
95 -119 248 -354 296 -455 26 -55 52 -127 58 -159 6 -33 18 -67 26 -76 21 -23
20 -25 -30 -60 -55 -38 -89 -74 -76 -78 17 -6 191 159 198 186 3 13 21 43 39
67 18 24 40 58 50 77 13 25 -1 14 -60 -45 -42 -42 -83 -77 -91 -77 -9 0 -55
80 -119 208 -105 208 -161 306 -315 547 -45 71 -110 179 -144 239 -34 60 -92
153 -129 205 -42 59 -66 102 -62 113 2 9 0 19 -5 23 -7 4 -9 -1 -5 -12 5 -16
4 -16 -10 1 -18 22 -21 41 -6 31 6 -3 7 1 4 9 -3 9 -10 14 -14 11 -11 -7 -22
24 -13 37 3 6 1 8 -5 4 -7 -4 -10 4 -10 22 1 15 -7 42 -16 60 -20 38 -29 42
-16 6 15 -40 12 -42 -10 -6 -30 48 -32 39 -5 -22 13 -29 27 -70 30 -90 6 -30
4 -36 -10 -36 -25 0 -235 130 -315 195 -30 24 -86 97 -82 108 1 4 -3 7 -9 7
-5 0 -7 5 -4 10 3 6 2 10 -3 10 -9 0 -27 47 -24 63 1 4 -2 7 -7 7 -5 0 -12 11
-15 25 -7 27 -30 31 -79 13z m-22 -87 c3 -5 1 -12 -5 -16 -5 -3 -10 1 -10 9 0
18 6 21 15 7z m452 -411 c91 -42 193 -120 193 -146 0 -19 -42 -2 -135 56 -44
27 -101 61 -127 76 -26 15 -49 33 -53 42 -8 21 43 10 122 -28z m-60 -616 c-3
-3 -12 -4 -19 -1 -8 3 -5 6 6 6 11 1 17 -2 13 -5z m173 -494 c0 -5 -2 -10 -4
-10 -3 0 -8 5 -11 10 -3 6 -1 10 4 10 6 0 11 -4 11 -10z m225 -410 c3 -5 1
-10 -4 -10 -6 0 -11 5 -11 10 0 6 2 10 4 10 3 0 8 -4 11 -10z m336 -427 c45
-202 51 -253 28 -253 -29 0 -83 178 -83 276 -1 37 20 82 31 70 3 -2 13 -44 24
-93z m-341 13 c0 -2 -8 -10 -17 -17 -16 -13 -17 -12 -4 4 13 16 21 21 21 13z
m221 -505 c5 -59 16 -107 33 -142 28 -62 25 -76 -9 -37 -26 30 -45 121 -45
218 0 88 11 68 21 -39z m-38 -26 c4 -39 3 -50 -2 -30 -9 31 -14 102 -7 94 2
-2 6 -31 9 -64z m1325 -17 c9 -9 7 -14 -6 -24 -21 -16 -88 -18 -97 -3 -18 28
77 53 103 27z m-1497 -25 c13 -16 12 -17 -3 -4 -10 7 -18 15 -18 17 0 8 8 3
21 -13z m34 -43 c10 -11 16 -20 13 -20 -3 0 -13 9 -23 20 -10 11 -16 20 -13
20 3 0 13 -9 23 -20z m152 -2 c-3 -8 -6 -5 -6 6 -1 11 2 17 5 13 3 -3 4 -12 1
-19z m990 -4 c-3 -3 -12 -4 -19 -1 -8 3 -5 6 6 6 11 1 17 -2 13 -5z m-1102
-44 c10 -11 16 -20 13 -20 -3 0 -13 9 -23 20 -10 11 -16 20 -13 20 3 0 13 -9
23 -20z m144 -30 c11 -24 11 -24 -3 -6 -9 11 -16 24 -16 30 0 12 5 7 19 -24z
m-64 -60 c27 -27 47 -50 44 -50 -3 0 -27 23 -54 50 -27 28 -47 50 -44 50 3 0
27 -22 54 -50z m945 34 c0 -2 -7 -4 -15 -4 -8 0 -15 4 -15 10 0 5 7 7 15 4 8
-4 15 -8 15 -10z m-865 -104 c10 -11 16 -20 13 -20 -3 0 -13 9 -23 20 -10 11
-16 20 -13 20 3 0 13 -9 23 -20z m-625 -160 c0 -5 -4 -10 -10 -10 -5 0 -10 5
-10 10 0 6 5 10 10 10 6 0 10 -4 10 -10z m1205 -1668 c-3 -3 -11 0 -18 7 -9
10 -8 11 6 5 10 -3 15 -9 12 -12z"/>
<path d="M2976 5172 c-11 -14 -13 -22 -6 -17 10 6 12 1 7 -21 -4 -25 -4 -27 8
-11 11 16 13 16 19 1 9 -24 7 -42 -3 -25 -6 9 -8 5 -8 -13 0 -15 4 -29 10 -33
6 -3 7 -1 3 6 -4 6 0 14 8 17 9 3 13 10 10 15 -3 5 0 9 7 9 7 0 5 6 -6 14 -10
7 -16 20 -13 28 3 8 1 23 -6 35 -11 21 -11 21 -30 -5z"/>
<path d="M2908 5070 c-18 -13 -24 -26 -21 -40 3 -11 9 -17 14 -14 5 3 7 10 4
15 -4 5 -1 9 4 9 6 0 11 -6 11 -14 0 -7 8 -20 17 -27 14 -12 16 -12 8 0 -6 11
-4 13 7 8 12 -4 14 -1 11 14 -3 10 -12 19 -19 19 -8 0 -14 5 -14 11 0 5 5 7
11 3 6 -3 15 0 21 7 7 11 8 11 6 -3 -2 -9 0 -17 5 -17 4 -1 7 1 7 4 0 3 0 12
0 21 0 10 -6 14 -14 11 -7 -3 -18 -1 -23 4 -6 6 -19 2 -35 -11z m38 -2 c4 -7
4 -10 -1 -6 -4 4 -14 3 -22 -3 -8 -8 -13 -8 -13 -1 0 6 6 13 13 15 6 3 13 6
14 6 1 1 5 -5 9 -11z"/>
<path d="M3388 5023 c6 -2 18 -2 25 0 6 3 1 5 -13 5 -14 0 -19 -2 -12 -5z"/>
<path d="M3314 4975 c2 -19 -1 -35 -5 -35 -5 0 -9 -10 -9 -22 0 -17 3 -19 9
-10 7 11 9 11 14 -2 8 -20 47 -21 47 -2 0 8 12 24 27 35 14 12 24 22 22 24
-36 21 -90 47 -98 47 -5 0 -8 -16 -7 -35z"/>
<path d="M2280 4368 c0 -5 8 -8 18 -8 33 -1 97 -37 152 -87 30 -27 69 -55 85
-61 17 -7 54 -35 84 -62 62 -56 85 -59 28 -4 -20 20 -35 40 -32 44 3 4 -2 11
-11 14 -8 3 -13 10 -10 15 3 5 -6 9 -19 9 -14 0 -34 10 -45 22 -11 13 -26 20
-34 17 -10 -4 -13 -1 -10 7 3 8 -5 16 -20 20 -14 3 -26 12 -26 19 0 7 -9 13
-20 14 -11 1 -26 8 -35 15 -9 7 -21 18 -28 23 -14 12 -77 14 -77 3z"/>
<path d="M2670 4146 c0 -22 29 -41 42 -28 9 9 9 12 -1 12 -7 0 -10 4 -7 9 3 5
-1 12 -10 15 -22 8 -24 8 -24 -8z"/>
<path d="M1986 4054 c-26 -30 -60 -69 -75 -87 l-26 -31 36 27 c29 22 129 147
117 147 -2 0 -25 -25 -52 -56z"/>
<path d="M2748 4053 c7 -3 16 -2 19 1 4 3 -2 6 -13 5 -11 0 -14 -3 -6 -6z"/>
<path d="M2838 3393 l-37 -38 24 -140 c28 -170 34 -210 35 -255 l2 -35 19 41
c20 45 38 161 23 151 -5 -3 -10 3 -10 13 0 10 3 17 7 14 11 -7 17 69 9 131 -4
33 -8 53 -10 45 -1 -8 -2 -18 -1 -22 2 -17 -16 -6 -25 15 -6 12 -9 16 -7 9 1
-7 -2 -10 -7 -7 -6 3 -10 15 -10 26 0 11 -4 17 -10 14 -21 -13 -9 20 17 47 15
15 25 28 22 28 -3 0 -21 -17 -41 -37z m59 -225 c-3 -7 -5 -2 -5 12 0 14 2 19
5 13 2 -7 2 -19 0 -25z"/>
<path d="M3612 3110 c0 -14 2 -19 5 -12 2 6 2 18 0 25 -3 6 -5 1 -5 -13z"/>
<path d="M3601 3068 c-2 -30 -65 -91 -149 -143 -89 -55 -106 -77 -123 -156 -6
-30 -16 -60 -22 -67 -7 -9 -6 -11 6 -6 8 3 28 23 43 45 51 74 95 105 167 119
l67 14 0 43 c0 24 5 64 11 88 6 23 9 51 6 61 -4 17 -5 17 -6 2z"/>
<path d="M3978 2974 c-53 -16 -63 -26 -20 -19 15 2 53 7 85 10 31 4 57 11 57
16 0 13 -68 10 -122 -7z"/>
<path d="M3710 2900 c-8 -5 -10 -10 -5 -10 6 0 17 5 25 10 8 5 11 10 5 10 -5
0 -17 -5 -25 -10z"/>
<path d="M2598 2483 c-10 -2 -18 -8 -18 -13 0 -4 9 -6 20 -3 11 3 20 9 20 14
0 5 -1 8 -2 8 -2 -1 -11 -3 -20 -6z"/>
<path d="M2308 2333 c7 -3 16 -2 19 1 4 3 -2 6 -13 5 -11 0 -14 -3 -6 -6z"/>
<path d="M2030 2019 c0 -5 5 -7 10 -4 6 3 10 8 10 11 0 2 -4 4 -10 4 -5 0 -10
-5 -10 -11z"/>
<path d="M2045 1990 c-11 -18 -2 -78 12 -73 7 3 13 0 13 -6 0 -7 8 -8 24 -1
17 6 26 5 30 -3 2 -7 5 -2 5 11 1 13 -3 20 -9 17 -5 -3 -10 0 -10 7 0 7 -10
19 -21 27 -20 12 -21 11 -15 -6 6 -17 5 -17 -9 1 -8 10 -12 23 -9 27 3 5 3 9
0 9 -3 0 -7 -4 -11 -10z"/>
<path d="M2851 1268 l-43 -31 6 -71 c18 -203 19 -361 3 -432 -17 -75 -81 -222
-103 -239 -8 -6 -31 -105 -54 -225 -22 -118 -42 -227 -46 -243 l-6 -27 287 0
c268 0 286 1 281 18 -2 9 -19 87 -36 172 -58 288 -93 435 -105 445 -13 10 -91
333 -82 341 2 3 8 -11 11 -32 4 -20 10 -34 12 -31 6 5 -62 340 -74 369 -6 14
-12 13 -51 -14z m86 -210 c-3 -8 -6 -5 -6 6 -1 11 2 17 5 13 3 -3 4 -12 1 -19z
m10 -60 c-3 -7 -5 -2 -5 12 0 14 2 19 5 13 2 -7 2 -19 0 -25z"/>
<path d="M2981 884 c0 -11 3 -14 6 -6 3 7 2 16 -1 19 -3 4 -6 -2 -5 -13z"/>
<path d="M1885 470 c-3 -5 -1 -10 4 -10 6 0 11 5 11 10 0 6 -2 10 -4 10 -3 0
-8 -4 -11 -10z"/>
<path d="M1870 445 c0 -5 5 -17 10 -25 5 -8 10 -10 10 -5 0 6 -5 17 -10 25 -5
8 -10 11 -10 5z"/>
<path d="M1855 161 c-3 -5 -2 -12 3 -15 5 -3 9 1 9 9 0 17 -3 19 -12 6z"/>
<path d="M1830 93 c0 -6 8 -17 18 -24 16 -13 16 -13 2 6 -8 11 -16 22 -17 24
-2 2 -3 0 -3 -6z"/>
</g>
</svg>
